<?xml version="1.0" standalone="no"?>
<!DOCTYPE svg PUBLIC "-//W3C//DTD SVG 1.1//EN" "http://www.w3.org/Graphics/SVG/1.1/DTD/svg11.dtd" >
<svg xmlns="http://www.w3.org/2000/svg" xmlns:xlink="http://www.w3.org/1999/xlink" version="1.1">
<metadata>
Created by FontForge 20170731 at Wed Feb 15 11:31:53 2023
 By Aleksey,,,
Copyright (c) Mark Simonson, 2005. All rights reserved.
</metadata>
<defs>
<font id="ProximaNovaCond-Thin" horiz-adv-x="940" >
  <font-face 
    font-family="Proxima Nova Cn Th"
    font-weight="250"
    font-stretch="normal"
    units-per-em="2048"
    panose-1="2 0 5 6 3 0 0 2 0 4"
    ascent="1618"
    descent="-430"
    x-height="989"
    cap-height="1366"
    bbox="-279 -528 1839 1825"
    underline-thickness="40"
    underline-position="-312"
    unicode-range="U+000D-FB04"
  />
<missing-glyph horiz-adv-x="1046" 
d="M883 -184h-719v1724h719v-1724zM817 -123v1602h-590v-1602h590z" />
    <glyph glyph-name="f_f_j" unicode="ffj" horiz-adv-x="1288" 
d="M702 0h-61v934h-133v55h133v162q0 108 55 171.5t146 63.5q54 0 96 -26l-29 -49q-30 20 -67 20q-67 0 -103.5 -47.5t-36.5 -132.5v-162h172v-55h-172v-934zM1104 1159q-24 0 -42 18t-18 42t18 41.5t42 17.5q25 0 42 -17t17 -42t-17 -42.5t-42 -17.5zM946 -401
q-96 0 -153 77l47 39q43 -61 106 -61q127 0 127 170v1165h62v-1165q0 -225 -189 -225zM244 0h-62v934h-133v55h133v162q0 109 55 172t150 63q84 0 141 -57l-39 -49q-42 51 -102 51q-71 0 -107 -47t-36 -133v-162h172v-55h-172v-934z" />
    <glyph glyph-name="f_j" unicode="fj" horiz-adv-x="829" 
d="M244 0h-62v934h-133v55h133v162q0 108 55 171.5t146 63.5q54 0 96 -26l-28 -49q-30 20 -68 20q-67 0 -103 -47.5t-36 -132.5v-162h172v-55h-172v-934zM645 1159q-23 0 -41 17.5t-18 42.5q0 24 17.5 41.5t41.5 17.5q25 0 42.5 -17t17.5 -42t-17.5 -42.5t-42.5 -17.5z
M487 -401q-96 0 -153 77l47 39q43 -61 106 -61q127 0 127 170v1165h62v-1165q0 -225 -189 -225z" />
    <glyph glyph-name="f_f" unicode="ff" horiz-adv-x="917" 
d="M244 0h-62v934h-133v55h133v162q0 109 55 172t150 63q84 0 141 -57l-39 -49q-42 51 -102 51q-71 0 -107 -47t-36 -133v-162h172v-55h-172v-934zM702 0h-61v934h-133v55h133v162q0 109 55 172t150 63q84 0 141 -57l-39 -49q-42 51 -102 51q-71 0 -107.5 -47t-36.5 -133
v-162h172v-55h-172v-934z" />
    <glyph glyph-name="fi" unicode="fi" horiz-adv-x="829" 
d="M244 0h-62v934h-133v55h133v162q0 108 55 171.5t146 63.5q54 0 96 -26l-28 -49q-30 20 -68 20q-67 0 -103 -47.5t-36 -132.5v-162h172v-55h-172v-934zM645 1159q-23 0 -41 17.5t-18 42.5q0 24 17.5 41.5t41.5 17.5q25 0 42.5 -17t17.5 -42t-17.5 -42.5t-42.5 -17.5z
M676 0h-62v989h62v-989z" />
    <glyph glyph-name="fl" unicode="fl" horiz-adv-x="829" 
d="M244 0h-62v934h-133v55h133v162q0 108 55 171.5t146 63.5q54 0 96 -26l-28 -49q-30 20 -68 20q-67 0 -103 -47.5t-36 -132.5v-162h172v-55h-172v-934zM676 0h-62v1366h62v-1366z" />
    <glyph glyph-name="f_f_i" unicode="ffi" horiz-adv-x="1288" 
d="M702 0h-61v934h-133v55h133v162q0 108 55 171.5t146 63.5q54 0 96 -26l-29 -49q-30 20 -67 20q-67 0 -103.5 -47.5t-36.5 -132.5v-162h172v-55h-172v-934zM1104 1159q-24 0 -42 18t-18 42t18 41.5t42 17.5q25 0 42 -17t17 -42t-17 -42.5t-42 -17.5zM1135 0h-62v989h62
v-989zM244 0h-62v934h-133v55h133v162q0 109 55 172t150 63q84 0 141 -57l-39 -49q-42 51 -102 51q-71 0 -107 -47t-36 -133v-162h172v-55h-172v-934z" />
    <glyph glyph-name="f_f_l" unicode="ffl" horiz-adv-x="1288" 
d="M702 0h-61v934h-133v55h133v162q0 108 55 171.5t146 63.5q54 0 96 -26l-29 -49q-30 20 -67 20q-67 0 -103.5 -47.5t-36.5 -132.5v-162h172v-55h-172v-934zM1135 0h-62v1366h62v-1366zM244 0h-62v934h-133v55h133v162q0 109 55 172t150 63q84 0 141 -57l-39 -49
q-42 51 -102 51q-71 0 -107 -47t-36 -133v-162h172v-55h-172v-934z" />
    <glyph glyph-name="f_b" unicode="fb" horiz-adv-x="1398" 
d="M244 0h-62v934h-133v55h133v162q0 108 55 171.5t146 63.5q54 0 96 -26l-28 -49q-30 20 -68 20q-67 0 -103 -47.5t-36 -132.5v-162h172v-55h-172v-934zM676 231q34 -82 109 -141t159 -59q93 0 157 65.5t92 167t28 230.5q0 130 -28 232t-92 167t-157 65q-84 0 -159 -60.5
t-109 -143.5v-523zM676 0h-62v1366h62v-535q44 87 115.5 135t152.5 48q163 0 253.5 -144t90.5 -376t-90.5 -375.5t-253.5 -143.5q-81 0 -154 51t-114 130v-156z" />
    <glyph glyph-name="f_h" unicode="fh" horiz-adv-x="1349" 
d="M244 0h-62v934h-133v55h133v162q0 108 55 171.5t146 63.5q54 0 96 -26l-28 -49q-30 20 -68 20q-67 0 -103 -47.5t-36 -132.5v-162h172v-55h-172v-934zM1196 0h-61v752q0 111 -47 158.5t-136 47.5q-81 0 -157.5 -55t-118.5 -133v-770h-62v1366h62v-528q47 73 125.5 124.5
t159.5 51.5q119 0 177 -61.5t58 -200.5v-752z" />
    <glyph glyph-name="f_k" unicode="fk" horiz-adv-x="1300" 
d="M244 0h-62v934h-133v55h133v162q0 108 55 171.5t146 63.5q54 0 96 -26l-28 -49q-30 20 -68 20q-67 0 -103 -47.5t-36 -132.5v-162h172v-55h-172v-934zM1249 0h-75l-328 498l-170 -207v-291h-62v1366h62v-989l506 612h75l-372 -446z" />
    <glyph glyph-name=".notdef" horiz-adv-x="1046" 
d="M883 -184h-719v1724h719v-1724zM817 -123v1602h-590v-1602h590z" />
    <glyph glyph-name=".null" horiz-adv-x="0" 
 />
    <glyph glyph-name=".null" horiz-adv-x="0" 
 />
    <glyph glyph-name="nonmarkingreturn" horiz-adv-x="682" 
 />
    <glyph glyph-name="CR" unicode="&#xd;" horiz-adv-x="0" 
 />
    <glyph glyph-name="space" unicode=" " horiz-adv-x="450" 
 />
    <glyph glyph-name="exclam" unicode="!" horiz-adv-x="425" 
d="M233 330h-40l-23 1036h86zM213 -18q-28 0 -48 19.5t-20 47.5q0 26 20 46t48 20t48 -20t20 -46q0 -28 -20 -47.5t-48 -19.5z" />
    <glyph glyph-name="quotedbl" unicode="&#x22;" horiz-adv-x="593" 
d="M203 907h-45q-31 403 -31 426q0 22 15.5 37.5t37.5 15.5q23 0 38 -15.5t15 -37.5zM436 907h-45q-31 403 -31 426q0 22 15.5 37.5t38.5 15.5t38 -15.5t15 -37.5z" />
    <glyph glyph-name="numbersign" unicode="#" horiz-adv-x="985" 
d="M469 0h-68l115 391h-209l-110 -391h-68l113 391h-197l16 60h197l133 464h-198l12 60h203l108 391h68l-109 -391h205l111 391h65l-111 -391h195l-12 -60h-199l-133 -464h203l-15 -60h-204zM528 451l136 464h-207l-131 -464h202z" />
    <glyph glyph-name="dollar" unicode="$" horiz-adv-x="901" 
d="M436 -205v180q-111 1 -202.5 46t-151.5 122l51 50q49 -67 128.5 -111t174.5 -45v653q-44 23 -68 36t-62.5 37t-60 43t-48.5 48.5t-40.5 59t-23.5 68.5t-10 83q0 139 90.5 225.5t222.5 95.5v187h66v-187q177 -12 282 -135l-45 -49q-89 110 -237 123v-592
q56 -30 93.5 -53.5t82.5 -61t71.5 -77t45 -95.5t18.5 -122q0 -61 -18 -117t-54 -104.5t-97.5 -81.5t-141.5 -41v-185h-66zM745 324q0 63 -18.5 114.5t-56 91t-75 67t-93.5 58.5v-614q121 16 182 96t61 187zM190 1065q0 -55 18.5 -99.5t57 -80.5t75 -60.5t95.5 -56.5v557
q-105 -9 -175.5 -80.5t-70.5 -179.5z" />
    <glyph glyph-name="percent" unicode="%" horiz-adv-x="1294" 
d="M346 719q-120 0 -196 94t-76 238q0 146 75.5 240.5t196.5 94.5q122 0 197 -94.5t75 -240.5q0 -144 -75 -238t-197 -94zM330 0h-70l713 1366h71zM948 -25q-120 0 -196 94t-76 238q0 146 76 241t196 95q121 0 197 -95t76 -241q0 -144 -76.5 -238t-196.5 -94zM346 774
q92 0 148.5 81t56.5 196q0 118 -56 199t-149 81q-91 0 -148 -81.5t-57 -198.5q0 -114 57 -195.5t148 -81.5zM948 31q92 0 148.5 80.5t56.5 195.5q0 118 -56.5 199.5t-148.5 81.5t-148.5 -81.5t-56.5 -199.5q0 -115 56.5 -195.5t148.5 -80.5z" />
    <glyph glyph-name="ampersand" unicode="&#x26;" horiz-adv-x="1019" 
d="M958 0h-94q-58 70 -141 176q-131 -201 -315 -201q-135 0 -223.5 94.5t-88.5 258.5q0 77 19 142t56.5 116.5t74.5 88t92 79.5q-96 190 -96 315q0 142 66.5 229.5t172.5 87.5q93 0 151 -66t58 -179q0 -55 -15.5 -104.5t-35 -84t-59 -74.5t-65.5 -62t-77 -61l-6 -4.5
t-5.5 -4.5t-6.5 -5q63 -121 141 -233q71 -109 150 -211q77 153 120 344l64 -23q-63 -237 -137 -380q75 -94 200 -238zM406 37q152 0 272 196q-111 144 -166 230q-94 140 -145 235q-94 -78 -146.5 -163t-52.5 -207q0 -140 68.5 -215.5t169.5 -75.5zM313 1069q0 -109 78 -272
q46 35 72 56t61 56.5t53.5 66.5t32 74t13.5 91q0 91 -40 137.5t-102 46.5q-76 0 -122 -66.5t-46 -189.5z" />
    <glyph glyph-name="quotesingle" unicode="'" horiz-adv-x="360" 
d="M203 907h-45q-31 403 -31 426q0 22 15.5 37.5t37.5 15.5q23 0 38 -15.5t15 -37.5z" />
    <glyph glyph-name="parenleft" unicode="(" horiz-adv-x="382" 
d="M348 -389l-35 -19q-217 423 -217 906q0 482 217 905l35 -17q-90 -228 -135 -429t-45 -459q0 -257 45 -459.5t135 -427.5z" />
    <glyph glyph-name="parenright" unicode=")" horiz-adv-x="382" 
d="M70 -408l-35 19q90 225 135 427.5t45 459.5q0 258 -45 459t-135 429l35 17q217 -423 217 -905q0 -483 -217 -906z" />
    <glyph glyph-name="asterisk" unicode="*" horiz-adv-x="632" 
d="M348 838h-61l12 243l-205 -133l-31 53l218 111l-218 111l31 53l205 -133l-12 243h61l-12 -243l205 133l30 -53l-217 -111l217 -111l-30 -53l-205 133z" />
    <glyph glyph-name="plus" unicode="+" horiz-adv-x="888" 
d="M829 659h-352v-393h-65v393h-353v62h353v381h65v-381h352v-62z" />
    <glyph glyph-name="comma" unicode="," horiz-adv-x="425" 
d="M291 6q0 -73 -37.5 -142t-89.5 -106l-45 37q49 36 78.5 89t29.5 100q-12 -2 -16 -2q-29 0 -47.5 19.5t-18.5 47.5q0 27 18.5 46.5t47.5 19.5q34 0 57 -29t23 -80z" />
    <glyph glyph-name="hyphen" unicode="-" horiz-adv-x="542" 
d="M481 465h-420v61h420v-61z" />
    <glyph glyph-name="period" unicode="." horiz-adv-x="425" 
d="M213 -18q-28 0 -48 19.5t-20 47.5q0 26 20 46t48 20t48 -20t20 -46q0 -28 -20 -47.5t-48 -19.5z" />
    <glyph glyph-name="slash" unicode="/" horiz-adv-x="456" 
d="M63 -41h-63l393 1448h64z" />
    <glyph glyph-name="zero" unicode="0" horiz-adv-x="1005" 
d="M504 -25q-87 0 -155 44.5t-110 115t-69.5 166.5t-38 189t-10.5 192t10.5 192.5t38 188.5t69.5 165t110 114t155 44t155 -44t109.5 -114t68.5 -165.5t37.5 -188.5t10.5 -192t-10 -192t-37 -189t-68.5 -166.5t-110 -115t-155.5 -44.5zM504 37q73 0 129.5 41.5t89.5 106
t54 153.5t28.5 171.5t7.5 172.5t-7.5 173t-28.5 171t-54 152t-89.5 105.5t-129.5 41.5q-61 0 -111 -28t-83 -78.5t-56.5 -112t-36.5 -136.5t-18.5 -144.5t-5.5 -143.5q0 -90 7.5 -172.5t28.5 -171.5t54.5 -153.5t90 -106t130.5 -41.5z" />
    <glyph glyph-name="one" unicode="1" horiz-adv-x="532" 
d="M369 0h-66v1272l-215 -236l-45 47l264 283h62v-1366z" />
    <glyph glyph-name="two" unicode="2" horiz-adv-x="948" 
d="M795 0h-672v57q59 80 139.5 185.5t124.5 163.5t101 136t86.5 124t63 104t49 100.5t26 89t10.5 91.5q0 128 -75 201t-179 73q-196 0 -287 -186l-57 35q115 212 344 212q132 0 228 -89t96 -246q0 -41 -6.5 -81t-24.5 -86.5t-34.5 -84.5t-54 -96.5t-64 -99t-82 -116
t-91.5 -123t-110.5 -145t-120.5 -158.5h590v-61z" />
    <glyph glyph-name="three" unicode="3" horiz-adv-x="899" 
d="M426 -25q-122 0 -214 66.5t-138 167.5l61 29q98 -201 291 -201q138 0 210.5 86.5t72.5 241.5q0 69 -17 123.5t-45.5 89t-67.5 57.5t-80 32t-87 9q-77 0 -93 -2v65q18 -2 93 -2q120 0 200 74t80 215q0 145 -73 222t-191 77q-94 0 -159 -46.5t-122 -137.5l-57 35
q52 96 141 153t197 57q92 0 166 -37.5t121 -120t47 -198.5q0 -126 -69.5 -211.5t-162.5 -111.5q41 -6 83 -32t79.5 -67.5t61.5 -106t24 -139.5q0 -172 -90 -279.5t-262 -107.5z" />
    <glyph glyph-name="four" unicode="4" horiz-adv-x="854" 
d="M643 0h-65v399h-527v68l506 899h86v-905h160v-62h-160v-399zM578 461v817l-459 -817h459z" />
    <glyph glyph-name="five" unicode="5" horiz-adv-x="944" 
d="M483 -25q-70 0 -125.5 16.5t-97 49.5t-71.5 72.5t-58 95.5l59 31q48 -102 117 -152.5t176 -50.5q121 0 199 108.5t78 260.5q0 180 -73 276t-195 96q-78 0 -141.5 -32t-125.5 -109l-55 33v696h592v-61h-526v-588q43 55 109 89t147 34q146 0 241.5 -113.5t95.5 -320.5
q0 -182 -100 -306.5t-246 -124.5z" />
    <glyph glyph-name="six" unicode="6" horiz-adv-x="950" 
d="M494 -25q-72 0 -130 28t-98 78.5t-69 116t-45 147t-23.5 163.5t-7.5 174q0 106 10.5 201t38 189.5t70 162t112 109.5t158.5 42q199 0 293 -190l-53 -37q-40 81 -96 123.5t-144 42.5q-75 0 -133 -41.5t-92.5 -106.5t-56.5 -155.5t-30 -177.5t-8 -182v-56q39 87 123 156
t189 69q152 0 245 -110t93 -320q0 -79 -21 -152.5t-61.5 -136t-109 -100t-154.5 -37.5zM494 37q57 0 104 21.5t78.5 57t53 83t31 98.5t9.5 104q0 190 -72.5 279.5t-197.5 89.5q-97 0 -177.5 -77t-125.5 -189q3 -59 12.5 -116.5t31.5 -123t53 -114t83 -81t117 -32.5z" />
    <glyph glyph-name="seven" unicode="7" horiz-adv-x="786" 
d="M276 0h-69l444 1305h-590v61h664v-45z" />
    <glyph glyph-name="eight" unicode="8" horiz-adv-x="931" 
d="M467 -25q-159 0 -254.5 97t-95.5 256q0 91 44.5 171.5t105.5 130t130 75.5q-47 18 -91.5 48t-84 72t-63 100t-23.5 122q0 82 27 148t73.5 107t106 62.5t125.5 21.5t124.5 -21.5t105 -62.5t73.5 -107t27 -148q0 -64 -23.5 -122t-63 -100t-83 -72t-90.5 -48
q109 -42 193.5 -143t84.5 -234q0 -157 -96 -255t-252 -98zM467 735q21 5 48 17t66.5 38t71 59t54 85.5t22.5 112.5q0 127 -72.5 202.5t-189.5 75.5q-118 0 -190 -75t-72 -203q0 -60 22.5 -112.5t54 -85.5t71 -59t66.5 -38t48 -17zM467 37q117 0 197.5 79t80.5 212
q0 64 -23.5 122t-58 96.5t-74.5 68.5t-71.5 44t-50.5 17q-20 -3 -52 -17t-72.5 -44t-75 -68.5t-58 -96.5t-23.5 -122q0 -134 80.5 -212.5t200.5 -78.5z" />
    <glyph glyph-name="nine" unicode="9" horiz-adv-x="950" 
d="M440 -23q-198 0 -293 191l54 37q40 -81 95.5 -123.5t143.5 -42.5q75 0 133 41.5t92.5 106.5t56.5 155.5t30 177.5t8 182v58q-40 -88 -123.5 -158t-187.5 -70q-151 0 -244.5 110.5t-93.5 320.5q0 79 21 152.5t61.5 136t109 100t154.5 37.5t152 -40.5t107 -107t67 -160.5
t36 -190.5t10 -208.5q0 -87 -7.5 -167t-24.5 -162t-47 -148t-71.5 -118t-102.5 -81t-136 -29zM451 594q96 0 177 77.5t126 188.5q-3 59 -12.5 116.5t-31.5 123t-53 114t-83 81t-117 32.5q-71 0 -126 -32t-87 -85.5t-48 -116t-16 -130.5q0 -190 73 -279.5t198 -89.5z" />
    <glyph glyph-name="colon" unicode=":" horiz-adv-x="425" 
d="M213 870q-28 0 -48 20t-20 46q0 28 20 48t48 20t48 -20t20 -48q0 -26 -20 -46t-48 -20zM213 -18q-28 0 -48 19.5t-20 47.5q0 26 20 46t48 20t48 -20t20 -46q0 -28 -20 -47.5t-48 -19.5z" />
    <glyph glyph-name="semicolon" unicode=";" horiz-adv-x="425" 
d="M213 870q-28 0 -48 20t-20 46q0 28 20 48t48 20t48 -20t20 -48q0 -26 -20 -46t-48 -20zM291 6q0 -73 -37.5 -142t-89.5 -106l-45 37q49 36 78.5 89t29.5 100q-12 -2 -16 -2q-29 0 -47.5 19.5t-18.5 47.5q0 27 18.5 46.5t47.5 19.5q34 0 57 -29t23 -80z" />
    <glyph glyph-name="less" unicode="&#x3c;" horiz-adv-x="888" 
d="M829 262l-770 402v43l770 403v-74l-686 -352l686 -348v-74z" />
    <glyph glyph-name="equal" unicode="=" horiz-adv-x="888" 
d="M829 856h-770v62h770v-62zM829 451h-770v61h770v-61z" />
    <glyph glyph-name="greater" unicode="&#x3e;" horiz-adv-x="888" 
d="M829 664l-770 -402v74l686 348l-686 352v74l770 -403v-43z" />
    <glyph glyph-name="question" unicode="?" horiz-adv-x="788" 
d="M383 346q-74 68 -74 160q0 54 18.5 101.5t48 82.5t65.5 68.5t72 67.5t65.5 70.5t48 86.5t18.5 107q0 95 -68 166t-182 71q-94 0 -156.5 -33.5t-119.5 -103.5l-43 47q116 152 319 152q139 0 228.5 -88t89.5 -211q0 -62 -19 -116.5t-48.5 -94t-66 -75.5t-73 -69t-66 -66
t-48.5 -75t-19 -88q0 -31 15.5 -63t41.5 -54zM387 -18q-28 0 -48 19.5t-20 47.5q0 26 20 46t48 20t48 -20t20 -46q0 -28 -20 -47.5t-48 -19.5z" />
    <glyph glyph-name="at" unicode="@" horiz-adv-x="1384" 
d="M623 -143q-156 0 -281.5 77.5t-197.5 218t-72 318.5q0 162 60 316.5t159 268.5t233 183.5t275 69.5q230 0 372 -163t142 -425q0 -241 -88.5 -394t-202.5 -153q-71 0 -112.5 47.5t-41.5 116.5v12q-50 -75 -123 -125.5t-157 -50.5q-107 0 -176.5 73.5t-69.5 211.5
q0 142 58 272.5t158.5 211.5t213.5 81q79 0 132 -47.5t75 -120.5l27 131h61l-129 -606q-4 -24 -4 -41q0 -111 86 -111q30 0 68 29t76 84.5t63.5 155.5t25.5 223q0 239 -127 382.5t-329 143.5q-130 0 -252.5 -66.5t-211.5 -173.5t-142.5 -248.5t-53.5 -285.5
q0 -248 139.5 -402.5t354.5 -154.5q169 0 323 117l31 -47q-167 -129 -362 -129zM588 229q157 0 299 211l76 348q-18 73 -66 127t-125 54q-101 0 -186.5 -81t-130.5 -197t-45 -232q0 -105 46 -167.5t132 -62.5z" />
    <glyph glyph-name="A" unicode="A" horiz-adv-x="970" 
d="M938 0h-72l-108 367h-543l-109 -367h-71l411 1366h78zM739 428l-254 852l-254 -852h508z" />
    <glyph glyph-name="B" unicode="B" horiz-adv-x="983" 
d="M528 0h-364v1366h356q144 0 232 -91.5t88 -256.5q0 -123 -56.5 -204t-144.5 -109q94 -15 158.5 -115t64.5 -221q0 -175 -87.5 -272t-246.5 -97zM520 733q124 0 186 79t62 206q0 126 -62 206.5t-186 80.5h-291v-572h291zM528 61q129 0 196 81.5t67 224.5q0 82 -27 149
t-88 111.5t-148 44.5h-299v-611h299z" />
    <glyph glyph-name="C" unicode="C" horiz-adv-x="1048" 
d="M610 -25q-146 0 -258.5 92.5t-171.5 253t-59 361.5q0 203 59 363t171 252t259 92q219 0 355 -213l-58 -35q-107 186 -297 186q-124 0 -219.5 -83.5t-146.5 -229.5t-51 -332q0 -184 51 -330.5t146.5 -230.5t219.5 -84q99 0 175 55.5t126 151.5l58 -33q-135 -236 -359 -236
z" />
    <glyph glyph-name="D" unicode="D" horiz-adv-x="1095" 
d="M463 0h-299v1366h299q98 0 181 -34.5t143.5 -96.5t103 -147.5t63.5 -188t21 -217.5q0 -195 -57.5 -347.5t-175 -243.5t-279.5 -91zM463 61q143 0 244 84t148.5 222t47.5 315q0 175 -47.5 313.5t-148.5 224t-244 85.5h-234v-1244h234z" />
    <glyph glyph-name="E" unicode="E" horiz-adv-x="909" 
d="M797 0h-633v1366h633v-61h-568v-572h553v-61h-553v-611h568v-61z" />
    <glyph glyph-name="F" unicode="F" horiz-adv-x="884" 
d="M229 0h-65v1366h633v-61h-568v-572h553v-61h-553v-672z" />
    <glyph glyph-name="G" unicode="G" horiz-adv-x="1110" 
d="M610 -27q-145 0 -256.5 89.5t-172 251t-60.5 368.5q0 316 135 511.5t354 195.5q222 0 367 -211l-53 -35q-115 184 -314 184q-124 0 -220 -84.5t-146.5 -230.5t-50.5 -330q0 -182 50.5 -328.5t146.5 -231.5t220 -85q97 0 175.5 41t125.5 102v414h-385v61h451v-495
q-65 -88 -161 -137.5t-206 -49.5z" />
    <glyph glyph-name="H" unicode="H" horiz-adv-x="1116" 
d="M952 0h-65v672h-658v-672h-65v1366h65v-633h658v633h65v-1366z" />
    <glyph glyph-name="I" unicode="I" horiz-adv-x="393" 
d="M229 0h-65v1366h65v-1366z" />
    <glyph glyph-name="J" unicode="J" horiz-adv-x="782" 
d="M301 -25q-88 0 -154.5 35t-123.5 111l53 47q90 -131 225 -131q119 0 185.5 72.5t66.5 203.5v1053h65v-1053q0 -166 -88 -252t-229 -86z" />
    <glyph glyph-name="K" unicode="K" horiz-adv-x="966" 
d="M915 0h-84l-471 664l-131 -181v-483h-65v1366h65v-782l559 782h84l-475 -653z" />
    <glyph glyph-name="L" unicode="L" horiz-adv-x="825" 
d="M756 0h-592v1366h65v-1305h527v-61z" />
    <glyph glyph-name="M" unicode="M" horiz-adv-x="1308" 
d="M1145 0h-66v1268l-409 -1268h-29l-412 1268v-1268h-65v1366h106l385 -1182l385 1182h105v-1366z" />
    <glyph glyph-name="N" unicode="N" horiz-adv-x="1112" 
d="M948 0h-65l-654 1219v-1219h-65v1366h65l654 -1206v1206h65v-1366z" />
    <glyph glyph-name="O" unicode="O" horiz-adv-x="1187" 
d="M594 -25q-113 0 -204.5 56t-149.5 153t-88.5 224t-30.5 274t30.5 274t88.5 224t149.5 153t204.5 56t204.5 -56t149.5 -153t88.5 -224t30.5 -274t-30.5 -274t-88.5 -224t-149.5 -153t-204.5 -56zM594 37q126 0 218.5 88t137.5 232.5t45 324.5q0 182 -45 326t-137.5 231.5
t-218.5 87.5t-218.5 -87.5t-137.5 -231.5t-45 -326q0 -180 45 -324.5t137.5 -232.5t218.5 -88z" />
    <glyph glyph-name="P" unicode="P" horiz-adv-x="917" 
d="M229 0h-65v1366h340q160 0 249 -111t89 -276t-89.5 -276t-248.5 -111h-275v-592zM502 653q126 0 197 90.5t71 235.5t-71 235.5t-197 90.5h-273v-652h273z" />
    <glyph glyph-name="Q" unicode="Q" horiz-adv-x="1187" 
d="M594 -25q-113 0 -204.5 56t-149.5 153t-88.5 224t-30.5 274t30.5 274t88.5 224t149.5 153t204.5 56t204.5 -56t149.5 -153t88.5 -224t30.5 -274q0 -175 -43 -322.5t-125 -242.5l94 -142l-51 -34l-88 131q-111 -97 -260 -97zM594 37q128 0 221 90l-180 270l53 37l170 -258
q67 88 102 219.5t35 286.5q0 182 -45 326t-137.5 231.5t-218.5 87.5t-218.5 -87.5t-137.5 -231.5t-45 -326q0 -180 45 -324.5t137.5 -232.5t218.5 -88z" />
    <glyph glyph-name="R" unicode="R" horiz-adv-x="968" 
d="M858 0h-80l-309 592h-240v-592h-65v1366h338q150 0 245 -102.5t95 -284.5q0 -177 -87 -275t-214 -108zM502 653q126 0 197 90.5t71 235.5t-71 235.5t-197 90.5h-273v-652h273z" />
    <glyph glyph-name="S" unicode="S" horiz-adv-x="915" 
d="M442 -25q-112 0 -205 45t-155 123l51 50q51 -68 132 -112t177 -44q78 0 137.5 24t95 65.5t53 91.5t17.5 106q0 66 -21.5 120t-57.5 91.5t-82.5 70t-98 59t-103 53.5t-98 60t-82.5 71.5t-57.5 93.5t-21.5 122q0 148 100 236t242 88q203 0 319 -138l-45 -49
q-102 125 -274 125q-115 0 -195 -73t-80 -189q0 -71 34.5 -127t89.5 -94.5t121 -73.5t132.5 -74t121.5 -86t89.5 -120t34.5 -166q0 -66 -21 -126t-64 -111t-116.5 -81.5t-169.5 -30.5z" />
    <glyph glyph-name="T" unicode="T" horiz-adv-x="866" 
d="M465 0h-66v1305h-342v61h752v-61h-344v-1305z" />
    <glyph glyph-name="U" unicode="U" horiz-adv-x="1093" 
d="M547 -25q-185 0 -284 114t-99 329v948h65v-948q0 -189 82.5 -285t235.5 -96t235 96t82 285v948h66v-948q0 -216 -98.5 -329.5t-284.5 -113.5z" />
    <glyph glyph-name="V" unicode="V" horiz-adv-x="970" 
d="M524 0h-78l-411 1366h71l379 -1280l381 1280h72z" />
    <glyph glyph-name="W" unicode="W" horiz-adv-x="1374" 
d="M1028 0h-78l-262 1223l-262 -1223h-78l-297 1366h72l264 -1251l266 1251h70l266 -1251l264 1251h72z" />
    <glyph glyph-name="X" unicode="X" horiz-adv-x="968" 
d="M936 0h-80l-371 635l-370 -635h-80l414 696l-392 670h82l346 -604l346 604h82l-391 -668z" />
    <glyph glyph-name="Y" unicode="Y" horiz-adv-x="954" 
d="M510 0h-66v592l-419 774h77l375 -700l377 700h78l-422 -774v-592z" />
    <glyph glyph-name="Z" unicode="Z" horiz-adv-x="909" 
d="M817 0h-725v63l639 1242h-639v61h711v-61l-641 -1244h655v-61z" />
    <glyph glyph-name="bracketleft" unicode="[" horiz-adv-x="382" 
d="M348 -389h-278v1778h278v-62h-217v-1655h217v-61z" />
    <glyph glyph-name="backslash" unicode="\" horiz-adv-x="456" 
d="M395 -41l-393 1448h61l394 -1448h-62z" />
    <glyph glyph-name="bracketright" unicode="]" horiz-adv-x="382" 
d="M313 -389h-278v61h217v1655h-217v62h278v-1778z" />
    <glyph glyph-name="asciicircum" unicode="^" horiz-adv-x="765" 
d="M727 682h-68l-276 625l-277 -625h-67l317 684h54z" />
    <glyph glyph-name="underscore" unicode="_" horiz-adv-x="864" 
d="M870 -143h-876v61h876v-61z" />
    <glyph glyph-name="grave" unicode="`" horiz-adv-x="331" 
d="M332 1139h-56l-276 295h88z" />
    <glyph glyph-name="a" unicode="a" horiz-adv-x="876" 
d="M723 0h-61v115q-98 -140 -263 -140q-124 0 -208.5 91t-84.5 239t83.5 239t209.5 91q167 0 263 -137v215q0 119 -58 182t-162 63q-75 0 -135 -30.5t-119 -102.5l-41 45q65 75 135 109.5t160 34.5q137 0 209 -75t72 -224v-715zM408 31q79 0 146 37.5t108 113.5v246
q-41 76 -108 114t-146 38q-108 0 -171 -79.5t-63 -195.5t63 -195t171 -79z" />
    <glyph glyph-name="b" unicode="b" 
d="M217 231q34 -82 109 -141t159 -59q93 0 157 65.5t92 167t28 230.5q0 130 -28 232t-92 167t-157 65q-84 0 -159 -60.5t-109 -143.5v-523zM217 0h-61v1366h61v-535q44 87 115.5 135t152.5 48q163 0 253.5 -144t90.5 -376t-90.5 -375.5t-253.5 -143.5q-81 0 -154 51
t-114 130v-156z" />
    <glyph glyph-name="c" unicode="c" horiz-adv-x="806" 
d="M483 -25q-116 0 -202 71.5t-128 188t-42 261.5t42 261t128 186.5t202 70.5q85 0 142.5 -32t111.5 -97l-43 -39q-83 112 -211 112q-99 0 -170 -65.5t-103 -168t-32 -228.5q0 -125 32 -228t103 -170t170 -67q128 0 211 114l43 -41q-52 -67 -109.5 -98t-144.5 -31z" />
    <glyph glyph-name="d" unicode="d" 
d="M784 0h-61v156q-41 -79 -114 -130t-154 -51q-163 0 -253.5 143.5t-90.5 375.5t90.5 376t253.5 144q81 0 152.5 -48t115.5 -135v535h61v-1366zM455 31q84 0 159 59t109 141v523q-34 83 -109 143.5t-159 60.5q-93 0 -157 -65t-92 -167t-28 -232q0 -129 28 -230.5t92 -167
t157 -65.5z" />
    <glyph glyph-name="e" unicode="e" 
d="M502 -25q-122 0 -211.5 68.5t-134.5 185.5t-45 267q0 145 42.5 261.5t126.5 186.5t195 70q91 0 162 -42t113.5 -115t64 -164t21.5 -197v-21h-658q3 -196 90 -320t234 -124q149 0 254 145l47 -35q-126 -166 -301 -166zM770 530q0 75 -17 147.5t-51 137t-93.5 104
t-135.5 39.5q-59 0 -108.5 -27t-83 -71t-57 -101t-34.5 -114.5t-12 -114.5h592z" />
    <glyph glyph-name="f" unicode="f" horiz-adv-x="458" 
d="M244 0h-62v934h-133v55h133v162q0 109 55 172t150 63q84 0 141 -57l-39 -49q-42 51 -102 51q-71 0 -107 -47t-36 -133v-162h172v-55h-172v-934z" />
    <glyph glyph-name="g" unicode="g" 
d="M451 -401q-96 0 -166 26.5t-135 95.5l43 52q94 -119 258 -119q125 0 198.5 74t73.5 225v203q-41 -80 -114.5 -132.5t-153.5 -52.5q-109 0 -187.5 68t-117.5 184.5t-39 268.5t39 269t117.5 185t187.5 68q81 0 152.5 -48t115.5 -135v158h61v-1036q0 -181 -88.5 -267.5
t-244.5 -86.5zM455 27q84 0 159 60.5t109 143.5v523q-34 83 -109 143.5t-159 60.5q-93 0 -157 -65.5t-92 -168t-28 -232.5q0 -129 28 -231t92 -168t157 -66z" />
    <glyph glyph-name="h" unicode="h" horiz-adv-x="890" 
d="M737 0h-61v752q0 112 -46.5 159t-135.5 47q-81 0 -158 -55t-119 -133v-770h-61v1366h61v-528q47 73 125.5 124.5t159.5 51.5q119 0 177 -61.5t58 -200.5v-752z" />
    <glyph glyph-name="i" unicode="i" horiz-adv-x="370" 
d="M186 1159q-24 0 -41.5 17.5t-17.5 42.5q0 24 17.5 41.5t41.5 17.5q25 0 42.5 -17t17.5 -42t-17.5 -42.5t-42.5 -17.5zM217 0h-61v989h61v-989z" />
    <glyph glyph-name="j" unicode="j" horiz-adv-x="370" 
d="M186 1159q-24 0 -41.5 17.5t-17.5 42.5q0 24 17.5 41.5t41.5 17.5q25 0 42.5 -17t17.5 -42t-17.5 -42.5t-42.5 -17.5zM29 -401q-97 0 -154 77l47 39q43 -61 107 -61q127 0 127 170v1165h61v-1165q0 -120 -49 -172.5t-139 -52.5z" />
    <glyph glyph-name="k" unicode="k" horiz-adv-x="841" 
d="M791 0h-76l-328 498l-170 -207v-291h-61v1366h61v-989l506 612h76l-373 -446z" />
    <glyph glyph-name="l" unicode="l" horiz-adv-x="370" 
d="M217 0h-61v1366h61v-1366z" />
    <glyph glyph-name="m" unicode="m" horiz-adv-x="1325" 
d="M1171 0h-61v760q0 198 -162 198q-71 0 -143.5 -55.5t-110.5 -132.5v-770h-61v760q0 198 -162 198q-71 0 -142.5 -55.5t-111.5 -132.5v-770h-61v989h61v-151q36 67 110 121.5t154 54.5q93 0 146 -50.5t61 -129.5q41 75 115 127.5t155 52.5q213 0 213 -254v-760z" />
    <glyph glyph-name="n" unicode="n" horiz-adv-x="890" 
d="M737 0h-61v750q0 112 -47 160t-135 48q-81 0 -158 -55t-119 -133v-770h-61v989h61v-151q47 73 125.5 124.5t159.5 51.5q118 0 176.5 -63.5t58.5 -200.5v-750z" />
    <glyph glyph-name="o" unicode="o" horiz-adv-x="944" 
d="M473 -25q-116 0 -199.5 72.5t-123 188.5t-39.5 260t39.5 259t123 187t199.5 72t200 -72t123.5 -187t39.5 -259q0 -85 -14.5 -162t-44.5 -142.5t-72.5 -114t-102 -75.5t-129.5 -27zM473 31q75 0 133 39.5t92.5 106.5t52 148t17.5 171q0 89 -17.5 169.5t-52 147t-92.5 106
t-133 39.5q-74 0 -132 -39.5t-92.5 -106t-52.5 -147t-18 -169.5q0 -121 30 -223.5t98.5 -172t166.5 -69.5z" />
    <glyph glyph-name="p" unicode="p" horiz-adv-x="935" 
d="M485 -25q-80 0 -152 49t-116 136v-537h-61v1366h61v-153q41 78 114 128t154 50q163 0 253.5 -142.5t90.5 -375.5q0 -231 -90.5 -376t-253.5 -145zM485 31q93 0 157 66t92 168t28 231q0 130 -28 231.5t-92 166t-157 64.5q-84 0 -159 -59t-109 -141v-522q34 -83 109 -144
t159 -61z" />
    <glyph glyph-name="q" unicode="q" horiz-adv-x="935" 
d="M451 31q84 0 159 61t109 144v522q-34 82 -109 141t-159 59q-93 0 -157 -64.5t-92 -166t-28 -231.5q0 -129 28 -231t92 -168t157 -66zM451 -25q-163 0 -254 145t-91 376q0 153 39 269t118 182.5t188 66.5q81 0 154 -50t114 -128v153h61v-1366h-61v537q-44 -87 -116 -136
t-152 -49z" />
    <glyph glyph-name="r" unicode="r" horiz-adv-x="544" 
d="M217 0h-61v989h61v-176q57 94 125.5 144.5t161.5 50.5v-74q-14 2 -39 2q-73 0 -144 -59.5t-104 -135.5v-741z" />
    <glyph glyph-name="s" unicode="s" horiz-adv-x="749" 
d="M367 -25q-93 0 -163.5 33t-129.5 107l47 45q93 -129 246 -129q100 0 163.5 57.5t63.5 149.5q0 58 -27.5 103t-71 73.5t-96.5 53.5t-106 51t-96.5 58t-71 82.5t-27.5 116.5q0 103 77 170.5t200 67.5q172 0 264 -127l-43 -41q-72 112 -221 112q-98 0 -156.5 -52t-58.5 -130
q0 -54 27.5 -95.5t71 -68.5t96 -51.5t105.5 -51.5t96.5 -60.5t71 -87t27.5 -123.5q0 -115 -78.5 -189t-209.5 -74z" />
    <glyph glyph-name="t" unicode="t" horiz-adv-x="479" 
d="M324 -25q-150 0 -150 191v768h-135v55h135v271h62v-271h172v-55h-172v-768q0 -135 88 -135q57 0 96 49l39 -43q-30 -31 -59.5 -46.5t-75.5 -15.5z" />
    <glyph glyph-name="u" unicode="u" horiz-adv-x="890" 
d="M737 0h-61v147q-53 -76 -127.5 -124t-157.5 -48q-120 0 -177.5 61.5t-57.5 203.5v749h61v-749q0 -112 46.5 -160.5t135.5 -48.5q80 0 158 53.5t119 130.5v774h61v-989z" />
    <glyph glyph-name="v" unicode="v" horiz-adv-x="768" 
d="M420 0h-72l-319 989h69l287 -917l287 917h69z" />
    <glyph glyph-name="w" unicode="w" horiz-adv-x="1216" 
d="M907 0h-55l-244 899l-243 -899h-56l-266 989h68l227 -893l240 893h61l240 -893l227 893h68z" />
    <glyph glyph-name="x" unicode="x" horiz-adv-x="776" 
d="M733 0h-74l-270 457l-272 -457h-74l311 506l-293 483h74l254 -432l254 432h74l-293 -483z" />
    <glyph glyph-name="y" unicode="y" horiz-adv-x="768" 
d="M80 -387l12 55q25 -14 68 -14q45 0 71.5 26.5t51.5 96.5l69 200l-323 1012h69l287 -911l287 911h69l-403 -1233q-53 -157 -178 -157q-48 0 -80 14z" />
    <glyph glyph-name="z" unicode="z" horiz-adv-x="759" 
d="M655 0h-551v55l476 879h-476v55h543v-55l-475 -879h483v-55z" />
    <glyph glyph-name="braceleft" unicode="{" horiz-adv-x="434" 
d="M399 -389h-96q-71 0 -126.5 59t-55.5 152v500q0 61 -28 104t-79 43v61q51 0 79 43.5t28 104.5v500q0 93 55.5 152t126.5 59h96v-62h-96q-50 0 -85.5 -42t-35.5 -107v-500q0 -139 -92 -178q92 -39 92 -178v-500q0 -64 35.5 -107t85.5 -43h96v-61z" />
    <glyph glyph-name="bar" unicode="|" horiz-adv-x="389" 
d="M225 -41h-61v1448h61v-1448z" />
    <glyph glyph-name="braceright" unicode="}" horiz-adv-x="434" 
d="M35 -389v61h96q50 0 85.5 43t35.5 107v500q0 139 92 178q-92 39 -92 178v500q0 65 -35.5 107t-85.5 42h-96v62h96q71 0 126.5 -59t55.5 -152v-500q0 -61 28 -104.5t79 -43.5v-61q-51 0 -79 -43t-28 -104v-500q0 -93 -55.5 -152t-126.5 -59h-96z" />
    <glyph glyph-name="asciitilde" unicode="~" horiz-adv-x="892" 
d="M774 1366l62 -6q-6 -76 -14.5 -136.5t-26 -126.5t-41.5 -109.5t-62.5 -72t-87.5 -28.5q-61 0 -100.5 42.5t-59 103.5t-36.5 121.5t-45 103t-72 42.5q-38 0 -66.5 -26t-48.5 -81.5t-33 -129t-24 -180.5l-62 10q7 76 16 136t27 125t42 108.5t62 71.5t87 28q61 0 100.5 -43
t59 -104t36.5 -122t45 -104t72 -43q74 0 111 100t59 320z" />
    <glyph glyph-name="nbspace" unicode="&#xa0;" horiz-adv-x="450" 
 />
    <glyph glyph-name="exclamdown" unicode="&#xa1;" horiz-adv-x="425" 
d="M170 -377l23 1036h40l23 -1036h-86zM145 940q0 28 20 48t48 20t48 -20t20 -48q0 -26 -20 -46t-48 -20t-48 20t-20 46z" />
    <glyph glyph-name="cent" unicode="&#xa2;" horiz-adv-x="806" 
d="M438 -205v185q-153 20 -240 164.5t-87 351.5q0 135 37 245.5t112 183t178 85.5v147h62v-143q78 -3 131.5 -34.5t105.5 -94.5l-43 -39q-79 106 -194 112v-927q115 6 194 114l43 -41q-50 -64 -104 -95t-133 -34v-180h-62zM178 496q0 -115 27.5 -212t87.5 -166t145 -83v919
q-85 -15 -145 -82.5t-87.5 -163.5t-27.5 -212z" />
    <glyph glyph-name="sterling" unicode="&#xa3;" horiz-adv-x="854" 
d="M49 547v61h234q-14 20 -45.5 61t-50 69.5t-40.5 71t-32.5 92t-10.5 106.5q0 98 40 183t121 140t186 55q101 0 180.5 -56t116.5 -150l-54 -35q-29 76 -91.5 128t-151.5 52q-114 0 -196.5 -86t-82.5 -233q0 -69 20 -131t42.5 -97t62.5 -89t57 -81h236v-61h-203
q25 -70 25 -131q0 -95 -45.5 -176t-118.5 -140q51 21 96 21q61 0 142 -43t128 -43q52 0 101 26t71 58l39 -53q-34 -40 -92.5 -66.5t-122.5 -26.5q-52 0 -91.5 14t-60.5 31t-56 31t-78 14q-76 0 -197 -77l-33 63q123 63 188.5 161t65.5 206q0 64 -31 131h-268z" />
    <glyph glyph-name="currency" unicode="&#xa4;" horiz-adv-x="948" 
d="M473 203q-153 0 -246 110l-155 -155l-43 43l161 161q-79 128 -79 320q0 194 82 322l-166 165l45 43l157 -159q94 108 244 108t244 -108l157 159l46 -45l-166 -163q82 -128 82 -322q0 -189 -82 -322l166 -163l-46 -45l-157 157q-95 -106 -244 -106zM473 268q75 0 133 35.5
t92.5 95t52 131.5t17.5 152q0 108 -29.5 198.5t-98 152t-167.5 61.5q-98 0 -166.5 -61.5t-98.5 -152t-30 -198.5t30 -199t98.5 -153t166.5 -62z" />
    <glyph glyph-name="yen" unicode="&#xa5;" horiz-adv-x="954" 
d="M510 0h-66v264h-403v62h403v266h-403v61h369l-385 713h77l375 -700l377 700h78l-389 -713h370v-61h-403v-266h403v-62h-403v-264z" />
    <glyph glyph-name="brokenbar" unicode="&#xa6;" horiz-adv-x="389" 
d="M225 -41h-61v647h61v-647zM225 760h-61v647h61v-647z" />
    <glyph glyph-name="section" unicode="&#xa7;" horiz-adv-x="749" 
d="M655 608q0 -81 -44 -145t-132 -98q90 -55 133 -117.5t43 -151.5q0 -117 -79.5 -189.5t-208.5 -72.5q-103 0 -168 34.5t-125 104.5l47 45q91 -129 246 -129q98 0 162.5 59t64.5 148q0 58 -27.5 103t-71 73.5t-96.5 53.5t-106 51.5t-96.5 58t-71 82.5t-27.5 117
q0 89 60.5 154t163.5 85q-116 60 -170 122.5t-54 152.5q0 102 75.5 169.5t195.5 67.5q172 0 270 -126l-45 -41q-79 112 -225 112q-90 0 -149.5 -51.5t-59.5 -132.5q0 -54 27.5 -95.5t71 -68.5t96 -51t105.5 -51t96.5 -60.5t71 -87.5t27.5 -125zM594 610q0 40 -14 75
t-32.5 57t-50.5 43.5t-53 31.5t-55 25q-229 -49 -229 -209q0 -29 7.5 -53.5t27.5 -46.5t38 -38t55 -36t61 -31.5t73 -34.5q172 78 172 217z" />
    <glyph glyph-name="dieresis" unicode="&#xa8;" horiz-adv-x="516" 
d="M481 1225q0 -23 -17 -40.5t-40 -17.5t-40 17.5t-17 40.5t17 40t40 17t40 -17t17 -40zM150 1225q0 -23 -17.5 -40.5t-40.5 -17.5t-40 17.5t-17 40.5t17 40t40 17t40.5 -17t17.5 -40z" />
    <glyph glyph-name="copyright" unicode="&#xa9;" horiz-adv-x="1593" 
d="M1503 684q0 -143 -56 -274t-150 -226t-225 -151t-275 -56q-191 0 -354 95t-258 258t-95 354q0 192 95 355t258 257.5t354 94.5q144 0 275 -56t225 -150.5t150 -225.5t56 -275zM1450 684q0 133 -52 253.5t-139.5 208t-208 139.5t-253.5 52q-132 0 -253 -52t-209 -139.5
t-140 -208.5t-52 -253q0 -106 33.5 -205.5t94 -179.5t141 -141t180 -94t205.5 -33q177 0 327.5 88t238 238.5t87.5 326.5zM1051 418l41 -41q-114 -133 -293 -133t-303.5 128t-124.5 314q0 188 124 314t304 126q181 0 293 -131l-41 -41q-39 53 -109 85t-143 32
q-151 0 -260 -107t-109 -278q0 -165 110 -276t259 -111q74 0 143 32.5t109 86.5z" />
    <glyph glyph-name="ordfeminine" unicode="&#xaa;" horiz-adv-x="649" 
d="M524 668h-55v73q-70 -90 -182 -90q-86 0 -143.5 60t-57.5 155q0 97 57 155t144 58q111 0 182 -88v133q0 74 -42 112t-108 38q-103 0 -172 -88l-34 43q88 98 211 98q200 0 200 -217v-442zM299 696q114 0 170 95v149q-56 94 -170 94q-70 0 -112 -48.5t-42 -119.5
q0 -73 42 -121.5t112 -48.5z" />
    <glyph glyph-name="guillemotleft" unicode="&#xab;" horiz-adv-x="653" 
d="M592 129h-74l-256 369l256 362h74l-256 -362zM391 129h-74l-256 369l256 362h74l-256 -362z" />
    <glyph glyph-name="logicalnot" unicode="&#xac;" horiz-adv-x="888" 
d="M829 918v-467h-65v405h-705v62h770z" />
    <glyph glyph-name="uni00AD" unicode="&#xad;" horiz-adv-x="542" 
d="M481 465h-420v61h420v-61z" />
    <glyph glyph-name="registered" unicode="&#xae;" horiz-adv-x="1011" 
d="M940 952q0 -180 -126.5 -307t-307.5 -127q-180 0 -307 127t-127 307q0 181 127 307.5t307 126.5q119 0 219 -57.5t157.5 -157.5t57.5 -219zM887 952q0 159 -111 270t-270 111t-270 -111t-111 -270q0 -157 111.5 -269t269.5 -112t269.5 112t111.5 269zM702 702h-75
l-129 197h-97v-197h-59v498h203q64 0 107.5 -41.5t43.5 -109.5q0 -72 -46 -110t-81 -38zM635 1049q0 40 -28 68t-62 28h-144v-189h144q33 0 61.5 28t28.5 65z" />
    <glyph glyph-name="macron" unicode="&#xaf;" horiz-adv-x="618" 
d="M618 1190h-618v55h618v-55z" />
    <glyph glyph-name="degree" unicode="&#xb0;" horiz-adv-x="559" 
d="M506 1159q0 -94 -66.5 -159.5t-160.5 -65.5t-160 65.5t-66 159.5t66 160.5t160 66.5t160.5 -66.5t66.5 -160.5zM444 1159q0 68 -49 117t-116 49t-115.5 -49t-48.5 -117q0 -67 48.5 -115.5t115.5 -48.5q68 0 116.5 48.5t48.5 115.5z" />
    <glyph glyph-name="plusminus" unicode="&#xb1;" horiz-adv-x="888" 
d="M829 659h-352v-393h-65v393h-353v62h353v381h65v-381h352v-62zM829 61h-770v62h770v-62z" />
    <glyph glyph-name="twosuperior" unicode="&#xb2;" horiz-adv-x="634" 
d="M549 862h-459v49q26 29 75 84q67 74 98 109t76.5 89.5t65.5 84.5t42.5 69t30 70.5t7.5 63.5q0 77 -47 118t-114 41q-128 0 -187 -108l-45 35q78 127 234 127q91 0 156 -55.5t65 -157.5q0 -35 -8 -69.5t-31 -76t-42.5 -72t-65 -85.5t-74 -88t-92.5 -105q-41 -46 -62 -70
h377v-53z" />
    <glyph glyph-name="threesuperior" unicode="&#xb3;" horiz-adv-x="634" 
d="M553 1081q0 -103 -62.5 -168t-175.5 -65q-83 0 -144 38.5t-93 98.5l45 33q64 -117 190 -117q86 0 132.5 48.5t46.5 133.5q0 92 -54.5 134.5t-134.5 42.5q-46 0 -61 -3v56q10 -2 59 -2q77 0 128.5 42t51.5 122t-47 122.5t-121 42.5q-112 0 -182 -106l-45 35q36 57 96 91
t133 34q97 0 161.5 -56t64.5 -159q0 -78 -46 -128.5t-106 -64.5q60 -9 112 -63.5t52 -141.5z" />
    <glyph glyph-name="acute" unicode="&#xb4;" horiz-adv-x="331" 
d="M332 1434l-277 -295h-55l244 295h88z" />
    <glyph glyph-name="mu" unicode="&#xb5;" horiz-adv-x="913" 
d="M217 70v-447h-61v1366h61v-749q0 -109 49.5 -161t139.5 -52q78 0 153 55t117 133v774h61v-823q0 -66 20.5 -100.5t67.5 -34.5q15 0 35 4l6 -55q-25 -5 -41 -5q-139 0 -149 172q-49 -76 -120 -124t-150 -48q-139 0 -189 95z" />
    <glyph glyph-name="paragraph" unicode="&#xb6;" horiz-adv-x="919" 
d="M731 -205h-61v1510h-201v-1510h-61v867q-146 0 -249.5 103t-103.5 249t103.5 249t249.5 103h323v-1571z" />
    <glyph glyph-name="periodcentered" unicode="&#xb7;" horiz-adv-x="425" 
d="M281 502q0 -28 -20 -48t-48 -20t-48 20t-20 48q0 26 20 45.5t48 19.5t48 -19.5t20 -45.5z" />
    <glyph glyph-name="cedilla" unicode="&#xb8;" horiz-adv-x="350" 
d="M168 -383q-101 0 -168 57l29 54q61 -56 139 -56q51 0 87 27.5t36 73.5q0 39 -20 61.5t-58 22.5q-49 0 -76 -35l-45 26l64 175h61l-53 -144q26 23 67 23q52 0 85.5 -35t33.5 -94q0 -67 -52.5 -111.5t-129.5 -44.5z" />
    <glyph glyph-name="onesuperior" unicode="&#xb9;" horiz-adv-x="391" 
d="M268 862h-61v737l-127 -139l-39 41l172 180h55v-819z" />
    <glyph glyph-name="ordmasculine" unicode="&#xba;" horiz-adv-x="694" 
d="M346 651q-119 0 -188.5 97.5t-69.5 240.5q0 144 69.5 241t188.5 97q121 0 190.5 -97t69.5 -241q0 -143 -69.5 -240.5t-190.5 -97.5zM346 705q97 0 148 83t51 201q0 119 -51 201t-148 82q-94 0 -145 -82t-51 -201q0 -118 51 -201t145 -83z" />
    <glyph glyph-name="guillemotright" unicode="&#xbb;" horiz-adv-x="653" 
d="M391 498l-256 -369h-74l256 369l-256 362h74zM592 498l-256 -369h-74l256 369l-256 362h74z" />
    <glyph glyph-name="onequarter" unicode="&#xbc;" horiz-adv-x="1259" 
d="M268 547h-61v737l-127 -139l-39 41l172 180h55v-819zM1194 231h-102v-231h-60v231h-338v56l320 532h78v-534h102v-54zM1032 285v465l-278 -465h278zM975 1366l-715 -1366h-70l713 1366h72z" />
    <glyph glyph-name="onehalf" unicode="&#xbd;" horiz-adv-x="1331" 
d="M268 547h-61v737l-127 -139l-39 41l172 180h55v-819zM1245 0h-459v49q29 32 80.5 89.5t74 83t61.5 70.5t56 66.5t43 56.5t36.5 56t23.5 49t17 51t4 47q0 77 -47.5 118.5t-114.5 41.5q-127 0 -186 -108l-46 35q77 126 234 126q91 0 156 -55.5t65 -157.5q0 -23 -5 -47.5
t-11 -45.5t-21.5 -49.5t-26.5 -48t-37 -53t-41 -53t-50 -60.5t-53.5 -62t-63 -71t-66.5 -75h377v-53zM975 1366l-715 -1366h-70l713 1366h72z" />
    <glyph glyph-name="threequarters" unicode="&#xbe;" horiz-adv-x="1425" 
d="M1360 231h-103v-231h-59v231h-338v56l320 532h77v-534h103v-54zM1198 285v465l-278 -465h278zM1141 1366l-715 -1366h-70l713 1366h72zM553 766q0 -104 -62.5 -169t-175.5 -65q-83 0 -144 39t-93 99l45 32q29 -53 77.5 -84.5t112.5 -31.5q86 0 132.5 48.5t46.5 133.5
q0 92 -54.5 134t-134.5 42q-51 0 -61 -2v55q10 -2 59 -2q77 0 128.5 42t51.5 122t-47 123t-121 43q-112 0 -182 -106l-45 34q36 57 96 91t133 34q97 0 161.5 -56t64.5 -159q0 -78 -46 -128t-106 -64q60 -9 112 -63.5t52 -141.5z" />
    <glyph glyph-name="questiondown" unicode="&#xbf;" horiz-adv-x="663" 
d="M406 639q73 -67 73 -160q0 -55 -18.5 -102.5t-48 -83t-65.5 -68.5t-72 -67t-65.5 -71t-48 -86.5t-18.5 -106.5q0 -95 68 -166.5t182 -71.5q94 0 157 33.5t120 103.5l43 -47q-116 -152 -320 -152q-139 0 -228 88t-89 212q0 62 19 116.5t48.5 94t66 75.5t73 69t66 66.5
t48.5 75t19 88.5q0 30 -16 62.5t-42 52.5zM401 1008q28 0 48 -20t20 -48q0 -26 -20 -46t-48 -20q-27 0 -47 20t-20 46q0 28 19.5 48t47.5 20z" />
    <glyph glyph-name="Agrave" unicode="&#xc0;" horiz-adv-x="970" 
d="M938 0h-72l-108 367h-543l-109 -367h-71l411 1366h78zM739 428l-254 852l-254 -852h508zM569 1481h-55l-276 295h88z" />
    <glyph glyph-name="Aacute" unicode="&#xc1;" horiz-adv-x="970" 
d="M938 0h-72l-108 367h-543l-109 -367h-71l411 1366h78zM739 428l-254 852l-254 -852h508zM735 1776l-276 -295h-56l244 295h88z" />
    <glyph glyph-name="Acircumflex" unicode="&#xc2;" horiz-adv-x="970" 
d="M698 1481h-51l-162 241l-153 -241h-53l170 295h73zM938 0h-72l-108 367h-543l-109 -367h-71l411 1366h78zM739 428l-254 852l-254 -852h508z" />
    <glyph glyph-name="Atilde" unicode="&#xc3;" horiz-adv-x="970" 
d="M938 0h-72l-108 367h-543l-109 -367h-71l411 1366h78zM739 428l-254 852l-254 -852h508zM590 1477q-38 0 -65 24t-41.5 57.5t-27.5 67.5t-32 58t-45 24q-45 0 -72.5 -54.5t-27.5 -164.5h-50q0 118 40 196t116 78q38 0 65 -24t41.5 -57.5t27.5 -67.5t32 -58t45 -24
q45 0 71.5 54t26.5 165h49q0 -117 -39 -195.5t-114 -78.5z" />
    <glyph glyph-name="Adieresis" unicode="&#xc4;" horiz-adv-x="970" 
d="M711 1567q0 -23 -17.5 -40.5t-40.5 -17.5t-40 17.5t-17 40.5t17 40t40 17t40.5 -17t17.5 -40zM379 1567q0 -23 -17 -40.5t-40 -17.5t-40.5 17.5t-17.5 40.5t17.5 40t40.5 17t40 -17t17 -40zM938 0h-72l-108 367h-543l-109 -367h-71l411 1366h78zM739 428l-254 852
l-254 -852h508z" />
    <glyph glyph-name="Aring" unicode="&#xc5;" horiz-adv-x="970" 
d="M938 0h-72l-108 367h-543l-109 -367h-71l411 1366h78zM739 428l-254 852l-254 -852h508zM489 1417q-72 0 -124 52t-52 124t52 123t124 51t122.5 -51t50.5 -123t-50.5 -124t-122.5 -52zM489 1466q52 0 88.5 37t36.5 90t-36 89t-89 36t-90 -36.5t-37 -88.5q0 -53 37 -90
t90 -37z" />
    <glyph glyph-name="AE" unicode="&#xc6;" horiz-adv-x="1474" 
d="M1354 0h-633v367h-432l-172 -367h-72l651 1366h658v-61h-568v-572h553v-61h-553v-611h568v-61zM721 428v852l-406 -852h406z" />
    <glyph glyph-name="Ccedilla" unicode="&#xc7;" horiz-adv-x="1048" 
d="M600 -375q-99 0 -168 58l29 53q60 -55 139 -55q52 0 87.5 27t35.5 73q0 39 -20 61.5t-58 22.5q-49 0 -76 -35l-45 27l43 120q-135 13 -236.5 108t-155.5 250t-54 347q0 203 59 363t171 252t259 92q219 0 355 -213l-58 -35q-107 186 -297 186q-124 0 -219.5 -83.5
t-146.5 -229.5t-51 -332q0 -184 51 -330.5t146.5 -230.5t219.5 -84q99 0 175 55.5t126 151.5l58 -33q-130 -226 -340 -234l-33 -90q26 23 68 23q52 0 85 -35t33 -94q0 -67 -52.5 -111.5t-129.5 -44.5z" />
    <glyph glyph-name="Egrave" unicode="&#xc8;" horiz-adv-x="909" 
d="M797 0h-633v1366h633v-61h-568v-572h553v-61h-553v-611h568v-61zM563 1481h-55l-277 295h88z" />
    <glyph glyph-name="Eacute" unicode="&#xc9;" horiz-adv-x="909" 
d="M729 1776l-276 -295h-56l244 295h88zM797 0h-633v1366h633v-61h-568v-572h553v-61h-553v-611h568v-61z" />
    <glyph glyph-name="Ecircumflex" unicode="&#xca;" horiz-adv-x="909" 
d="M692 1481h-51l-162 241l-153 -241h-54l170 295h74zM797 0h-633v1366h633v-61h-568v-572h553v-61h-553v-611h568v-61z" />
    <glyph glyph-name="Edieresis" unicode="&#xcb;" horiz-adv-x="909" 
d="M702 1567q0 -23 -17 -40.5t-40 -17.5t-40 17.5t-17 40.5t17 40t40 17t40 -17t17 -40zM371 1567q0 -23 -17.5 -40.5t-40.5 -17.5t-40 17.5t-17 40.5t17 40t40 17t40.5 -17t17.5 -40zM797 0h-633v1366h633v-61h-568v-572h553v-61h-553v-611h568v-61z" />
    <glyph glyph-name="Igrave" unicode="&#xcc;" horiz-adv-x="393" 
d="M229 0h-65v1366h65v-1366zM279 1481h-56l-276 295h88z" />
    <glyph glyph-name="Iacute" unicode="&#xcd;" horiz-adv-x="393" 
d="M229 0h-65v1366h65v-1366zM446 1776l-276 -295h-55l243 295h88z" />
    <glyph glyph-name="Icircumflex" unicode="&#xce;" horiz-adv-x="393" 
d="M410 1481h-52l-161 241l-154 -241h-53l170 295h73zM229 0h-65v1366h65v-1366z" />
    <glyph glyph-name="Idieresis" unicode="&#xcf;" horiz-adv-x="393" 
d="M422 1567q0 -23 -17 -40.5t-40 -17.5t-40.5 17.5t-17.5 40.5t17.5 40t40.5 17t40 -17t17 -40zM90 1567q0 -23 -17 -40.5t-40 -17.5t-40.5 17.5t-17.5 40.5t17.5 40t40.5 17t40 -17t17 -40zM229 0h-65v1366h65v-1366z" />
    <glyph glyph-name="Eth" unicode="&#xd0;" horiz-adv-x="1144" 
d="M512 0h-299v651h-174v62h174v653h299q98 0 181 -34.5t143.5 -96.5t103 -147.5t63.5 -188t21 -217.5q0 -195 -57.5 -347.5t-175 -243.5t-279.5 -91zM512 61q143 0 244 84t148.5 222t47.5 315q0 175 -47.5 313.5t-148.5 224t-244 85.5h-233v-592h286v-62h-286v-590h233z
" />
    <glyph glyph-name="Ntilde" unicode="&#xd1;" horiz-adv-x="1112" 
d="M653 1477q-38 0 -65 24t-41.5 57.5t-27.5 67.5t-32 58t-45 24q-45 0 -72.5 -54.5t-27.5 -164.5h-49q0 118 40 196t116 78q38 0 64.5 -24t41.5 -57.5t27.5 -67.5t31.5 -58t45 -24q45 0 72 54t27 165h49q0 -117 -39.5 -195.5t-114.5 -78.5zM948 0h-65l-654 1219v-1219h-65
v1366h65l654 -1206v1206h65v-1366z" />
    <glyph glyph-name="Ograve" unicode="&#xd2;" horiz-adv-x="1187" 
d="M678 1481h-55l-277 295h88zM594 -25q-113 0 -204.5 56t-149.5 153t-88.5 224t-30.5 274t30.5 274t88.5 224t149.5 153t204.5 56t204.5 -56t149.5 -153t88.5 -224t30.5 -274t-30.5 -274t-88.5 -224t-149.5 -153t-204.5 -56zM594 37q126 0 218.5 88t137.5 232.5t45 324.5
q0 182 -45 326t-137.5 231.5t-218.5 87.5t-218.5 -87.5t-137.5 -231.5t-45 -326q0 -180 45 -324.5t137.5 -232.5t218.5 -88z" />
    <glyph glyph-name="Oacute" unicode="&#xd3;" horiz-adv-x="1187" 
d="M844 1776l-277 -295h-55l244 295h88zM594 -25q-113 0 -204.5 56t-149.5 153t-88.5 224t-30.5 274t30.5 274t88.5 224t149.5 153t204.5 56t204.5 -56t149.5 -153t88.5 -224t30.5 -274t-30.5 -274t-88.5 -224t-149.5 -153t-204.5 -56zM594 37q126 0 218.5 88t137.5 232.5
t45 324.5q0 182 -45 326t-137.5 231.5t-218.5 87.5t-218.5 -87.5t-137.5 -231.5t-45 -326q0 -180 45 -324.5t137.5 -232.5t218.5 -88z" />
    <glyph glyph-name="Ocircumflex" unicode="&#xd4;" horiz-adv-x="1187" 
d="M807 1481h-51l-162 241l-154 -241h-53l170 295h74zM594 -25q-113 0 -204.5 56t-149.5 153t-88.5 224t-30.5 274t30.5 274t88.5 224t149.5 153t204.5 56t204.5 -56t149.5 -153t88.5 -224t30.5 -274t-30.5 -274t-88.5 -224t-149.5 -153t-204.5 -56zM594 37q126 0 218.5 88
t137.5 232.5t45 324.5q0 182 -45 326t-137.5 231.5t-218.5 87.5t-218.5 -87.5t-137.5 -231.5t-45 -326q0 -180 45 -324.5t137.5 -232.5t218.5 -88z" />
    <glyph glyph-name="Otilde" unicode="&#xd5;" horiz-adv-x="1187" 
d="M594 -25q-113 0 -204.5 56t-149.5 153t-88.5 224t-30.5 274t30.5 274t88.5 224t149.5 153t204.5 56t204.5 -56t149.5 -153t88.5 -224t30.5 -274t-30.5 -274t-88.5 -224t-149.5 -153t-204.5 -56zM594 37q126 0 218.5 88t137.5 232.5t45 324.5q0 182 -45 326t-137.5 231.5
t-218.5 87.5t-218.5 -87.5t-137.5 -231.5t-45 -326q0 -180 45 -324.5t137.5 -232.5t218.5 -88zM698 1477q-38 0 -65 24t-41.5 57.5t-27.5 67.5t-32 58t-45 24q-45 0 -72.5 -54.5t-27.5 -164.5h-49q0 118 40 196t116 78q38 0 65 -24t41.5 -57.5t27.5 -67.5t32 -58t45 -24
q45 0 71.5 54t26.5 165h49q0 -117 -39.5 -195.5t-114.5 -78.5z" />
    <glyph glyph-name="Odieresis" unicode="&#xd6;" horiz-adv-x="1187" 
d="M815 1567q0 -23 -17 -40.5t-40 -17.5t-40.5 17.5t-17.5 40.5t17.5 40t40.5 17t40 -17t17 -40zM483 1567q0 -23 -17 -40.5t-40 -17.5t-40 17.5t-17 40.5t17 40t40 17t40 -17t17 -40zM594 -25q-113 0 -204.5 56t-149.5 153t-88.5 224t-30.5 274t30.5 274t88.5 224
t149.5 153t204.5 56t204.5 -56t149.5 -153t88.5 -224t30.5 -274t-30.5 -274t-88.5 -224t-149.5 -153t-204.5 -56zM594 37q126 0 218.5 88t137.5 232.5t45 324.5q0 182 -45 326t-137.5 231.5t-218.5 87.5t-218.5 -87.5t-137.5 -231.5t-45 -326q0 -180 45 -324.5t137.5 -232.5
t218.5 -88z" />
    <glyph glyph-name="multiply" unicode="&#xd7;" horiz-adv-x="888" 
d="M719 367l-275 274l-272 -274l-45 45l274 272l-274 274l45 43l272 -274l275 274l43 -43l-275 -274l275 -272z" />
    <glyph glyph-name="Oslash" unicode="&#xd8;" horiz-adv-x="1187" 
d="M594 -25q-149 0 -258 95l-33 -70h-70l56 117q-83 95 -125.5 242t-42.5 323q0 147 30.5 274t88.5 224t149.5 153t204.5 56q143 0 256 -95l35 72h71l-57 -121q82 -95 125 -242t43 -321q0 -147 -30.5 -274t-88.5 -224t-149.5 -153t-204.5 -56zM594 37q126 0 218.5 88
t137.5 232.5t45 324.5q0 313 -129 496l-499 -1045q93 -96 227 -96zM193 682q0 -318 129 -496l499 1045q-96 96 -227 96q-126 0 -218.5 -87.5t-137.5 -231.5t-45 -326z" />
    <glyph glyph-name="Ugrave" unicode="&#xd9;" horiz-adv-x="1093" 
d="M547 -25q-185 0 -284 114t-99 329v948h65v-948q0 -189 82.5 -285t235.5 -96t235 96t82 285v948h66v-948q0 -216 -98.5 -329.5t-284.5 -113.5zM631 1481h-56l-276 295h88z" />
    <glyph glyph-name="Uacute" unicode="&#xda;" horiz-adv-x="1093" 
d="M797 1776l-277 -295h-55l244 295h88zM547 -25q-185 0 -284 114t-99 329v948h65v-948q0 -189 82.5 -285t235.5 -96t235 96t82 285v948h66v-948q0 -216 -98.5 -329.5t-284.5 -113.5z" />
    <glyph glyph-name="Ucircumflex" unicode="&#xdb;" horiz-adv-x="1093" 
d="M760 1481h-51l-162 241l-154 -241h-53l170 295h74zM547 -25q-185 0 -284 114t-99 329v948h65v-948q0 -189 82.5 -285t235.5 -96t235 96t82 285v948h66v-948q0 -216 -98.5 -329.5t-284.5 -113.5z" />
    <glyph glyph-name="Udieresis" unicode="&#xdc;" horiz-adv-x="1093" 
d="M770 1567q0 -23 -17 -40.5t-40 -17.5t-40.5 17.5t-17.5 40.5t17.5 40t40.5 17t40 -17t17 -40zM438 1567q0 -23 -17 -40.5t-40 -17.5t-40 17.5t-17 40.5t17 40t40 17t40 -17t17 -40zM547 -25q-185 0 -284 114t-99 329v948h65v-948q0 -189 82.5 -285t235.5 -96t235 96
t82 285v948h66v-948q0 -216 -98.5 -329.5t-284.5 -113.5z" />
    <glyph glyph-name="Yacute" unicode="&#xdd;" horiz-adv-x="954" 
d="M510 0h-66v592l-419 774h77l375 -700l377 700h78l-422 -774v-592zM727 1776l-276 -295h-56l244 295h88z" />
    <glyph glyph-name="Thorn" unicode="&#xde;" horiz-adv-x="917" 
d="M229 0h-65v1366h65v-264h275q108 0 186 -54.5t115 -141t37 -193.5q0 -165 -89.5 -275t-248.5 -110h-275v-328zM502 389q126 0 197 89.5t71 234.5t-71 236t-197 91h-273v-651h273z" />
    <glyph glyph-name="germandbls" unicode="&#xdf;" horiz-adv-x="976" 
d="M938 238q0 -109 -76.5 -186t-212.5 -77q-104 0 -169 35.5t-124 104.5l47 47q97 -131 246 -131q101 0 164.5 59.5t63.5 147.5q0 58 -27.5 102.5t-71 72.5t-96.5 52.5t-106 50t-96.5 56.5t-71 81.5t-27.5 116.5q0 47 20.5 88t50.5 68t66 55.5t66 52.5t50.5 58t20.5 73
q0 71 -62 118.5t-144 47.5q-94 0 -157 -63.5t-63 -177.5v-1090h-61v1090q0 130 78.5 213t202.5 83q115 0 190.5 -62t75.5 -159q0 -49 -20 -90t-50.5 -67t-66 -54t-66 -51t-50.5 -58.5t-20 -76.5q0 -54 27.5 -95t71 -67.5t96.5 -50t106 -49.5t96.5 -59t71 -86t27.5 -123z" />
    <glyph glyph-name="agrave" unicode="&#xe0;" horiz-adv-x="876" 
d="M723 0h-61v115q-98 -140 -263 -140q-124 0 -208.5 91t-84.5 239t83.5 239t209.5 91q167 0 263 -137v215q0 119 -58 182t-162 63q-75 0 -135 -30.5t-119 -102.5l-41 45q65 75 135 109.5t160 34.5q137 0 209 -75t72 -224v-715zM408 31q79 0 146 37.5t108 113.5v246
q-41 76 -108 114t-146 38q-108 0 -171 -79.5t-63 -195.5t63 -195t171 -79zM526 1139h-55l-276 295h88z" />
    <glyph glyph-name="aacute" unicode="&#xe1;" horiz-adv-x="876" 
d="M723 0h-61v115q-98 -140 -263 -140q-124 0 -208.5 91t-84.5 239t83.5 239t209.5 91q167 0 263 -137v215q0 119 -58 182t-162 63q-75 0 -135 -30.5t-119 -102.5l-41 45q65 75 135 109.5t160 34.5q137 0 209 -75t72 -224v-715zM408 31q79 0 146 37.5t108 113.5v246
q-41 76 -108 114t-146 38q-108 0 -171 -79.5t-63 -195.5t63 -195t171 -79zM692 1434l-276 -295h-56l244 295h88z" />
    <glyph glyph-name="acircumflex" unicode="&#xe2;" horiz-adv-x="876" 
d="M723 0h-61v115q-98 -140 -263 -140q-124 0 -208.5 91t-84.5 239t83.5 239t209.5 91q167 0 263 -137v215q0 119 -58 182t-162 63q-75 0 -135 -30.5t-119 -102.5l-41 45q65 75 135 109.5t160 34.5q137 0 209 -75t72 -224v-715zM408 31q79 0 146 37.5t108 113.5v246
q-41 76 -108 114t-146 38q-108 0 -171 -79.5t-63 -195.5t63 -195t171 -79zM657 1139h-51l-162 241l-153 -241h-53l170 295h73z" />
    <glyph glyph-name="atilde" unicode="&#xe3;" horiz-adv-x="876" 
d="M723 0h-61v115q-98 -140 -263 -140q-124 0 -208.5 91t-84.5 239t83.5 239t209.5 91q167 0 263 -137v215q0 119 -58 182t-162 63q-75 0 -135 -30.5t-119 -102.5l-41 45q65 75 135 109.5t160 34.5q137 0 209 -75t72 -224v-715zM408 31q79 0 146 37.5t108 113.5v246
q-41 76 -108 114t-146 38q-108 0 -171 -79.5t-63 -195.5t63 -195t171 -79zM549 1135q-38 0 -65 24t-41.5 57.5t-27.5 67.5t-32 58t-45 24q-45 0 -72.5 -54.5t-27.5 -164.5h-50q0 118 40 196t116 78q38 0 65 -24t41.5 -57.5t27.5 -67.5t32 -58t45 -24q45 0 71.5 54t26.5 165
h49q0 -117 -39 -195.5t-114 -78.5z" />
    <glyph glyph-name="adieresis" unicode="&#xe4;" horiz-adv-x="876" 
d="M723 0h-61v115q-98 -140 -263 -140q-124 0 -208.5 91t-84.5 239t83.5 239t209.5 91q167 0 263 -137v215q0 119 -58 182t-162 63q-75 0 -135 -30.5t-119 -102.5l-41 45q65 75 135 109.5t160 34.5q137 0 209 -75t72 -224v-715zM408 31q79 0 146 37.5t108 113.5v246
q-41 76 -108 114t-146 38q-108 0 -171 -79.5t-63 -195.5t63 -195t171 -79zM664 1225q0 -23 -17.5 -40.5t-40.5 -17.5t-40 17.5t-17 40.5t17 40t40 17t40.5 -17t17.5 -40zM332 1225q0 -23 -17.5 -40.5t-40.5 -17.5t-40 17.5t-17 40.5t17 40t40 17t40.5 -17t17.5 -40z" />
    <glyph glyph-name="aring" unicode="&#xe5;" horiz-adv-x="876" 
d="M723 0h-61v115q-98 -140 -263 -140q-124 0 -208.5 91t-84.5 239t83.5 239t209.5 91q167 0 263 -137v215q0 119 -58 182t-162 63q-75 0 -135 -30.5t-119 -102.5l-41 45q65 75 135 109.5t160 34.5q137 0 209 -75t72 -224v-715zM408 31q79 0 146 37.5t108 113.5v246
q-41 76 -108 114t-146 38q-108 0 -171 -79.5t-63 -195.5t63 -195t171 -79zM444 1133q-72 0 -124 52t-52 124t52 123t124 51t122 -51t50 -123t-50 -124t-122 -52zM444 1182q52 0 88.5 37t36.5 90t-36.5 89t-88.5 36q-53 0 -90 -36.5t-37 -88.5q0 -53 37.5 -90t89.5 -37z" />
    <glyph glyph-name="ae" unicode="&#xe6;" horiz-adv-x="1482" 
d="M1380 475h-624q3 -196 84.5 -320t220.5 -124q143 0 237 145l48 -35q-116 -166 -287 -166q-119 0 -200.5 69t-125.5 189q-35 -118 -114.5 -188t-192.5 -70q-143 0 -231.5 90t-88.5 240q0 148 88 239t222 91q176 0 278 -135v213q0 120 -59.5 182.5t-173.5 62.5
q-81 0 -146.5 -31t-126.5 -102l-41 45q126 144 318 144q53 0 99 -12.5t85.5 -38.5t64.5 -71t31 -106q36 98 112 163t173 65q89 0 158 -42t110 -115t61.5 -164t20.5 -197v-21zM756 530h557q0 60 -9 118t-30 114.5t-52 99.5t-79.5 69.5t-108.5 26.5q-56 0 -103 -27t-78 -71
t-53 -101t-32.5 -114.5t-11.5 -114.5zM694 381v45q-86 154 -270 154q-115 0 -182.5 -75.5t-67.5 -199.5t67.5 -199t182.5 -75q124 0 197 97t73 253z" />
    <glyph glyph-name="ccedilla" unicode="&#xe7;" horiz-adv-x="806" 
d="M481 -379q-101 0 -168 57l29 54q61 -56 139 -56q51 0 87 27.5t36 73.5q0 39 -20 61.5t-58 22.5q-48 0 -75 -35l-45 27l45 124q-159 15 -249.5 161t-90.5 358q0 145 42 261t128 186.5t202 70.5q85 0 142.5 -32t111.5 -97l-43 -39q-83 112 -211 112q-99 0 -170 -65.5
t-103 -168t-32 -228.5q0 -125 32 -228t103 -170t170 -67q128 0 211 114l43 -41q-48 -61 -99.5 -92t-125.5 -35l-35 -94q26 23 68 23q52 0 85.5 -35t33.5 -94q0 -67 -53 -111.5t-130 -44.5z" />
    <glyph glyph-name="egrave" unicode="&#xe8;" 
d="M502 -25q-122 0 -211.5 68.5t-134.5 185.5t-45 267q0 145 42.5 261.5t126.5 186.5t195 70q91 0 162 -42t113.5 -115t64 -164t21.5 -197v-21h-658q3 -196 90 -320t234 -124q149 0 254 145l47 -35q-126 -166 -301 -166zM770 530q0 75 -17 147.5t-51 137t-93.5 104
t-135.5 39.5q-59 0 -108.5 -27t-83 -71t-57 -101t-34.5 -114.5t-12 -114.5h592zM557 1139h-55l-277 295h88z" />
    <glyph glyph-name="eacute" unicode="&#xe9;" 
d="M723 1434l-277 -295h-55l244 295h88zM502 -25q-122 0 -211.5 68.5t-134.5 185.5t-45 267q0 145 42.5 261.5t126.5 186.5t195 70q91 0 162 -42t113.5 -115t64 -164t21.5 -197v-21h-658q3 -196 90 -320t234 -124q149 0 254 145l47 -35q-126 -166 -301 -166zM770 530
q0 75 -17 147.5t-51 137t-93.5 104t-135.5 39.5q-59 0 -108.5 -27t-83 -71t-57 -101t-34.5 -114.5t-12 -114.5h592z" />
    <glyph glyph-name="ecircumflex" unicode="&#xea;" 
d="M688 1139h-51l-162 241l-153 -241h-54l170 295h74zM502 -25q-122 0 -211.5 68.5t-134.5 185.5t-45 267q0 145 42.5 261.5t126.5 186.5t195 70q91 0 162 -42t113.5 -115t64 -164t21.5 -197v-21h-658q3 -196 90 -320t234 -124q149 0 254 145l47 -35q-126 -166 -301 -166z
M770 530q0 75 -17 147.5t-51 137t-93.5 104t-135.5 39.5q-59 0 -108.5 -27t-83 -71t-57 -101t-34.5 -114.5t-12 -114.5h592z" />
    <glyph glyph-name="edieresis" unicode="&#xeb;" 
d="M698 1225q0 -23 -17 -40.5t-40 -17.5t-40 17.5t-17 40.5t17 40t40 17t40 -17t17 -40zM367 1225q0 -23 -17.5 -40.5t-40.5 -17.5t-40 17.5t-17 40.5t17 40t40 17t40.5 -17t17.5 -40zM502 -25q-122 0 -211.5 68.5t-134.5 185.5t-45 267q0 145 42.5 261.5t126.5 186.5
t195 70q91 0 162 -42t113.5 -115t64 -164t21.5 -197v-21h-658q3 -196 90 -320t234 -124q149 0 254 145l47 -35q-126 -166 -301 -166zM770 530q0 75 -17 147.5t-51 137t-93.5 104t-135.5 39.5q-59 0 -108.5 -27t-83 -71t-57 -101t-34.5 -114.5t-12 -114.5h592z" />
    <glyph glyph-name="igrave" unicode="&#xec;" horiz-adv-x="370" 
d="M217 0h-61v989h61v-989zM268 1139h-55l-276 295h88z" />
    <glyph glyph-name="iacute" unicode="&#xed;" horiz-adv-x="370" 
d="M434 1434l-276 -295h-56l244 295h88zM217 0h-61v989h61v-989z" />
    <glyph glyph-name="icircumflex" unicode="&#xee;" horiz-adv-x="370" 
d="M395 1139h-51l-162 241l-153 -241h-54l170 295h74zM217 0h-61v989h61v-989z" />
    <glyph glyph-name="idieresis" unicode="&#xef;" horiz-adv-x="370" 
d="M408 1225q0 -23 -17.5 -40.5t-40.5 -17.5t-40 17.5t-17 40.5t17 40t40 17t40.5 -17t17.5 -40zM76 1225q0 -23 -17.5 -40.5t-40.5 -17.5t-40 17.5t-17 40.5t17 40t40 17t40.5 -17t17.5 -40zM217 0h-61v989h61v-989z" />
    <glyph glyph-name="eth" unicode="&#xf0;" horiz-adv-x="944" 
d="M248 1073l-25 53l236 105q-72 76 -129 125l49 43q87 -87 135 -144l195 86l22 -51l-180 -80q285 -354 285 -714q0 -85 -14.5 -162t-44.5 -142.5t-72.5 -114t-102 -75.5t-129.5 -27q-116 0 -199.5 72.5t-123 188.5t-39.5 260t39.5 259t123 187t199.5 72q146 0 236 -144
q-84 170 -209 316zM473 31q75 0 133 39.5t92.5 106.5t52 148t17.5 171q0 89 -17.5 169.5t-52 147t-92.5 106t-133 39.5q-74 0 -132 -39.5t-92.5 -106t-52.5 -147t-18 -169.5q0 -121 30 -223.5t98.5 -172t166.5 -69.5z" />
    <glyph glyph-name="ntilde" unicode="&#xf1;" horiz-adv-x="890" 
d="M737 0h-61v750q0 112 -47 160t-135 48q-81 0 -158 -55t-119 -133v-770h-61v989h61v-151q47 73 125.5 124.5t159.5 51.5q118 0 176.5 -63.5t58.5 -200.5v-750zM553 1135q-38 0 -65 24t-41.5 57.5t-27.5 67.5t-32 58t-45 24q-45 0 -72.5 -54.5t-27.5 -164.5h-49
q0 118 39.5 196t115.5 78q38 0 65 -24t41.5 -57.5t27.5 -67.5t32 -58t45 -24q45 0 71.5 54t26.5 165h50q0 -117 -39.5 -195.5t-114.5 -78.5z" />
    <glyph glyph-name="ograve" unicode="&#xf2;" horiz-adv-x="944" 
d="M473 -25q-116 0 -199.5 72.5t-123 188.5t-39.5 260t39.5 259t123 187t199.5 72t200 -72t123.5 -187t39.5 -259q0 -85 -14.5 -162t-44.5 -142.5t-72.5 -114t-102 -75.5t-129.5 -27zM473 31q75 0 133 39.5t92.5 106.5t52 148t17.5 171q0 89 -17.5 169.5t-52 147t-92.5 106
t-133 39.5q-74 0 -132 -39.5t-92.5 -106t-52.5 -147t-18 -169.5q0 -121 30 -223.5t98.5 -172t166.5 -69.5zM557 1139h-55l-277 295h88z" />
    <glyph glyph-name="oacute" unicode="&#xf3;" horiz-adv-x="944" 
d="M721 1434l-277 -295h-55l244 295h88zM473 -25q-116 0 -199.5 72.5t-123 188.5t-39.5 260t39.5 259t123 187t199.5 72t200 -72t123.5 -187t39.5 -259q0 -85 -14.5 -162t-44.5 -142.5t-72.5 -114t-102 -75.5t-129.5 -27zM473 31q75 0 133 39.5t92.5 106.5t52 148t17.5 171
q0 89 -17.5 169.5t-52 147t-92.5 106t-133 39.5q-74 0 -132 -39.5t-92.5 -106t-52.5 -147t-18 -169.5q0 -121 30 -223.5t98.5 -172t166.5 -69.5z" />
    <glyph glyph-name="ocircumflex" unicode="&#xf4;" horiz-adv-x="944" 
d="M684 1139h-51l-162 241l-154 -241h-53l170 295h74zM473 -25q-116 0 -199.5 72.5t-123 188.5t-39.5 260t39.5 259t123 187t199.5 72t200 -72t123.5 -187t39.5 -259q0 -85 -14.5 -162t-44.5 -142.5t-72.5 -114t-102 -75.5t-129.5 -27zM473 31q75 0 133 39.5t92.5 106.5
t52 148t17.5 171q0 89 -17.5 169.5t-52 147t-92.5 106t-133 39.5q-74 0 -132 -39.5t-92.5 -106t-52.5 -147t-18 -169.5q0 -121 30 -223.5t98.5 -172t166.5 -69.5z" />
    <glyph glyph-name="otilde" unicode="&#xf5;" horiz-adv-x="944" 
d="M473 -25q-116 0 -199.5 72.5t-123 188.5t-39.5 260t39.5 259t123 187t199.5 72t200 -72t123.5 -187t39.5 -259q0 -85 -14.5 -162t-44.5 -142.5t-72.5 -114t-102 -75.5t-129.5 -27zM473 31q75 0 133 39.5t92.5 106.5t52 148t17.5 171q0 89 -17.5 169.5t-52 147t-92.5 106
t-133 39.5q-74 0 -132 -39.5t-92.5 -106t-52.5 -147t-18 -169.5q0 -121 30 -223.5t98.5 -172t166.5 -69.5zM578 1135q-38 0 -65 24t-41.5 57.5t-27.5 67.5t-32 58t-45 24q-45 0 -73 -54.5t-28 -164.5h-49q0 118 40 196t116 78q38 0 65 -24t41.5 -57.5t27.5 -67.5t32 -58
t45 -24q45 0 71.5 54t26.5 165h49q0 -117 -39 -195.5t-114 -78.5z" />
    <glyph glyph-name="odieresis" unicode="&#xf6;" horiz-adv-x="944" 
d="M696 1225q0 -23 -17 -40.5t-40 -17.5t-40 17.5t-17 40.5t17 40t40 17t40 -17t17 -40zM365 1225q0 -23 -17.5 -40.5t-40.5 -17.5t-40 17.5t-17 40.5t17 40t40 17t40.5 -17t17.5 -40zM473 -25q-116 0 -199.5 72.5t-123 188.5t-39.5 260t39.5 259t123 187t199.5 72t200 -72
t123.5 -187t39.5 -259q0 -85 -14.5 -162t-44.5 -142.5t-72.5 -114t-102 -75.5t-129.5 -27zM473 31q75 0 133 39.5t92.5 106.5t52 148t17.5 171q0 89 -17.5 169.5t-52 147t-92.5 106t-133 39.5q-74 0 -132 -39.5t-92.5 -106t-52.5 -147t-18 -169.5q0 -121 30 -223.5
t98.5 -172t166.5 -69.5z" />
    <glyph glyph-name="divide" unicode="&#xf7;" horiz-adv-x="907" 
d="M524 1036q0 -28 -19.5 -48.5t-47.5 -20.5t-48 20.5t-20 48.5t20 47t48 19t47.5 -19t19.5 -47zM848 659h-789v62h789v-62zM524 334q0 -28 -19.5 -48t-47.5 -20t-48 20t-20 48t20 47.5t48 19.5t47.5 -19.5t19.5 -47.5z" />
    <glyph glyph-name="oslash" unicode="&#xf8;" horiz-adv-x="944" 
d="M209 0h-64l68 115q-102 144 -102 381q0 144 39.5 259t123 187t199.5 72q126 0 215 -86l37 61h63l-61 -106q109 -145 109 -387q0 -85 -14.5 -162t-44.5 -142.5t-72.5 -114t-102 -75.5t-129.5 -27q-131 0 -223 95zM473 31q75 0 133 39.5t92.5 106.5t52 148t17.5 171
q0 196 -76 327l-409 -698q78 -94 190 -94zM178 496q0 -192 70 -320l409 696q-76 86 -184 86q-74 0 -132 -39.5t-92.5 -106t-52.5 -147t-18 -169.5z" />
    <glyph glyph-name="ugrave" unicode="&#xf9;" horiz-adv-x="890" 
d="M737 0h-61v147q-53 -76 -127.5 -124t-157.5 -48q-120 0 -177.5 61.5t-57.5 203.5v749h61v-749q0 -112 46.5 -160.5t135.5 -48.5q80 0 158 53.5t119 130.5v774h61v-989zM528 1139h-55l-276 295h88z" />
    <glyph glyph-name="uacute" unicode="&#xfa;" horiz-adv-x="890" 
d="M694 1434l-276 -295h-56l244 295h88zM737 0h-61v147q-53 -76 -127.5 -124t-157.5 -48q-120 0 -177.5 61.5t-57.5 203.5v749h61v-749q0 -112 46.5 -160.5t135.5 -48.5q80 0 158 53.5t119 130.5v774h61v-989z" />
    <glyph glyph-name="ucircumflex" unicode="&#xfb;" horiz-adv-x="890" 
d="M657 1139h-51l-162 241l-153 -241h-53l170 295h73zM737 0h-61v147q-53 -76 -127.5 -124t-157.5 -48q-120 0 -177.5 61.5t-57.5 203.5v749h61v-749q0 -112 46.5 -160.5t135.5 -48.5q80 0 158 53.5t119 130.5v774h61v-989z" />
    <glyph glyph-name="udieresis" unicode="&#xfc;" horiz-adv-x="890" 
d="M676 1225q0 -23 -17.5 -40.5t-40.5 -17.5t-40 17.5t-17 40.5t17 40t40 17t40.5 -17t17.5 -40zM344 1225q0 -23 -17 -40.5t-40 -17.5t-40.5 17.5t-17.5 40.5t17.5 40t40.5 17t40 -17t17 -40zM737 0h-61v147q-53 -76 -127.5 -124t-157.5 -48q-120 0 -177.5 61.5
t-57.5 203.5v749h61v-749q0 -112 46.5 -160.5t135.5 -48.5q80 0 158 53.5t119 130.5v774h61v-989z" />
    <glyph glyph-name="yacute" unicode="&#xfd;" horiz-adv-x="768" 
d="M80 -387l12 55q25 -14 68 -14q45 0 71.5 26.5t51.5 96.5l69 200l-323 1012h69l287 -911l287 911h69l-403 -1233q-53 -157 -178 -157q-48 0 -80 14zM633 1434l-277 -295h-55l244 295h88z" />
    <glyph glyph-name="thorn" unicode="&#xfe;" horiz-adv-x="935" 
d="M485 -25q-83 0 -153.5 46.5t-114.5 132.5v-531h-61v1743h61v-526q41 79 112 126.5t156 47.5q163 0 253.5 -142.5t90.5 -375.5q0 -231 -90.5 -376t-253.5 -145zM485 31q93 0 157 66t92 168t28 231q0 130 -28 231.5t-92 166t-157 64.5q-84 0 -159 -59t-109 -141v-522
q34 -83 109 -144t159 -61z" />
    <glyph glyph-name="ydieresis" unicode="&#xff;" horiz-adv-x="768" 
d="M80 -387l12 55q25 -14 68 -14q45 0 71.5 26.5t51.5 96.5l69 200l-323 1012h69l287 -911l287 911h69l-403 -1233q-53 -157 -178 -157q-48 0 -80 14zM608 1225q0 -23 -17 -40.5t-40 -17.5t-40 17.5t-17 40.5t17 40t40 17t40 -17t17 -40zM276 1225q0 -23 -17 -40.5
t-40 -17.5t-40 17.5t-17 40.5t17 40t40 17t40 -17t17 -40z" />
    <glyph glyph-name="Amacron" unicode="&#x100;" horiz-adv-x="970" 
d="M938 0h-72l-108 367h-543l-109 -367h-71l411 1366h78zM739 428l-254 852l-254 -852h508zM795 1532h-619v55h619v-55z" />
    <glyph glyph-name="amacron" unicode="&#x101;" horiz-adv-x="876" 
d="M723 0h-61v115q-98 -140 -263 -140q-124 0 -208.5 91t-84.5 239t83.5 239t209.5 91q167 0 263 -137v215q0 119 -58 182t-162 63q-75 0 -135 -30.5t-119 -102.5l-41 45q65 75 135 109.5t160 34.5q137 0 209 -75t72 -224v-715zM408 31q79 0 146 37.5t108 113.5v246
q-41 76 -108 114t-146 38q-108 0 -171 -79.5t-63 -195.5t63 -195t171 -79zM748 1190h-619v55h619v-55z" />
    <glyph glyph-name="Abreve" unicode="&#x102;" horiz-adv-x="970" 
d="M938 0h-72l-108 367h-543l-109 -367h-71l411 1366h78zM739 428l-254 852l-254 -852h508zM784 1622q-52 -70 -129.5 -109.5t-167.5 -39.5t-168 39.5t-131 109.5l45 37q41 -60 109.5 -95.5t144.5 -35.5t144.5 35.5t109.5 95.5z" />
    <glyph glyph-name="abreve" unicode="&#x103;" horiz-adv-x="876" 
d="M723 0h-61v115q-98 -140 -263 -140q-124 0 -208.5 91t-84.5 239t83.5 239t209.5 91q167 0 263 -137v215q0 119 -58 182t-162 63q-75 0 -135 -30.5t-119 -102.5l-41 45q65 75 135 109.5t160 34.5q137 0 209 -75t72 -224v-715zM408 31q79 0 146 37.5t108 113.5v246
q-41 76 -108 114t-146 38q-108 0 -171 -79.5t-63 -195.5t63 -195t171 -79zM737 1280q-52 -70 -129.5 -110t-167.5 -40q-89 0 -167.5 40t-131.5 110l45 37q41 -60 109.5 -95.5t144.5 -35.5t144.5 35.5t109.5 95.5z" />
    <glyph glyph-name="Aogonek" unicode="&#x104;" horiz-adv-x="970" 
d="M965 -240l51 -22q-16 -51 -52.5 -85t-97.5 -34q-64 0 -104.5 40t-40.5 118q0 70 38.5 132.5t100.5 106.5l-102 351h-543l-109 -367h-71l411 1366h78l414 -1366q-158 -90 -158 -223q0 -51 23 -77t63 -26q77 0 99 86zM739 428l-254 852l-254 -852h508z" />
    <glyph glyph-name="aogonek" unicode="&#x105;" horiz-adv-x="876" 
d="M750 -240l51 -22q-16 -51 -52.5 -85t-97.5 -34q-64 0 -104.5 40t-40.5 118q0 73 43.5 138.5t112.5 109.5v90q-98 -140 -263 -140q-124 0 -208.5 91t-84.5 239t83.5 239t209.5 91q167 0 263 -137v215q0 119 -58 182t-162 63q-75 0 -135 -30.5t-119 -102.5l-41 45
q65 75 135 109.5t160 34.5q137 0 209 -75t72 -224v-715q-158 -90 -158 -223q0 -51 23 -77t63 -26q77 0 99 86zM408 31q79 0 146 37.5t108 113.5v246q-41 76 -108 114t-146 38q-108 0 -171 -79.5t-63 -195.5t63 -195t171 -79z" />
    <glyph glyph-name="Cacute" unicode="&#x106;" horiz-adv-x="1048" 
d="M860 1776l-276 -295h-56l244 295h88zM610 -25q-146 0 -258.5 92.5t-171.5 253t-59 361.5q0 203 59 363t171 252t259 92q219 0 355 -213l-58 -35q-107 186 -297 186q-124 0 -219.5 -83.5t-146.5 -229.5t-51 -332q0 -184 51 -330.5t146.5 -230.5t219.5 -84q99 0 175 55.5
t126 151.5l58 -33q-135 -236 -359 -236z" />
    <glyph glyph-name="cacute" unicode="&#x107;" horiz-adv-x="806" 
d="M731 1434l-276 -295h-56l244 295h88zM483 -25q-116 0 -202 71.5t-128 188t-42 261.5t42 261t128 186.5t202 70.5q85 0 142.5 -32t111.5 -97l-43 -39q-83 112 -211 112q-99 0 -170 -65.5t-103 -168t-32 -228.5q0 -125 32 -228t103 -170t170 -67q128 0 211 114l43 -41
q-52 -67 -109.5 -98t-144.5 -31z" />
    <glyph glyph-name="Ccircumflex" unicode="&#x108;" horiz-adv-x="1048" 
d="M823 1481h-51l-162 241l-153 -241h-54l170 295h74zM610 -25q-146 0 -258.5 92.5t-171.5 253t-59 361.5q0 203 59 363t171 252t259 92q219 0 355 -213l-58 -35q-107 186 -297 186q-124 0 -219.5 -83.5t-146.5 -229.5t-51 -332q0 -184 51 -330.5t146.5 -230.5t219.5 -84
q99 0 175 55.5t126 151.5l58 -33q-135 -236 -359 -236z" />
    <glyph glyph-name="ccircumflex" unicode="&#x109;" horiz-adv-x="806" 
d="M694 1139h-51l-162 241l-153 -241h-54l170 295h74zM483 -25q-116 0 -202 71.5t-128 188t-42 261.5t42 261t128 186.5t202 70.5q85 0 142.5 -32t111.5 -97l-43 -39q-83 112 -211 112q-99 0 -170 -65.5t-103 -168t-32 -228.5q0 -125 32 -228t103 -170t170 -67
q128 0 211 114l43 -41q-52 -67 -109.5 -98t-144.5 -31z" />
    <glyph glyph-name="Cdotaccent" unicode="&#x10a;" horiz-adv-x="1048" 
d="M610 -25q-146 0 -258.5 92.5t-171.5 253t-59 361.5q0 203 59 363t171 252t259 92q219 0 355 -213l-58 -35q-107 186 -297 186q-124 0 -219.5 -83.5t-146.5 -229.5t-51 -332q0 -184 51 -330.5t146.5 -230.5t219.5 -84q99 0 175 55.5t126 151.5l58 -33q-135 -236 -359 -236
zM612 1501q-24 0 -41.5 17.5t-17.5 42.5q0 24 17.5 41.5t41.5 17.5q25 0 42.5 -17t17.5 -42t-17.5 -42.5t-42.5 -17.5z" />
    <glyph glyph-name="cdotaccent" unicode="&#x10b;" horiz-adv-x="806" 
d="M483 -25q-116 0 -202 71.5t-128 188t-42 261.5t42 261t128 186.5t202 70.5q85 0 142.5 -32t111.5 -97l-43 -39q-83 112 -211 112q-99 0 -170 -65.5t-103 -168t-32 -228.5q0 -125 32 -228t103 -170t170 -67q128 0 211 114l43 -41q-52 -67 -109.5 -98t-144.5 -31zM487 1159
q-23 0 -41 17.5t-18 42.5q0 24 17.5 41.5t41.5 17.5q25 0 42.5 -17t17.5 -42t-17.5 -42.5t-42.5 -17.5z" />
    <glyph glyph-name="Ccaron" unicode="&#x10c;" horiz-adv-x="1048" 
d="M653 1481h-73l-177 295h54l159 -242l156 242h51zM610 -25q-146 0 -258.5 92.5t-171.5 253t-59 361.5q0 203 59 363t171 252t259 92q219 0 355 -213l-58 -35q-107 186 -297 186q-124 0 -219.5 -83.5t-146.5 -229.5t-51 -332q0 -184 51 -330.5t146.5 -230.5t219.5 -84
q99 0 175 55.5t126 151.5l58 -33q-135 -236 -359 -236z" />
    <glyph glyph-name="ccaron" unicode="&#x10d;" horiz-adv-x="806" 
d="M524 1139h-73l-177 295h54l159 -242l156 242h51zM483 -25q-116 0 -202 71.5t-128 188t-42 261.5t42 261t128 186.5t202 70.5q85 0 142.5 -32t111.5 -97l-43 -39q-83 112 -211 112q-99 0 -170 -65.5t-103 -168t-32 -228.5q0 -125 32 -228t103 -170t170 -67q128 0 211 114
l43 -41q-52 -67 -109.5 -98t-144.5 -31z" />
    <glyph glyph-name="Dcaron" unicode="&#x10e;" horiz-adv-x="1095" 
d="M582 1481h-74l-176 295h53l160 -242l155 242h52zM463 0h-299v1366h299q98 0 181 -34.5t143.5 -96.5t103 -147.5t63.5 -188t21 -217.5q0 -195 -57.5 -347.5t-175 -243.5t-279.5 -91zM463 61q143 0 244 84t148.5 222t47.5 315q0 175 -47.5 313.5t-148.5 224t-244 85.5h-234
v-1244h234z" />
    <glyph glyph-name="dcaron" unicode="&#x10f;" horiz-adv-x="1036" 
d="M1044 1284q0 -73 -37 -142t-89 -106l-46 37q49 36 79 89t30 100q-12 -2 -16 -2q-29 0 -47.5 19.5t-18.5 47.5q0 27 18.5 46.5t47.5 19.5q34 0 56.5 -29t22.5 -80zM784 0h-61v156q-41 -79 -114 -130t-154 -51q-163 0 -253.5 143.5t-90.5 375.5t90.5 376t253.5 144
q81 0 152.5 -48t115.5 -135v535h61v-1366zM455 31q84 0 159 59t109 141v523q-34 83 -109 143.5t-159 60.5q-93 0 -157 -65t-92 -167t-28 -232q0 -129 28 -230.5t92 -167t157 -65.5z" />
    <glyph glyph-name="Dcroat" unicode="&#x110;" horiz-adv-x="1144" 
d="M512 0h-299v651h-174v62h174v653h299q98 0 181 -34.5t143.5 -96.5t103 -147.5t63.5 -188t21 -217.5q0 -195 -57.5 -347.5t-175 -243.5t-279.5 -91zM512 61q143 0 244 84t148.5 222t47.5 315q0 175 -47.5 313.5t-148.5 224t-244 85.5h-233v-592h286v-62h-286v-590h233z
" />
    <glyph glyph-name="dcroat" unicode="&#x111;" 
d="M784 0h-61v156q-41 -79 -114 -130t-154 -51q-163 0 -253.5 143.5t-90.5 375.5t90.5 376t253.5 144q81 0 152.5 -48t115.5 -135v277h-293v55h293v203h61v-203h142v-55h-142v-1108zM455 31q84 0 159 59t109 141v523q-34 83 -109 143.5t-159 60.5q-93 0 -157 -65t-92 -167
t-28 -232q0 -129 28 -230.5t92 -167t157 -65.5z" />
    <glyph glyph-name="Emacron" unicode="&#x112;" horiz-adv-x="909" 
d="M797 0h-633v1366h633v-61h-568v-572h553v-61h-553v-611h568v-61zM791 1532h-619v55h619v-55z" />
    <glyph glyph-name="emacron" unicode="&#x113;" 
d="M502 -25q-122 0 -211.5 68.5t-134.5 185.5t-45 267q0 145 42.5 261.5t126.5 186.5t195 70q91 0 162 -42t113.5 -115t64 -164t21.5 -197v-21h-658q3 -196 90 -320t234 -124q149 0 254 145l47 -35q-126 -166 -301 -166zM770 530q0 75 -17 147.5t-51 137t-93.5 104
t-135.5 39.5q-59 0 -108.5 -27t-83 -71t-57 -101t-34.5 -114.5t-12 -114.5h592zM780 1190h-618v55h618v-55z" />
    <glyph glyph-name="Ebreve" unicode="&#x114;" horiz-adv-x="909" 
d="M797 0h-633v1366h633v-61h-568v-572h553v-61h-553v-611h568v-61zM782 1622q-52 -70 -129.5 -109.5t-167.5 -39.5t-168 39.5t-131 109.5l45 37q41 -60 109.5 -95.5t144.5 -35.5t144.5 35.5t109.5 95.5z" />
    <glyph glyph-name="ebreve" unicode="&#x115;" 
d="M502 -25q-122 0 -211.5 68.5t-134.5 185.5t-45 267q0 145 42.5 261.5t126.5 186.5t195 70q91 0 162 -42t113.5 -115t64 -164t21.5 -197v-21h-658q3 -196 90 -320t234 -124q149 0 254 145l47 -35q-126 -166 -301 -166zM770 530q0 75 -17 147.5t-51 137t-93.5 104
t-135.5 39.5q-59 0 -108.5 -27t-83 -71t-57 -101t-34.5 -114.5t-12 -114.5h592zM776 1280q-52 -70 -129.5 -110t-167.5 -40q-89 0 -167.5 40t-131.5 110l45 37q41 -60 109.5 -95.5t144.5 -35.5t144.5 35.5t109.5 95.5z" />
    <glyph glyph-name="Edotaccent" unicode="&#x116;" horiz-adv-x="909" 
d="M797 0h-633v1366h633v-61h-568v-572h553v-61h-553v-611h568v-61zM498 1501q-24 0 -42 18t-18 42t18 41.5t42 17.5q25 0 42 -17t17 -42t-17 -42.5t-42 -17.5z" />
    <glyph glyph-name="edotaccent" unicode="&#x117;" 
d="M502 -25q-122 0 -211.5 68.5t-134.5 185.5t-45 267q0 145 42.5 261.5t126.5 186.5t195 70q91 0 162 -42t113.5 -115t64 -164t21.5 -197v-21h-658q3 -196 90 -320t234 -124q149 0 254 145l47 -35q-126 -166 -301 -166zM770 530q0 75 -17 147.5t-51 137t-93.5 104
t-135.5 39.5q-59 0 -108.5 -27t-83 -71t-57 -101t-34.5 -114.5t-12 -114.5h592zM475 1159q-23 0 -41 17.5t-18 42.5q0 24 17.5 41.5t41.5 17.5q25 0 42.5 -17t17.5 -42t-17.5 -42.5t-42.5 -17.5z" />
    <glyph glyph-name="Eogonek" unicode="&#x118;" horiz-adv-x="909" 
d="M797 0q-158 -90 -158 -223q0 -51 23 -77t63 -26q76 0 98 86l51 -22q-16 -51 -52 -85t-97 -34q-64 0 -104.5 40t-40.5 118q0 64 32.5 122t87.5 101h-536v1366h633v-61h-568v-572h553v-61h-553v-611h568v-61z" />
    <glyph glyph-name="eogonek" unicode="&#x119;" 
d="M502 -25q-122 0 -211.5 68.5t-134.5 185.5t-45 267q0 145 42.5 261.5t126.5 186.5t195 70q91 0 162 -42t113.5 -115t64 -164t21.5 -197v-21h-658q3 -196 90 -320t234 -124q149 0 254 145l47 -35q-78 -105 -176 -143q-154 -89 -154 -221q0 -51 23 -77t63 -26q76 0 98 86
l52 -22q-16 -51 -52.5 -85t-97.5 -34q-64 0 -104.5 40t-40.5 118q0 109 92 198h-4zM770 530q0 75 -17 147.5t-51 137t-93.5 104t-135.5 39.5q-59 0 -108.5 -27t-83 -71t-57 -101t-34.5 -114.5t-12 -114.5h592z" />
    <glyph glyph-name="Ecaron" unicode="&#x11a;" horiz-adv-x="909" 
d="M520 1481h-74l-176 295h54l159 -242l156 242h51zM797 0h-633v1366h633v-61h-568v-572h553v-61h-553v-611h568v-61z" />
    <glyph glyph-name="ecaron" unicode="&#x11b;" 
d="M516 1139h-74l-176 295h53l160 -242l156 242h51zM502 -25q-122 0 -211.5 68.5t-134.5 185.5t-45 267q0 145 42.5 261.5t126.5 186.5t195 70q91 0 162 -42t113.5 -115t64 -164t21.5 -197v-21h-658q3 -196 90 -320t234 -124q149 0 254 145l47 -35q-126 -166 -301 -166z
M770 530q0 75 -17 147.5t-51 137t-93.5 104t-135.5 39.5q-59 0 -108.5 -27t-83 -71t-57 -101t-34.5 -114.5t-12 -114.5h592z" />
    <glyph glyph-name="Gcircumflex" unicode="&#x11c;" horiz-adv-x="1110" 
d="M827 1481h-51l-162 241l-153 -241h-53l170 295h73zM610 -27q-145 0 -256.5 89.5t-172 251t-60.5 368.5q0 316 135 511.5t354 195.5q222 0 367 -211l-53 -35q-115 184 -314 184q-124 0 -220 -84.5t-146.5 -230.5t-50.5 -330q0 -182 50.5 -328.5t146.5 -231.5t220 -85
q97 0 175.5 41t125.5 102v414h-385v61h451v-495q-65 -88 -161 -137.5t-206 -49.5z" />
    <glyph glyph-name="gcircumflex" unicode="&#x11d;" 
d="M680 1139h-51l-162 241l-154 -241h-53l170 295h74zM451 -401q-96 0 -166 26.5t-135 95.5l43 52q94 -119 258 -119q125 0 198.5 74t73.5 225v203q-41 -80 -114.5 -132.5t-153.5 -52.5q-109 0 -187.5 68t-117.5 184.5t-39 268.5t39 269t117.5 185t187.5 68q81 0 152.5 -48
t115.5 -135v158h61v-1036q0 -181 -88.5 -267.5t-244.5 -86.5zM455 27q84 0 159 60.5t109 143.5v523q-34 83 -109 143.5t-159 60.5q-93 0 -157 -65.5t-92 -168t-28 -232.5q0 -129 28 -231t92 -168t157 -66z" />
    <glyph glyph-name="Gbreve" unicode="&#x11e;" horiz-adv-x="1110" 
d="M610 -27q-145 0 -256.5 89.5t-172 251t-60.5 368.5q0 316 135 511.5t354 195.5q222 0 367 -211l-53 -35q-115 184 -314 184q-124 0 -220 -84.5t-146.5 -230.5t-50.5 -330q0 -182 50.5 -328.5t146.5 -231.5t220 -85q97 0 175.5 41t125.5 102v414h-385v61h451v-495
q-65 -88 -161 -137.5t-206 -49.5zM915 1622q-52 -70 -129.5 -109.5t-167.5 -39.5t-168 39.5t-131 109.5l46 37q42 -60 109.5 -95.5t143.5 -35.5t144.5 35.5t109.5 95.5z" />
    <glyph glyph-name="gbreve" unicode="&#x11f;" 
d="M451 -401q-96 0 -166 26.5t-135 95.5l43 52q94 -119 258 -119q125 0 198.5 74t73.5 225v203q-41 -80 -114.5 -132.5t-153.5 -52.5q-109 0 -187.5 68t-117.5 184.5t-39 268.5t39 269t117.5 185t187.5 68q81 0 152.5 -48t115.5 -135v158h61v-1036q0 -181 -88.5 -267.5
t-244.5 -86.5zM455 27q84 0 159 60.5t109 143.5v523q-34 83 -109 143.5t-159 60.5q-93 0 -157 -65.5t-92 -168t-28 -232.5q0 -129 28 -231t92 -168t157 -66zM768 1280q-52 -70 -129.5 -110t-167.5 -40q-89 0 -167.5 40t-131.5 110l45 37q41 -60 109.5 -95.5t144.5 -35.5
t144.5 35.5t109.5 95.5z" />
    <glyph glyph-name="Gdotaccent" unicode="&#x120;" horiz-adv-x="1110" 
d="M610 -27q-145 0 -256.5 89.5t-172 251t-60.5 368.5q0 316 135 511.5t354 195.5q222 0 367 -211l-53 -35q-115 184 -314 184q-124 0 -220 -84.5t-146.5 -230.5t-50.5 -330q0 -182 50.5 -328.5t146.5 -231.5t220 -85q97 0 175.5 41t125.5 102v414h-385v61h451v-495
q-65 -88 -161 -137.5t-206 -49.5zM614 1501q-24 0 -41.5 17.5t-17.5 42.5q0 24 17.5 41.5t41.5 17.5q25 0 42.5 -17t17.5 -42t-17.5 -42.5t-42.5 -17.5z" />
    <glyph glyph-name="gdotaccent" unicode="&#x121;" 
d="M451 -401q-96 0 -166 26.5t-135 95.5l43 52q94 -119 258 -119q125 0 198.5 74t73.5 225v203q-41 -80 -114.5 -132.5t-153.5 -52.5q-109 0 -187.5 68t-117.5 184.5t-39 268.5t39 269t117.5 185t187.5 68q81 0 152.5 -48t115.5 -135v158h61v-1036q0 -181 -88.5 -267.5
t-244.5 -86.5zM455 27q84 0 159 60.5t109 143.5v523q-34 83 -109 143.5t-159 60.5q-93 0 -157 -65.5t-92 -168t-28 -232.5q0 -129 28 -231t92 -168t157 -66zM463 1159q-24 0 -42 18t-18 42t18 41.5t42 17.5q25 0 42 -17t17 -42t-17 -42.5t-42 -17.5z" />
    <glyph glyph-name="Gcommaaccent" unicode="&#x122;" horiz-adv-x="1110" 
d="M694 -281q0 -73 -37 -141.5t-90 -105.5l-45 36q49 36 79 89t30 100q-13 -2 -17 -2q-29 0 -47 19.5t-18 47.5q0 27 18.5 46.5t46.5 19.5q34 0 57 -29t23 -80zM610 -27q-145 0 -256.5 89.5t-172 251t-60.5 368.5q0 316 135 511.5t354 195.5q222 0 367 -211l-53 -35
q-115 184 -314 184q-124 0 -220 -84.5t-146.5 -230.5t-50.5 -330q0 -182 50.5 -328.5t146.5 -231.5t220 -85q97 0 175.5 41t125.5 102v414h-385v61h451v-495q-65 -88 -161 -137.5t-206 -49.5z" />
    <glyph glyph-name="gcommaaccent" unicode="&#x123;" 
d="M383 1249q0 82 38.5 156.5t84.5 107.5l49 -38q-49 -36 -79 -89t-30 -100q5 2 9 2q25 0 46 -20t21 -47q0 -26 -19.5 -46t-47.5 -20q-32 0 -52 27t-20 67zM451 -401q-96 0 -166 26.5t-135 95.5l43 52q94 -119 258 -119q125 0 198.5 74t73.5 225v203q-41 -80 -114.5 -132.5
t-153.5 -52.5q-109 0 -187.5 68t-117.5 184.5t-39 268.5t39 269t117.5 185t187.5 68q81 0 152.5 -48t115.5 -135v158h61v-1036q0 -181 -88.5 -267.5t-244.5 -86.5zM455 27q84 0 159 60.5t109 143.5v523q-34 83 -109 143.5t-159 60.5q-93 0 -157 -65.5t-92 -168t-28 -232.5
q0 -129 28 -231t92 -168t157 -66z" />
    <glyph glyph-name="Hcircumflex" unicode="&#x124;" horiz-adv-x="1116" 
d="M766 1481h-51l-162 241l-154 -241h-53l170 295h74zM952 0h-65v672h-658v-672h-65v1366h65v-633h658v633h65v-1366z" />
    <glyph glyph-name="hcircumflex" unicode="&#x125;" horiz-adv-x="890" 
d="M659 1481h-51l-162 241l-153 -241h-53l170 295h73zM737 0h-61v752q0 112 -46.5 159t-135.5 47q-81 0 -158 -55t-119 -133v-770h-61v1366h61v-528q47 73 125.5 124.5t159.5 51.5q119 0 177 -61.5t58 -200.5v-752z" />
    <glyph glyph-name="Hbar" unicode="&#x126;" horiz-adv-x="1191" 
d="M991 0h-65v672h-658v-672h-65v1026h-164v55h164v285h65v-285h658v285h65v-285h146v-55h-146v-1026zM268 733h658v293h-658v-293z" />
    <glyph glyph-name="hbar" unicode="&#x127;" horiz-adv-x="907" 
d="M532 1108h-299v-270q47 73 125.5 124.5t159.5 51.5q119 0 177.5 -61.5t58.5 -200.5v-752h-62v752q0 112 -46.5 159t-135.5 47q-81 0 -158 -55t-119 -133v-770h-61v1108h-135v55h135v203h61v-203h299v-55z" />
    <glyph glyph-name="Itilde" unicode="&#x128;" horiz-adv-x="393" 
d="M229 0h-65v1366h65v-1366zM299 1477q-38 0 -65 24t-41.5 57.5t-27.5 67.5t-32 58t-45 24q-45 0 -72.5 -54.5t-27.5 -164.5h-49q0 118 39.5 196t115.5 78q38 0 65 -24t41.5 -57.5t27.5 -67.5t32 -58t45 -24q45 0 71.5 54t26.5 165h50q0 -117 -39.5 -195.5t-114.5 -78.5z
" />
    <glyph glyph-name="itilde" unicode="&#x129;" horiz-adv-x="370" 
d="M217 0h-61v989h61v-989zM289 1135q-38 0 -65 24t-41.5 57.5t-27.5 67.5t-32 58t-45 24q-45 0 -73 -54.5t-28 -164.5h-49q0 118 40 196t116 78q38 0 65 -24t41.5 -57.5t27.5 -67.5t32 -58t45 -24q45 0 71.5 54t26.5 165h49q0 -117 -39 -195.5t-114 -78.5z" />
    <glyph glyph-name="Imacron" unicode="&#x12a;" horiz-adv-x="393" 
d="M229 0h-65v1366h65v-1366zM506 1532h-619v55h619v-55z" />
    <glyph glyph-name="imacron" unicode="&#x12b;" horiz-adv-x="370" 
d="M217 0h-61v989h61v-989zM496 1190h-619v55h619v-55z" />
    <glyph glyph-name="Ibreve" unicode="&#x12c;" horiz-adv-x="393" 
d="M229 0h-65v1366h65v-1366zM496 1622q-52 -70 -129.5 -109.5t-167.5 -39.5t-168 39.5t-131 109.5l45 37q41 -60 109.5 -95.5t144.5 -35.5t144.5 35.5t109.5 95.5z" />
    <glyph glyph-name="ibreve" unicode="&#x12d;" horiz-adv-x="370" 
d="M217 0h-61v989h61v-989zM483 1280q-52 -70 -129.5 -110t-167.5 -40q-89 0 -167.5 40t-131.5 110l45 37q41 -60 109.5 -95.5t144.5 -35.5t144.5 35.5t109.5 95.5z" />
    <glyph glyph-name="Iogonek" unicode="&#x12e;" horiz-adv-x="393" 
d="M256 -240l51 -22q-16 -51 -52 -85t-97 -34q-64 0 -105 40t-41 118q0 73 42.5 137.5t109.5 108.5v1343h65v-1366q-157 -89 -157 -223q0 -51 23 -77t63 -26q76 0 98 86z" />
    <glyph glyph-name="iogonek" unicode="&#x12f;" horiz-adv-x="370" 
d="M244 -240l51 -22q-16 -51 -52.5 -85t-97.5 -34q-64 0 -104.5 40t-40.5 118q0 73 43.5 138.5t112.5 109.5v964h61v-989q-158 -90 -158 -223q0 -51 23 -77t63 -26q77 0 99 86zM186 1159q-24 0 -41.5 17.5t-17.5 42.5q0 24 17.5 41.5t41.5 17.5q25 0 42.5 -17t17.5 -42
t-17.5 -42.5t-42.5 -17.5z" />
    <glyph glyph-name="Idotaccent" unicode="&#x130;" horiz-adv-x="393" 
d="M229 0h-65v1366h65v-1366zM197 1501q-24 0 -42 18t-18 42t18 41.5t42 17.5q25 0 42 -17t17 -42t-17 -42.5t-42 -17.5z" />
    <glyph glyph-name="dotlessi" unicode="&#x131;" horiz-adv-x="370" 
d="M217 0h-61v989h61v-989z" />
    <glyph glyph-name="IJ" unicode="&#x132;" horiz-adv-x="1175" 
d="M229 0h-65v1366h65v-1366zM694 -25q-88 0 -154.5 35t-123.5 111l53 47q90 -131 225 -131q119 0 185.5 72.5t66.5 203.5v1053h66v-1053q0 -166 -88.5 -252t-229.5 -86z" />
    <glyph glyph-name="ij" unicode="&#x133;" horiz-adv-x="741" 
d="M186 1159q-24 0 -41.5 17.5t-17.5 42.5q0 24 17.5 41.5t41.5 17.5q25 0 42.5 -17t17.5 -42t-17.5 -42.5t-42.5 -17.5zM217 0h-61v989h61v-989zM557 1159q-23 0 -41 17.5t-18 42.5q0 24 17.5 41.5t41.5 17.5q25 0 42 -17t17 -42t-17 -42.5t-42 -17.5zM399 -401
q-96 0 -153 77l47 39q43 -61 106 -61q127 0 127 170v1165h62v-1165q0 -225 -189 -225z" />
    <glyph glyph-name="Jcircumflex" unicode="&#x134;" horiz-adv-x="782" 
d="M795 1481h-52l-161 241l-154 -241h-53l170 295h73zM301 -25q-88 0 -154.5 35t-123.5 111l53 47q90 -131 225 -131q119 0 185.5 72.5t66.5 203.5v1053h65v-1053q0 -166 -88 -252t-229 -86z" />
    <glyph glyph-name="jcircumflex" unicode="&#x135;" horiz-adv-x="370" 
d="M397 1139h-51l-162 241l-153 -241h-54l170 295h74zM29 -401q-97 0 -154 77l47 39q43 -61 107 -61q127 0 127 170v1165h61v-1165q0 -120 -49 -172.5t-139 -52.5z" />
    <glyph glyph-name="Kcommaaccent" unicode="&#x136;" horiz-adv-x="966" 
d="M575 -281q0 -73 -37 -141.5t-89 -105.5l-46 36q49 36 79 89t30 100q-12 -2 -16 -2q-29 0 -47.5 19.5t-18.5 47.5q0 27 18.5 46.5t47.5 19.5q34 0 56.5 -29t22.5 -80zM915 0h-84l-471 664l-131 -181v-483h-65v1366h65v-782l559 782h84l-475 -653z" />
    <glyph glyph-name="kcommaaccent" unicode="&#x137;" horiz-adv-x="841" 
d="M512 -281q0 -73 -37 -141.5t-90 -105.5l-45 36q49 36 79 89t30 100q-13 -2 -17 -2q-29 0 -47 19.5t-18 47.5q0 27 18.5 46.5t46.5 19.5q34 0 57 -29t23 -80zM791 0h-76l-328 498l-170 -207v-291h-61v1366h61v-989l506 612h76l-373 -446z" />
    <glyph glyph-name="kgreenlandic" unicode="&#x138;" horiz-adv-x="841" 
d="M791 0h-76l-328 498l-170 -207v-291h-61v989h61v-612l506 612h76l-373 -446z" />
    <glyph glyph-name="Lacute" unicode="&#x139;" horiz-adv-x="825" 
d="M709 1776l-277 -295h-55l244 295h88zM756 0h-592v1366h65v-1305h527v-61z" />
    <glyph glyph-name="lacute" unicode="&#x13a;" horiz-adv-x="370" 
d="M434 1776l-276 -295h-56l244 295h88zM217 0h-61v1366h61v-1366z" />
    <glyph glyph-name="Lcommaaccent" unicode="&#x13b;" horiz-adv-x="825" 
d="M545 -281q0 -73 -37 -141.5t-90 -105.5l-45 36q49 36 78.5 89t29.5 100q-12 -2 -16 -2q-29 0 -47.5 19.5t-18.5 47.5q0 27 18.5 46.5t47.5 19.5q34 0 57 -29t23 -80zM756 0h-592v1366h65v-1305h527v-61z" />
    <glyph glyph-name="lcommaaccent" unicode="&#x13c;" horiz-adv-x="370" 
d="M276 -281q0 -73 -37 -141.5t-89 -105.5l-46 36q49 36 79 89t30 100q-12 -2 -16 -2q-29 0 -47.5 19.5t-18.5 47.5q0 27 18.5 46.5t47.5 19.5q34 0 56.5 -29t22.5 -80zM217 0h-61v1366h61v-1366z" />
    <glyph glyph-name="Lcaron" unicode="&#x13d;" horiz-adv-x="825" 
d="M549 1282q0 -73 -37.5 -142t-89.5 -106l-45 37q49 36 78.5 89t29.5 100q-12 -3 -16 -3q-29 0 -47.5 20t-18.5 48q0 27 18.5 46.5t47.5 19.5q34 0 57 -29t23 -80zM756 0h-592v1366h65v-1305h527v-61z" />
    <glyph glyph-name="lcaron" unicode="&#x13e;" horiz-adv-x="462" 
d="M508 1282q0 -73 -37.5 -142t-89.5 -106l-45 37q49 36 78.5 89t29.5 100q-12 -3 -16 -3q-29 0 -47.5 20t-18.5 48q0 27 18.5 46.5t47.5 19.5q34 0 57 -29t23 -80zM217 0h-61v1366h61v-1366z" />
    <glyph glyph-name="Ldot" unicode="&#x13f;" horiz-adv-x="825" 
d="M756 0h-592v1366h65v-1305h527v-61zM668 700q0 -28 -20 -47.5t-48 -19.5t-48 19.5t-20 47.5q0 26 20 46t48 20t48 -20t20 -46z" />
    <glyph glyph-name="ldot" unicode="&#x140;" horiz-adv-x="479" 
d="M217 0h-61v1366h61v-1366zM494 502q0 -28 -20 -48t-48 -20t-48 20t-20 48q0 26 20 45.5t48 19.5t48 -19.5t20 -45.5z" />
    <glyph glyph-name="Lslash" unicode="&#x141;" horiz-adv-x="866" 
d="M39 530v70l166 96v670h65v-633l181 107v-70l-181 -106v-603h527v-61h-592v627z" />
    <glyph glyph-name="lslash" unicode="&#x142;" horiz-adv-x="485" 
d="M39 547v65l174 99v655h61v-621l172 101v-66l-172 -100v-680h-61v645z" />
    <glyph glyph-name="Nacute" unicode="&#x143;" horiz-adv-x="1112" 
d="M825 1776l-276 -295h-55l243 295h88zM948 0h-65l-654 1219v-1219h-65v1366h65l654 -1206v1206h65v-1366z" />
    <glyph glyph-name="nacute" unicode="&#x144;" horiz-adv-x="890" 
d="M694 1434l-276 -295h-56l244 295h88zM737 0h-61v750q0 112 -47 160t-135 48q-81 0 -158 -55t-119 -133v-770h-61v989h61v-151q47 73 125.5 124.5t159.5 51.5q118 0 176.5 -63.5t58.5 -200.5v-750z" />
    <glyph glyph-name="Ncommaaccent" unicode="&#x145;" horiz-adv-x="1112" 
d="M647 -281q0 -73 -37 -141.5t-90 -105.5l-45 36q49 36 79 89t30 100q-13 -2 -17 -2q-29 0 -47 19.5t-18 47.5q0 27 18.5 46.5t46.5 19.5q34 0 57 -29t23 -80zM948 0h-65l-654 1219v-1219h-65v1366h65l654 -1206v1206h65v-1366z" />
    <glyph glyph-name="ncommaaccent" unicode="&#x146;" horiz-adv-x="890" 
d="M539 -281q0 -73 -37 -141.5t-90 -105.5l-45 36q49 36 78.5 89t29.5 100q-12 -2 -16 -2q-29 0 -47.5 19.5t-18.5 47.5q0 27 18.5 46.5t47.5 19.5q34 0 57 -29t23 -80zM737 0h-61v750q0 112 -47 160t-135 48q-81 0 -158 -55t-119 -133v-770h-61v989h61v-151
q47 73 125.5 124.5t159.5 51.5q118 0 176.5 -63.5t58.5 -200.5v-750z" />
    <glyph glyph-name="Ncaron" unicode="&#x147;" horiz-adv-x="1112" 
d="M596 1481h-74l-176 295h53l160 -242l156 242h51zM948 0h-65l-654 1219v-1219h-65v1366h65l654 -1206v1206h65v-1366z" />
    <glyph glyph-name="ncaron" unicode="&#x148;" horiz-adv-x="890" 
d="M485 1139h-73l-176 295h53l160 -242l155 242h51zM737 0h-61v750q0 112 -47 160t-135 48q-81 0 -158 -55t-119 -133v-770h-61v989h61v-151q47 73 125.5 124.5t159.5 51.5q118 0 176.5 -63.5t58.5 -200.5v-750z" />
    <glyph glyph-name="napostrophe" unicode="&#x149;" horiz-adv-x="890" 
d="M283 1376q0 -73 -37.5 -142t-89.5 -106l-45 37q49 36 78.5 89t29.5 100q-12 -2 -16 -2q-29 0 -47.5 19.5t-18.5 47.5q0 27 18.5 46.5t47.5 19.5q34 0 57 -29t23 -80zM737 0h-61v750q0 112 -47 160t-135 48q-81 0 -158 -55t-119 -133v-770h-61v989h61v-151
q47 73 125.5 124.5t159.5 51.5q118 0 176.5 -63.5t58.5 -200.5v-750z" />
    <glyph glyph-name="Eng" unicode="&#x14a;" horiz-adv-x="1112" 
d="M631 -401q-88 0 -155 34t-124 109l54 49q90 -131 225 -131q119 0 185.5 70.5t66.5 201.5v68l-654 1219v-1219h-65v1366h65l654 -1206v1206h65v-1434q0 -166 -87.5 -249.5t-229.5 -83.5z" />
    <glyph glyph-name="eng" unicode="&#x14b;" horiz-adv-x="890" 
d="M737 750v-926q0 -120 -49 -172.5t-139 -52.5q-95 0 -152 77l47 39q43 -61 105 -61q127 0 127 170v926q0 112 -47 160t-135 48q-81 0 -158 -55t-119 -133v-770h-61v989h61v-151q47 73 125.5 124.5t159.5 51.5q118 0 176.5 -63.5t58.5 -200.5z" />
    <glyph glyph-name="Omacron" unicode="&#x14c;" horiz-adv-x="1187" 
d="M903 1532h-618v55h618v-55zM594 -25q-113 0 -204.5 56t-149.5 153t-88.5 224t-30.5 274t30.5 274t88.5 224t149.5 153t204.5 56t204.5 -56t149.5 -153t88.5 -224t30.5 -274t-30.5 -274t-88.5 -224t-149.5 -153t-204.5 -56zM594 37q126 0 218.5 88t137.5 232.5t45 324.5
q0 182 -45 326t-137.5 231.5t-218.5 87.5t-218.5 -87.5t-137.5 -231.5t-45 -326q0 -180 45 -324.5t137.5 -232.5t218.5 -88z" />
    <glyph glyph-name="omacron" unicode="&#x14d;" horiz-adv-x="944" 
d="M782 1190h-618v55h618v-55zM473 -25q-116 0 -199.5 72.5t-123 188.5t-39.5 260t39.5 259t123 187t199.5 72t200 -72t123.5 -187t39.5 -259q0 -85 -14.5 -162t-44.5 -142.5t-72.5 -114t-102 -75.5t-129.5 -27zM473 31q75 0 133 39.5t92.5 106.5t52 148t17.5 171
q0 89 -17.5 169.5t-52 147t-92.5 106t-133 39.5q-74 0 -132 -39.5t-92.5 -106t-52.5 -147t-18 -169.5q0 -121 30 -223.5t98.5 -172t166.5 -69.5z" />
    <glyph glyph-name="Obreve" unicode="&#x14e;" horiz-adv-x="1187" 
d="M594 -25q-113 0 -204.5 56t-149.5 153t-88.5 224t-30.5 274t30.5 274t88.5 224t149.5 153t204.5 56t204.5 -56t149.5 -153t88.5 -224t30.5 -274t-30.5 -274t-88.5 -224t-149.5 -153t-204.5 -56zM594 37q126 0 218.5 88t137.5 232.5t45 324.5q0 182 -45 326t-137.5 231.5
t-218.5 87.5t-218.5 -87.5t-137.5 -231.5t-45 -326q0 -180 45 -324.5t137.5 -232.5t218.5 -88zM891 1622q-52 -70 -129.5 -109.5t-167.5 -39.5t-168 39.5t-131 109.5l45 37q41 -60 109.5 -95.5t144.5 -35.5t144.5 35.5t109.5 95.5z" />
    <glyph glyph-name="obreve" unicode="&#x14f;" horiz-adv-x="944" 
d="M473 -25q-116 0 -199.5 72.5t-123 188.5t-39.5 260t39.5 259t123 187t199.5 72t200 -72t123.5 -187t39.5 -259q0 -85 -14.5 -162t-44.5 -142.5t-72.5 -114t-102 -75.5t-129.5 -27zM473 31q75 0 133 39.5t92.5 106.5t52 148t17.5 171q0 89 -17.5 169.5t-52 147t-92.5 106
t-133 39.5q-74 0 -132 -39.5t-92.5 -106t-52.5 -147t-18 -169.5q0 -121 30 -223.5t98.5 -172t166.5 -69.5zM772 1280q-52 -70 -129.5 -110t-167.5 -40q-89 0 -167.5 40t-131.5 110l45 37q41 -60 109.5 -95.5t144.5 -35.5t144.5 35.5t109.5 95.5z" />
    <glyph glyph-name="Ohungarumlaut" unicode="&#x150;" horiz-adv-x="1187" 
d="M662 1776l-195 -295h-47l162 295h80zM909 1776l-194 -295h-47l161 295h80zM594 -25q-113 0 -204.5 56t-149.5 153t-88.5 224t-30.5 274t30.5 274t88.5 224t149.5 153t204.5 56t204.5 -56t149.5 -153t88.5 -224t30.5 -274t-30.5 -274t-88.5 -224t-149.5 -153t-204.5 -56z
M594 37q126 0 218.5 88t137.5 232.5t45 324.5q0 182 -45 326t-137.5 231.5t-218.5 87.5t-218.5 -87.5t-137.5 -231.5t-45 -326q0 -180 45 -324.5t137.5 -232.5t218.5 -88z" />
    <glyph glyph-name="ohungarumlaut" unicode="&#x151;" horiz-adv-x="944" 
d="M541 1434l-195 -295h-47l162 295h80zM788 1434l-194 -295h-47l162 295h79zM473 -25q-116 0 -199.5 72.5t-123 188.5t-39.5 260t39.5 259t123 187t199.5 72t200 -72t123.5 -187t39.5 -259q0 -85 -14.5 -162t-44.5 -142.5t-72.5 -114t-102 -75.5t-129.5 -27zM473 31
q75 0 133 39.5t92.5 106.5t52 148t17.5 171q0 89 -17.5 169.5t-52 147t-92.5 106t-133 39.5q-74 0 -132 -39.5t-92.5 -106t-52.5 -147t-18 -169.5q0 -121 30 -223.5t98.5 -172t166.5 -69.5z" />
    <glyph glyph-name="OE" unicode="&#x152;" horiz-adv-x="1726" 
d="M1606 0h-633v244q-40 -93 -104.5 -155.5t-132.5 -88t-142 -25.5q-113 0 -204.5 56t-149.5 153.5t-88.5 224.5t-30.5 273q0 147 30.5 273.5t88.5 223t149 152t205 55.5q75 0 142.5 -24t132 -85t104.5 -153v242h633v-61h-568v-572h553v-61h-553v-611h568v-61zM973 395v578
q-47 170 -146.5 261t-232.5 91q-127 0 -219.5 -87t-137 -230.5t-44.5 -325.5q0 -181 44.5 -325t137 -232t219.5 -88q133 0 232.5 93.5t146.5 264.5z" />
    <glyph glyph-name="oe" unicode="&#x153;" horiz-adv-x="1597" 
d="M1493 475h-657q3 -196 89.5 -320t233.5 -124q149 0 254 145l47 -35q-126 -166 -301 -166q-78 0 -141.5 26t-105 71t-68 95.5t-41.5 108.5q-14 -58 -38.5 -107.5t-63 -95t-97 -72t-131.5 -26.5q-116 0 -199.5 72.5t-123 188.5t-39.5 260t39.5 259t123 187t199.5 72
q73 0 132 -26t97.5 -70.5t63 -93.5t37.5 -105q13 56 39.5 106.5t66 93.5t98 69t126.5 26q91 0 162 -42t113 -115t63.5 -164t21.5 -197v-21zM836 530h591q0 75 -17 147.5t-51 137t-93.5 104t-135.5 39.5q-73 0 -131 -40.5t-92 -106t-51.5 -137.5t-19.5 -144zM768 496
q0 89 -17.5 169.5t-52 147t-92.5 106t-133 39.5q-74 0 -132 -39.5t-92.5 -106t-52.5 -147t-18 -169.5t18 -170t52.5 -148.5t92.5 -108t132 -40.5q75 0 133 40.5t92.5 108t52 148.5t17.5 170z" />
    <glyph glyph-name="Racute" unicode="&#x154;" horiz-adv-x="968" 
d="M745 1776l-276 -295h-55l243 295h88zM858 0h-80l-309 592h-240v-592h-65v1366h338q150 0 245 -102.5t95 -284.5q0 -177 -87 -275t-214 -108zM502 653q126 0 197 90.5t71 235.5t-71 235.5t-197 90.5h-273v-652h273z" />
    <glyph glyph-name="racute" unicode="&#x155;" horiz-adv-x="544" 
d="M578 1434l-277 -295h-55l243 295h89zM217 0h-61v989h61v-176q57 94 125.5 144.5t161.5 50.5v-74q-14 2 -39 2q-73 0 -144 -59.5t-104 -135.5v-741z" />
    <glyph glyph-name="Rcommaaccent" unicode="&#x156;" horiz-adv-x="968" 
d="M573 -281q0 -73 -37 -141.5t-90 -105.5l-45 36q49 36 79 89t30 100q-12 -2 -16 -2q-29 0 -47.5 19.5t-18.5 47.5q0 27 18.5 46.5t47.5 19.5q34 0 56.5 -29t22.5 -80zM858 0h-80l-309 592h-240v-592h-65v1366h338q150 0 245 -102.5t95 -284.5q0 -177 -87 -275t-214 -108z
M502 653q126 0 197 90.5t71 235.5t-71 235.5t-197 90.5h-273v-652h273z" />
    <glyph glyph-name="rcommaaccent" unicode="&#x157;" horiz-adv-x="544" 
d="M365 -281q0 -73 -37 -141.5t-90 -105.5l-45 36q49 36 78.5 89t29.5 100q-12 -2 -16 -2q-29 0 -47.5 19.5t-18.5 47.5q0 27 18.5 46.5t47.5 19.5q34 0 57 -29t23 -80zM217 0h-61v989h61v-176q57 94 125.5 144.5t161.5 50.5v-74q-14 2 -39 2q-73 0 -144 -59.5t-104 -135.5
v-741z" />
    <glyph glyph-name="Rcaron" unicode="&#x158;" horiz-adv-x="968" 
d="M522 1481h-73l-177 295h54l159 -242l156 242h51zM858 0h-80l-309 592h-240v-592h-65v1366h338q150 0 245 -102.5t95 -284.5q0 -177 -87 -275t-214 -108zM502 653q126 0 197 90.5t71 235.5t-71 235.5t-197 90.5h-273v-652h273z" />
    <glyph glyph-name="rcaron" unicode="&#x159;" horiz-adv-x="544" 
d="M362 1139h-73l-176 295h53l160 -242l155 242h51zM217 0h-61v989h61v-176q57 94 125.5 144.5t161.5 50.5v-74q-14 2 -39 2q-73 0 -144 -59.5t-104 -135.5v-741z" />
    <glyph glyph-name="Sacute" unicode="&#x15a;" horiz-adv-x="915" 
d="M713 1776l-277 -295h-55l244 295h88zM442 -25q-112 0 -205 45t-155 123l51 50q51 -68 132 -112t177 -44q78 0 137.5 24t95 65.5t53 91.5t17.5 106q0 66 -21.5 120t-57.5 91.5t-82.5 70t-98 59t-103 53.5t-98 60t-82.5 71.5t-57.5 93.5t-21.5 122q0 148 100 236t242 88
q203 0 319 -138l-45 -49q-102 125 -274 125q-115 0 -195 -73t-80 -189q0 -71 34.5 -127t89.5 -94.5t121 -73.5t132.5 -74t121.5 -86t89.5 -120t34.5 -166q0 -66 -21 -126t-64 -111t-116.5 -81.5t-169.5 -30.5z" />
    <glyph glyph-name="sacute" unicode="&#x15b;" horiz-adv-x="749" 
d="M618 1434l-276 -295h-55l243 295h88zM367 -25q-93 0 -163.5 33t-129.5 107l47 45q93 -129 246 -129q100 0 163.5 57.5t63.5 149.5q0 58 -27.5 103t-71 73.5t-96.5 53.5t-106 51t-96.5 58t-71 82.5t-27.5 116.5q0 103 77 170.5t200 67.5q172 0 264 -127l-43 -41
q-72 112 -221 112q-98 0 -156.5 -52t-58.5 -130q0 -54 27.5 -95.5t71 -68.5t96 -51.5t105.5 -51.5t96.5 -60.5t71 -87t27.5 -123.5q0 -115 -78.5 -189t-209.5 -74z" />
    <glyph glyph-name="Scircumflex" unicode="&#x15c;" horiz-adv-x="915" 
d="M670 1481h-52l-161 241l-154 -241h-53l170 295h74zM442 -25q-112 0 -205 45t-155 123l51 50q51 -68 132 -112t177 -44q78 0 137.5 24t95 65.5t53 91.5t17.5 106q0 66 -21.5 120t-57.5 91.5t-82.5 70t-98 59t-103 53.5t-98 60t-82.5 71.5t-57.5 93.5t-21.5 122
q0 148 100 236t242 88q203 0 319 -138l-45 -49q-102 125 -274 125q-115 0 -195 -73t-80 -189q0 -71 34.5 -127t89.5 -94.5t121 -73.5t132.5 -74t121.5 -86t89.5 -120t34.5 -166q0 -66 -21 -126t-64 -111t-116.5 -81.5t-169.5 -30.5z" />
    <glyph glyph-name="scircumflex" unicode="&#x15d;" horiz-adv-x="749" 
d="M586 1139h-51l-162 241l-154 -241h-53l170 295h74zM367 -25q-93 0 -163.5 33t-129.5 107l47 45q93 -129 246 -129q100 0 163.5 57.5t63.5 149.5q0 58 -27.5 103t-71 73.5t-96.5 53.5t-106 51t-96.5 58t-71 82.5t-27.5 116.5q0 103 77 170.5t200 67.5q172 0 264 -127
l-43 -41q-72 112 -221 112q-98 0 -156.5 -52t-58.5 -130q0 -54 27.5 -95.5t71 -68.5t96 -51.5t105.5 -51.5t96.5 -60.5t71 -87t27.5 -123.5q0 -115 -78.5 -189t-209.5 -74z" />
    <glyph glyph-name="Scedilla" unicode="&#x15e;" horiz-adv-x="915" 
d="M436 -383q-101 0 -168 57l29 54q61 -56 139 -56q51 0 87 27.5t36 73.5q0 39 -20 61.5t-58 22.5q-48 0 -75 -35l-46 26l48 129q-202 12 -326 166l51 50q51 -68 132 -112t177 -44q78 0 137.5 24t95 65.5t53 91.5t17.5 106q0 66 -21.5 120t-57.5 91.5t-82.5 70t-98 59
t-103 53.5t-98 60t-82.5 71.5t-57.5 93.5t-21.5 122q0 148 100 236t242 88q203 0 319 -138l-45 -49q-102 125 -274 125q-115 0 -195 -73t-80 -189q0 -71 34.5 -127t89.5 -94.5t121 -73.5t132.5 -74t121.5 -86t89.5 -120t34.5 -166q0 -64 -20 -122.5t-59.5 -108.5t-108.5 -82
t-158 -36l-35 -96q26 23 68 23q52 0 85 -35t33 -94q0 -67 -52.5 -111.5t-129.5 -44.5z" />
    <glyph glyph-name="scedilla" unicode="&#x15f;" horiz-adv-x="749" 
d="M360 -383q-100 0 -167 57l28 54q61 -56 139 -56q51 0 87 27.5t36 73.5q0 39 -20 61.5t-57 22.5q-49 0 -76 -35l-45 26l47 129q-155 9 -258 138l47 45q93 -129 246 -129q100 0 163.5 57.5t63.5 149.5q0 58 -27.5 103t-71 73.5t-96.5 53.5t-106 51t-96.5 58t-71 82.5
t-27.5 116.5q0 103 77 170.5t200 67.5q172 0 264 -127l-43 -41q-72 112 -221 112q-98 0 -156.5 -52t-58.5 -130q0 -54 27.5 -95.5t71 -68.5t96 -51.5t105.5 -51.5t96.5 -60.5t71 -87t27.5 -123.5q0 -109 -71.5 -181.5t-192.5 -79.5l-35 -98q26 23 68 23q52 0 85.5 -35
t33.5 -94q0 -67 -53 -111.5t-130 -44.5z" />
    <glyph glyph-name="Scaron" unicode="&#x160;" horiz-adv-x="915" 
d="M500 1481h-74l-176 295h53l160 -242l155 242h52zM442 -25q-112 0 -205 45t-155 123l51 50q51 -68 132 -112t177 -44q78 0 137.5 24t95 65.5t53 91.5t17.5 106q0 66 -21.5 120t-57.5 91.5t-82.5 70t-98 59t-103 53.5t-98 60t-82.5 71.5t-57.5 93.5t-21.5 122
q0 148 100 236t242 88q203 0 319 -138l-45 -49q-102 125 -274 125q-115 0 -195 -73t-80 -189q0 -71 34.5 -127t89.5 -94.5t121 -73.5t132.5 -74t121.5 -86t89.5 -120t34.5 -166q0 -66 -21 -126t-64 -111t-116.5 -81.5t-169.5 -30.5z" />
    <glyph glyph-name="scaron" unicode="&#x161;" horiz-adv-x="749" 
d="M416 1139h-74l-176 295h53l160 -242l156 242h51zM367 -25q-93 0 -163.5 33t-129.5 107l47 45q93 -129 246 -129q100 0 163.5 57.5t63.5 149.5q0 58 -27.5 103t-71 73.5t-96.5 53.5t-106 51t-96.5 58t-71 82.5t-27.5 116.5q0 103 77 170.5t200 67.5q172 0 264 -127
l-43 -41q-72 112 -221 112q-98 0 -156.5 -52t-58.5 -130q0 -54 27.5 -95.5t71 -68.5t96 -51.5t105.5 -51.5t96.5 -60.5t71 -87t27.5 -123.5q0 -115 -78.5 -189t-209.5 -74z" />
    <glyph glyph-name="Tcommaaccent" unicode="&#x162;" horiz-adv-x="866" 
d="M524 -281q0 -73 -37 -141.5t-90 -105.5l-45 36q49 36 79 89t30 100q-13 -2 -17 -2q-29 0 -47 19.5t-18 47.5q0 27 18.5 46.5t46.5 19.5q34 0 57 -29t23 -80zM465 0h-66v1305h-342v61h752v-61h-344v-1305z" />
    <glyph glyph-name="tcommaaccent" unicode="&#x163;" horiz-adv-x="479" 
d="M332 -281q0 -73 -37 -141.5t-90 -105.5l-45 36q49 36 78.5 89t29.5 100q-12 -2 -16 -2q-29 0 -47.5 19.5t-18.5 47.5q0 27 18.5 46.5t47.5 19.5q34 0 57 -29t23 -80zM324 -25q-150 0 -150 191v768h-135v55h135v271h62v-271h172v-55h-172v-768q0 -135 88 -135q57 0 96 49
l39 -43q-30 -31 -59.5 -46.5t-75.5 -15.5z" />
    <glyph glyph-name="Tcaron" unicode="&#x164;" horiz-adv-x="866" 
d="M473 1481h-74l-176 295h53l160 -242l156 242h51zM465 0h-66v1305h-342v61h752v-61h-344v-1305z" />
    <glyph glyph-name="tcaron" unicode="&#x165;" horiz-adv-x="479" 
d="M518 1376q0 -73 -37.5 -142t-89.5 -106l-45 37q49 36 79 89t30 100q-13 -2 -17 -2q-29 0 -47 19.5t-18 47.5q0 27 18.5 46.5t46.5 19.5q34 0 57 -29t23 -80zM324 -25q-150 0 -150 191v768h-135v55h135v271h62v-271h172v-55h-172v-768q0 -135 88 -135q57 0 96 49l39 -43
q-30 -31 -59.5 -46.5t-75.5 -15.5z" />
    <glyph glyph-name="Tbar" unicode="&#x166;" horiz-adv-x="866" 
d="M465 0h-66v657h-249v56h249v592h-342v61h752v-61h-344v-592h242v-56h-242v-657z" />
    <glyph glyph-name="tbar" unicode="&#x167;" horiz-adv-x="479" 
d="M324 -25q-150 0 -150 191v330h-135v55h135v383h-135v55h135v271h62v-271h172v-55h-172v-383h112v-55h-112v-330q0 -135 88 -135q57 0 96 49l39 -43q-30 -31 -59.5 -46.5t-75.5 -15.5z" />
    <glyph glyph-name="Utilde" unicode="&#x168;" horiz-adv-x="1093" 
d="M547 -25q-185 0 -284 114t-99 329v948h65v-948q0 -189 82.5 -285t235.5 -96t235 96t82 285v948h66v-948q0 -216 -98.5 -329.5t-284.5 -113.5zM653 1477q-38 0 -65 24t-41.5 57.5t-27.5 67.5t-32 58t-45 24q-45 0 -72.5 -54.5t-27.5 -164.5h-49q0 118 40 196t116 78
q38 0 64.5 -24t41.5 -57.5t27.5 -67.5t31.5 -58t45 -24q45 0 72 54t27 165h49q0 -117 -39.5 -195.5t-114.5 -78.5z" />
    <glyph glyph-name="utilde" unicode="&#x169;" horiz-adv-x="890" 
d="M737 0h-61v147q-53 -76 -127.5 -124t-157.5 -48q-120 0 -177.5 61.5t-57.5 203.5v749h61v-749q0 -112 46.5 -160.5t135.5 -48.5q80 0 158 53.5t119 130.5v774h61v-989zM549 1135q-38 0 -65 24t-41.5 57.5t-27.5 67.5t-32 58t-45 24q-45 0 -72.5 -54.5t-27.5 -164.5h-50
q0 118 40 196t116 78q38 0 65 -24t41.5 -57.5t27.5 -67.5t32 -58t45 -24q45 0 71.5 54t26.5 165h49q0 -117 -39 -195.5t-114 -78.5z" />
    <glyph glyph-name="Umacron" unicode="&#x16a;" horiz-adv-x="1093" 
d="M547 -25q-185 0 -284 114t-99 329v948h65v-948q0 -189 82.5 -285t235.5 -96t235 96t82 285v948h66v-948q0 -216 -98.5 -329.5t-284.5 -113.5zM856 1532h-618v55h618v-55z" />
    <glyph glyph-name="umacron" unicode="&#x16b;" horiz-adv-x="890" 
d="M737 0h-61v147q-53 -76 -127.5 -124t-157.5 -48q-120 0 -177.5 61.5t-57.5 203.5v749h61v-749q0 -112 46.5 -160.5t135.5 -48.5q80 0 158 53.5t119 130.5v774h61v-989zM756 1190h-619v55h619v-55z" />
    <glyph glyph-name="Ubreve" unicode="&#x16c;" horiz-adv-x="1093" 
d="M547 -25q-185 0 -284 114t-99 329v948h65v-948q0 -189 82.5 -285t235.5 -96t235 96t82 285v948h66v-948q0 -216 -98.5 -329.5t-284.5 -113.5zM850 1622q-52 -70 -129.5 -109.5t-167.5 -39.5t-168 39.5t-131 109.5l45 37q41 -60 109.5 -95.5t144.5 -35.5t144.5 35.5
t109.5 95.5z" />
    <glyph glyph-name="ubreve" unicode="&#x16d;" horiz-adv-x="890" 
d="M737 0h-61v147q-53 -76 -127.5 -124t-157.5 -48q-120 0 -177.5 61.5t-57.5 203.5v749h61v-749q0 -112 46.5 -160.5t135.5 -48.5q80 0 158 53.5t119 130.5v774h61v-989zM745 1280q-52 -70 -129.5 -110t-166.5 -40t-167.5 40t-131.5 110l45 37q41 -60 109.5 -95.5
t144.5 -35.5t143.5 35.5t109.5 95.5z" />
    <glyph glyph-name="Uring" unicode="&#x16e;" horiz-adv-x="1093" 
d="M549 1475q-72 0 -124 52t-52 124t52 123t124 51t122 -51t50 -123t-50 -124t-122 -52zM549 1524q52 0 88.5 37t36.5 90t-36 89t-89 36t-90 -36.5t-37 -88.5q0 -53 37 -90t90 -37zM547 -25q-185 0 -284 114t-99 329v948h65v-948q0 -189 82.5 -285t235.5 -96t235 96t82 285
v948h66v-948q0 -216 -98.5 -329.5t-284.5 -113.5z" />
    <glyph glyph-name="uring" unicode="&#x16f;" horiz-adv-x="890" 
d="M446 1133q-72 0 -124 52t-52 124t52 123t124 51t122 -51t50 -123t-50 -124t-122 -52zM446 1182q52 0 88.5 37t36.5 90t-36.5 89t-88.5 36q-53 0 -90 -36.5t-37 -88.5q0 -53 37.5 -90t89.5 -37zM737 0h-61v147q-53 -76 -127.5 -124t-157.5 -48q-120 0 -177.5 61.5
t-57.5 203.5v749h61v-749q0 -112 46.5 -160.5t135.5 -48.5q80 0 158 53.5t119 130.5v774h61v-989z" />
    <glyph glyph-name="Uhungarumlaut" unicode="&#x170;" horiz-adv-x="1093" 
d="M547 -25q-185 0 -284 114t-99 329v948h65v-948q0 -189 82.5 -285t235.5 -96t235 96t82 285v948h66v-948q0 -216 -98.5 -329.5t-284.5 -113.5zM614 1776l-194 -295h-47l162 295h79zM862 1776l-194 -295h-47l161 295h80z" />
    <glyph glyph-name="uhungarumlaut" unicode="&#x171;" horiz-adv-x="890" 
d="M737 0h-61v147q-53 -76 -127.5 -124t-157.5 -48q-120 0 -177.5 61.5t-57.5 203.5v749h61v-749q0 -112 46.5 -160.5t135.5 -48.5q80 0 158 53.5t119 130.5v774h61v-989zM514 1434l-195 -295h-47l162 295h80zM762 1434l-195 -295h-47l162 295h80z" />
    <glyph glyph-name="Uogonek" unicode="&#x172;" horiz-adv-x="1093" 
d="M547 -25q-185 0 -284 114t-99 329v948h65v-948q0 -189 82.5 -285t235.5 -96t235 96t82 285v948h66v-948q0 -337 -230 -418q-157 -89 -157 -223q0 -51 23 -77t63 -26q76 0 98 86l51 -22q-16 -51 -52 -85t-97 -34q-64 0 -105 40t-41 118q0 111 92 200q-10 -2 -28 -2z" />
    <glyph glyph-name="uogonek" unicode="&#x173;" horiz-adv-x="890" 
d="M737 0q-157 -89 -157 -223q0 -51 23 -77t63 -26q76 0 98 86l51 -22q-16 -51 -52 -85t-97 -34q-64 0 -105 40t-41 118q0 73 43.5 138.5t112.5 109.5v122q-53 -76 -127.5 -124t-157.5 -48q-120 0 -177.5 61.5t-57.5 203.5v749h61v-749q0 -112 46.5 -160.5t135.5 -48.5
q80 0 158 53.5t119 130.5v774h61v-989z" />
    <glyph glyph-name="Wcircumflex" unicode="&#x174;" horiz-adv-x="1374" 
d="M899 1481h-51l-162 241l-154 -241h-53l170 295h74zM1028 0h-78l-262 1223l-262 -1223h-78l-297 1366h72l264 -1251l266 1251h70l266 -1251l264 1251h72z" />
    <glyph glyph-name="wcircumflex" unicode="&#x175;" horiz-adv-x="1216" 
d="M819 1139h-51l-162 241l-153 -241h-54l170 295h74zM907 0h-55l-244 899l-243 -899h-56l-266 989h68l227 -893l240 893h61l240 -893l227 893h68z" />
    <glyph glyph-name="Ycircumflex" unicode="&#x176;" horiz-adv-x="954" 
d="M690 1481h-51l-162 241l-153 -241h-54l170 295h74zM510 0h-66v592l-419 774h77l375 -700l377 700h78l-422 -774v-592z" />
    <glyph glyph-name="ycircumflex" unicode="&#x177;" horiz-adv-x="768" 
d="M80 -387l12 55q25 -14 68 -14q45 0 71.5 26.5t51.5 96.5l69 200l-323 1012h69l287 -911l287 911h69l-403 -1233q-53 -157 -178 -157q-48 0 -80 14zM596 1139h-51l-162 241l-154 -241h-53l170 295h74z" />
    <glyph glyph-name="Ydieresis" unicode="&#x178;" horiz-adv-x="954" 
d="M709 1567q0 -23 -17.5 -40.5t-40.5 -17.5t-40 17.5t-17 40.5t17 40t40 17t40.5 -17t17.5 -40zM377 1567q0 -23 -17.5 -40.5t-40.5 -17.5t-40 17.5t-17 40.5t17 40t40 17t40.5 -17t17.5 -40zM510 0h-66v592l-419 774h77l375 -700l377 700h78l-422 -774v-592z" />
    <glyph glyph-name="Zacute" unicode="&#x179;" horiz-adv-x="909" 
d="M702 1776l-276 -295h-55l243 295h88zM817 0h-725v63l639 1242h-639v61h711v-61l-641 -1244h655v-61z" />
    <glyph glyph-name="zacute" unicode="&#x17a;" horiz-adv-x="759" 
d="M629 1434l-277 -295h-55l244 295h88zM655 0h-551v55l476 879h-476v55h543v-55l-475 -879h483v-55z" />
    <glyph glyph-name="Zdotaccent" unicode="&#x17b;" horiz-adv-x="909" 
d="M817 0h-725v63l639 1242h-639v61h711v-61l-641 -1244h655v-61zM455 1501q-24 0 -42 18t-18 42t18 41.5t42 17.5q25 0 42 -17t17 -42t-17 -42.5t-42 -17.5z" />
    <glyph glyph-name="zdotaccent" unicode="&#x17c;" horiz-adv-x="759" 
d="M655 0h-551v55l476 879h-476v55h543v-55l-475 -879h483v-55zM379 1159q-24 0 -42 18t-18 42t18 41.5t42 17.5q25 0 42 -17t17 -42t-17 -42.5t-42 -17.5z" />
    <glyph glyph-name="Zcaron" unicode="&#x17d;" horiz-adv-x="909" 
d="M496 1481h-74l-176 295h53l160 -242l155 242h52zM817 0h-725v63l639 1242h-639v61h711v-61l-641 -1244h655v-61z" />
    <glyph glyph-name="zcaron" unicode="&#x17e;" horiz-adv-x="759" 
d="M410 1139h-74l-176 295h53l160 -242l155 242h52zM655 0h-551v55l476 879h-476v55h543v-55l-475 -879h483v-55z" />
    <glyph glyph-name="longs" unicode="&#x17f;" horiz-adv-x="458" 
d="M244 0h-62v934h-133v55h133v162q0 109 55 172t150 63q84 0 141 -57l-39 -49q-42 51 -102 51q-71 0 -107 -47t-36 -133v-1151z" />
    <glyph glyph-name="florin" unicode="&#x192;" horiz-adv-x="765" 
d="M137 -330h-65l194 877h-133v61h146l120 543q25 109 93.5 172t164.5 63q83 0 129 -57l-49 -45q-28 41 -84 41q-71 0 -120 -46.5t-68 -129.5l-119 -541h268v-61h-282z" />
    <glyph glyph-name="Ohorn" unicode="&#x1a0;" horiz-adv-x="1187" 
d="M594 -25q-113 0 -204.5 56t-149.5 153t-88.5 224t-30.5 274t30.5 274t88.5 224t149.5 153t204.5 56q118 0 210 -59.5t152 -166.5q40 37 64 84t24 88q-10 -2 -14 -2q-29 0 -47 20t-18 48q0 27 18 46t47 19q34 0 56 -28.5t22 -79.5q0 -72 -37 -140t-88 -106
q84 -185 84 -430q0 -147 -30.5 -274t-88.5 -224t-149.5 -153t-204.5 -56zM594 37q126 0 218.5 88t137.5 232.5t45 324.5q0 182 -45 326t-137.5 231.5t-218.5 87.5t-218.5 -87.5t-137.5 -231.5t-45 -326q0 -180 45 -324.5t137.5 -232.5t218.5 -88z" />
    <glyph glyph-name="ohorn" unicode="&#x1a1;" horiz-adv-x="944" 
d="M860 1083q0 -67 -31.5 -130.5t-78.5 -104.5q86 -139 86 -352q0 -85 -14.5 -162t-44.5 -142.5t-72.5 -114t-102 -75.5t-129.5 -27q-116 0 -199.5 72.5t-123 188.5t-39.5 260t39.5 259t123 187t199.5 72q148 0 244 -117q37 35 58.5 79.5t21.5 84.5q-13 -2 -17 -2
q-29 0 -47 19.5t-18 47.5q0 27 18.5 46.5t46.5 19.5q34 0 57 -29t23 -80zM473 31q75 0 133 39.5t92.5 106.5t52 148t17.5 171q0 89 -17.5 169.5t-52 147t-92.5 106t-133 39.5q-74 0 -132 -39.5t-92.5 -106t-52.5 -147t-18 -169.5q0 -121 30 -223.5t98.5 -172t166.5 -69.5z
" />
    <glyph glyph-name="Uhorn" unicode="&#x1af;" horiz-adv-x="1093" 
d="M1147 1495q0 -92 -59.5 -174.5t-157.5 -128.5v-774q0 -216 -98.5 -329.5t-284.5 -113.5q-185 0 -284 114t-99 329v948h65v-948q0 -189 82.5 -285t235.5 -96t235 96t82 285v948h66v-111q66 35 109.5 98t43.5 120q-12 -3 -16 -3q-29 0 -47.5 20t-18.5 48q0 27 18.5 46.5
t47.5 19.5q34 0 57 -29t23 -80z" />
    <glyph glyph-name="uhorn" unicode="&#x1b0;" horiz-adv-x="890" 
d="M737 0h-61v147q-53 -76 -127.5 -124t-157.5 -48q-120 0 -177.5 61.5t-57.5 203.5v749h61v-749q0 -112 46.5 -160.5t135.5 -48.5q80 0 158 53.5t119 130.5v774h61v-129q56 38 90.5 94t34.5 107q-10 -2 -14 -2q-29 0 -47.5 19.5t-18.5 47.5q0 27 18.5 46.5t47.5 19.5
q34 0 56 -29t22 -80q0 -86 -50.5 -162t-138.5 -126v-795z" />
    <glyph glyph-name="AEacute" unicode="&#x1fc;" horiz-adv-x="1474" 
d="M1004 1776l-277 -295h-55l243 295h89zM1354 0h-633v367h-432l-172 -367h-72l651 1366h658v-61h-568v-572h553v-61h-553v-611h568v-61zM721 428v852l-406 -852h406z" />
    <glyph glyph-name="aeacute" unicode="&#x1fd;" horiz-adv-x="1482" 
d="M942 1434l-276 -295h-56l244 295h88zM1380 475h-624q3 -196 84.5 -320t220.5 -124q143 0 237 145l48 -35q-116 -166 -287 -166q-119 0 -200.5 69t-125.5 189q-35 -118 -114.5 -188t-192.5 -70q-143 0 -231.5 90t-88.5 240q0 148 88 239t222 91q176 0 278 -135v213
q0 120 -59.5 182.5t-173.5 62.5q-81 0 -146.5 -31t-126.5 -102l-41 45q126 144 318 144q53 0 99 -12.5t85.5 -38.5t64.5 -71t31 -106q36 98 112 163t173 65q89 0 158 -42t110 -115t61.5 -164t20.5 -197v-21zM756 530h557q0 60 -9 118t-30 114.5t-52 99.5t-79.5 69.5
t-108.5 26.5q-56 0 -103 -27t-78 -71t-53 -101t-32.5 -114.5t-11.5 -114.5zM694 381v45q-86 154 -270 154q-115 0 -182.5 -75.5t-67.5 -199.5t67.5 -199t182.5 -75q124 0 197 97t73 253z" />
    <glyph glyph-name="Oslashacute" unicode="&#x1fe;" horiz-adv-x="1187" 
d="M844 1776l-277 -295h-55l244 295h88zM594 -25q-149 0 -258 95l-33 -70h-70l56 117q-83 95 -125.5 242t-42.5 323q0 147 30.5 274t88.5 224t149.5 153t204.5 56q143 0 256 -95l35 72h71l-57 -121q82 -95 125 -242t43 -321q0 -147 -30.5 -274t-88.5 -224t-149.5 -153
t-204.5 -56zM594 37q126 0 218.5 88t137.5 232.5t45 324.5q0 313 -129 496l-499 -1045q93 -96 227 -96zM193 682q0 -318 129 -496l499 1045q-96 96 -227 96q-126 0 -218.5 -87.5t-137.5 -231.5t-45 -326z" />
    <glyph glyph-name="oslashacute" unicode="&#x1ff;" horiz-adv-x="944" 
d="M721 1434l-277 -295h-55l244 295h88zM209 0h-64l68 115q-102 144 -102 381q0 144 39.5 259t123 187t199.5 72q126 0 215 -86l37 61h63l-61 -106q109 -145 109 -387q0 -85 -14.5 -162t-44.5 -142.5t-72.5 -114t-102 -75.5t-129.5 -27q-131 0 -223 95zM473 31
q75 0 133 39.5t92.5 106.5t52 148t17.5 171q0 196 -76 327l-409 -698q78 -94 190 -94zM178 496q0 -192 70 -320l409 696q-76 86 -184 86q-74 0 -132 -39.5t-92.5 -106t-52.5 -147t-18 -169.5z" />
    <glyph glyph-name="Scommaaccent" unicode="&#x218;" horiz-adv-x="915" 
d="M537 -281q0 -73 -37 -141.5t-90 -105.5l-45 36q49 36 78.5 89t29.5 100q-12 -2 -16 -2q-29 0 -47.5 19.5t-18.5 47.5q0 27 18.5 46.5t47.5 19.5q34 0 57 -29t23 -80zM442 -25q-112 0 -205 45t-155 123l51 50q51 -68 132 -112t177 -44q78 0 137.5 24t95 65.5t53 91.5
t17.5 106q0 66 -21.5 120t-57.5 91.5t-82.5 70t-98 59t-103 53.5t-98 60t-82.5 71.5t-57.5 93.5t-21.5 122q0 148 100 236t242 88q203 0 319 -138l-45 -49q-102 125 -274 125q-115 0 -195 -73t-80 -189q0 -71 34.5 -127t89.5 -94.5t121 -73.5t132.5 -74t121.5 -86t89.5 -120
t34.5 -166q0 -66 -21 -126t-64 -111t-116.5 -81.5t-169.5 -30.5z" />
    <glyph glyph-name="scommaaccent" unicode="&#x219;" horiz-adv-x="749" 
d="M465 -281q0 -73 -37 -141.5t-90 -105.5l-45 36q49 36 78.5 89t29.5 100q-12 -2 -16 -2q-29 0 -47.5 19.5t-18.5 47.5q0 27 18.5 46.5t47.5 19.5q34 0 57 -29t23 -80zM367 -25q-93 0 -163.5 33t-129.5 107l47 45q93 -129 246 -129q100 0 163.5 57.5t63.5 149.5
q0 58 -27.5 103t-71 73.5t-96.5 53.5t-106 51t-96.5 58t-71 82.5t-27.5 116.5q0 103 77 170.5t200 67.5q172 0 264 -127l-43 -41q-72 112 -221 112q-98 0 -156.5 -52t-58.5 -130q0 -54 27.5 -95.5t71 -68.5t96 -51.5t105.5 -51.5t96.5 -60.5t71 -87t27.5 -123.5
q0 -115 -78.5 -189t-209.5 -74z" />
    <glyph glyph-name="uni021A" unicode="&#x21a;" horiz-adv-x="866" 
d="M524 -281q0 -73 -37 -141.5t-90 -105.5l-45 36q49 36 79 89t30 100q-13 -2 -17 -2q-29 0 -47 19.5t-18 47.5q0 27 18.5 46.5t46.5 19.5q34 0 57 -29t23 -80zM465 0h-66v1305h-342v61h752v-61h-344v-1305z" />
    <glyph glyph-name="uni021B" unicode="&#x21b;" horiz-adv-x="479" 
d="M332 -281q0 -73 -37 -141.5t-90 -105.5l-45 36q49 36 78.5 89t29.5 100q-12 -2 -16 -2q-29 0 -47.5 19.5t-18.5 47.5q0 27 18.5 46.5t47.5 19.5q34 0 57 -29t23 -80zM324 -25q-150 0 -150 191v768h-135v55h135v271h62v-271h172v-55h-172v-768q0 -135 88 -135q57 0 96 49
l39 -43q-30 -31 -59.5 -46.5t-75.5 -15.5z" />
    <glyph glyph-name="uni0237" unicode="&#x237;" horiz-adv-x="370" 
d="M29 -401q-97 0 -154 77l47 39q43 -61 107 -61q127 0 127 170v1165h61v-1165q0 -120 -49 -172.5t-139 -52.5z" />
    <glyph glyph-name="hsuperior" unicode="&#x2b0;" horiz-adv-x="669" 
d="M547 668h-58v473q0 75 -32 107t-92 32q-52 0 -103.5 -35.5t-79.5 -83.5v-493h-57v888h57v-342q31 46 86 79.5t111 33.5q85 0 126.5 -43t41.5 -141v-475z" />
    <glyph glyph-name="uni02BC" unicode="&#x2bc;" horiz-adv-x="425" 
d="M291 1278q0 -73 -37.5 -142t-89.5 -106l-45 37q49 36 78.5 88.5t29.5 99.5q-12 -2 -16 -2q-29 0 -47.5 20t-18.5 48q0 27 18.5 46t47.5 19q34 0 57 -29t23 -79z" />
    <glyph glyph-name="circumflex" unicode="&#x2c6;" horiz-adv-x="419" 
d="M420 1139h-51l-162 241l-154 -241h-53l170 295h74z" />
    <glyph glyph-name="caron" unicode="&#x2c7;" horiz-adv-x="419" 
d="M250 1139h-74l-176 295h53l160 -242l156 242h51z" />
    <glyph glyph-name="uni02C9" unicode="&#x2c9;" horiz-adv-x="618" 
d="M618 1210h-618v56h618v-56z" />
    <glyph glyph-name="uni02CB" unicode="&#x2cb;" horiz-adv-x="331" 
d="M332 1139h-56l-276 295h88z" />
    <glyph glyph-name="breve" unicode="&#x2d8;" horiz-adv-x="595" 
d="M596 1280q-52 -70 -129.5 -110t-167.5 -40q-89 0 -167.5 40t-131.5 110l45 37q41 -60 109.5 -95.5t144.5 -35.5t144.5 35.5t109.5 95.5z" />
    <glyph glyph-name="dotaccent" unicode="&#x2d9;" horiz-adv-x="118" 
d="M59 1159q-23 0 -41 17.5t-18 42.5q0 24 17.5 41.5t41.5 17.5q25 0 42.5 -17t17.5 -42t-17.5 -42.5t-42.5 -17.5z" />
    <glyph glyph-name="ring" unicode="&#x2da;" horiz-adv-x="348" 
d="M176 1133q-72 0 -124 52t-52 124t52 123t124 51t122 -51t50 -123t-50 -124t-122 -52zM176 1182q52 0 88.5 37t36.5 90t-36.5 89t-88.5 36q-53 0 -90 -36.5t-37 -88.5q0 -53 37.5 -90t89.5 -37z" />
    <glyph glyph-name="ogonek" unicode="&#x2db;" horiz-adv-x="294" 
d="M244 -240l51 -22q-16 -51 -52.5 -85t-97.5 -34q-64 0 -104.5 40t-40.5 118t48 146t122 112l47 -35q-158 -90 -158 -223q0 -51 23 -77t63 -26q77 0 99 86z" />
    <glyph glyph-name="tilde" unicode="&#x2dc;" horiz-adv-x="514" 
d="M360 1135q-38 0 -64.5 24t-41.5 57.5t-27.5 67.5t-31.5 58t-45 24q-45 0 -73 -54.5t-28 -164.5h-49q0 118 40 196t116 78q38 0 65 -24t41.5 -57.5t27.5 -67.5t32 -58t45 -24q45 0 71.5 54t26.5 165h49q0 -117 -39.5 -195.5t-114.5 -78.5z" />
    <glyph glyph-name="hungarumlaut" unicode="&#x2dd;" horiz-adv-x="489" 
d="M242 1434l-195 -295h-47l162 295h80zM489 1434l-194 -295h-47l162 295h79z" />
    <glyph glyph-name="hookabovecomb" unicode="&#x309;" horiz-adv-x="294" 
d="M74 1509l-43 13q10 40 40 68t79 28q52 0 84 -32t32 -95q0 -65 -45 -125h-53q51 59 51 125q0 82 -69 82q-57 0 -76 -64z" />
    <glyph glyph-name="uni037E" unicode="&#x37e;" horiz-adv-x="425" 
d="M213 870q-28 0 -48 20t-20 46q0 28 20 48t48 20t48 -20t20 -48q0 -26 -20 -46t-48 -20zM291 6q0 -73 -37.5 -142t-89.5 -106l-45 37q49 36 78.5 89t29.5 100q-12 -2 -16 -2q-29 0 -47.5 19.5t-18.5 47.5q0 27 18.5 46.5t47.5 19.5q34 0 57 -29t23 -80z" />
    <glyph glyph-name="tonos" unicode="&#x384;" horiz-adv-x="360" 
d="M240 1178h-45l34 389h107z" />
    <glyph glyph-name="dieresistonos" unicode="&#x385;" horiz-adv-x="890" 
d="M453 1178h-45l34 389h107zM727 1225q0 -23 -17 -40.5t-40 -17.5t-40.5 17.5t-17.5 40.5t17.5 40t40.5 17t40 -17t17 -40zM279 1225q0 -23 -17.5 -40.5t-40.5 -17.5t-40 17.5t-17 40.5t17 40t40 17t40.5 -17t17.5 -40z" />
    <glyph glyph-name="Alphatonos" unicode="&#x386;" horiz-adv-x="970" 
d="M272 1178h-45l35 389h107zM938 0h-72l-108 367h-543l-109 -367h-71l411 1366h78zM739 428l-254 852l-254 -852h508z" />
    <glyph glyph-name="Epsilontonos" unicode="&#x388;" horiz-adv-x="909" 
d="M27 1178h-45l34 389h107zM797 0h-633v1366h633v-61h-568v-572h553v-61h-553v-611h568v-61z" />
    <glyph glyph-name="Etatonos" unicode="&#x389;" horiz-adv-x="1116" 
d="M27 1178h-45l34 389h107zM952 0h-65v672h-658v-672h-65v1366h65v-633h658v633h65v-1366z" />
    <glyph glyph-name="Iotatonos" unicode="&#x38a;" horiz-adv-x="393" 
d="M27 1178h-45l34 389h107zM229 0h-65v1366h65v-1366z" />
    <glyph glyph-name="Omicrontonos" unicode="&#x38c;" horiz-adv-x="1187" 
d="M104 1178h-45l35 389h107zM594 -25q-113 0 -204.5 56t-149.5 153t-88.5 224t-30.5 274t30.5 274t88.5 224t149.5 153t204.5 56t204.5 -56t149.5 -153t88.5 -224t30.5 -274t-30.5 -274t-88.5 -224t-149.5 -153t-204.5 -56zM594 37q126 0 218.5 88t137.5 232.5t45 324.5
q0 182 -45 326t-137.5 231.5t-218.5 87.5t-218.5 -87.5t-137.5 -231.5t-45 -326q0 -180 45 -324.5t137.5 -232.5t218.5 -88z" />
    <glyph glyph-name="Upsilontonos" unicode="&#x38e;" horiz-adv-x="1030" 
d="M16 1178h-45l35 389h107zM586 0h-66v592l-420 774h78l375 -700l377 700h78l-422 -774v-592z" />
    <glyph glyph-name="Omegatonos" unicode="&#x38f;" horiz-adv-x="1167" 
d="M104 1178h-45l35 389h107zM139 61h223q-111 81 -181 236.5t-70 384.5q0 209 55 367.5t162.5 249t255.5 90.5t255.5 -90.5t162.5 -249t55 -367.5q0 -229 -69.5 -384.5t-180.5 -236.5h223v-61h-323v61q49 20 95 64t88.5 116.5t68.5 187t26 253.5q0 296 -106 469.5
t-295 173.5q-188 0 -295 -174t-107 -469q0 -113 18 -210t46 -164t66 -119.5t75 -82t76 -45.5v-61h-324v61z" />
    <glyph glyph-name="iotadieresistonos" unicode="&#x390;" horiz-adv-x="393" 
d="M203 1178h-45l35 389h106zM477 1225q0 -23 -17 -40.5t-40 -17.5t-40.5 17.5t-17.5 40.5t17.5 40t40.5 17t40 -17t17 -40zM29 1225q0 -23 -17.5 -40.5t-40.5 -17.5t-40 17.5t-17 40.5t17 40t40 17t40.5 -17t17.5 -40zM305 -25q-149 0 -149 191v823h61v-823
q0 -66 20.5 -100.5t67.5 -34.5q15 0 35 4l6 -55q-25 -5 -41 -5z" />
    <glyph glyph-name="Alpha" unicode="&#x391;" horiz-adv-x="970" 
d="M938 0h-72l-108 367h-543l-109 -367h-71l411 1366h78zM739 428l-254 852l-254 -852h508z" />
    <glyph glyph-name="Beta" unicode="&#x392;" horiz-adv-x="983" 
d="M528 0h-364v1366h356q144 0 232 -91.5t88 -256.5q0 -123 -56.5 -204t-144.5 -109q94 -15 158.5 -115t64.5 -221q0 -175 -87.5 -272t-246.5 -97zM520 733q124 0 186 79t62 206q0 126 -62 206.5t-186 80.5h-291v-572h291zM528 61q129 0 196 81.5t67 224.5q0 82 -27 149
t-88 111.5t-148 44.5h-299v-611h299z" />
    <glyph glyph-name="Gamma" unicode="&#x393;" horiz-adv-x="884" 
d="M229 0h-65v1366h633v-61h-568v-1305z" />
    <glyph glyph-name="uni0394" unicode="&#x394;" horiz-adv-x="1011" 
d="M979 0h-944l432 1366h78zM889 61l-383 1219l-383 -1219h766z" />
    <glyph glyph-name="Epsilon" unicode="&#x395;" horiz-adv-x="909" 
d="M797 0h-633v1366h633v-61h-568v-572h553v-61h-553v-611h568v-61z" />
    <glyph glyph-name="Zeta" unicode="&#x396;" horiz-adv-x="909" 
d="M817 0h-725v63l639 1242h-639v61h711v-61l-641 -1244h655v-61z" />
    <glyph glyph-name="Eta" unicode="&#x397;" horiz-adv-x="1116" 
d="M952 0h-65v672h-658v-672h-65v1366h65v-633h658v633h65v-1366z" />
    <glyph glyph-name="Theta" unicode="&#x398;" horiz-adv-x="1187" 
d="M897 672h-604v61h604v-61zM594 -25q-113 0 -204.5 56t-149.5 153t-88.5 224t-30.5 274t30.5 274t88.5 224t149.5 153t204.5 56t204.5 -56t149.5 -153t88.5 -224t30.5 -274t-30.5 -274t-88.5 -224t-149.5 -153t-204.5 -56zM594 37q126 0 218.5 88t137.5 232.5t45 324.5
q0 182 -45 326t-137.5 231.5t-218.5 87.5t-218.5 -87.5t-137.5 -231.5t-45 -326q0 -180 45 -324.5t137.5 -232.5t218.5 -88z" />
    <glyph glyph-name="Iota" unicode="&#x399;" horiz-adv-x="393" 
d="M229 0h-65v1366h65v-1366z" />
    <glyph glyph-name="Kappa" unicode="&#x39a;" horiz-adv-x="966" 
d="M915 0h-84l-471 664l-131 -181v-483h-65v1366h65v-782l559 782h84l-475 -653z" />
    <glyph glyph-name="Lambda" unicode="&#x39b;" horiz-adv-x="970" 
d="M938 0h-72l-381 1280l-379 -1280h-71l411 1366h78z" />
    <glyph glyph-name="Mu" unicode="&#x39c;" horiz-adv-x="1308" 
d="M1145 0h-66v1268l-409 -1268h-29l-412 1268v-1268h-65v1366h106l385 -1182l385 1182h105v-1366z" />
    <glyph glyph-name="Nu" unicode="&#x39d;" horiz-adv-x="1112" 
d="M948 0h-65l-654 1219v-1219h-65v1366h65l654 -1206v1206h65v-1366z" />
    <glyph glyph-name="Xi" unicode="&#x39e;" horiz-adv-x="978" 
d="M866 1305h-751v61h751v-61zM864 0h-751v61h751v-61zM852 672h-723v61h723v-61z" />
    <glyph glyph-name="Omicron" unicode="&#x39f;" horiz-adv-x="1187" 
d="M594 -25q-113 0 -204.5 56t-149.5 153t-88.5 224t-30.5 274t30.5 274t88.5 224t149.5 153t204.5 56t204.5 -56t149.5 -153t88.5 -224t30.5 -274t-30.5 -274t-88.5 -224t-149.5 -153t-204.5 -56zM594 37q126 0 218.5 88t137.5 232.5t45 324.5q0 182 -45 326t-137.5 231.5
t-218.5 87.5t-218.5 -87.5t-137.5 -231.5t-45 -326q0 -180 45 -324.5t137.5 -232.5t218.5 -88z" />
    <glyph glyph-name="Pi" unicode="&#x3a0;" horiz-adv-x="1116" 
d="M952 0h-65v1305h-658v-1305h-65v1366h788v-1366z" />
    <glyph glyph-name="Rho" unicode="&#x3a1;" horiz-adv-x="917" 
d="M229 0h-65v1366h340q160 0 249 -111t89 -276t-89.5 -276t-248.5 -111h-275v-592zM502 653q126 0 197 90.5t71 235.5t-71 235.5t-197 90.5h-273v-652h273z" />
    <glyph glyph-name="Sigma" unicode="&#x3a3;" horiz-adv-x="882" 
d="M186 1305l381 -598l-383 -646h598v-61h-669v63l383 642l-381 600v61h667v-61h-596z" />
    <glyph glyph-name="Tau" unicode="&#x3a4;" horiz-adv-x="866" 
d="M465 0h-66v1305h-342v61h752v-61h-344v-1305z" />
    <glyph glyph-name="Upsilon" unicode="&#x3a5;" horiz-adv-x="954" 
d="M510 0h-66v592l-419 774h77l375 -700l377 700h78l-422 -774v-592z" />
    <glyph glyph-name="Phi" unicode="&#x3a6;" horiz-adv-x="1318" 
d="M692 0h-65v131q-123 5 -221 51.5t-159.5 122t-93.5 172t-32 205.5q0 108 32 204t93.5 172t159.5 122.5t221 52.5v133h65v-133q123 -6 221 -52.5t159.5 -122.5t93.5 -172t32 -204q0 -109 -32 -205.5t-93.5 -172t-159.5 -122t-221 -51.5v-131zM193 682q0 -203 113 -340
t321 -149v976q-140 -7 -240 -74.5t-147 -173t-47 -239.5zM1126 682q0 133 -48 239.5t-148 173.5t-238 74v-976q206 12 320 149.5t114 339.5z" />
    <glyph glyph-name="Chi" unicode="&#x3a7;" horiz-adv-x="968" 
d="M936 0h-80l-371 635l-370 -635h-80l414 696l-392 670h82l346 -604l346 604h82l-391 -668z" />
    <glyph glyph-name="Psi" unicode="&#x3a8;" horiz-adv-x="1284" 
d="M676 0h-66v254q-216 8 -331 132t-115 353v627h65v-627q0 -202 99 -308.5t282 -115.5v1051h66v-1051q182 9 280.5 115.5t98.5 308.5v627h65v-627q0 -230 -114 -353.5t-330 -131.5v-254z" />
    <glyph glyph-name="uni03A9" unicode="&#x3a9;" horiz-adv-x="1167" 
d="M139 61h223q-111 81 -181 236.5t-70 384.5q0 209 55 367.5t162.5 249t255.5 90.5t255.5 -90.5t162.5 -249t55 -367.5q0 -229 -69.5 -384.5t-180.5 -236.5h223v-61h-323v61q49 20 95 64t88.5 116.5t68.5 187t26 253.5q0 296 -106 469.5t-295 173.5q-188 0 -295 -174
t-107 -469q0 -113 18 -210t46 -164t66 -119.5t75 -82t76 -45.5v-61h-324v61z" />
    <glyph glyph-name="Iotadieresis" unicode="&#x3aa;" horiz-adv-x="393" 
d="M229 0h-65v1366h65v-1366zM420 1602q0 -23 -17.5 -40.5t-40.5 -17.5t-40 17.5t-17 40.5t17 40t40 17t40.5 -17t17.5 -40zM88 1602q0 -23 -17 -40.5t-40 -17.5t-40.5 17.5t-17.5 40.5t17.5 40t40.5 17t40 -17t17 -40z" />
    <glyph glyph-name="Upsilondieresis" unicode="&#x3ab;" horiz-adv-x="954" 
d="M510 0h-66v592l-419 774h77l375 -700l377 700h78l-422 -774v-592zM700 1602q0 -23 -17 -40.5t-40 -17.5t-40 17.5t-17 40.5t17 40t40 17t40 -17t17 -40zM369 1602q0 -23 -17.5 -40.5t-40.5 -17.5t-40 17.5t-17 40.5t17 40t40 17t40.5 -17t17.5 -40z" />
    <glyph glyph-name="alphatonos" unicode="&#x3ac;" horiz-adv-x="960" 
d="M492 1178h-46l35 389h107zM907 35l6 -55q-25 -5 -41 -5q-146 0 -149 181q-41 -79 -114 -130t-154 -51q-163 0 -253.5 143.5t-90.5 375.5t90.5 376t253.5 144q81 0 152.5 -48t115.5 -135v158h61v-823q0 -135 88 -135q15 0 35 4zM455 31q84 0 159 59t109 141v523
q-34 83 -109 143.5t-159 60.5q-93 0 -157 -65t-92 -167t-28 -232q0 -129 28 -230.5t92 -167t157 -65.5z" />
    <glyph glyph-name="epsilontonos" unicode="&#x3ad;" horiz-adv-x="870" 
d="M446 1178h-45l35 389h107zM459 -25q-166 0 -257 81t-91 204q0 55 22 100.5t58 74.5t76 46t81 23q-88 16 -155.5 85t-67.5 163q0 119 100 190.5t248 71.5q204 0 315 -160l-51 -33q-89 137 -264 137q-123 0 -201.5 -55.5t-78.5 -150.5q0 -104 80.5 -163t195.5 -59h184v-55
h-184q-291 0 -291 -213q0 -104 77.5 -167.5t203.5 -63.5q191 0 297 145l47 -35q-122 -166 -344 -166z" />
    <glyph glyph-name="etatonos" unicode="&#x3ae;" horiz-adv-x="890" 
d="M457 1178h-45l34 389h107zM737 -377h-61v1127q0 112 -47 160t-135 48q-81 0 -158 -55t-119 -133v-770h-61v989h61v-151q47 73 125.5 124.5t159.5 51.5q118 0 176.5 -63.5t58.5 -200.5v-1127z" />
    <glyph glyph-name="iotatonos" unicode="&#x3af;" horiz-adv-x="393" 
d="M207 1178h-45l35 389h106zM305 -25q-149 0 -149 191v823h61v-823q0 -66 20.5 -100.5t67.5 -34.5q15 0 35 4l6 -55q-25 -5 -41 -5z" />
    <glyph glyph-name="upsilondieresistonos" unicode="&#x3b0;" horiz-adv-x="917" 
d="M465 1178h-45l35 389h106zM739 1225q0 -23 -17 -40.5t-40 -17.5t-40 17.5t-17 40.5t17 40t40 17t40 -17t17 -40zM291 1225q0 -23 -17.5 -40.5t-40.5 -17.5t-40 17.5t-17 40.5t17 40t40 17t40.5 -17t17.5 -40zM446 -25q-290 0 -290 385v629h61v-629q0 -329 229 -329
q75 0 133 39.5t92.5 106.5t52 148t17.5 171q0 274 -147 483l51 35q164 -230 164 -518q0 -85 -14.5 -162t-44.5 -142.5t-72.5 -114t-102 -75.5t-129.5 -27z" />
    <glyph glyph-name="alpha" unicode="&#x3b1;" horiz-adv-x="960" 
d="M907 35l6 -55q-25 -5 -41 -5q-146 0 -149 181q-41 -79 -114 -130t-154 -51q-163 0 -253.5 143.5t-90.5 375.5t90.5 376t253.5 144q81 0 152.5 -48t115.5 -135v158h61v-823q0 -135 88 -135q15 0 35 4zM455 31q84 0 159 59t109 141v523q-34 83 -109 143.5t-159 60.5
q-93 0 -157 -65t-92 -167t-28 -232q0 -129 28 -230.5t92 -167t157 -65.5z" />
    <glyph glyph-name="beta" unicode="&#x3b2;" 
d="M217 944v-713q34 -82 109.5 -141t162.5 -59q130 0 201.5 91t71.5 232q0 82 -24 146t-66 102t-94.5 57t-112.5 19h-51v55h51q117 0 193.5 76.5t76.5 220.5q0 143 -66.5 222t-170.5 79q-122 0 -201.5 -93t-79.5 -294zM217 156v-533h-61v1321q0 118 27.5 206t76 138t108 74
t130.5 24q132 0 218.5 -91.5t86.5 -264.5q0 -127 -65 -212.5t-156 -110.5q41 -6 83 -32t79.5 -68.5t61 -109t23.5 -143.5q0 -174 -91 -276.5t-244 -102.5q-86 0 -161 51t-116 130z" />
    <glyph glyph-name="gamma" unicode="&#x3b3;" horiz-adv-x="768" 
d="M416 -377h-62v336q0 292 -94.5 561.5t-251.5 468.5h76q131 -177 220 -413t104 -470q106 182 171.5 420t65.5 463h62q0 -239 -77 -497t-214 -486v-383z" />
    <glyph glyph-name="delta" unicode="&#x3b4;" horiz-adv-x="944" 
d="M473 -25q-115 0 -199 62.5t-123.5 159t-39.5 211.5q0 163 76.5 289t199.5 196q-90 54 -138 112.5t-48 147.5q0 103 76.5 170.5t199.5 67.5q172 0 264 -127l-43 -41q-72 112 -221 112q-98 0 -156.5 -52t-58.5 -130q0 -45 19.5 -82.5t53 -65.5t76.5 -54t90.5 -52.5t95 -56
t90.5 -70t76.5 -90t53 -119.5t19.5 -155t-23.5 -162t-67.5 -138t-114.5 -97t-157.5 -36zM774 408q0 55 -10.5 103.5t-25 84.5t-43 71.5t-50.5 58t-62 50t-63 41.5t-67 39q-129 -60 -202 -175.5t-73 -272.5q0 -68 18 -133t52.5 -120.5t92.5 -89.5t132 -34t133.5 34t95 89.5
t54 120.5t18.5 133z" />
    <glyph glyph-name="epsilon" unicode="&#x3b5;" horiz-adv-x="870" 
d="M459 -25q-166 0 -257 81t-91 204q0 55 22 100.5t58 74.5t76 46t81 23q-88 16 -155.5 85t-67.5 163q0 119 100 190.5t248 71.5q204 0 315 -160l-51 -33q-89 137 -264 137q-123 0 -201.5 -55.5t-78.5 -150.5q0 -104 80.5 -163t195.5 -59h184v-55h-184q-291 0 -291 -213
q0 -104 77.5 -167.5t203.5 -63.5q191 0 297 145l47 -35q-122 -166 -344 -166z" />
    <glyph glyph-name="zeta" unicode="&#x3b6;" horiz-adv-x="806" 
d="M651 -111q0 48 -27.5 67t-91.5 19q-128 0 -225 57.5t-146.5 153.5t-49.5 215q0 259 134.5 482.5t399.5 427.5h-510v55h584v-55q-280 -224 -410.5 -442.5t-130.5 -467.5q0 -152 95.5 -261t261.5 -109q95 0 139.5 -33t44.5 -109q0 -86 -78 -211h-76q86 130 86 211z" />
    <glyph glyph-name="eta" unicode="&#x3b7;" horiz-adv-x="890" 
d="M737 -377h-61v1127q0 112 -47 160t-135 48q-81 0 -158 -55t-119 -133v-770h-61v989h61v-151q47 73 125.5 124.5t159.5 51.5q118 0 176.5 -63.5t58.5 -200.5v-1127z" />
    <glyph glyph-name="theta" unicode="&#x3b8;" horiz-adv-x="944" 
d="M473 -25q-96 0 -166.5 51.5t-113 147.5t-62.5 223t-20 287q0 161 20 287.5t62.5 222t113 146.5t166.5 51q97 0 168 -51t113 -146.5t62 -222t20 -287.5t-20 -287t-62 -222.5t-113 -148t-168 -51.5zM473 31q288 0 295 628h-590q4 -628 295 -628zM473 1335q-288 0 -295 -620
h590q-7 620 -295 620z" />
    <glyph glyph-name="iota" unicode="&#x3b9;" horiz-adv-x="393" 
d="M305 -25q-149 0 -149 191v823h61v-823q0 -66 20.5 -100.5t67.5 -34.5q15 0 35 4l6 -55q-25 -5 -41 -5z" />
    <glyph glyph-name="kappa" unicode="&#x3ba;" horiz-adv-x="841" 
d="M791 0h-76l-328 498l-170 -207v-291h-61v989h61v-612l506 612h76l-373 -446z" />
    <glyph glyph-name="lambda" unicode="&#x3bb;" horiz-adv-x="768" 
d="M92 1321l-12 55q34 15 80 15q63 0 106.5 -38.5t71.5 -119.5l403 -1233h-69l-287 913l-287 -913h-69l323 1012l-69 200q-25 70 -51.5 96.5t-71.5 26.5q-43 0 -68 -14z" />
    <glyph glyph-name="uni03BC" unicode="&#x3bc;" horiz-adv-x="913" 
d="M217 70v-447h-61v1366h61v-749q0 -109 49.5 -161t139.5 -52q78 0 153 55t117 133v774h61v-823q0 -66 20.5 -100.5t67.5 -34.5q15 0 35 4l6 -55q-25 -5 -41 -5q-139 0 -149 172q-49 -76 -120 -124t-150 -48q-139 0 -189 95z" />
    <glyph glyph-name="nu" unicode="&#x3bd;" horiz-adv-x="768" 
d="M412 0h-64l-319 989h69l289 -919q120 207 189 449.5t69 469.5h62q0 -240 -78.5 -500.5t-216.5 -488.5z" />
    <glyph glyph-name="xi" unicode="&#x3be;" horiz-adv-x="806" 
d="M532 -25q-199 0 -310 110t-111 277q0 75 23.5 139.5t61 106.5t79.5 68t83 33q-93 26 -162 108t-69 201q0 91 52.5 170t137.5 123h-182v55h559v-55h-293q-91 -37 -148.5 -119t-57.5 -174q0 -133 81.5 -208t198.5 -75h205v-55h-205q-130 0 -213.5 -79.5t-83.5 -238.5
q0 -64 22 -122t64.5 -105.5t112.5 -75.5t158 -28q95 0 139.5 -33t44.5 -109q0 -86 -78 -211h-76q86 130 86 211q0 48 -27.5 67t-91.5 19z" />
    <glyph glyph-name="omicron" unicode="&#x3bf;" horiz-adv-x="944" 
d="M473 -25q-116 0 -199.5 72.5t-123 188.5t-39.5 260t39.5 259t123 187t199.5 72t200 -72t123.5 -187t39.5 -259q0 -85 -14.5 -162t-44.5 -142.5t-72.5 -114t-102 -75.5t-129.5 -27zM473 31q75 0 133 39.5t92.5 106.5t52 148t17.5 171q0 89 -17.5 169.5t-52 147t-92.5 106
t-133 39.5q-74 0 -132 -39.5t-92.5 -106t-52.5 -147t-18 -169.5q0 -121 30 -223.5t98.5 -172t166.5 -69.5z" />
    <glyph glyph-name="pi" unicode="&#x3c0;" horiz-adv-x="929" 
d="M756 0h-62v934h-458v-934h-62v934h-135v55h852v-55h-135v-934z" />
    <glyph glyph-name="rho" unicode="&#x3c1;" horiz-adv-x="935" 
d="M485 -25q-80 0 -152 49t-116 136v-537h-61v873q0 144 36.5 259t113 187t183.5 72q108 0 186.5 -69.5t116 -185t37.5 -263.5q0 -231 -90.5 -376t-253.5 -145zM485 31q93 0 157 66t92 168t28 231q0 125 -27.5 226.5t-91 168.5t-154.5 67q-69 0 -122.5 -39.5t-85.5 -106
t-48 -147t-16 -169.5v-260q34 -83 109 -144t159 -61z" />
    <glyph glyph-name="sigma1" unicode="&#x3c2;" horiz-adv-x="778" 
d="M524 -25q-195 0 -304 143.5t-109 377.5q0 145 42 261t128 186.5t202 70.5q85 0 142.5 -32t111.5 -97l-43 -39q-83 112 -211 112q-99 0 -170 -65.5t-103 -168t-32 -228.5q0 -207 91.5 -336t254.5 -129q98 0 142.5 -32.5t44.5 -109.5q0 -82 -80 -211h-64q86 135 86 211
q0 48 -30.5 67t-98.5 19z" />
    <glyph glyph-name="sigma" unicode="&#x3c3;" horiz-adv-x="944" 
d="M836 477q0 -135 -39.5 -246.5t-124 -183.5t-199.5 -72q-116 0 -199.5 72.5t-123 188.5t-39.5 260q0 100 24 187t71 156.5t125 109.5t177 40h391v-55h-240q87 -87 132 -196.5t45 -260.5zM768 477q0 156 -53 274.5t-148 182.5h-59q-86 0 -152 -38.5t-103.5 -103t-56 -139.5
t-18.5 -157q0 -121 30 -223.5t98.5 -172t166.5 -69.5q74 0 132.5 39t93 104.5t52 142.5t17.5 160z" />
    <glyph glyph-name="tau" unicode="&#x3c4;" horiz-adv-x="710" 
d="M473 -25q-149 0 -149 191v768h-277v55h617v-55h-279v-768q0 -135 88 -135q57 0 96 49l39 -43q-30 -31 -59.5 -46.5t-75.5 -15.5z" />
    <glyph glyph-name="upsilon" unicode="&#x3c5;" horiz-adv-x="917" 
d="M446 -25q-290 0 -290 385v629h61v-629q0 -329 229 -329q75 0 133 39.5t92.5 106.5t52 148t17.5 171q0 274 -147 483l51 35q164 -230 164 -518q0 -85 -14.5 -162t-44.5 -142.5t-72.5 -114t-102 -75.5t-129.5 -27z" />
    <glyph glyph-name="phi" unicode="&#x3c6;" horiz-adv-x="1191" 
d="M1083 496q0 -105 -26 -194.5t-79 -162t-143 -116t-208 -48.5v-352h-62v352q-117 5 -206 48.5t-142.5 117t-79.5 165.5t-26 202q0 182 79 310t216 196l28 -47q-256 -135 -256 -459q0 -93 20 -172.5t63 -147.5t120.5 -109.5t183.5 -47.5v983h31q126 0 222 -41t152.5 -113.5
t84.5 -163.5t28 -200zM1016 496q0 71 -12.5 134.5t-41.5 122t-73 102t-111 71t-151 32.5v-927q86 3 153.5 31.5t111 72.5t72 104t40.5 123t12 134z" />
    <glyph glyph-name="chi" unicode="&#x3c7;" horiz-adv-x="776" 
d="M733 -377h-65l-279 635l-278 -635h-68l311 699l-293 667h66l262 -604l260 604h68l-293 -667z" />
    <glyph glyph-name="psi" unicode="&#x3c8;" horiz-adv-x="1191" 
d="M627 -377h-62v352q-211 7 -310 121t-99 334v559h61v-559q0 -200 86 -295.5t262 -103.5v1335h62v-1335q174 8 262 104t88 295v559h61v-559q0 -221 -100.5 -334.5t-310.5 -120.5v-352z" />
    <glyph glyph-name="omega" unicode="&#x3c9;" horiz-adv-x="1325" 
d="M1217 496q0 -145 -32 -261t-99.5 -188t-161.5 -72q-72 0 -128 41t-86 99.5t-46 132.5q-25 -116 -90.5 -194.5t-172.5 -78.5q-93 0 -160 72t-98.5 188t-31.5 261q0 165 53 310t158 208l34 -47q-66 -45 -108 -128t-56 -165.5t-14 -177.5q0 -122 22.5 -224t76 -171.5
t129.5 -69.5q58 0 103 39.5t71.5 107t39.5 148t13 170.5v254h61v-254q0 -90 13 -170.5t39.5 -148t72 -107t103.5 -39.5t102.5 39.5t71 106.5t40 148t13.5 171q0 95 -14 177.5t-56 165.5t-108 128l33 47q72 -43 121.5 -130t70.5 -185t21 -203z" />
    <glyph glyph-name="iotadieresis" unicode="&#x3ca;" horiz-adv-x="393" 
d="M420 1225q0 -23 -17.5 -40.5t-40.5 -17.5t-40 17.5t-17 40.5t17 40t40 17t40.5 -17t17.5 -40zM88 1225q0 -23 -17 -40.5t-40 -17.5t-40.5 17.5t-17.5 40.5t17.5 40t40.5 17t40 -17t17 -40zM305 -25q-149 0 -149 191v823h61v-823q0 -66 20.5 -100.5t67.5 -34.5q15 0 35 4
l6 -55q-25 -5 -41 -5z" />
    <glyph glyph-name="upsilondieresis" unicode="&#x3cb;" horiz-adv-x="917" 
d="M682 1225q0 -23 -17 -40.5t-40 -17.5t-40.5 17.5t-17.5 40.5t17.5 40t40.5 17t40 -17t17 -40zM350 1225q0 -23 -17 -40.5t-40 -17.5t-40 17.5t-17 40.5t17 40t40 17t40 -17t17 -40zM446 -25q-290 0 -290 385v629h61v-629q0 -329 229 -329q75 0 133 39.5t92.5 106.5
t52 148t17.5 171q0 274 -147 483l51 35q164 -230 164 -518q0 -85 -14.5 -162t-44.5 -142.5t-72.5 -114t-102 -75.5t-129.5 -27z" />
    <glyph glyph-name="omicrontonos" unicode="&#x3cc;" horiz-adv-x="944" 
d="M483 1178h-45l35 389h107zM473 -25q-116 0 -199.5 72.5t-123 188.5t-39.5 260t39.5 259t123 187t199.5 72t200 -72t123.5 -187t39.5 -259q0 -85 -14.5 -162t-44.5 -142.5t-72.5 -114t-102 -75.5t-129.5 -27zM473 31q75 0 133 39.5t92.5 106.5t52 148t17.5 171
q0 89 -17.5 169.5t-52 147t-92.5 106t-133 39.5q-74 0 -132 -39.5t-92.5 -106t-52.5 -147t-18 -169.5q0 -121 30 -223.5t98.5 -172t166.5 -69.5z" />
    <glyph glyph-name="upsilontonos" unicode="&#x3cd;" horiz-adv-x="917" 
d="M471 1178h-45l35 389h106zM446 -25q-290 0 -290 385v629h61v-629q0 -329 229 -329q75 0 133 39.5t92.5 106.5t52 148t17.5 171q0 274 -147 483l51 35q164 -230 164 -518q0 -85 -14.5 -162t-44.5 -142.5t-72.5 -114t-102 -75.5t-129.5 -27z" />
    <glyph glyph-name="omegatonos" unicode="&#x3ce;" horiz-adv-x="1325" 
d="M674 1178h-45l35 389h106zM1217 496q0 -145 -32 -261t-99.5 -188t-161.5 -72q-72 0 -128 41t-86 99.5t-46 132.5q-25 -116 -90.5 -194.5t-172.5 -78.5q-93 0 -160 72t-98.5 188t-31.5 261q0 165 53 310t158 208l34 -47q-66 -45 -108 -128t-56 -165.5t-14 -177.5
q0 -122 22.5 -224t76 -171.5t129.5 -69.5q58 0 103 39.5t71.5 107t39.5 148t13 170.5v254h61v-254q0 -90 13 -170.5t39.5 -148t72 -107t103.5 -39.5t102.5 39.5t71 106.5t40 148t13.5 171q0 95 -14 177.5t-56 165.5t-108 128l33 47q72 -43 121.5 -130t70.5 -185t21 -203z
" />
    <glyph glyph-name="afii10023" unicode="&#x401;" horiz-adv-x="909" 
d="M705 1567q0 -23 -17.5 -40.5t-40.5 -17.5t-40 17.5t-17 40.5t17 40t40 17t40.5 -17t17.5 -40zM373 1567q0 -23 -17.5 -40.5t-40.5 -17.5t-40 17.5t-17 40.5t17 40t40 17t40.5 -17t17.5 -40zM797 0h-633v1366h633v-61h-568v-572h553v-61h-553v-611h568v-61z" />
    <glyph glyph-name="afii10051" unicode="&#x402;" horiz-adv-x="1222" 
d="M760 -25v62q252 0 252 336v108q0 176 -77 272.5t-226 96.5q-123 0 -244 -31v-819h-66v1305h-342v61h752v-61h-344v-424q131 30 244 30q183 0 275.5 -116.5t92.5 -313.5v-108q0 -205 -86.5 -301.5t-230.5 -96.5z" />
    <glyph glyph-name="afii10052" unicode="&#x403;" horiz-adv-x="884" 
d="M729 1776l-276 -295h-56l244 295h88zM229 0h-65v1366h633v-61h-568v-1305z" />
    <glyph glyph-name="afii10053" unicode="&#x404;" horiz-adv-x="1048" 
d="M610 -25q-146 0 -258.5 92.5t-171.5 253t-59 361.5q0 203 59 363t171 252t259 92q219 0 355 -213l-58 -35q-107 186 -297 186q-179 0 -292.5 -165.5t-124.5 -428.5h583v-61h-583q2 -277 117 -456t300 -179q99 0 175 55.5t126 151.5l58 -33q-135 -236 -359 -236z" />
    <glyph glyph-name="afii10054" unicode="&#x405;" horiz-adv-x="915" 
d="M442 -25q-112 0 -205 45t-155 123l51 50q51 -68 132 -112t177 -44q78 0 137.5 24t95 65.5t53 91.5t17.5 106q0 66 -21.5 120t-57.5 91.5t-82.5 70t-98 59t-103 53.5t-98 60t-82.5 71.5t-57.5 93.5t-21.5 122q0 148 100 236t242 88q203 0 319 -138l-45 -49
q-102 125 -274 125q-115 0 -195 -73t-80 -189q0 -71 34.5 -127t89.5 -94.5t121 -73.5t132.5 -74t121.5 -86t89.5 -120t34.5 -166q0 -66 -21 -126t-64 -111t-116.5 -81.5t-169.5 -30.5z" />
    <glyph glyph-name="afii10055" unicode="&#x406;" horiz-adv-x="393" 
d="M229 0h-65v1366h65v-1366z" />
    <glyph glyph-name="afii10056" unicode="&#x407;" horiz-adv-x="393" 
d="M229 0h-65v1366h65v-1366zM420 1567q0 -23 -17.5 -40.5t-40.5 -17.5t-40 17.5t-17 40.5t17 40t40 17t40.5 -17t17.5 -40zM88 1567q0 -23 -17 -40.5t-40 -17.5t-40.5 17.5t-17.5 40.5t17.5 40t40.5 17t40 -17t17 -40z" />
    <glyph glyph-name="afii10057" unicode="&#x408;" horiz-adv-x="782" 
d="M301 -25q-88 0 -154.5 35t-123.5 111l53 47q90 -131 225 -131q119 0 185.5 72.5t66.5 203.5v1053h65v-1053q0 -166 -88 -252t-229 -86z" />
    <glyph glyph-name="afii10058" unicode="&#x409;" horiz-adv-x="1640" 
d="M57 -25v62q48 0 83.5 14.5t70 54t59.5 108t46 178.5t36 263l68 711h532v-592h275q159 0 248.5 -111t89.5 -276t-89 -276t-249 -111h-340v1305h-408l-63 -658q-17 -173 -43.5 -296t-56.5 -195.5t-73 -113.5t-85 -54t-101 -13zM1225 713h-273v-652h273q126 0 197 90.5
t71 235.5t-71 235.5t-197 90.5z" />
    <glyph glyph-name="afii10059" unicode="&#x40a;" horiz-adv-x="1640" 
d="M164 0v1366h65v-633h658v633h65v-633h285q155 0 241.5 -104.5t86.5 -261.5t-86 -262t-242 -105h-350v672h-658v-672h-65zM952 61h283q121 0 189.5 85t68.5 221t-68.5 220.5t-189.5 84.5h-283v-611z" />
    <glyph glyph-name="afii10060" unicode="&#x40b;" horiz-adv-x="1222" 
d="M1012 0v504q0 161 -77.5 253.5t-225.5 92.5q-123 0 -244 -31v-819h-66v1305h-342v61h752v-61h-344v-424q131 30 244 30q181 0 274.5 -113t93.5 -294v-504h-65z" />
    <glyph glyph-name="afii10061" unicode="&#x40c;" horiz-adv-x="966" 
d="M735 1776l-276 -295h-56l244 295h88zM915 0h-84l-471 664l-131 -181v-483h-65v1366h65v-782l559 782h84l-475 -653z" />
    <glyph glyph-name="afii10062" unicode="&#x40e;" horiz-adv-x="954" 
d="M205 -25q-114 0 -187 82l41 52q62 -72 146 -72q63 0 97.5 35t78.5 129l59 151l-415 1014h71l381 -920l383 920h72l-490 -1188q-46 -104 -99 -153.5t-138 -49.5zM776 1622q-52 -70 -129.5 -109.5t-167.5 -39.5t-168 39.5t-131 109.5l45 37q41 -60 109.5 -95.5t144.5 -35.5
t144.5 35.5t109.5 95.5z" />
    <glyph glyph-name="afii10145" unicode="&#x40f;" horiz-adv-x="1116" 
d="M164 0v1366h65v-1305h658v1305h65v-1366h-360v-262h-66v262h-362z" />
    <glyph glyph-name="afii10017" unicode="&#x410;" horiz-adv-x="970" 
d="M938 0h-72l-108 367h-543l-109 -367h-71l411 1366h78zM739 428l-254 852l-254 -852h508z" />
    <glyph glyph-name="afii10018" unicode="&#x411;" horiz-adv-x="917" 
d="M164 1366h612v-61h-547v-531h275q159 0 248.5 -111t89.5 -276t-89 -276t-249 -111h-340v1366zM502 713h-273v-652h273q126 0 197 90.5t71 235.5t-71 235.5t-197 90.5z" />
    <glyph glyph-name="afii10019" unicode="&#x412;" horiz-adv-x="983" 
d="M528 0h-364v1366h356q144 0 232 -91.5t88 -256.5q0 -123 -56.5 -204t-144.5 -109q94 -15 158.5 -115t64.5 -221q0 -175 -87.5 -272t-246.5 -97zM520 733q124 0 186 79t62 206q0 126 -62 206.5t-186 80.5h-291v-572h291zM528 61q129 0 196 81.5t67 224.5q0 82 -27 149
t-88 111.5t-148 44.5h-299v-611h299z" />
    <glyph glyph-name="afii10020" unicode="&#x413;" horiz-adv-x="884" 
d="M229 0h-65v1366h633v-61h-568v-1305z" />
    <glyph glyph-name="afii10021" unicode="&#x414;" horiz-adv-x="1161" 
d="M57 -252v311q41 2 71 10.5t60.5 31.5t53.5 64.5t44 106t37 160t29 223.5l68 711h532v-1305h127v-313h-65v252h-891v-252h-66zM416 647q-27 -264 -74.5 -400t-120.5 -186h666v1244h-408z" />
    <glyph glyph-name="afii10022" unicode="&#x415;" horiz-adv-x="909" 
d="M797 0h-633v1366h633v-61h-568v-572h553v-61h-553v-611h568v-61z" />
    <glyph glyph-name="afii10024" unicode="&#x416;" horiz-adv-x="1415" 
d="M125 0h-84l518 713l-475 653h84l508 -721v721h65v-721l506 721h84l-475 -653l520 -713h-84l-473 664l-78 -117v-547h-65v547l-80 117z" />
    <glyph glyph-name="afii10025" unicode="&#x417;" horiz-adv-x="931" 
d="M442 -25q-127 0 -222.5 66t-145.5 168l61 31q46 -92 123.5 -147.5t185.5 -55.5q144 0 218.5 86.5t74.5 241.5q0 86 -25 148.5t-68 97t-92.5 50t-107.5 15.5h-219v61h219q118 0 197.5 74.5t79.5 214.5q0 146 -75.5 222.5t-199.5 76.5q-98 0 -164.5 -46t-127.5 -138l-58 35
q56 97 147 153.5t203 56.5q71 0 133 -22t110 -64.5t76 -112t28 -157.5q0 -126 -69.5 -211.5t-162.5 -111.5q41 -6 83 -32t79.5 -67.5t61.5 -106t24 -139.5q0 -172 -94 -279.5t-273 -107.5z" />
    <glyph glyph-name="afii10026" unicode="&#x418;" horiz-adv-x="1112" 
d="M229 0h-65v1366h65v-1206l654 1206h65v-1366h-65v1219z" />
    <glyph glyph-name="afii10027" unicode="&#x419;" horiz-adv-x="1112" 
d="M229 0h-65v1366h65v-1206l654 1206h65v-1366h-65v1219zM854 1622q-52 -70 -129.5 -109.5t-167.5 -39.5t-168 39.5t-131 109.5l45 37q41 -60 109.5 -95.5t144.5 -35.5t144.5 35.5t109.5 95.5z" />
    <glyph glyph-name="afii10028" unicode="&#x41a;" horiz-adv-x="966" 
d="M915 0h-84l-471 664l-131 -181v-483h-65v1366h65v-782l559 782h84l-475 -653z" />
    <glyph glyph-name="afii10029" unicode="&#x41b;" horiz-adv-x="1116" 
d="M57 -25v62q48 0 83.5 14.5t70 54t59.5 108t46 178.5t36 263l68 711h532v-1366h-65v1305h-408l-63 -658q-17 -173 -43.5 -296t-56.5 -195.5t-73 -113.5t-85 -54t-101 -13z" />
    <glyph glyph-name="afii10030" unicode="&#x41c;" horiz-adv-x="1308" 
d="M1145 0h-66v1268l-409 -1268h-29l-412 1268v-1268h-65v1366h106l385 -1182l385 1182h105v-1366z" />
    <glyph glyph-name="afii10031" unicode="&#x41d;" horiz-adv-x="1116" 
d="M952 0h-65v672h-658v-672h-65v1366h65v-633h658v633h65v-1366z" />
    <glyph glyph-name="afii10032" unicode="&#x41e;" horiz-adv-x="1187" 
d="M594 -25q-113 0 -204.5 56t-149.5 153t-88.5 224t-30.5 274t30.5 274t88.5 224t149.5 153t204.5 56t204.5 -56t149.5 -153t88.5 -224t30.5 -274t-30.5 -274t-88.5 -224t-149.5 -153t-204.5 -56zM594 37q126 0 218.5 88t137.5 232.5t45 324.5q0 182 -45 326t-137.5 231.5
t-218.5 87.5t-218.5 -87.5t-137.5 -231.5t-45 -326q0 -180 45 -324.5t137.5 -232.5t218.5 -88z" />
    <glyph glyph-name="afii10033" unicode="&#x41f;" horiz-adv-x="1116" 
d="M952 0h-65v1305h-658v-1305h-65v1366h788v-1366z" />
    <glyph glyph-name="afii10034" unicode="&#x420;" horiz-adv-x="917" 
d="M229 0h-65v1366h340q160 0 249 -111t89 -276t-89.5 -276t-248.5 -111h-275v-592zM502 653q126 0 197 90.5t71 235.5t-71 235.5t-197 90.5h-273v-652h273z" />
    <glyph glyph-name="afii10035" unicode="&#x421;" horiz-adv-x="1048" 
d="M610 -25q-146 0 -258.5 92.5t-171.5 253t-59 361.5q0 203 59 363t171 252t259 92q219 0 355 -213l-58 -35q-107 186 -297 186q-124 0 -219.5 -83.5t-146.5 -229.5t-51 -332q0 -184 51 -330.5t146.5 -230.5t219.5 -84q99 0 175 55.5t126 151.5l58 -33q-135 -236 -359 -236
z" />
    <glyph glyph-name="afii10036" unicode="&#x422;" horiz-adv-x="866" 
d="M465 0h-66v1305h-342v61h752v-61h-344v-1305z" />
    <glyph glyph-name="afii10037" unicode="&#x423;" horiz-adv-x="954" 
d="M205 -25q-114 0 -187 82l41 52q62 -72 146 -72q63 0 97.5 35t78.5 129l59 151l-415 1014h71l381 -920l383 920h72l-490 -1188q-46 -104 -99 -153.5t-138 -49.5z" />
    <glyph glyph-name="afii10038" unicode="&#x424;" horiz-adv-x="1318" 
d="M692 0h-65v131q-123 5 -221 51.5t-159.5 122t-93.5 172t-32 205.5q0 108 32 204t93.5 172t159.5 122.5t221 52.5v133h65v-133q123 -6 221 -52.5t159.5 -122.5t93.5 -172t32 -204q0 -109 -32 -205.5t-93.5 -172t-159.5 -122t-221 -51.5v-131zM193 682q0 -203 113 -340
t321 -149v976q-140 -7 -240 -74.5t-147 -173t-47 -239.5zM1126 682q0 133 -48 239.5t-148 173.5t-238 74v-976q206 12 320 149.5t114 339.5z" />
    <glyph glyph-name="afii10039" unicode="&#x425;" horiz-adv-x="968" 
d="M936 0h-80l-371 635l-370 -635h-80l414 696l-392 670h82l346 -604l346 604h82l-391 -668z" />
    <glyph glyph-name="afii10040" unicode="&#x426;" horiz-adv-x="1161" 
d="M1014 -252v252h-850v1366h65v-1305h658v1305h65v-1305h127v-313h-65z" />
    <glyph glyph-name="afii10041" unicode="&#x427;" horiz-adv-x="964" 
d="M190 1366v-367q0 -160 78 -253t224 -93q122 0 243 31v682h66v-1366h-66v623q-132 -31 -243 -31q-180 0 -273.5 113.5t-93.5 295.5v365h65z" />
    <glyph glyph-name="afii10042" unicode="&#x428;" horiz-adv-x="1589" 
d="M1360 1366h65v-1366h-1257v1366h65v-1305h531v1305h65v-1305h531v1305z" />
    <glyph glyph-name="afii10043" unicode="&#x429;" horiz-adv-x="1646" 
d="M1372 1366h66v-1305h127v-313h-66v252h-1319v1366h66v-1305h530v1305h66v-1305h530v1305z" />
    <glyph glyph-name="afii10044" unicode="&#x42a;" horiz-adv-x="1153" 
d="M739 0h-340v1305h-342v61h408v-592h274q159 0 248.5 -111t89.5 -276t-89 -276t-249 -111zM737 713h-272v-652h272q126 0 197.5 90.5t71.5 235.5t-71.5 235.5t-197.5 90.5z" />
    <glyph glyph-name="afii10045" unicode="&#x42b;" horiz-adv-x="1243" 
d="M164 1366h65v-592h275q159 0 248.5 -111t89.5 -276t-89 -276t-249 -111h-340v1366zM502 713h-273v-652h273q126 0 197 90.5t71 235.5t-71 235.5t-197 90.5zM1079 0h-65v1366h65v-1366z" />
    <glyph glyph-name="afii10046" unicode="&#x42c;" horiz-adv-x="917" 
d="M164 1366h65v-592h275q159 0 248.5 -111t89.5 -276t-89 -276t-249 -111h-340v1366zM502 713h-273v-652h273q126 0 197 90.5t71 235.5t-71 235.5t-197 90.5z" />
    <glyph glyph-name="afii10047" unicode="&#x42d;" horiz-adv-x="1048" 
d="M438 -25q-224 0 -356 236l57 33q108 -207 299 -207q123 0 218 82.5t146.5 226.5t53.5 326h-582v61h580q-11 263 -124.5 428.5t-291.5 165.5q-187 0 -297 -186l-55 35q133 213 352 213q148 0 260 -92t171 -252t59 -363q0 -201 -59 -361t-171.5 -253t-259.5 -93z" />
    <glyph glyph-name="afii10048" unicode="&#x42e;" horiz-adv-x="1533" 
d="M940 -25q-150 0 -258.5 95.5t-161 251t-53.5 350.5h-238v-672h-65v1366h65v-633h238q5 137 38.5 255.5t91.5 208t146.5 141t196.5 51.5q113 0 204 -56t149 -153t89 -224.5t31 -273.5t-31 -273.5t-89 -224.5t-149 -153t-204 -56zM940 37q125 0 217.5 88t138 232.5
t45.5 324.5q0 181 -45.5 325.5t-138 232t-217.5 87.5q-127 0 -219.5 -87.5t-137 -231.5t-44.5 -326q0 -180 44.5 -324t137 -232.5t219.5 -88.5z" />
    <glyph glyph-name="afii10049" unicode="&#x42f;" horiz-adv-x="968" 
d="M190 0h-79l317 596q-127 10 -214 108t-87 275q0 182 95 284.5t245 102.5h338v-1366h-66v592h-239zM467 653h272v652h-272q-126 0 -197 -90.5t-71 -235.5t71 -235.5t197 -90.5z" />
    <glyph glyph-name="afii10065" unicode="&#x430;" horiz-adv-x="876" 
d="M723 0h-61v115q-98 -140 -263 -140q-124 0 -208.5 91t-84.5 239t83.5 239t209.5 91q167 0 263 -137v215q0 119 -58 182t-162 63q-75 0 -135 -30.5t-119 -102.5l-41 45q65 75 135 109.5t160 34.5q137 0 209 -75t72 -224v-715zM408 31q79 0 146 37.5t108 113.5v246
q-41 76 -108 114t-146 38q-108 0 -171 -79.5t-63 -195.5t63 -195t171 -79z" />
    <glyph glyph-name="afii10066" unicode="&#x431;" horiz-adv-x="952" 
d="M473 31q97 0 165.5 67.5t99 170.5t30.5 229q0 123 -30.5 224.5t-99 168.5t-165.5 67t-165.5 -67t-99 -168.5t-30.5 -224.5q0 -126 30.5 -229t99 -170.5t165.5 -67.5zM473 -25q-171 0 -266.5 155.5t-95.5 410.5q0 243 39 386.5t128 221.5t248 108q226 44 226 109h57
q0 -64 -66 -100.5t-204 -67.5q-83 -17 -142.5 -44t-97.5 -59.5t-63.5 -84t-38.5 -103t-25 -129.5q101 236 305 236q112 0 195 -71t123.5 -186.5t40.5 -258.5q0 -144 -41.5 -261t-125 -189.5t-196.5 -72.5z" />
    <glyph glyph-name="afii10067" unicode="&#x432;" horiz-adv-x="878" 
d="M500 0h-344v989h340q108 0 174.5 -67t66.5 -187q0 -85 -38.5 -142.5t-100.5 -80.5q67 -20 111.5 -90.5t44.5 -153.5q0 -128 -66.5 -198t-187.5 -70zM496 53q95 0 142.5 56t47.5 157q0 91 -48 154t-142 63h-279v-430h279zM489 539q91 0 136 54t45 142q0 90 -44.5 145.5
t-136.5 55.5h-272v-397h272z" />
    <glyph glyph-name="afii10068" unicode="&#x433;" horiz-adv-x="704" 
d="M645 989v-55h-428v-934h-61v989h489z" />
    <glyph glyph-name="afii10069" unicode="&#x434;" horiz-adv-x="935" 
d="M41 -252v303q49 5 82.5 38t63.5 130t49 266l55 504h446v-934h123v-307h-61v252h-697v-252h-61zM346 934l-51 -459q-21 -186 -53.5 -284t-81.5 -136h516v879h-330z" />
    <glyph glyph-name="afii10070" unicode="&#x435;" 
d="M502 -25q-122 0 -211.5 68.5t-134.5 185.5t-45 267q0 145 42.5 261.5t126.5 186.5t195 70q91 0 162 -42t113.5 -115t64 -164t21.5 -197v-21h-658q3 -196 90 -320t234 -124q149 0 254 145l47 -35q-126 -166 -301 -166zM770 530q0 75 -17 147.5t-51 137t-93.5 104
t-135.5 39.5q-59 0 -108.5 -27t-83 -71t-57 -101t-34.5 -114.5t-12 -114.5h592z" />
    <glyph glyph-name="afii10072" unicode="&#x436;" horiz-adv-x="1126" 
d="M127 0h-76l365 543l-373 446h76l413 -500v500h62v-502l414 502h75l-370 -446l364 -543h-78l-327 498l-78 -97v-401h-62v403l-77 95z" />
    <glyph glyph-name="afii10073" unicode="&#x437;" horiz-adv-x="870" 
d="M414 -25q-222 0 -344 166l47 35q106 -145 297 -145q125 0 202.5 63.5t77.5 167.5q0 213 -293 213h-184v55h184q117 0 198 59t81 163q0 95 -80 150.5t-203 55.5q-175 0 -264 -137l-49 33q108 160 313 160q148 0 248 -71.5t100 -190.5q0 -95 -66.5 -163.5t-154.5 -84.5
q41 -6 81 -23t76 -46t58.5 -74.5t22.5 -100.5q0 -123 -91 -204t-257 -81z" />
    <glyph glyph-name="afii10074" unicode="&#x438;" horiz-adv-x="890" 
d="M221 0h-65v989h61v-866l453 866h67v-989h-61v877z" />
    <glyph glyph-name="afii10075" unicode="&#x439;" horiz-adv-x="890" 
d="M221 0h-65v989h61v-866l453 866h67v-989h-61v877zM743 1280q-52 -70 -129.5 -110t-167.5 -40q-89 0 -167.5 40t-131.5 110l46 37q42 -60 109.5 -95.5t143.5 -35.5t144.5 35.5t109.5 95.5z" />
    <glyph glyph-name="afii10076" unicode="&#x43a;" horiz-adv-x="841" 
d="M791 0h-76l-328 498l-170 -207v-291h-61v989h61v-612l506 612h76l-373 -446z" />
    <glyph glyph-name="afii10077" unicode="&#x43b;" horiz-adv-x="890" 
d="M41 -25v56q47 0 82 39t64.5 141.5t48.5 273.5l55 504h446v-989h-61v934h-330l-51 -459q-21 -192 -56 -303t-82 -154t-116 -43z" />
    <glyph glyph-name="afii10078" unicode="&#x43c;" horiz-adv-x="1052" 
d="M897 0h-61v897l-295 -897h-29l-295 897v-897h-61v989h90l280 -848l281 848h90v-989z" />
    <glyph glyph-name="afii10079" unicode="&#x43d;" horiz-adv-x="890" 
d="M217 0h-61v989h61v-446h459v446h61v-989h-61v487h-459v-487z" />
    <glyph glyph-name="afii10080" unicode="&#x43e;" horiz-adv-x="944" 
d="M473 -25q-116 0 -199.5 72.5t-123 188.5t-39.5 260t39.5 259t123 187t199.5 72t200 -72t123.5 -187t39.5 -259q0 -85 -14.5 -162t-44.5 -142.5t-72.5 -114t-102 -75.5t-129.5 -27zM473 31q75 0 133 39.5t92.5 106.5t52 148t17.5 171q0 89 -17.5 169.5t-52 147t-92.5 106
t-133 39.5q-74 0 -132 -39.5t-92.5 -106t-52.5 -147t-18 -169.5q0 -121 30 -223.5t98.5 -172t166.5 -69.5z" />
    <glyph glyph-name="afii10081" unicode="&#x43f;" horiz-adv-x="890" 
d="M737 0h-61v934h-459v-934h-61v989h581v-989z" />
    <glyph glyph-name="afii10082" unicode="&#x440;" horiz-adv-x="935" 
d="M485 -25q-80 0 -152 49t-116 136v-537h-61v1366h61v-153q41 78 114 128t154 50q163 0 253.5 -142.5t90.5 -375.5q0 -231 -90.5 -376t-253.5 -145zM485 31q93 0 157 66t92 168t28 231q0 130 -28 231.5t-92 166t-157 64.5q-84 0 -159 -59t-109 -141v-522q34 -83 109 -144
t159 -61z" />
    <glyph glyph-name="afii10083" unicode="&#x441;" horiz-adv-x="806" 
d="M483 -25q-116 0 -202 71.5t-128 188t-42 261.5t42 261t128 186.5t202 70.5q85 0 142.5 -32t111.5 -97l-43 -39q-83 112 -211 112q-99 0 -170 -65.5t-103 -168t-32 -228.5q0 -125 32 -228t103 -170t170 -67q128 0 211 114l43 -41q-52 -67 -109.5 -98t-144.5 -31z" />
    <glyph glyph-name="afii10084" unicode="&#x442;" horiz-adv-x="653" 
d="M356 0h-61v934h-234v55h531v-55h-236v-934z" />
    <glyph glyph-name="afii10085" unicode="&#x443;" horiz-adv-x="768" 
d="M80 -387l12 55q25 -14 68 -14q45 0 71.5 26.5t51.5 96.5l69 200l-323 1012h69l287 -911l287 911h69l-403 -1233q-53 -157 -178 -157q-48 0 -80 14z" />
    <glyph glyph-name="afii10086" unicode="&#x444;" horiz-adv-x="1259" 
d="M385 1014q66 0 122.5 -46t92.5 -132v530h62v-526q33 78 90 126t122 48q87 0 150.5 -66.5t95 -182.5t31.5 -269q0 -231 -73.5 -376t-203.5 -145q-64 0 -120.5 46.5t-91.5 132.5v-531h-62v527q-33 -78 -91.5 -126.5t-123.5 -48.5q-130 0 -202 143.5t-72 375.5
q0 233 72 376.5t202 143.5zM389 958q-73 0 -123 -65t-72 -167t-22 -232q0 -96 13 -177.5t38.5 -146.5t68 -102t97.5 -37q66 0 124.5 59t86.5 141v523q-28 83 -86.5 143.5t-124.5 60.5zM872 31q55 0 97.5 37.5t67.5 102.5t37.5 147t12.5 178t-12.5 178t-37.5 146.5t-67.5 101
t-97.5 36.5q-66 0 -125 -59t-85 -141v-522q26 -83 85 -144t125 -61z" />
    <glyph glyph-name="afii10087" unicode="&#x445;" horiz-adv-x="776" 
d="M733 0h-74l-270 457l-272 -457h-74l311 506l-293 483h74l254 -432l254 432h74l-293 -483z" />
    <glyph glyph-name="afii10088" unicode="&#x446;" horiz-adv-x="935" 
d="M799 -252v252h-643v989h61v-934h459v934h61v-934h123v-307h-61z" />
    <glyph glyph-name="afii10089" unicode="&#x447;" horiz-adv-x="882" 
d="M145 989h62v-348q0 -121 50 -170t153 -49q67 0 141 23t115 53v491h61v-989h-61v444q-48 -33 -121.5 -55t-138.5 -22q-136 0 -198.5 63.5t-62.5 210.5v348z" />
    <glyph glyph-name="afii10090" unicode="&#x448;" horiz-adv-x="1296" 
d="M1079 989h62v-989h-985v989h61v-934h399v934h62v-934h401v934z" />
    <glyph glyph-name="afii10091" unicode="&#x449;" horiz-adv-x="1341" 
d="M1079 989h62v-934h123v-307h-62v252h-1046v989h61v-934h399v934h62v-934h401v934z" />
    <glyph glyph-name="afii10092" unicode="&#x44a;" horiz-adv-x="987" 
d="M633 0h-338v934h-234v55h295v-422h277q125 0 192.5 -80t67.5 -202q0 -121 -68 -203t-192 -82zM631 514h-275v-459h275q95 0 145.5 63t50.5 167t-49 166.5t-147 62.5z" />
    <glyph glyph-name="afii10093" unicode="&#x44b;" horiz-adv-x="1142" 
d="M156 989h61v-422h275q125 0 193.5 -80t68.5 -202q0 -121 -68 -203t-194 -82h-336v989zM492 514h-275v-459h275q95 0 144.5 63t49.5 167t-49 166.5t-145 62.5zM987 0h-61v989h61v-989z" />
    <glyph glyph-name="afii10094" unicode="&#x44c;" horiz-adv-x="845" 
d="M156 989h61v-422h275q125 0 193.5 -80t68.5 -202q0 -121 -68 -203t-194 -82h-336v989zM492 514h-275v-459h275q95 0 144.5 63t49.5 167t-49 166.5t-145 62.5z" />
    <glyph glyph-name="afii10095" unicode="&#x44d;" horiz-adv-x="806" 
d="M324 -25q-87 0 -144.5 31t-109.5 98l43 41q83 -114 211 -114q96 0 166 63.5t103 161.5t36 219h-441v57h439q-4 118 -37.5 212t-102 154t-163.5 60q-128 0 -211 -112l-43 39q54 65 111.5 97t142.5 32q116 0 202 -70.5t128 -186.5t42 -261t-42 -261.5t-128 -188t-202 -71.5
z" />
    <glyph glyph-name="afii10096" unicode="&#x44e;" horiz-adv-x="1239" 
d="M766 -25q-114 0 -197.5 71.5t-124 185.5t-41.5 255h-186v-487h-61v989h61v-446h186q7 133 49.5 237.5t123.5 169t190 64.5q117 0 200.5 -72t122.5 -187t39 -259t-39 -260t-122.5 -188.5t-200.5 -72.5zM766 31q75 0 133 39.5t92.5 106.5t52 148t17.5 171q0 89 -17.5 169.5
t-52 147t-92.5 106t-133 39.5q-74 0 -132 -39.5t-92.5 -106t-52.5 -147t-18 -169.5q0 -121 30 -223.5t98.5 -172t166.5 -69.5z" />
    <glyph glyph-name="afii10097" unicode="&#x44f;" horiz-adv-x="890" 
d="M203 0h-74l233 428q-100 8 -162.5 83t-62.5 196q0 125 70 203.5t192 78.5h336v-989h-61v422h-248zM401 477h273v457h-273q-95 0 -145.5 -62t-50.5 -165q0 -106 49 -168t147 -62z" />
    <glyph glyph-name="afii10071" unicode="&#x451;" 
d="M698 1225q0 -23 -17 -40.5t-40 -17.5t-40 17.5t-17 40.5t17 40t40 17t40 -17t17 -40zM367 1225q0 -23 -17.5 -40.5t-40.5 -17.5t-40 17.5t-17 40.5t17 40t40 17t40.5 -17t17.5 -40zM502 -25q-122 0 -211.5 68.5t-134.5 185.5t-45 267q0 145 42.5 261.5t126.5 186.5
t195 70q91 0 162 -42t113.5 -115t64 -164t21.5 -197v-21h-658q3 -196 90 -320t234 -124q149 0 254 145l47 -35q-126 -166 -301 -166zM770 530q0 75 -17 147.5t-51 137t-93.5 104t-135.5 39.5q-59 0 -108.5 -27t-83 -71t-57 -101t-34.5 -114.5t-12 -114.5h592z" />
    <glyph glyph-name="afii10099" unicode="&#x452;" horiz-adv-x="907" 
d="M524 1108h-291v-270q47 73 125.5 124.5t159.5 51.5q119 0 177.5 -61.5t58.5 -200.5v-928q0 -225 -189 -225q-94 0 -151 77l47 39q43 -61 104 -61q127 0 127 170v928q0 112 -46.5 159t-135.5 47q-81 0 -158 -55t-119 -133v-770h-61v1108h-135v55h135v203h61v-203h291v-55z
" />
    <glyph glyph-name="afii10100" unicode="&#x453;" horiz-adv-x="704" 
d="M649 1434l-276 -295h-56l244 295h88zM645 989v-55h-428v-934h-61v989h489z" />
    <glyph glyph-name="afii10101" unicode="&#x454;" horiz-adv-x="806" 
d="M483 -25q-116 0 -202 71.5t-128 188t-42 261.5t42 261t128 186.5t202 70.5q85 0 142.5 -32t111.5 -97l-43 -39q-83 112 -211 112q-72 0 -129 -34.5t-94 -94t-57.5 -135t-24.5 -162.5h440v-57h-440q2 -120 35 -218.5t103.5 -162t166.5 -63.5q128 0 211 114l43 -41
q-52 -67 -109.5 -98t-144.5 -31z" />
    <glyph glyph-name="afii10102" unicode="&#x455;" horiz-adv-x="749" 
d="M367 -25q-93 0 -163.5 33t-129.5 107l47 45q93 -129 246 -129q100 0 163.5 57.5t63.5 149.5q0 58 -27.5 103t-71 73.5t-96.5 53.5t-106 51t-96.5 58t-71 82.5t-27.5 116.5q0 103 77 170.5t200 67.5q172 0 264 -127l-43 -41q-72 112 -221 112q-98 0 -156.5 -52t-58.5 -130
q0 -54 27.5 -95.5t71 -68.5t96 -51.5t105.5 -51.5t96.5 -60.5t71 -87t27.5 -123.5q0 -115 -78.5 -189t-209.5 -74z" />
    <glyph glyph-name="afii10103" unicode="&#x456;" horiz-adv-x="370" 
d="M186 1159q-24 0 -41.5 17.5t-17.5 42.5q0 24 17.5 41.5t41.5 17.5q25 0 42.5 -17t17.5 -42t-17.5 -42.5t-42.5 -17.5zM217 0h-61v989h61v-989z" />
    <glyph glyph-name="afii10104" unicode="&#x457;" horiz-adv-x="370" 
d="M408 1225q0 -23 -17.5 -40.5t-40.5 -17.5t-40 17.5t-17 40.5t17 40t40 17t40.5 -17t17.5 -40zM76 1225q0 -23 -17.5 -40.5t-40.5 -17.5t-40 17.5t-17 40.5t17 40t40 17t40.5 -17t17.5 -40zM217 0h-61v989h61v-989z" />
    <glyph glyph-name="afii10105" unicode="&#x458;" horiz-adv-x="370" 
d="M186 1159q-24 0 -41.5 17.5t-17.5 42.5q0 24 17.5 41.5t41.5 17.5q25 0 42.5 -17t17.5 -42t-17.5 -42.5t-42.5 -17.5zM29 -401q-97 0 -154 77l47 39q43 -61 107 -61q127 0 127 170v1165h61v-1165q0 -120 -49 -172.5t-139 -52.5z" />
    <glyph glyph-name="afii10106" unicode="&#x459;" horiz-adv-x="1366" 
d="M41 -25v56q47 0 82 39t64.5 141.5t48.5 273.5l55 504h446v-422h275q125 0 193.5 -80t68.5 -202q0 -121 -68 -203t-194 -82h-336v934h-330l-51 -459q-21 -192 -56 -303t-82 -154t-116 -43zM1012 514h-275v-459h275q95 0 144.5 63t49.5 167t-49 166.5t-145 62.5z" />
    <glyph glyph-name="afii10107" unicode="&#x45a;" horiz-adv-x="1366" 
d="M217 0h-61v989h61v-446h459v446h61v-446h283q122 0 188 -77t66 -194q0 -116 -66 -194t-188 -78h-344v487h-459v-487zM1018 487h-281v-432h281q92 0 140 59.5t48 157.5t-47.5 156.5t-140.5 58.5z" />
    <glyph glyph-name="afii10108" unicode="&#x45b;" horiz-adv-x="907" 
d="M532 1108h-299v-270q47 73 125.5 124.5t159.5 51.5q119 0 177.5 -61.5t58.5 -200.5v-752h-62v752q0 112 -46.5 159t-135.5 47q-81 0 -158 -55t-119 -133v-770h-61v1108h-135v55h135v203h61v-203h299v-55z" />
    <glyph glyph-name="afii10109" unicode="&#x45c;" horiz-adv-x="841" 
d="M670 1434l-277 -295h-55l244 295h88zM791 0h-76l-328 498l-170 -207v-291h-61v989h61v-612l506 612h76l-373 -446z" />
    <glyph glyph-name="afii10110" unicode="&#x45e;" horiz-adv-x="768" 
d="M80 -387l12 55q25 -14 68 -14q45 0 71.5 26.5t51.5 96.5l69 200l-323 1012h69l287 -911l287 911h69l-403 -1233q-53 -157 -178 -157q-48 0 -80 14zM682 1280q-52 -70 -129.5 -110t-167.5 -40q-89 0 -167.5 40t-131.5 110l45 37q41 -60 109.5 -95.5t144.5 -35.5
t144.5 35.5t109.5 95.5z" />
    <glyph glyph-name="afii10193" unicode="&#x45f;" horiz-adv-x="890" 
d="M416 -250v250h-260v989h61v-934h459v934h61v-989h-260v-250h-61z" />
    <glyph glyph-name="afii10050" unicode="&#x490;" horiz-adv-x="884" 
d="M229 1305v-1305h-65v1366h567v254h66v-315h-568z" />
    <glyph glyph-name="afii10098" unicode="&#x491;" horiz-adv-x="704" 
d="M217 934v-934h-61v989h428v250h61v-305h-428z" />
    <glyph glyph-name="uni1E02" unicode="&#x1e02;" horiz-adv-x="983" 
d="M528 0h-364v1366h356q144 0 232 -91.5t88 -256.5q0 -123 -56.5 -204t-144.5 -109q94 -15 158.5 -115t64.5 -221q0 -175 -87.5 -272t-246.5 -97zM520 733q124 0 186 79t62 206q0 126 -62 206.5t-186 80.5h-291v-572h291zM528 61q129 0 196 81.5t67 224.5q0 82 -27 149
t-88 111.5t-148 44.5h-299v-611h299zM492 1501q-24 0 -42 18t-18 42t18 41.5t42 17.5q25 0 42 -17t17 -42t-17 -42.5t-42 -17.5z" />
    <glyph glyph-name="uni1E03" unicode="&#x1e03;" 
d="M217 231q34 -82 109 -141t159 -59q93 0 157 65.5t92 167t28 230.5q0 130 -28 232t-92 167t-157 65q-84 0 -159 -60.5t-109 -143.5v-523zM217 0h-61v1366h61v-535q44 87 115.5 135t152.5 48q163 0 253.5 -144t90.5 -376t-90.5 -375.5t-253.5 -143.5q-81 0 -154 51
t-114 130v-156zM487 1501q-23 0 -41 17.5t-18 42.5q0 24 17.5 41.5t41.5 17.5q25 0 42.5 -17t17.5 -42t-17.5 -42.5t-42.5 -17.5z" />
    <glyph glyph-name="uni1E0A" unicode="&#x1e0a;" horiz-adv-x="1095" 
d="M463 0h-299v1366h299q98 0 181 -34.5t143.5 -96.5t103 -147.5t63.5 -188t21 -217.5q0 -195 -57.5 -347.5t-175 -243.5t-279.5 -91zM463 61q143 0 244 84t148.5 222t47.5 315q0 175 -47.5 313.5t-148.5 224t-244 85.5h-234v-1244h234zM549 1501q-24 0 -42 18t-18 42
t18 41.5t42 17.5q25 0 42 -17t17 -42t-17 -42.5t-42 -17.5z" />
    <glyph glyph-name="uni1E0B" unicode="&#x1e0b;" 
d="M784 0h-61v156q-41 -79 -114 -130t-154 -51q-163 0 -253.5 143.5t-90.5 375.5t90.5 376t253.5 144q81 0 152.5 -48t115.5 -135v535h61v-1366zM455 31q84 0 159 59t109 141v523q-34 83 -109 143.5t-159 60.5q-93 0 -157 -65t-92 -167t-28 -232q0 -129 28 -230.5t92 -167
t157 -65.5zM455 1501q-24 0 -42 18t-18 42t18 41.5t42 17.5q25 0 42 -17t17 -42t-17 -42.5t-42 -17.5z" />
    <glyph glyph-name="uni1E1E" unicode="&#x1e1e;" horiz-adv-x="884" 
d="M485 1501q-23 0 -41 17.5t-18 42.5q0 24 17.5 41.5t41.5 17.5q25 0 42.5 -17t17.5 -42t-17.5 -42.5t-42.5 -17.5zM229 0h-65v1366h633v-61h-568v-572h553v-61h-553v-672z" />
    <glyph glyph-name="uni1E1F" unicode="&#x1e1f;" horiz-adv-x="458" 
d="M387 1501q-23 0 -41 17.5t-18 42.5q0 24 17.5 41.5t41.5 17.5q25 0 42 -17t17 -42t-17 -42.5t-42 -17.5zM244 0h-62v934h-133v55h133v162q0 109 55 172t150 63q84 0 141 -57l-39 -49q-42 51 -102 51q-71 0 -107 -47t-36 -133v-162h172v-55h-172v-934z" />
    <glyph glyph-name="uni1E22" unicode="&#x1e22;" horiz-adv-x="1116" 
d="M952 0h-65v672h-658v-672h-65v1366h65v-633h658v633h65v-1366zM557 1501q-23 0 -41 17.5t-18 42.5q0 24 17.5 41.5t41.5 17.5q25 0 42 -17t17 -42t-17 -42.5t-42 -17.5z" />
    <glyph glyph-name="uni1E23" unicode="&#x1e23;" horiz-adv-x="890" 
d="M737 0h-61v752q0 112 -46.5 159t-135.5 47q-81 0 -158 -55t-119 -133v-770h-61v1366h61v-528q47 73 125.5 124.5t159.5 51.5q119 0 177 -61.5t58 -200.5v-752zM446 1501q-24 0 -41.5 17.5t-17.5 42.5q0 24 17.5 41.5t41.5 17.5q25 0 42.5 -17t17.5 -42t-17.5 -42.5
t-42.5 -17.5z" />
    <glyph glyph-name="uni1E56" unicode="&#x1e56;" horiz-adv-x="917" 
d="M229 0h-65v1366h340q160 0 249 -111t89 -276t-89.5 -276t-248.5 -111h-275v-592zM502 653q126 0 197 90.5t71 235.5t-71 235.5t-197 90.5h-273v-652h273zM459 1501q-24 0 -42 18t-18 42t18 41.5t42 17.5q25 0 42 -17t17 -42t-17 -42.5t-42 -17.5z" />
    <glyph glyph-name="uni1E57" unicode="&#x1e57;" horiz-adv-x="935" 
d="M485 -25q-80 0 -152 49t-116 136v-537h-61v1366h61v-153q41 78 114 128t154 50q163 0 253.5 -142.5t90.5 -375.5q0 -231 -90.5 -376t-253.5 -145zM485 31q93 0 157 66t92 168t28 231q0 130 -28 231.5t-92 166t-157 64.5q-84 0 -159 -59t-109 -141v-522q34 -83 109 -144
t159 -61zM485 1159q-23 0 -41 17.5t-18 42.5q0 24 17.5 41.5t41.5 17.5q25 0 42.5 -17t17.5 -42t-17.5 -42.5t-42.5 -17.5z" />
    <glyph glyph-name="uni1E60" unicode="&#x1e60;" horiz-adv-x="915" 
d="M442 -25q-112 0 -205 45t-155 123l51 50q51 -68 132 -112t177 -44q78 0 137.5 24t95 65.5t53 91.5t17.5 106q0 66 -21.5 120t-57.5 91.5t-82.5 70t-98 59t-103 53.5t-98 60t-82.5 71.5t-57.5 93.5t-21.5 122q0 148 100 236t242 88q203 0 319 -138l-45 -49
q-102 125 -274 125q-115 0 -195 -73t-80 -189q0 -71 34.5 -127t89.5 -94.5t121 -73.5t132.5 -74t121.5 -86t89.5 -120t34.5 -166q0 -66 -21 -126t-64 -111t-116.5 -81.5t-169.5 -30.5zM457 1501q-24 0 -42 18t-18 42t18 41.5t42 17.5q25 0 42 -17t17 -42t-17 -42.5
t-42 -17.5z" />
    <glyph glyph-name="uni1E61" unicode="&#x1e61;" horiz-adv-x="749" 
d="M367 -25q-93 0 -163.5 33t-129.5 107l47 45q93 -129 246 -129q100 0 163.5 57.5t63.5 149.5q0 58 -27.5 103t-71 73.5t-96.5 53.5t-106 51t-96.5 58t-71 82.5t-27.5 116.5q0 103 77 170.5t200 67.5q172 0 264 -127l-43 -41q-72 112 -221 112q-98 0 -156.5 -52t-58.5 -130
q0 -54 27.5 -95.5t71 -68.5t96 -51.5t105.5 -51.5t96.5 -60.5t71 -87t27.5 -123.5q0 -115 -78.5 -189t-209.5 -74zM375 1159q-24 0 -42 18t-18 42t18 41.5t42 17.5q25 0 42 -17t17 -42t-17 -42.5t-42 -17.5z" />
    <glyph glyph-name="uni1E6A" unicode="&#x1e6a;" horiz-adv-x="866" 
d="M465 0h-66v1305h-342v61h752v-61h-344v-1305zM432 1501q-24 0 -41.5 17.5t-17.5 42.5q0 24 17.5 41.5t41.5 17.5q25 0 42.5 -17t17.5 -42t-17.5 -42.5t-42.5 -17.5z" />
    <glyph glyph-name="uni1E6B" unicode="&#x1e6b;" horiz-adv-x="479" 
d="M324 -25q-150 0 -150 191v768h-135v55h135v271h62v-271h172v-55h-172v-768q0 -135 88 -135q57 0 96 49l39 -43q-30 -31 -59.5 -46.5t-75.5 -15.5zM213 1501q-23 0 -41 17.5t-18 42.5q0 24 17.5 41.5t41.5 17.5q25 0 42 -17t17 -42t-17 -42.5t-42 -17.5z" />
    <glyph glyph-name="Wgrave" unicode="&#x1e80;" horiz-adv-x="1374" 
d="M1028 0h-78l-262 1223l-262 -1223h-78l-297 1366h72l264 -1251l266 1251h70l266 -1251l264 1251h72zM770 1481h-55l-277 295h88z" />
    <glyph glyph-name="wgrave" unicode="&#x1e81;" horiz-adv-x="1216" 
d="M907 0h-55l-244 899l-243 -899h-56l-266 989h68l227 -893l240 893h61l240 -893l227 893h68zM692 1139h-55l-277 295h89z" />
    <glyph glyph-name="Wacute" unicode="&#x1e82;" horiz-adv-x="1374" 
d="M948 1776l-276 -295h-56l244 295h88zM1028 0h-78l-262 1223l-262 -1223h-78l-297 1366h72l264 -1251l266 1251h70l266 -1251l264 1251h72z" />
    <glyph glyph-name="wacute" unicode="&#x1e83;" horiz-adv-x="1216" 
d="M858 1434l-276 -295h-56l244 295h88zM907 0h-55l-244 899l-243 -899h-56l-266 989h68l227 -893l240 893h61l240 -893l227 893h68z" />
    <glyph glyph-name="Wdieresis" unicode="&#x1e84;" horiz-adv-x="1374" 
d="M911 1567q0 -23 -17 -40.5t-40 -17.5t-40 17.5t-17 40.5t17 40t40 17t40 -17t17 -40zM580 1567q0 -23 -17.5 -40.5t-40.5 -17.5t-40 17.5t-17 40.5t17 40t40 17t40.5 -17t17.5 -40zM1028 0h-78l-262 1223l-262 -1223h-78l-297 1366h72l264 -1251l266 1251h70l266 -1251
l264 1251h72z" />
    <glyph glyph-name="wdieresis" unicode="&#x1e85;" horiz-adv-x="1216" 
d="M831 1225q0 -23 -17 -40.5t-40 -17.5t-40 17.5t-17 40.5t17 40t40 17t40 -17t17 -40zM500 1225q0 -23 -17.5 -40.5t-40.5 -17.5t-40 17.5t-17 40.5t17 40t40 17t40.5 -17t17.5 -40zM907 0h-55l-244 899l-243 -899h-56l-266 989h68l227 -893l240 893h61l240 -893l227 893
h68z" />
    <glyph glyph-name="uni1EA0" unicode="&#x1ea0;" horiz-adv-x="970" 
d="M938 0h-72l-108 367h-543l-109 -367h-71l411 1366h78zM739 428l-254 852l-254 -852h508zM485 -354q-24 0 -41.5 17.5t-17.5 41.5t17.5 41.5t41.5 17.5q25 0 42.5 -17t17.5 -42t-17.5 -42t-42.5 -17z" />
    <glyph glyph-name="uni1EA1" unicode="&#x1ea1;" horiz-adv-x="876" 
d="M723 0h-61v115q-98 -140 -263 -140q-124 0 -208.5 91t-84.5 239t83.5 239t209.5 91q167 0 263 -137v215q0 119 -58 182t-162 63q-75 0 -135 -30.5t-119 -102.5l-41 45q65 75 135 109.5t160 34.5q137 0 209 -75t72 -224v-715zM408 31q79 0 146 37.5t108 113.5v246
q-41 76 -108 114t-146 38q-108 0 -171 -79.5t-63 -195.5t63 -195t171 -79zM438 -354q-24 0 -41.5 17.5t-17.5 41.5t17.5 41.5t41.5 17.5q25 0 42.5 -17t17.5 -42t-17.5 -42t-42.5 -17z" />
    <glyph glyph-name="uni1EA2" unicode="&#x1ea2;" horiz-adv-x="970" 
d="M938 0h-72l-108 367h-543l-109 -367h-71l411 1366h78zM739 428l-254 852l-254 -852h508zM412 1571l-43 12q10 40 40 68t78 28q52 0 84.5 -32t32.5 -95q0 -65 -45 -125h-53q51 59 51 125q0 41 -19 61.5t-51 20.5q-57 0 -75 -63z" />
    <glyph glyph-name="uni1EA3" unicode="&#x1ea3;" horiz-adv-x="876" 
d="M723 0h-61v115q-98 -140 -263 -140q-124 0 -208.5 91t-84.5 239t83.5 239t209.5 91q167 0 263 -137v215q0 119 -58 182t-162 63q-75 0 -135 -30.5t-119 -102.5l-41 45q65 75 135 109.5t160 34.5q137 0 209 -75t72 -224v-715zM408 31q79 0 146 37.5t108 113.5v246
q-41 76 -108 114t-146 38q-108 0 -171 -79.5t-63 -195.5t63 -195t171 -79zM365 1223l-43 12q10 40 40 68t78 28q52 0 84.5 -32t32.5 -95q0 -65 -45 -125h-53q51 59 51 125q0 41 -19 61.5t-51 20.5q-57 0 -75 -63z" />
    <glyph glyph-name="uni1EA4" unicode="&#x1ea4;" horiz-adv-x="970" 
d="M698 1397h-51l-162 180l-153 -180h-53l170 221h73zM938 0h-72l-108 367h-543l-109 -367h-71l411 1366h78zM739 428l-254 852l-254 -852h508zM973 1729l-277 -222h-55l244 222h88z" />
    <glyph glyph-name="uni1EA5" unicode="&#x1ea5;" horiz-adv-x="876" 
d="M723 0h-61v115q-98 -140 -263 -140q-124 0 -208.5 91t-84.5 239t83.5 239t209.5 91q167 0 263 -137v215q0 119 -58 182t-162 63q-75 0 -135 -30.5t-119 -102.5l-41 45q65 75 135 109.5t160 34.5q137 0 209 -75t72 -224v-715zM408 31q79 0 146 37.5t108 113.5v246
q-41 76 -108 114t-146 38q-108 0 -171 -79.5t-63 -195.5t63 -195t171 -79zM657 1139h-51l-162 241l-153 -241h-53l170 295h73zM922 1579l-277 -295h-55l244 295h88z" />
    <glyph glyph-name="uni1EA6" unicode="&#x1ea6;" horiz-adv-x="970" 
d="M698 1397h-51l-162 180l-153 -180h-53l170 221h73zM938 0h-72l-108 367h-543l-109 -367h-71l411 1366h78zM739 428l-254 852l-254 -852h508zM330 1507h-56l-276 222h88z" />
    <glyph glyph-name="uni1EA7" unicode="&#x1ea7;" horiz-adv-x="876" 
d="M723 0h-61v115q-98 -140 -263 -140q-124 0 -208.5 91t-84.5 239t83.5 239t209.5 91q167 0 263 -137v215q0 119 -58 182t-162 63q-75 0 -135 -30.5t-119 -102.5l-41 45q65 75 135 109.5t160 34.5q137 0 209 -75t72 -224v-715zM408 31q79 0 146 37.5t108 113.5v246
q-41 76 -108 114t-146 38q-108 0 -171 -79.5t-63 -195.5t63 -195t171 -79zM657 1139h-51l-162 241l-153 -241h-53l170 295h73zM297 1284h-55l-277 295h88z" />
    <glyph glyph-name="uni1EA8" unicode="&#x1ea8;" horiz-adv-x="970" 
d="M698 1397h-51l-162 180l-153 -180h-53l170 221h73zM938 0h-72l-108 367h-543l-109 -367h-71l411 1366h78zM739 428l-254 852l-254 -852h508zM618 1630l-43 8q10 30 40 51t79 21q53 0 85 -23.5t32 -70.5q0 -49 -45 -94h-53q51 45 51 94q0 61 -70 61q-58 0 -76 -47z" />
    <glyph glyph-name="uni1EA9" unicode="&#x1ea9;" horiz-adv-x="876" 
d="M723 0h-61v115q-98 -140 -263 -140q-124 0 -208.5 91t-84.5 239t83.5 239t209.5 91q167 0 263 -137v215q0 119 -58 182t-162 63q-75 0 -135 -30.5t-119 -102.5l-41 45q65 75 135 109.5t160 34.5q137 0 209 -75t72 -224v-715zM408 31q79 0 146 37.5t108 113.5v246
q-41 76 -108 114t-146 38q-108 0 -171 -79.5t-63 -195.5t63 -195t171 -79zM657 1139h-51l-162 241l-153 -241h-53l170 295h73zM506 1509l-43 13q10 40 40 68t79 28q52 0 84 -32t32 -95q0 -65 -45 -125h-53q51 59 51 125q0 82 -69 82q-57 0 -76 -64z" />
    <glyph glyph-name="uni1EAA" unicode="&#x1eaa;" horiz-adv-x="970" 
d="M698 1389h-51l-162 120l-153 -120h-53l170 147h73zM938 0h-72l-108 367h-543l-109 -367h-71l411 1366h78zM739 428l-254 852l-254 -852h508zM588 1550q-38 0 -65 12t-41.5 29t-27.5 33.5t-32 28.5t-45 12q-45 0 -73 -27.5t-28 -81.5h-49q0 59 40 98.5t116 39.5
q38 0 65 -12t41.5 -29.5t27.5 -34.5t32 -29t45 -12q45 0 71.5 27.5t26.5 83.5h49q0 -60 -39 -99t-114 -39z" />
    <glyph glyph-name="uni1EAB" unicode="&#x1eab;" horiz-adv-x="876" 
d="M723 0h-61v115q-98 -140 -263 -140q-124 0 -208.5 91t-84.5 239t83.5 239t209.5 91q167 0 263 -137v215q0 119 -58 182t-162 63q-75 0 -135 -30.5t-119 -102.5l-41 45q65 75 135 109.5t160 34.5q137 0 209 -75t72 -224v-715zM408 31q79 0 146 37.5t108 113.5v246
q-41 76 -108 114t-146 38q-108 0 -171 -79.5t-63 -195.5t63 -195t171 -79zM657 1071h-51l-162 242l-153 -242h-53l170 295h73zM541 1397q-38 0 -65 24t-41.5 57.5t-27.5 67.5t-32 58t-45 24q-45 0 -73 -54.5t-28 -164.5h-49q0 118 40 196t116 78q38 0 65 -24t41.5 -57.5
t27.5 -67.5t32 -58t45 -24q45 0 71.5 54t26.5 165h49q0 -117 -39 -195.5t-114 -78.5z" />
    <glyph glyph-name="uni1EAC" unicode="&#x1eac;" horiz-adv-x="970" 
d="M938 0h-72l-108 367h-543l-109 -367h-71l411 1366h78zM739 428l-254 852l-254 -852h508zM696 1481h-51l-162 241l-153 -241h-54l170 295h74zM485 -354q-24 0 -41.5 17.5t-17.5 41.5t17.5 41.5t41.5 17.5q25 0 42.5 -17t17.5 -42t-17.5 -42t-42.5 -17z" />
    <glyph glyph-name="uni1EAD" unicode="&#x1ead;" horiz-adv-x="876" 
d="M723 0h-61v115q-98 -140 -263 -140q-124 0 -208.5 91t-84.5 239t83.5 239t209.5 91q167 0 263 -137v215q0 119 -58 182t-162 63q-75 0 -135 -30.5t-119 -102.5l-41 45q65 75 135 109.5t160 34.5q137 0 209 -75t72 -224v-715zM408 31q79 0 146 37.5t108 113.5v246
q-41 76 -108 114t-146 38q-108 0 -171 -79.5t-63 -195.5t63 -195t171 -79zM647 1139h-51l-162 241l-153 -241h-54l170 295h74zM438 -354q-24 0 -41.5 17.5t-17.5 41.5t17.5 41.5t41.5 17.5q25 0 42.5 -17t17.5 -42t-17.5 -42t-42.5 -17z" />
    <glyph glyph-name="uni1EAE" unicode="&#x1eae;" horiz-adv-x="970" 
d="M938 0h-72l-108 367h-543l-109 -367h-71l411 1366h78zM739 428l-254 852l-254 -852h508zM731 1729l-276 -222h-56l244 222h88zM784 1563q-52 -70 -129.5 -110t-167.5 -40q-89 0 -167.5 40t-131.5 110l45 36q41 -60 109.5 -95.5t144.5 -35.5t144.5 35.5t109.5 95.5z" />
    <glyph glyph-name="uni1EAF" unicode="&#x1eaf;" horiz-adv-x="876" 
d="M723 0h-61v115q-98 -140 -263 -140q-124 0 -208.5 91t-84.5 239t83.5 239t209.5 91q167 0 263 -137v215q0 119 -58 182t-162 63q-75 0 -135 -30.5t-119 -102.5l-41 45q65 75 135 109.5t160 34.5q137 0 209 -75t72 -224v-715zM408 31q79 0 146 37.5t108 113.5v246
q-41 76 -108 114t-146 38q-108 0 -171 -79.5t-63 -195.5t63 -195t171 -79zM690 1548l-276 -295h-56l244 295h88zM741 1233q-52 -70 -129.5 -110t-167.5 -40q-89 0 -167.5 40t-131.5 110l45 37q41 -60 109.5 -95.5t144.5 -35.5t144.5 35.5t109.5 95.5z" />
    <glyph glyph-name="uni1EB0" unicode="&#x1eb0;" horiz-adv-x="970" 
d="M938 0h-72l-108 367h-543l-109 -367h-71l411 1366h78zM739 428l-254 852l-254 -852h508zM578 1507h-56l-276 222h88zM784 1561q-52 -70 -129.5 -110t-167.5 -40q-89 0 -167.5 40t-131.5 110l45 36q41 -60 109.5 -95.5t144.5 -35.5t144.5 35.5t109.5 95.5z" />
    <glyph glyph-name="uni1EB1" unicode="&#x1eb1;" horiz-adv-x="876" 
d="M723 0h-61v115q-98 -140 -263 -140q-124 0 -208.5 91t-84.5 239t83.5 239t209.5 91q167 0 263 -137v215q0 119 -58 182t-162 63q-75 0 -135 -30.5t-119 -102.5l-41 45q65 75 135 109.5t160 34.5q137 0 209 -75t72 -224v-715zM408 31q79 0 146 37.5t108 113.5v246
q-41 76 -108 114t-146 38q-108 0 -171 -79.5t-63 -195.5t63 -195t171 -79zM522 1253h-55l-277 295h89zM741 1237q-52 -70 -129.5 -110t-167.5 -40q-89 0 -167.5 40t-131.5 110l45 37q41 -60 109.5 -95.5t144.5 -35.5t144.5 35.5t109.5 95.5z" />
    <glyph glyph-name="uni1EB2" unicode="&#x1eb2;" horiz-adv-x="970" 
d="M938 0h-72l-108 367h-543l-109 -367h-71l411 1366h78zM739 428l-254 852l-254 -852h508zM412 1624l-43 8q10 30 40 51t78 21q53 0 85 -23.5t32 -70.5q0 -49 -45 -94h-53q51 45 51 94q0 61 -70 61q-57 0 -75 -47zM784 1563q-52 -70 -129.5 -110t-167.5 -40
q-89 0 -167.5 40t-131.5 110l45 36q41 -60 109.5 -95.5t144.5 -35.5t144.5 35.5t109.5 95.5z" />
    <glyph glyph-name="uni1EB3" unicode="&#x1eb3;" horiz-adv-x="876" 
d="M723 0h-61v115q-98 -140 -263 -140q-124 0 -208.5 91t-84.5 239t83.5 239t209.5 91q167 0 263 -137v215q0 119 -58 182t-162 63q-75 0 -135 -30.5t-119 -102.5l-41 45q65 75 135 109.5t160 34.5q137 0 209 -75t72 -224v-715zM408 31q79 0 146 37.5t108 113.5v246
q-41 76 -108 114t-146 38q-108 0 -171 -79.5t-63 -195.5t63 -195t171 -79zM369 1386l-43 13q10 40 40 68t78 28q52 0 84.5 -32t32.5 -95q0 -65 -45 -125h-53q51 59 51 125q0 41 -19 61.5t-51 20.5q-56 0 -75 -64zM741 1237q-52 -70 -129.5 -110t-167.5 -40q-89 0 -167.5 40
t-131.5 110l45 37q41 -60 109.5 -95.5t144.5 -35.5t144.5 35.5t109.5 95.5z" />
    <glyph glyph-name="uni1EB4" unicode="&#x1eb4;" horiz-adv-x="970" 
d="M938 0h-72l-108 367h-543l-109 -367h-71l411 1366h78zM739 428l-254 852l-254 -852h508zM784 1509q-51 -50 -129 -78t-168 -28t-168 28t-131 78l45 25q42 -42 110 -67t144 -25t144 25t110 67zM588 1550q-38 0 -65 12t-41.5 29t-27.5 33.5t-32 28.5t-45 12
q-45 0 -73 -27.5t-28 -81.5h-49q0 59 40 98.5t116 39.5q38 0 65 -12t41.5 -29.5t27.5 -34.5t32 -29t45 -12q45 0 71.5 27.5t26.5 83.5h49q0 -60 -39 -99t-114 -39z" />
    <glyph glyph-name="uni1EB5" unicode="&#x1eb5;" horiz-adv-x="876" 
d="M723 0h-61v115q-98 -140 -263 -140q-124 0 -208.5 91t-84.5 239t83.5 239t209.5 91q167 0 263 -137v215q0 119 -58 182t-162 63q-75 0 -135 -30.5t-119 -102.5l-41 45q65 75 135 109.5t160 34.5q137 0 209 -75t72 -224v-715zM408 31q79 0 146 37.5t108 113.5v246
q-41 76 -108 114t-146 38q-108 0 -171 -79.5t-63 -195.5t63 -195t171 -79zM741 1237q-52 -70 -129.5 -110t-167.5 -40q-89 0 -167.5 40t-131.5 110l45 37q41 -60 109.5 -95.5t144.5 -35.5t144.5 35.5t109.5 95.5zM537 1323q-38 0 -65 24t-41.5 57.5t-27.5 67.5t-32 58
t-45 24q-45 0 -73 -54.5t-28 -164.5h-49q0 118 40 196.5t116 78.5q38 0 65 -24t41.5 -58t27.5 -68t32 -58t45 -24q45 0 71.5 54t26.5 165h49q0 -117 -39 -195.5t-114 -78.5z" />
    <glyph glyph-name="uni1EB6" unicode="&#x1eb6;" horiz-adv-x="970" 
d="M938 0h-72l-108 367h-543l-109 -367h-71l411 1366h78zM739 428l-254 852l-254 -852h508zM485 -354q-24 0 -41.5 17.5t-17.5 41.5t17.5 41.5t41.5 17.5q25 0 42.5 -17t17.5 -42t-17.5 -42t-42.5 -17zM784 1622q-52 -70 -129.5 -109.5t-167.5 -39.5t-168 39.5t-131 109.5
l45 37q41 -60 109.5 -95.5t144.5 -35.5t144.5 35.5t109.5 95.5z" />
    <glyph glyph-name="uni1EB7" unicode="&#x1eb7;" horiz-adv-x="876" 
d="M723 0h-61v115q-98 -140 -263 -140q-124 0 -208.5 91t-84.5 239t83.5 239t209.5 91q167 0 263 -137v215q0 119 -58 182t-162 63q-75 0 -135 -30.5t-119 -102.5l-41 45q65 75 135 109.5t160 34.5q137 0 209 -75t72 -224v-715zM408 31q79 0 146 37.5t108 113.5v246
q-41 76 -108 114t-146 38q-108 0 -171 -79.5t-63 -195.5t63 -195t171 -79zM438 -354q-24 0 -41.5 17.5t-17.5 41.5t17.5 41.5t41.5 17.5q25 0 42.5 -17t17.5 -42t-17.5 -42t-42.5 -17zM737 1280q-52 -70 -129.5 -110t-167.5 -40q-89 0 -167.5 40t-131.5 110l45 37
q41 -60 109.5 -95.5t144.5 -35.5t144.5 35.5t109.5 95.5z" />
    <glyph glyph-name="uni1EB8" unicode="&#x1eb8;" horiz-adv-x="909" 
d="M797 0h-633v1366h633v-61h-568v-572h553v-61h-553v-611h568v-61zM498 -354q-24 0 -42 17.5t-18 41.5t18 41.5t42 17.5q25 0 42 -17t17 -42t-17 -42t-42 -17z" />
    <glyph glyph-name="uni1EB9" unicode="&#x1eb9;" 
d="M502 -25q-122 0 -211.5 68.5t-134.5 185.5t-45 267q0 145 42.5 261.5t126.5 186.5t195 70q91 0 162 -42t113.5 -115t64 -164t21.5 -197v-21h-658q3 -196 90 -320t234 -124q149 0 254 145l47 -35q-126 -166 -301 -166zM770 530q0 75 -17 147.5t-51 137t-93.5 104
t-135.5 39.5q-59 0 -108.5 -27t-83 -71t-57 -101t-34.5 -114.5t-12 -114.5h592zM475 -354q-24 0 -41.5 17.5t-17.5 41.5t17.5 41.5t41.5 17.5q25 0 42.5 -17t17.5 -42t-17.5 -42t-42.5 -17z" />
    <glyph glyph-name="uni1EBA" unicode="&#x1eba;" horiz-adv-x="909" 
d="M797 0h-633v1366h633v-61h-568v-572h553v-61h-553v-611h568v-61zM381 1571l-43 12q10 40 40 68t79 28q52 0 84 -32t32 -95q0 -65 -45 -125h-53q51 59 51 125q0 82 -69 82q-58 0 -76 -63z" />
    <glyph glyph-name="uni1EBB" unicode="&#x1ebb;" 
d="M502 -25q-122 0 -211.5 68.5t-134.5 185.5t-45 267q0 145 42.5 261.5t126.5 186.5t195 70q91 0 162 -42t113.5 -115t64 -164t21.5 -197v-21h-658q3 -196 90 -320t234 -124q149 0 254 145l47 -35q-126 -166 -301 -166zM770 530q0 75 -17 147.5t-51 137t-93.5 104
t-135.5 39.5q-59 0 -108.5 -27t-83 -71t-57 -101t-34.5 -114.5t-12 -114.5h592zM395 1223l-43 12q10 40 40 68t79 28q52 0 84.5 -32t32.5 -95q0 -65 -45 -125h-54q52 60 52 125q0 41 -19 61.5t-51 20.5q-58 0 -76 -63z" />
    <glyph glyph-name="uni1EBC" unicode="&#x1ebc;" horiz-adv-x="909" 
d="M797 0h-633v1366h633v-61h-568v-572h553v-61h-553v-611h568v-61zM584 1477q-38 0 -65 24t-41.5 57.5t-27.5 67.5t-32 58t-45 24q-45 0 -73 -54.5t-28 -164.5h-49q0 118 40 196t116 78q38 0 65 -24t41.5 -57.5t27.5 -67.5t32 -58t45 -24q45 0 71.5 54t26.5 165h49
q0 -117 -39 -195.5t-114 -78.5z" />
    <glyph glyph-name="uni1EBD" unicode="&#x1ebd;" 
d="M502 -25q-122 0 -211.5 68.5t-134.5 185.5t-45 267q0 145 42.5 261.5t126.5 186.5t195 70q91 0 162 -42t113.5 -115t64 -164t21.5 -197v-21h-658q3 -196 90 -320t234 -124q149 0 254 145l47 -35q-126 -166 -301 -166zM770 530q0 75 -17 147.5t-51 137t-93.5 104
t-135.5 39.5q-59 0 -108.5 -27t-83 -71t-57 -101t-34.5 -114.5t-12 -114.5h592zM578 1135q-38 0 -65 24t-41.5 57.5t-27.5 67.5t-32 58t-45 24q-45 0 -73 -54.5t-28 -164.5h-49q0 118 40 196t116 78q38 0 65 -24t41.5 -57.5t27.5 -67.5t32 -58t45 -24q45 0 71.5 54t26.5 165
h49q0 -117 -39 -195.5t-114 -78.5z" />
    <glyph glyph-name="uni1EBE" unicode="&#x1ebe;" horiz-adv-x="909" 
d="M698 1397h-51l-162 180l-153 -180h-53l170 221h73zM973 1729l-277 -222h-55l244 222h88zM797 0h-633v1366h633v-61h-568v-572h553v-61h-553v-611h568v-61z" />
    <glyph glyph-name="uni1EBF" unicode="&#x1ebf;" 
d="M682 1139h-51l-162 241l-154 -241h-53l170 295h74zM946 1579l-276 -295h-56l244 295h88zM502 -25q-122 0 -211.5 68.5t-134.5 185.5t-45 267q0 145 42.5 261.5t126.5 186.5t195 70q91 0 162 -42t113.5 -115t64 -164t21.5 -197v-21h-658q3 -196 90 -320t234 -124
q149 0 254 145l47 -35q-126 -166 -301 -166zM770 530q0 75 -17 147.5t-51 137t-93.5 104t-135.5 39.5q-59 0 -108.5 -27t-83 -71t-57 -101t-34.5 -114.5t-12 -114.5h592z" />
    <glyph glyph-name="uni1EC0" unicode="&#x1ec0;" horiz-adv-x="909" 
d="M692 1397h-51l-162 180l-153 -180h-54l170 221h74zM797 0h-633v1366h633v-61h-568v-572h553v-61h-553v-611h568v-61zM324 1507h-56l-276 222h88z" />
    <glyph glyph-name="uni1EC1" unicode="&#x1ec1;" 
d="M680 1139h-51l-162 241l-154 -241h-53l170 295h74zM502 -25q-122 0 -211.5 68.5t-134.5 185.5t-45 267q0 145 42.5 261.5t126.5 186.5t195 70q91 0 162 -42t113.5 -115t64 -164t21.5 -197v-21h-658q3 -196 90 -320t234 -124q149 0 254 145l47 -35q-126 -166 -301 -166z
M770 530q0 75 -17 147.5t-51 137t-93.5 104t-135.5 39.5q-59 0 -108.5 -27t-83 -71t-57 -101t-34.5 -114.5t-12 -114.5h592zM319 1284h-55l-276 295h88z" />
    <glyph glyph-name="uni1EC2" unicode="&#x1ec2;" horiz-adv-x="909" 
d="M696 1397h-51l-162 180l-153 -180h-54l170 221h74zM797 0h-633v1366h633v-61h-568v-572h553v-61h-553v-611h568v-61zM616 1630l-43 8q10 30 40 51t79 21q53 0 85 -23.5t32 -70.5q0 -49 -45 -94h-53q51 45 51 94q0 61 -70 61q-58 0 -76 -47z" />
    <glyph glyph-name="uni1EC3" unicode="&#x1ec3;" 
d="M678 1139h-51l-162 241l-154 -241h-53l170 295h74zM502 -25q-122 0 -211.5 68.5t-134.5 185.5t-45 267q0 145 42.5 261.5t126.5 186.5t195 70q91 0 162 -42t113.5 -115t64 -164t21.5 -197v-21h-658q3 -196 90 -320t234 -124q149 0 254 145l47 -35q-126 -166 -301 -166z
M770 530q0 75 -17 147.5t-51 137t-93.5 104t-135.5 39.5q-59 0 -108.5 -27t-83 -71t-57 -101t-34.5 -114.5t-12 -114.5h592zM528 1509l-43 13q10 40 40 68t79 28q52 0 84.5 -32t32.5 -95q0 -65 -45 -125h-53q51 59 51 125q0 41 -19 61.5t-51 20.5q-57 0 -76 -64z" />
    <glyph glyph-name="uni1EC4" unicode="&#x1ec4;" horiz-adv-x="909" 
d="M694 1389h-51l-162 120l-153 -120h-54l170 147h74zM797 0h-633v1366h633v-61h-568v-572h553v-61h-553v-611h568v-61zM584 1550q-38 0 -65 12t-41.5 29t-27.5 33.5t-32 28.5t-45 12q-45 0 -73 -27.5t-28 -81.5h-49q0 59 40 98.5t116 39.5q38 0 65 -12t41.5 -29.5
t27.5 -34.5t32 -29t45 -12q45 0 71.5 27.5t26.5 83.5h49q0 -60 -39 -99t-114 -39z" />
    <glyph glyph-name="uni1EC5" unicode="&#x1ec5;" 
d="M676 1071h-51l-162 242l-154 -242h-53l170 295h74zM502 -25q-122 0 -211.5 68.5t-134.5 185.5t-45 267q0 145 42.5 261.5t126.5 186.5t195 70q91 0 162 -42t113.5 -115t64 -164t21.5 -197v-21h-658q3 -196 90 -320t234 -124q149 0 254 145l47 -35q-126 -166 -301 -166z
M770 530q0 75 -17 147.5t-51 137t-93.5 104t-135.5 39.5q-59 0 -108.5 -27t-83 -71t-57 -101t-34.5 -114.5t-12 -114.5h592zM561 1397q-38 0 -65 24t-41.5 57.5t-27.5 67.5t-32 58t-45 24q-45 0 -72.5 -54.5t-27.5 -164.5h-49q0 118 39.5 196t115.5 78q38 0 65 -24
t41.5 -57.5t27.5 -67.5t32 -58t45 -24q45 0 72 54t27 165h49q0 -117 -39.5 -195.5t-114.5 -78.5z" />
    <glyph glyph-name="uni1EC6" unicode="&#x1ec6;" horiz-adv-x="909" 
d="M692 1481h-51l-162 241l-153 -241h-54l170 295h74zM797 0h-633v1366h633v-61h-568v-572h553v-61h-553v-611h568v-61zM498 -354q-24 0 -42 17.5t-18 41.5t18 41.5t42 17.5q25 0 42 -17t17 -42t-17 -42t-42 -17z" />
    <glyph glyph-name="uni1EC7" unicode="&#x1ec7;" 
d="M686 1139h-51l-162 241l-154 -241h-53l170 295h74zM502 -25q-122 0 -211.5 68.5t-134.5 185.5t-45 267q0 145 42.5 261.5t126.5 186.5t195 70q91 0 162 -42t113.5 -115t64 -164t21.5 -197v-21h-658q3 -196 90 -320t234 -124q149 0 254 145l47 -35q-126 -166 -301 -166z
M770 530q0 75 -17 147.5t-51 137t-93.5 104t-135.5 39.5q-59 0 -108.5 -27t-83 -71t-57 -101t-34.5 -114.5t-12 -114.5h592zM475 -354q-24 0 -41.5 17.5t-17.5 41.5t17.5 41.5t41.5 17.5q25 0 42.5 -17t17.5 -42t-17.5 -42t-42.5 -17z" />
    <glyph glyph-name="uni1EC8" unicode="&#x1ec8;" horiz-adv-x="393" 
d="M229 0h-65v1366h65v-1366zM123 1571l-43 12q10 40 40 68t79 28q52 0 84 -32t32 -95q0 -65 -45 -125h-53q51 59 51 125q0 82 -69 82q-58 0 -76 -63z" />
    <glyph glyph-name="uni1EC9" unicode="&#x1ec9;" horiz-adv-x="370" 
d="M217 0h-61v989h61v-989zM111 1223l-43 12q10 40 40 68t78 28q52 0 84.5 -32t32.5 -95q0 -65 -45 -125h-53q51 59 51 125q0 41 -19 61.5t-51 20.5q-57 0 -75 -63z" />
    <glyph glyph-name="uni1ECA" unicode="&#x1eca;" horiz-adv-x="393" 
d="M229 0h-65v1366h65v-1366zM197 -354q-24 0 -42 17.5t-18 41.5t18 41.5t42 17.5q25 0 42 -17t17 -42t-17 -42t-42 -17z" />
    <glyph glyph-name="uni1ECB" unicode="&#x1ecb;" horiz-adv-x="370" 
d="M186 1159q-24 0 -41.5 17.5t-17.5 42.5q0 24 17.5 41.5t41.5 17.5q25 0 42.5 -17t17.5 -42t-17.5 -42.5t-42.5 -17.5zM217 0h-61v989h61v-989zM186 -354q-24 0 -41.5 17.5t-17.5 41.5t17.5 41.5t41.5 17.5q25 0 42.5 -17t17.5 -42t-17.5 -42t-42.5 -17z" />
    <glyph glyph-name="uni1ECC" unicode="&#x1ecc;" horiz-adv-x="1187" 
d="M594 -25q-113 0 -204.5 56t-149.5 153t-88.5 224t-30.5 274t30.5 274t88.5 224t149.5 153t204.5 56t204.5 -56t149.5 -153t88.5 -224t30.5 -274t-30.5 -274t-88.5 -224t-149.5 -153t-204.5 -56zM594 37q126 0 218.5 88t137.5 232.5t45 324.5q0 182 -45 326t-137.5 231.5
t-218.5 87.5t-218.5 -87.5t-137.5 -231.5t-45 -326q0 -180 45 -324.5t137.5 -232.5t218.5 -88zM598 -354q-24 0 -41.5 17.5t-17.5 41.5t17.5 41.5t41.5 17.5q25 0 42 -17t17 -42t-17 -42t-42 -17z" />
    <glyph glyph-name="uni1ECD" unicode="&#x1ecd;" horiz-adv-x="944" 
d="M473 -25q-116 0 -199.5 72.5t-123 188.5t-39.5 260t39.5 259t123 187t199.5 72t200 -72t123.5 -187t39.5 -259q0 -85 -14.5 -162t-44.5 -142.5t-72.5 -114t-102 -75.5t-129.5 -27zM473 31q75 0 133 39.5t92.5 106.5t52 148t17.5 171q0 89 -17.5 169.5t-52 147t-92.5 106
t-133 39.5q-74 0 -132 -39.5t-92.5 -106t-52.5 -147t-18 -169.5q0 -121 30 -223.5t98.5 -172t166.5 -69.5zM475 -354q-24 0 -41.5 17.5t-17.5 41.5t17.5 41.5t41.5 17.5q25 0 42.5 -17t17.5 -42t-17.5 -42t-42.5 -17z" />
    <glyph glyph-name="uni1ECE" unicode="&#x1ece;" horiz-adv-x="1187" 
d="M594 -25q-113 0 -204.5 56t-149.5 153t-88.5 224t-30.5 274t30.5 274t88.5 224t149.5 153t204.5 56t204.5 -56t149.5 -153t88.5 -224t30.5 -274t-30.5 -274t-88.5 -224t-149.5 -153t-204.5 -56zM594 37q126 0 218.5 88t137.5 232.5t45 324.5q0 182 -45 326t-137.5 231.5
t-218.5 87.5t-218.5 -87.5t-137.5 -231.5t-45 -326q0 -180 45 -324.5t137.5 -232.5t218.5 -88zM522 1571l-43 12q10 40 40 68t79 28q52 0 84.5 -32t32.5 -95q0 -65 -45 -125h-54q52 60 52 125q0 41 -19 61.5t-51 20.5q-58 0 -76 -63z" />
    <glyph glyph-name="uni1ECF" unicode="&#x1ecf;" horiz-adv-x="944" 
d="M473 -25q-116 0 -199.5 72.5t-123 188.5t-39.5 260t39.5 259t123 187t199.5 72t200 -72t123.5 -187t39.5 -259q0 -85 -14.5 -162t-44.5 -142.5t-72.5 -114t-102 -75.5t-129.5 -27zM473 31q75 0 133 39.5t92.5 106.5t52 148t17.5 171q0 89 -17.5 169.5t-52 147t-92.5 106
t-133 39.5q-74 0 -132 -39.5t-92.5 -106t-52.5 -147t-18 -169.5q0 -121 30 -223.5t98.5 -172t166.5 -69.5zM399 1223l-43 12q10 40 40 68t79 28q52 0 84.5 -32t32.5 -95q0 -65 -45 -125h-53q51 59 51 125q0 41 -19 61.5t-51 20.5q-58 0 -76 -63z" />
    <glyph glyph-name="uni1ED0" unicode="&#x1ed0;" horiz-adv-x="1187" 
d="M803 1397h-51l-162 180l-154 -180h-53l170 221h74zM1079 1729l-276 -222h-55l243 222h88zM594 -25q-113 0 -204.5 56t-149.5 153t-88.5 224t-30.5 274t30.5 274t88.5 224t149.5 153t204.5 56t204.5 -56t149.5 -153t88.5 -224t30.5 -274t-30.5 -274t-88.5 -224
t-149.5 -153t-204.5 -56zM594 37q126 0 218.5 88t137.5 232.5t45 324.5q0 182 -45 326t-137.5 231.5t-218.5 87.5t-218.5 -87.5t-137.5 -231.5t-45 -326q0 -180 45 -324.5t137.5 -232.5t218.5 -88z" />
    <glyph glyph-name="uni1ED1" unicode="&#x1ed1;" horiz-adv-x="944" 
d="M682 1139h-51l-162 241l-154 -241h-53l170 295h74zM946 1579l-276 -295h-56l244 295h88zM473 -25q-116 0 -199.5 72.5t-123 188.5t-39.5 260t39.5 259t123 187t199.5 72t200 -72t123.5 -187t39.5 -259q0 -85 -14.5 -162t-44.5 -142.5t-72.5 -114t-102 -75.5t-129.5 -27z
M473 31q75 0 133 39.5t92.5 106.5t52 148t17.5 171q0 89 -17.5 169.5t-52 147t-92.5 106t-133 39.5q-74 0 -132 -39.5t-92.5 -106t-52.5 -147t-18 -169.5q0 -121 30 -223.5t98.5 -172t166.5 -69.5z" />
    <glyph glyph-name="uni1ED2" unicode="&#x1ed2;" horiz-adv-x="1187" 
d="M801 1397h-51l-162 180l-154 -180h-53l170 221h74zM594 -25q-113 0 -204.5 56t-149.5 153t-88.5 224t-30.5 274t30.5 274t88.5 224t149.5 153t204.5 56t204.5 -56t149.5 -153t88.5 -224t30.5 -274t-30.5 -274t-88.5 -224t-149.5 -153t-204.5 -56zM594 37q126 0 218.5 88
t137.5 232.5t45 324.5q0 182 -45 326t-137.5 231.5t-218.5 87.5t-218.5 -87.5t-137.5 -231.5t-45 -326q0 -180 45 -324.5t137.5 -232.5t218.5 -88zM434 1507h-55l-277 222h88z" />
    <glyph glyph-name="uni1ED3" unicode="&#x1ed3;" horiz-adv-x="944" 
d="M680 1139h-51l-162 241l-154 -241h-53l170 295h74zM473 -25q-116 0 -199.5 72.5t-123 188.5t-39.5 260t39.5 259t123 187t199.5 72t200 -72t123.5 -187t39.5 -259q0 -85 -14.5 -162t-44.5 -142.5t-72.5 -114t-102 -75.5t-129.5 -27zM473 31q75 0 133 39.5t92.5 106.5
t52 148t17.5 171q0 89 -17.5 169.5t-52 147t-92.5 106t-133 39.5q-74 0 -132 -39.5t-92.5 -106t-52.5 -147t-18 -169.5q0 -121 30 -223.5t98.5 -172t166.5 -69.5zM319 1284h-55l-276 295h88z" />
    <glyph glyph-name="uni1ED4" unicode="&#x1ed4;" horiz-adv-x="1187" 
d="M803 1397h-51l-162 180l-154 -180h-53l170 221h74zM594 -25q-113 0 -204.5 56t-149.5 153t-88.5 224t-30.5 274t30.5 274t88.5 224t149.5 153t204.5 56t204.5 -56t149.5 -153t88.5 -224t30.5 -274t-30.5 -274t-88.5 -224t-149.5 -153t-204.5 -56zM594 37q126 0 218.5 88
t137.5 232.5t45 324.5q0 182 -45 326t-137.5 231.5t-218.5 87.5t-218.5 -87.5t-137.5 -231.5t-45 -326q0 -180 45 -324.5t137.5 -232.5t218.5 -88zM723 1630l-43 8q10 30 40 51t79 21q52 0 84 -23.5t32 -70.5q0 -49 -45 -94h-53q51 45 51 94q0 61 -69 61q-58 0 -76 -47z" />
    <glyph glyph-name="uni1ED5" unicode="&#x1ed5;" horiz-adv-x="944" 
d="M680 1139h-51l-162 241l-154 -241h-53l170 295h74zM473 -25q-116 0 -199.5 72.5t-123 188.5t-39.5 260t39.5 259t123 187t199.5 72t200 -72t123.5 -187t39.5 -259q0 -85 -14.5 -162t-44.5 -142.5t-72.5 -114t-102 -75.5t-129.5 -27zM473 31q75 0 133 39.5t92.5 106.5
t52 148t17.5 171q0 89 -17.5 169.5t-52 147t-92.5 106t-133 39.5q-74 0 -132 -39.5t-92.5 -106t-52.5 -147t-18 -169.5q0 -121 30 -223.5t98.5 -172t166.5 -69.5zM528 1509l-43 13q10 40 40 68t79 28q52 0 84.5 -32t32.5 -95q0 -65 -45 -125h-53q51 59 51 125q0 41 -19 61.5
t-51 20.5q-57 0 -76 -64z" />
    <glyph glyph-name="uni1ED6" unicode="&#x1ed6;" horiz-adv-x="1187" 
d="M807 1389h-51l-162 120l-154 -120h-53l170 147h74zM594 -25q-113 0 -204.5 56t-149.5 153t-88.5 224t-30.5 274t30.5 274t88.5 224t149.5 153t204.5 56t204.5 -56t149.5 -153t88.5 -224t30.5 -274t-30.5 -274t-88.5 -224t-149.5 -153t-204.5 -56zM594 37q126 0 218.5 88
t137.5 232.5t45 324.5q0 182 -45 326t-137.5 231.5t-218.5 87.5t-218.5 -87.5t-137.5 -231.5t-45 -326q0 -180 45 -324.5t137.5 -232.5t218.5 -88zM696 1550q-38 0 -65 12t-41.5 29t-27.5 33.5t-32 28.5t-45 12q-45 0 -72.5 -27t-27.5 -82h-49q0 59 40 98.5t116 39.5
q38 0 64.5 -12t41.5 -29.5t27.5 -34.5t31.5 -29t45 -12q45 0 72 27.5t27 83.5h49q0 -60 -39 -99t-115 -39z" />
    <glyph glyph-name="uni1ED7" unicode="&#x1ed7;" horiz-adv-x="944" 
d="M682 1071h-51l-162 242l-154 -242h-53l170 295h74zM473 -25q-116 0 -199.5 72.5t-123 188.5t-39.5 260t39.5 259t123 187t199.5 72t200 -72t123.5 -187t39.5 -259q0 -85 -14.5 -162t-44.5 -142.5t-72.5 -114t-102 -75.5t-129.5 -27zM473 31q75 0 133 39.5t92.5 106.5
t52 148t17.5 171q0 89 -17.5 169.5t-52 147t-92.5 106t-133 39.5q-74 0 -132 -39.5t-92.5 -106t-52.5 -147t-18 -169.5q0 -121 30 -223.5t98.5 -172t166.5 -69.5zM567 1397q-38 0 -65 24t-41.5 57.5t-27.5 67.5t-32 58t-45 24q-45 0 -72.5 -54.5t-27.5 -164.5h-49
q0 118 39.5 196t115.5 78q38 0 65 -24t41.5 -57.5t27.5 -67.5t32 -58t45 -24q45 0 72 54t27 165h49q0 -117 -39.5 -195.5t-114.5 -78.5z" />
    <glyph glyph-name="uni1ED8" unicode="&#x1ed8;" horiz-adv-x="1187" 
d="M807 1481h-51l-162 241l-154 -241h-53l170 295h74zM594 -25q-113 0 -204.5 56t-149.5 153t-88.5 224t-30.5 274t30.5 274t88.5 224t149.5 153t204.5 56t204.5 -56t149.5 -153t88.5 -224t30.5 -274t-30.5 -274t-88.5 -224t-149.5 -153t-204.5 -56zM594 37q126 0 218.5 88
t137.5 232.5t45 324.5q0 182 -45 326t-137.5 231.5t-218.5 87.5t-218.5 -87.5t-137.5 -231.5t-45 -326q0 -180 45 -324.5t137.5 -232.5t218.5 -88zM600 -354q-24 0 -41.5 17.5t-17.5 41.5t17.5 41.5t41.5 17.5q25 0 42 -17t17 -42t-17 -42t-42 -17z" />
    <glyph glyph-name="uni1ED9" unicode="&#x1ed9;" horiz-adv-x="944" 
d="M682 1139h-51l-162 241l-154 -241h-53l170 295h74zM473 -25q-116 0 -199.5 72.5t-123 188.5t-39.5 260t39.5 259t123 187t199.5 72t200 -72t123.5 -187t39.5 -259q0 -85 -14.5 -162t-44.5 -142.5t-72.5 -114t-102 -75.5t-129.5 -27zM473 31q75 0 133 39.5t92.5 106.5
t52 148t17.5 171q0 89 -17.5 169.5t-52 147t-92.5 106t-133 39.5q-74 0 -132 -39.5t-92.5 -106t-52.5 -147t-18 -169.5q0 -121 30 -223.5t98.5 -172t166.5 -69.5zM475 -354q-24 0 -41.5 17.5t-17.5 41.5t17.5 41.5t41.5 17.5q25 0 42.5 -17t17.5 -42t-17.5 -42t-42.5 -17z
" />
    <glyph glyph-name="uni1EDA" unicode="&#x1eda;" horiz-adv-x="1187" 
d="M844 1776l-277 -295h-55l244 295h88zM594 -25q-113 0 -204.5 56t-149.5 153t-88.5 224t-30.5 274t30.5 274t88.5 224t149.5 153t204.5 56q118 0 210 -59.5t152 -166.5q40 37 64 84t24 88q-10 -2 -14 -2q-29 0 -47 20t-18 48q0 27 18 46t47 19q34 0 56 -28.5t22 -79.5
q0 -72 -37 -140t-88 -106q84 -185 84 -430q0 -147 -30.5 -274t-88.5 -224t-149.5 -153t-204.5 -56zM594 37q126 0 218.5 88t137.5 232.5t45 324.5q0 182 -45 326t-137.5 231.5t-218.5 87.5t-218.5 -87.5t-137.5 -231.5t-45 -326q0 -180 45 -324.5t137.5 -232.5t218.5 -88z
" />
    <glyph glyph-name="uni1EDB" unicode="&#x1edb;" horiz-adv-x="944" 
d="M721 1434l-277 -295h-55l244 295h88zM860 1083q0 -67 -31.5 -130.5t-78.5 -104.5q86 -139 86 -352q0 -85 -14.5 -162t-44.5 -142.5t-72.5 -114t-102 -75.5t-129.5 -27q-116 0 -199.5 72.5t-123 188.5t-39.5 260t39.5 259t123 187t199.5 72q148 0 244 -117
q37 35 58.5 79.5t21.5 84.5q-13 -2 -17 -2q-29 0 -47 19.5t-18 47.5q0 27 18.5 46.5t46.5 19.5q34 0 57 -29t23 -80zM473 31q75 0 133 39.5t92.5 106.5t52 148t17.5 171q0 89 -17.5 169.5t-52 147t-92.5 106t-133 39.5q-74 0 -132 -39.5t-92.5 -106t-52.5 -147t-18 -169.5
q0 -121 30 -223.5t98.5 -172t166.5 -69.5z" />
    <glyph glyph-name="uni1EDC" unicode="&#x1edc;" horiz-adv-x="1187" 
d="M594 -25q-113 0 -204.5 56t-149.5 153t-88.5 224t-30.5 274t30.5 274t88.5 224t149.5 153t204.5 56q118 0 210 -59.5t152 -166.5q40 37 64 84t24 88q-10 -2 -14 -2q-29 0 -47 20t-18 48q0 27 18 46t47 19q34 0 56 -28.5t22 -79.5q0 -72 -37 -140t-88 -106
q84 -185 84 -430q0 -147 -30.5 -274t-88.5 -224t-149.5 -153t-204.5 -56zM594 37q126 0 218.5 88t137.5 232.5t45 324.5q0 182 -45 326t-137.5 231.5t-218.5 87.5t-218.5 -87.5t-137.5 -231.5t-45 -326q0 -180 45 -324.5t137.5 -232.5t218.5 -88zM678 1481h-55l-277 295h88z
" />
    <glyph glyph-name="uni1EDD" unicode="&#x1edd;" horiz-adv-x="944" 
d="M860 1083q0 -67 -31.5 -130.5t-78.5 -104.5q86 -139 86 -352q0 -85 -14.5 -162t-44.5 -142.5t-72.5 -114t-102 -75.5t-129.5 -27q-116 0 -199.5 72.5t-123 188.5t-39.5 260t39.5 259t123 187t199.5 72q148 0 244 -117q37 35 58.5 79.5t21.5 84.5q-13 -2 -17 -2
q-29 0 -47 19.5t-18 47.5q0 27 18.5 46.5t46.5 19.5q34 0 57 -29t23 -80zM473 31q75 0 133 39.5t92.5 106.5t52 148t17.5 171q0 89 -17.5 169.5t-52 147t-92.5 106t-133 39.5q-74 0 -132 -39.5t-92.5 -106t-52.5 -147t-18 -169.5q0 -121 30 -223.5t98.5 -172t166.5 -69.5z
M557 1139h-55l-277 295h88z" />
    <glyph glyph-name="uni1EDE" unicode="&#x1ede;" horiz-adv-x="1187" 
d="M594 -25q-113 0 -204.5 56t-149.5 153t-88.5 224t-30.5 274t30.5 274t88.5 224t149.5 153t204.5 56q118 0 210 -59.5t152 -166.5q40 37 64 84t24 88q-10 -2 -14 -2q-29 0 -47 20t-18 48q0 27 18 46t47 19q34 0 56 -28.5t22 -79.5q0 -72 -37 -140t-88 -106
q84 -185 84 -430q0 -147 -30.5 -274t-88.5 -224t-149.5 -153t-204.5 -56zM594 37q126 0 218.5 88t137.5 232.5t45 324.5q0 182 -45 326t-137.5 231.5t-218.5 87.5t-218.5 -87.5t-137.5 -231.5t-45 -326q0 -180 45 -324.5t137.5 -232.5t218.5 -88zM520 1571l-43 12
q10 40 40 68t79 28q52 0 84.5 -32t32.5 -95q0 -65 -45 -125h-54q52 60 52 125q0 41 -19 61.5t-51 20.5q-58 0 -76 -63z" />
    <glyph glyph-name="uni1EDF" unicode="&#x1edf;" horiz-adv-x="944" 
d="M860 1083q0 -67 -31.5 -130.5t-78.5 -104.5q86 -139 86 -352q0 -85 -14.5 -162t-44.5 -142.5t-72.5 -114t-102 -75.5t-129.5 -27q-116 0 -199.5 72.5t-123 188.5t-39.5 260t39.5 259t123 187t199.5 72q148 0 244 -117q37 35 58.5 79.5t21.5 84.5q-13 -2 -17 -2
q-29 0 -47 19.5t-18 47.5q0 27 18.5 46.5t46.5 19.5q34 0 57 -29t23 -80zM473 31q75 0 133 39.5t92.5 106.5t52 148t17.5 171q0 89 -17.5 169.5t-52 147t-92.5 106t-133 39.5q-74 0 -132 -39.5t-92.5 -106t-52.5 -147t-18 -169.5q0 -121 30 -223.5t98.5 -172t166.5 -69.5z
M397 1223l-43 12q10 40 40 68t79 28q52 0 84.5 -32t32.5 -95q0 -65 -45 -125h-53q51 59 51 125q0 41 -19 61.5t-51 20.5q-58 0 -76 -63z" />
    <glyph glyph-name="uni1EE0" unicode="&#x1ee0;" horiz-adv-x="1187" 
d="M594 -25q-113 0 -204.5 56t-149.5 153t-88.5 224t-30.5 274t30.5 274t88.5 224t149.5 153t204.5 56q118 0 210 -59.5t152 -166.5q40 37 64 84t24 88q-10 -2 -14 -2q-29 0 -47 20t-18 48q0 27 18 46t47 19q34 0 56 -28.5t22 -79.5q0 -72 -37 -140t-88 -106
q84 -185 84 -430q0 -147 -30.5 -274t-88.5 -224t-149.5 -153t-204.5 -56zM594 37q126 0 218.5 88t137.5 232.5t45 324.5q0 182 -45 326t-137.5 231.5t-218.5 87.5t-218.5 -87.5t-137.5 -231.5t-45 -326q0 -180 45 -324.5t137.5 -232.5t218.5 -88zM698 1477q-38 0 -65 24
t-41.5 57.5t-27.5 67.5t-32 58t-45 24q-45 0 -72.5 -54.5t-27.5 -164.5h-49q0 118 40 196t116 78q38 0 65 -24t41.5 -57.5t27.5 -67.5t32 -58t45 -24q45 0 71.5 54t26.5 165h49q0 -117 -39.5 -195.5t-114.5 -78.5z" />
    <glyph glyph-name="uni1EE1" unicode="&#x1ee1;" horiz-adv-x="944" 
d="M860 1083q0 -67 -31.5 -130.5t-78.5 -104.5q86 -139 86 -352q0 -85 -14.5 -162t-44.5 -142.5t-72.5 -114t-102 -75.5t-129.5 -27q-116 0 -199.5 72.5t-123 188.5t-39.5 260t39.5 259t123 187t199.5 72q148 0 244 -117q37 35 58.5 79.5t21.5 84.5q-13 -2 -17 -2
q-29 0 -47 19.5t-18 47.5q0 27 18.5 46.5t46.5 19.5q34 0 57 -29t23 -80zM473 31q75 0 133 39.5t92.5 106.5t52 148t17.5 171q0 89 -17.5 169.5t-52 147t-92.5 106t-133 39.5q-74 0 -132 -39.5t-92.5 -106t-52.5 -147t-18 -169.5q0 -121 30 -223.5t98.5 -172t166.5 -69.5z
M575 1135q-38 0 -64.5 24t-41.5 57.5t-27.5 67.5t-31.5 58t-45 24q-45 0 -73 -54.5t-28 -164.5h-49q0 118 40 196t116 78q38 0 65 -24t41.5 -57.5t27.5 -67.5t32 -58t45 -24q45 0 71.5 54t26.5 165h49q0 -117 -39.5 -195.5t-114.5 -78.5z" />
    <glyph glyph-name="uni1EE2" unicode="&#x1ee2;" horiz-adv-x="1187" 
d="M594 -25q-113 0 -204.5 56t-149.5 153t-88.5 224t-30.5 274t30.5 274t88.5 224t149.5 153t204.5 56q118 0 210 -59.5t152 -166.5q40 37 64 84t24 88q-10 -2 -14 -2q-29 0 -47 20t-18 48q0 27 18 46t47 19q34 0 56 -28.5t22 -79.5q0 -72 -37 -140t-88 -106
q84 -185 84 -430q0 -147 -30.5 -274t-88.5 -224t-149.5 -153t-204.5 -56zM594 37q126 0 218.5 88t137.5 232.5t45 324.5q0 182 -45 326t-137.5 231.5t-218.5 87.5t-218.5 -87.5t-137.5 -231.5t-45 -326q0 -180 45 -324.5t137.5 -232.5t218.5 -88zM598 -354q-24 0 -41.5 17.5
t-17.5 41.5t17.5 41.5t41.5 17.5q25 0 42 -17t17 -42t-17 -42t-42 -17z" />
    <glyph glyph-name="uni1EE3" unicode="&#x1ee3;" horiz-adv-x="944" 
d="M860 1083q0 -67 -31.5 -130.5t-78.5 -104.5q86 -139 86 -352q0 -85 -14.5 -162t-44.5 -142.5t-72.5 -114t-102 -75.5t-129.5 -27q-116 0 -199.5 72.5t-123 188.5t-39.5 260t39.5 259t123 187t199.5 72q148 0 244 -117q37 35 58.5 79.5t21.5 84.5q-13 -2 -17 -2
q-29 0 -47 19.5t-18 47.5q0 27 18.5 46.5t46.5 19.5q34 0 57 -29t23 -80zM473 31q75 0 133 39.5t92.5 106.5t52 148t17.5 171q0 89 -17.5 169.5t-52 147t-92.5 106t-133 39.5q-74 0 -132 -39.5t-92.5 -106t-52.5 -147t-18 -169.5q0 -121 30 -223.5t98.5 -172t166.5 -69.5z
M475 -354q-24 0 -41.5 17.5t-17.5 41.5t17.5 41.5t41.5 17.5q25 0 42.5 -17t17.5 -42t-17.5 -42t-42.5 -17z" />
    <glyph glyph-name="uni1EE4" unicode="&#x1ee4;" horiz-adv-x="1093" 
d="M547 -25q-185 0 -284 114t-99 329v948h65v-948q0 -189 82.5 -285t235.5 -96t235 96t82 285v948h66v-948q0 -216 -98.5 -329.5t-284.5 -113.5zM555 -354q-24 0 -41.5 17.5t-17.5 41.5t17.5 41.5t41.5 17.5q25 0 42 -17t17 -42t-17 -42t-42 -17z" />
    <glyph glyph-name="uni1EE5" unicode="&#x1ee5;" horiz-adv-x="890" 
d="M737 0h-61v147q-53 -76 -127.5 -124t-157.5 -48q-120 0 -177.5 61.5t-57.5 203.5v749h61v-749q0 -112 46.5 -160.5t135.5 -48.5q80 0 158 53.5t119 130.5v774h61v-989zM451 -354q-24 0 -42 17.5t-18 41.5t18 41.5t42 17.5q25 0 42 -17t17 -42t-17 -42t-42 -17z" />
    <glyph glyph-name="uni1EE6" unicode="&#x1ee6;" horiz-adv-x="1093" 
d="M547 -25q-185 0 -284 114t-99 329v948h65v-948q0 -189 82.5 -285t235.5 -96t235 96t82 285v948h66v-948q0 -216 -98.5 -329.5t-284.5 -113.5zM473 1571l-43 12q10 40 40 68t79 28q52 0 84.5 -32t32.5 -95q0 -65 -45 -125h-54q51 59 51 125q0 82 -69 82q-58 0 -76 -63z
" />
    <glyph glyph-name="uni1EE7" unicode="&#x1ee7;" horiz-adv-x="890" 
d="M737 0h-61v147q-53 -76 -127.5 -124t-157.5 -48q-120 0 -177.5 61.5t-57.5 203.5v749h61v-749q0 -112 46.5 -160.5t135.5 -48.5q80 0 158 53.5t119 130.5v774h61v-989zM371 1223l-43 12q10 40 40 68t78 28q52 0 84.5 -32t32.5 -95q0 -65 -45 -125h-53q51 59 51 125
q0 41 -19 61.5t-51 20.5q-57 0 -75 -63z" />
    <glyph glyph-name="uni1EE8" unicode="&#x1ee8;" horiz-adv-x="1093" 
d="M797 1776l-277 -295h-55l244 295h88zM1147 1495q0 -92 -59.5 -174.5t-157.5 -128.5v-774q0 -216 -98.5 -329.5t-284.5 -113.5q-185 0 -284 114t-99 329v948h65v-948q0 -189 82.5 -285t235.5 -96t235 96t82 285v948h66v-111q66 35 109.5 98t43.5 120q-12 -3 -16 -3
q-29 0 -47.5 20t-18.5 48q0 27 18.5 46.5t47.5 19.5q34 0 57 -29t23 -80z" />
    <glyph glyph-name="uni1EE9" unicode="&#x1ee9;" horiz-adv-x="890" 
d="M694 1434l-276 -295h-56l244 295h88zM737 0h-61v147q-53 -76 -127.5 -124t-157.5 -48q-120 0 -177.5 61.5t-57.5 203.5v749h61v-749q0 -112 46.5 -160.5t135.5 -48.5q80 0 158 53.5t119 130.5v774h61v-129q56 38 90.5 94t34.5 107q-10 -2 -14 -2q-29 0 -47.5 19.5
t-18.5 47.5q0 27 18.5 46.5t47.5 19.5q34 0 56 -29t22 -80q0 -86 -50.5 -162t-138.5 -126v-795z" />
    <glyph glyph-name="uni1EEA" unicode="&#x1eea;" horiz-adv-x="1093" 
d="M631 1481h-56l-276 295h88zM1147 1495q0 -92 -59.5 -174.5t-157.5 -128.5v-774q0 -216 -98.5 -329.5t-284.5 -113.5q-185 0 -284 114t-99 329v948h65v-948q0 -189 82.5 -285t235.5 -96t235 96t82 285v948h66v-111q66 35 109.5 98t43.5 120q-12 -3 -16 -3q-29 0 -47.5 20
t-18.5 48q0 27 18.5 46.5t47.5 19.5q34 0 57 -29t23 -80z" />
    <glyph glyph-name="uni1EEB" unicode="&#x1eeb;" horiz-adv-x="890" 
d="M528 1139h-55l-276 295h88zM737 0h-61v147q-53 -76 -127.5 -124t-157.5 -48q-120 0 -177.5 61.5t-57.5 203.5v749h61v-749q0 -112 46.5 -160.5t135.5 -48.5q80 0 158 53.5t119 130.5v774h61v-129q56 38 90.5 94t34.5 107q-10 -2 -14 -2q-29 0 -47.5 19.5t-18.5 47.5
q0 27 18.5 46.5t47.5 19.5q34 0 56 -29t22 -80q0 -86 -50.5 -162t-138.5 -126v-795z" />
    <glyph glyph-name="uni1EEC" unicode="&#x1eec;" horiz-adv-x="1093" 
d="M473 1571l-43 12q10 40 40 68t79 28q52 0 84.5 -32t32.5 -95q0 -65 -45 -125h-54q51 59 51 125q0 82 -69 82q-58 0 -76 -63zM1147 1495q0 -92 -59.5 -174.5t-157.5 -128.5v-774q0 -216 -98.5 -329.5t-284.5 -113.5q-185 0 -284 114t-99 329v948h65v-948q0 -189 82.5 -285
t235.5 -96t235 96t82 285v948h66v-111q66 35 109.5 98t43.5 120q-12 -3 -16 -3q-29 0 -47.5 20t-18.5 48q0 27 18.5 46.5t47.5 19.5q34 0 57 -29t23 -80z" />
    <glyph glyph-name="uni1EED" unicode="&#x1eed;" horiz-adv-x="890" 
d="M371 1223l-43 12q10 40 40 68t78 28q52 0 84.5 -32t32.5 -95q0 -65 -45 -125h-53q51 59 51 125q0 41 -19 61.5t-51 20.5q-57 0 -75 -63zM737 0h-61v147q-53 -76 -127.5 -124t-157.5 -48q-120 0 -177.5 61.5t-57.5 203.5v749h61v-749q0 -112 46.5 -160.5t135.5 -48.5
q80 0 158 53.5t119 130.5v774h61v-129q56 38 90.5 94t34.5 107q-10 -2 -14 -2q-29 0 -47.5 19.5t-18.5 47.5q0 27 18.5 46.5t47.5 19.5q34 0 56 -29t22 -80q0 -86 -50.5 -162t-138.5 -126v-795z" />
    <glyph glyph-name="uni1EEE" unicode="&#x1eee;" horiz-adv-x="1093" 
d="M1147 1495q0 -92 -59.5 -174.5t-157.5 -128.5v-774q0 -216 -98.5 -329.5t-284.5 -113.5q-185 0 -284 114t-99 329v948h65v-948q0 -189 82.5 -285t235.5 -96t235 96t82 285v948h66v-111q66 35 109.5 98t43.5 120q-12 -3 -16 -3q-29 0 -47.5 20t-18.5 48q0 27 18.5 46.5
t47.5 19.5q34 0 57 -29t23 -80zM649 1477q-38 0 -65 24t-41.5 57.5t-27.5 67.5t-32 58t-45 24q-45 0 -72.5 -54.5t-27.5 -164.5h-49q0 118 39.5 196t115.5 78q38 0 65 -24t41.5 -57.5t27.5 -67.5t32 -58t45 -24q45 0 72 54t27 165h49q0 -117 -39.5 -195.5t-114.5 -78.5z" />
    </font>
</defs>
</svg>
