<svg width="1190" height="599" viewBox="0 0 1190 599" fill="none" xmlns="http://www.w3.org/2000/svg">
<g opacity="0.1">
<path d="M1049.83 438.448L1043.94 431.291L1039.22 425.327L1035.69 420.556V421.749H1034.51V419.363L1032.15 418.171L1029.79 415.785L1028.62 409.821L1026.26 402.664H1025.08L1022.72 400.279L1021.54 397.893H1022.72L1023.9 399.086V400.279H1025.08L1020.37 394.315L1016.83 389.544V387.158L1013.29 384.772L1012.12 383.58V385.965H1010.94L1009.76 387.158L1012.12 388.351L1015.65 390.736V391.929H1016.83V394.315H1015.65V395.508L1016.83 396.7L1015.65 400.279L1014.47 399.086H1013.29L1010.94 400.279V402.664L1012.12 405.05L1013.29 406.243L1018.01 422.92L1022.72 426.499L1028.62 431.27L1029.79 434.848V439.62L1032.15 442.005L1033.33 444.391L1040.4 465.85V467.043L1045.12 470.621L1047.47 475.392L1048.65 478.971V483.742L1051.01 486.128L1052.19 488.513L1054.54 498.045L1059.26 505.202L1060.44 504.009V501.623L1059.26 495.659L1060.44 490.888L1061.62 492.081L1065.15 490.888L1069.87 493.274L1071.04 495.659L1072.22 496.852L1069.87 490.888L1067.51 486.117L1066.33 487.31L1061.62 484.924L1059.26 482.539L1054.54 478.96L1051.01 472.996L1049.83 465.84V459.875L1048.65 457.49V455.104L1049.83 453.912L1051.01 451.526L1056.9 450.333L1062.79 452.719L1065.15 453.912L1066.33 455.104L1063.97 452.719L1060.44 450.333L1058.08 447.948L1056.9 445.562L1049.83 438.448Z" fill="#B01736"/>
<path fill-rule="evenodd" clip-rule="evenodd" d="M718.879 113.052H721.236L725.951 117.823L724.772 120.209L722.415 121.401L718.879 119.016L717.701 116.63H718.879V113.052ZM868.451 135.694V136.886L866.094 138.079L863.737 136.886L864.916 135.694L867.273 134.501L868.451 135.694Z" fill="#B01736"/>
<path fill-rule="evenodd" clip-rule="evenodd" d="M1132.26 219.721H1129.9V234.023H1131.08V230.445L1132.26 228.06V225.674L1133.44 224.481L1134.62 222.096L1132.26 219.721Z" fill="#B01736"/>
<path fill-rule="evenodd" clip-rule="evenodd" d="M1036.87 62.9866H1035.69L1034.51 66.5649L1039.23 68.9505L1041.58 67.7577L1043.94 65.3721L1042.76 64.1794L1041.58 61.7938H1039.23L1036.87 62.9866Z" fill="#B01736"/>
<path d="M976.804 500.58L975.625 502.966L976.804 505.351L980.34 508.93L977.983 512.508L976.804 513.701V519.665L977.953 525.477V537.982L976.774 540.367L977.953 542.753L976.774 543.946L975.595 546.331L976.774 549.91L974.417 552.295H964.999L961.463 553.488L960.285 558.259L957.928 559.452L956.749 560.645L962.642 572.573L963.82 579.73L964.999 580.922V582.115L963.82 590.454L960.285 591.647L959.106 594.032H960.285L961.463 595.225L963.82 599.996L964.999 597.611V596.418L962.642 594.032H968.535V591.647L969.713 586.876L972.07 583.297L970.892 582.104L972.07 580.912H973.249V584.49L976.785 580.912V579.719L977.963 583.297V585.683H979.142V584.49H980.32L981.499 585.683L982.677 584.49L985.034 585.683L986.213 586.876V584.49L987.392 585.683L989.749 584.49L999.177 574.948L1003.89 566.609L1005.07 565.416V563.03H1006.25V558.259L1007.43 554.681V552.295L1009.78 549.91L1010.96 543.946L1015.68 529.632L1018.03 523.669L1019.21 517.705L1020.39 510.548V504.584L1021.57 499.813L1021.58 497.002L1023.94 486.277L1026.29 477.938V476.746L1025.11 474.36V469.589L1023.94 468.396V464.818L1022.76 461.239L1020.4 456.468V452.89L1014.51 436.201V433.816L1015.69 427.852L1014.51 423.081L1015.69 420.695L1014.51 419.502L1013.33 420.695L1010.97 417.117V413.538H1009.79L1008.61 412.346L1003.9 409.96H1007.44L1008.61 407.574L1007.44 405.189H1005.08L1002.72 403.996L1001.54 402.803H998.008L994.472 400.418V399.225L992.115 398.032H990.936L989.758 396.839H987.4L985.043 399.225L981.508 400.418H980.329L981.508 402.803V412.335L980.329 409.949V405.178L977.972 409.949L972.079 415.913V412.335L974.436 407.564H973.258L972.079 408.757H970.901L968.544 407.564L970.901 405.178V403.985L967.365 407.564L968.544 408.757V412.335H966.186V413.528L963.829 407.564L960.294 401.6L952.054 405.178L946.161 402.793L948.518 399.214L949.697 396.829L952.054 393.25L953.233 389.672L954.411 387.286L955.59 386.094L959.126 380.13L960.304 372.973L962.661 370.587V369.395L961.483 368.202L962.661 365.816V362.238L963.84 361.045L966.197 355.081L969.733 347.924V345.539L970.911 344.346L972.09 341.961V335.997L973.268 331.225L975.625 328.84L976.804 319.308L982.697 310.969H983.875L987.411 307.391L993.304 305.005L999.197 301.427H1000.38L1001.55 300.234H1002.73V302.62L1005.09 303.813L1006.27 301.427L1005.09 297.849L1009.76 297.892L1013.3 296.699H1014.48L1019.19 291.928H1021.55L1025.08 290.735L1023.91 289.542H1022.73V287.157H1023.91V282.385L1030.98 280H1034.51V281.193H1036.87V278.807L1040.41 276.421L1045.12 278.807L1047.48 277.614H1048.66V278.807H1047.48L1045.12 281.193L1042.76 282.385L1043.94 285.964H1045.12L1047.48 284.771L1049.83 281.193L1051.01 280H1053.37L1055.73 278.807V275.229L1056.9 272.843L1060.44 271.65H1062.8L1063.98 270.457V268.072H1067.51L1066.33 266.879H1067.51L1068.69 265.686L1067.51 263.301L1065.15 262.108L1062.8 263.301L1061.62 264.494V265.686L1060.44 266.879H1059.26V262.108H1058.08L1056.9 260.915V259.722L1058.08 258.53H1056.9V251.373L1059.26 246.602L1060.44 240.638L1059.26 239.445V234.674L1060.44 232.288L1058.08 227.517L1060.44 222.746L1061.62 219.168H1063.98L1065.15 217.975L1069.87 210.818H1073.4L1075.76 212.011L1076.94 208.433V206.047L1079.3 208.433L1080.48 210.818V215.589L1082.83 217.975V219.168L1084.01 220.361L1086.37 217.975L1087.55 220.361L1088.73 223.939L1091.08 212.022L1093.44 198.912L1094.59 197.111V195.918L1095.77 197.111H1098.12V193.533H1094.59L1092.23 188.761V186.376L1091.05 185.183L1089.87 181.605L1093.41 179.219L1094.59 175.641H1100.48L1098.12 178.026L1096.95 182.798L1101.66 189.954V192.34L1102.84 194.725H1105.2L1106.37 198.304V200.689L1108.73 203.075L1107.55 205.461L1105.2 207.846V211.424L1104.02 212.617L1102.84 215.003V218.581L1104.02 219.774L1102.84 226.931V232.895L1101.66 234.087V235.28L1100.48 240.051V244.822L1102.84 247.208V248.401L1101.66 249.594V256.75L1099.3 266.293L1098.12 268.678L1096.95 269.871V273.449L1092.23 275.835L1094.59 277.028L1096.95 280.606V287.763L1095.77 293.727L1098.12 300.883L1101.66 308.04L1118.15 330.693L1139.35 352.152L1142.89 358.116L1147.6 362.887L1151.14 365.273L1152.32 359.309V353.345L1153.49 352.152L1154.67 348.574L1153.49 337.849L1151.14 335.464H1149.96V333.078L1148.78 330.693H1147.6L1146.42 329.5L1147.6 328.307L1149.96 329.5L1153.49 321.161L1155.85 319.968H1157.03V318.775L1151.14 314.004L1148.78 306.847V300.883L1152.32 294.92H1153.49L1154.67 296.112L1157.03 291.341V287.763L1149.96 282.992L1146.42 274.653L1147.6 266.314V265.121L1146.42 263.928L1147.6 261.543L1148.78 262.736V266.314H1151.14L1152.32 262.736L1146.42 257.965V256.772L1144.07 259.157L1140.53 255.579L1138.17 252V248.422L1137 244.844H1131.08L1129.9 246.037L1131.08 247.229L1128.72 248.422L1126.37 247.229L1122.83 236.505V229.348L1121.65 228.155H1122.83V226.963H1121.65V223.384L1120.47 222.191H1119.3L1118.12 216.228L1120.47 211.456L1121.65 210.264L1120.47 209.071H1124.01L1126.37 210.264L1127.55 206.685L1125.19 205.492V204.3L1127.55 199.529L1128.72 194.757L1129.9 195.95L1134.62 203.107V194.768L1135.8 188.804L1139.33 181.647L1144.05 179.262L1149.94 176.876L1154.65 179.262H1158.19L1157.01 175.683L1154.65 172.105L1155.83 169.719L1157.01 166.141V160.177L1158.19 158.984L1157.01 156.599H1155.83L1157.01 155.406H1158.19L1155.83 153.02H1157.01L1158.19 149.442L1157.01 148.249H1155.83L1158.19 145.864V142.285H1157.01V139.9H1158.19L1159.37 137.514V135.129L1160.53 134.564L1161.71 130.986V126.215L1166.43 111.901H1164.07V110.709L1162.89 109.516H1164.07V108.323L1166.43 110.709L1178.21 103.552L1177.03 102.359V97.5881L1169.96 95.2025V92.8169L1166.43 94.0097L1162.89 92.8169L1157 89.2386L1149.93 85.6601L1148.75 89.2386L1144.03 90.4314L1140.5 86.8529L1139.32 90.4314V91.6242H1136.96V94.0097L1135.78 92.8169L1136.79 91.6242H1132.25L1132.64 92.8595L1133.43 95.2025L1131.07 96.3953L1129.89 97.5881L1131.07 95.2025L1132.25 94.0097V92.8169L1131.07 90.4314H1132.25L1139.32 86.8529L1138.14 85.6601V84.4673H1142.85L1147.57 80.889L1149.93 73.7323L1148.75 66.5756L1146.39 59.4189H1142.85L1138.14 58.2261L1136.96 54.6476L1138.14 52.2621H1136.96L1135.78 51.0693L1138.14 49.8765L1139.32 51.0693V46.2982L1141.68 49.8765L1142.85 53.4548H1145.21L1146.39 52.2621H1147.57L1149.93 57.0332L1152.28 54.6476L1154.64 48.6837L1157 45.1054L1159.35 43.9126L1162.89 42.7198L1166.43 45.1054L1168.78 46.2982L1173.5 45.1054L1177.03 42.7198L1179.39 40.3342L1182.93 41.527L1186.46 40.3342V37.9487L1185.28 36.7559V35.5631L1188.82 39.1415L1190 36.7559L1187.64 34.3703H1188.82L1190 33.1775V31.9848H1187.64L1185.28 33.1775L1182.93 30.792V31.9848H1181.75L1182.93 29.5992V24.8279L1180.57 22.4424L1178.21 21.2496H1172.32L1177.03 18.864L1179.39 16.8405L1180.57 14.2207V13.39L1178.21 13.7521L1175.85 12.9214L1178.21 12.0907L1181.75 9.95006L1179.39 8.40588L1178.21 7.21309V0.418457L1177.03 0.780517L1175.85 1.73903L1174.68 1.9733L1173.5 2.09043L1169.96 3.04895L1167.6 3.87967L1161.71 3.99681H1158.18L1155.82 6.9787L1154.64 9.96072L1153.46 10.9192V11.1535L1154.64 12.112V13.0705L1152.28 12.3569L1151.1 11.1642L1149.93 12.0907L1148.75 13.9971L1147.57 15.307L1146.39 16.4998L1147.57 16.734L1148.75 15.9033L1151.1 16.4998L1153.46 17.4583V20.0781H1155.82L1158.18 21.2709H1155.82V23.6565H1154.64L1153.46 22.4637L1152.28 23.6565H1148.75V21.2709L1146.39 20.0781L1141.68 16.6169L1140.5 16.3826H1139.32V18.8853L1138.14 18.5233V18.044L1136.96 16.4891L1134.6 15.2963L1132.25 16.0099L1131.07 17.2027L1134.6 17.799L1133.43 18.8747L1131.07 21.2602L1129.89 18.8747L1128.71 17.5648L1127.53 18.6404L1125.18 20.0675L1124 18.8747L1122.82 18.6404L1119.28 20.0675L1115.75 22.453L1114.57 21.2602H1113.39L1108.68 23.6458L1107.5 22.453L1105.14 21.2602L1101.6 22.453L1098.07 24.8386H1092.18L1091 26.0314L1088.64 27.2242V26.0314H1089.82V24.8386H1088.64L1086.28 26.0314L1085.11 27.2242L1082.75 28.4169H1080.39L1079.21 29.6097L1072.14 31.9954H1070.96V34.381L1069.78 33.1882H1068.61L1063.89 39.1521L1060.36 42.7305H1058L1059.18 43.9233V45.116H1056.82L1054.46 46.3088L1053.28 47.5016L1050.93 48.6944L1047.39 51.0799L1043.86 52.2727L1046.21 54.6583L1047.39 57.0439V60.6223H1049.75L1050.93 59.4294L1056.82 63.0079L1058 68.9718L1056.82 71.3574V73.743H1053.28L1050.93 71.3574L1043.86 73.743L1041.5 71.3574L1035.61 68.9718L1034.43 70.1646V76.1285L1032.07 78.5141H1029.71L1027.36 79.7069L1023.82 83.2852L1020.28 84.478L1017.93 83.2852V84.478L1015.57 86.8636H1014.39L1013.21 89.2491V90.442L1010.86 92.8276L1009.98 94.9895V97.3751H1008.81V96.1823H1007.63V102.146L1006.45 99.7608L1004.09 97.3751L1000.56 98.5679H995.841L994.662 94.9895L992.305 90.2184L979.162 86.8212L960.316 98.7383L954.423 105.895L949.709 108.281L940.28 103.509H934.387L929.673 102.317V103.509L928.495 104.702H926.137L924.959 103.509L926.137 101.124L928.495 99.9311L926.137 97.5455L922.602 95.16L917.888 96.3528L914.352 97.5455L909.638 107.077L904.923 115.416H903.787V113.031L902.608 111.838L904.965 110.645L906.144 109.452L904.965 108.259V105.874L907.323 104.681L908.501 102.295L906.144 103.488L900.251 107.067L897.894 109.452L896.716 107.067L900.251 103.488H901.43L904.965 101.103L908.501 99.9098L895.548 101.103L882.594 105.874H876.701L874.344 107.067L875.523 108.259L877.88 109.452L876.701 113.031L873.165 114.223L870.808 120.187L871.987 121.38L874.344 120.187V122.573L875.523 123.766L876.701 126.151V128.537L879.058 129.729V132.115H876.701V134.501L874.344 132.115H873.165L871.987 133.308H869.63V140.465L864.916 138.079L856.676 136.886L853.14 141.657L848.426 145.236L843.712 144.043L840.176 141.657L838.998 139.272L841.355 138.079L838.998 136.886L837.819 147.611L836.641 160.721L835.462 161.914L833.105 159.528V160.721H830.748L829.569 159.528V158.335H826.034L821.319 151.178H820.141L818.962 149.986L821.319 147.6L820.141 145.214L817.784 144.022L818.962 145.214V146.407L817.784 147.6L815.427 145.214L814.248 142.829L808.355 139.251L805.998 138.058H809.534L814.248 142.829H817.784L820.141 140.443L818.962 136.865L816.605 134.479V129.708L815.427 127.323V126.13L813.069 123.744H810.712L803.641 117.78L798.927 120.166H793.034L789.498 117.78L784.784 116.588V117.78L783.605 118.973L781.248 124.937L782.427 129.708V134.479L780.07 133.287H776.534V134.479H774.177L771.82 135.672L770.641 136.865L767.106 135.672L764.748 134.479H757.688L755.33 133.287V130.901L757.688 128.516L756.509 127.323H747.091L744.734 126.13L743.555 127.323H742.377L740.02 126.13H737.663L735.305 128.516L732.948 129.708L729.413 130.901V134.479L727.056 132.094L728.234 129.708L727.056 126.13L724.698 123.744V127.323L723.52 128.516H720.058L716.522 126.13L715.344 127.323L714.165 130.901L711.808 133.287L712.987 134.479H714.165V138.058L715.344 139.251L714.165 144.022L715.344 148.793L716.522 149.986V153.564L717.701 154.757L720.058 155.95L722.415 158.335L723.594 163.106V167.877L725.951 172.649L727.129 176.227V177.42L717.701 184.576L716.522 188.155V190.54L715.344 191.733L712.987 192.926V197.697L710.629 201.276H708.272L704.737 200.083L701.201 201.276L698.844 203.661H696.508L694.151 202.468V203.661H692.972L691.793 206.047V207.239L692.972 212.011L695.329 215.589V232.277L694.151 245.387L690.615 247.773L688.258 250.159L690.615 252.544V260.883L691.793 263.269V269.232L692.972 271.618L697.686 276.389L696.508 278.775L695.329 279.968L692.972 283.546V287.124L690.615 290.703L692.972 295.474H695.329L697.686 297.859L702.401 299.052H710.64L711.818 301.438L712.997 305.016L711.818 306.209L709.461 309.787L712.997 310.98L716.533 314.558L717.68 322.674L717.711 328.861L720.068 331.247L722.426 334.825L721.247 337.211L718.89 339.596L720.068 345.56L723.604 349.139L721.247 355.103L718.89 362.259V365.838L716.533 368.223V374.187L717.711 378.958H720.068L725.961 377.766L727.14 375.38L730.675 376.573H731.854V375.38H738.925L742.461 371.802V372.994L743.64 375.38L745.997 376.573L744.818 380.151L750.711 374.187L755.425 367.031H757.782L758.961 364.645L760.139 361.067L762.497 359.874H764.854L768.389 356.295H773.104L776.639 357.488L778.996 359.874L781.354 361.067V363.452L782.532 364.645V367.031H794.318L795.496 369.416V371.802L796.675 374.187V377.766L797.853 380.151L799.032 381.344V382.537L800.21 384.922V392.079L802.568 396.85L803.746 395.657H804.925L806.103 400.429L809.492 405.002V409.235H810.671V411.621L811.849 412.814L816.564 415.199L815.385 416.392H814.206V418.778L816.564 421.163H817.742V419.971L820.099 418.778L823.635 417.585L825.992 421.163L827.171 424.742H828.349L830.706 423.549L833.063 429.513L830.706 435.477L831.885 436.67H833.063L836.599 439.055L834.242 441.441V445.019L833.063 447.405L836.599 450.983L838.956 454.561H844.849L849.563 452.176H850.742L851.92 450.983L856.635 453.369L857.813 452.176L861.349 454.561L864.885 455.754V454.561H871.956L873.134 455.754V456.947H874.313L875.492 458.14H876.67V460.525H877.849L881.384 464.104L882.563 468.875L888.456 476.031H889.634V477.224L890.813 478.417V480.803L893.17 483.188L895.527 486.767L896.706 487.959L897.884 491.538H899.063L900.241 492.731V495.116L903.777 501.08L913.205 498.694L914.384 499.887H916.741V501.08H917.92L919.098 499.887L920.277 501.08V499.887H921.455V498.694L926.17 502.273L934.409 503.466L935.562 504.009V508.78L939.098 512.358V514.744L940.277 517.129L942.634 519.515L944.991 520.708L947.348 519.515H948.527L955.598 515.937H957.955L959.134 513.551V511.165L961.491 509.973L963.848 507.587H966.205L968.562 502.816L972.098 500.43L976.804 500.58Z" fill="#B01736"/>
</g>
<g opacity="0.7">
<path d="M4.06181 313.643L1.07335 311.545L0 307.242L3.56726 305.602L4.06181 313.643Z" fill="#B01736"/>
<path d="M83.025 358.585L83.73 357.392L83.3722 356.199H81.8359L80.4258 357.392L80.1944 356.199L80.3101 355.007H79.1316L78.3107 353.814L76.3114 351.428L73.9543 350.236L73.3651 352.621L72.7758 353.814L70.6607 352.621L68.8928 351.428L67.3565 353.814L66.4094 357.392L67.4722 360.971L66.7672 363.356L67.7142 364.549L65.9464 366.935L64.0628 368.127L63.5893 366.935H63L63.1157 371.706L64.9994 374.091L66.5252 377.67H68.1772L69.7136 378.862L69.24 380.055H66.5357L64.5364 381.248L65.0099 382.441H66.3042L65.3571 383.634L63.9471 386.019H66.6515L69.7136 387.212L70.3029 388.405L70.0714 389.597L73.3651 391.983H75.9536L78.195 394.369L79.4893 395.562H80.0786L79.1316 396.754H77.953L80.8994 399.14L81.3729 402.718L83.9615 401.525L85.7294 400.333L86.2029 401.525L87.15 402.718H89.2651L89.8543 399.14L88.0865 397.947H92.0957L92.3272 395.562H91.6222L93.39 394.369L95.0421 395.562L98.3358 393.176L100.451 391.983L99.5038 386.019L96.7994 380.055L95.1473 377.67L94.4423 375.284L95.2631 369.32L93.853 366.935L92.0852 364.549L91.1381 362.163L90.0753 358.585H83.025Z" fill="#B01736"/>
<path d="M133.786 349.054H132.25L130.956 347.861L130.724 349.054H130.493L129.546 347.861H128.009L126.01 349.054L127.189 351.439L127.894 355.018L129.304 356.21L130.251 357.403L128.714 358.596L127.652 360.981L128.009 364.56L129.188 366.945H132.25L134.723 369.331H132.724L130.135 370.524L129.072 381.259L124.831 382.452H120.475L120.706 383.644L121.885 384.837L121.411 386.03L121.054 387.223L122.232 388.416L123.053 389.608L119.044 390.801L117.981 394.379L118.455 395.572H120.812L122.453 397.958V399.151H123.632L123.4 400.343H124.463L125.168 399.151L128.588 401.536L128.704 402.729H128.82L130.114 401.536H130.703L130.472 402.729L131.292 401.536L132.471 400.343L133.176 401.536L133.06 402.729L132.113 403.922L131.64 405.115L134.46 402.729L137.754 400.343L141.173 399.151L141.763 400.343L139.648 390.812H140.353L141.763 393.197H144.12L145.298 384.859V375.327L142.941 372.941L141.058 370.556L139.879 371.748L138.701 370.556L139.763 366.977L141.763 364.592L141.289 361.013L140.111 357.435L142.941 355.05L141.763 352.664L141.058 350.278L137.522 349.086L133.786 349.054ZM86.202 401.504L85.7285 400.312L83.9606 401.504L81.372 402.697H80.3092L81.2563 403.89L83.8449 406.275L81.372 411.047H81.1405L80.667 412.239L76.8998 413.432L73.6062 412.239L74.9005 411.047H70.3125L70.6703 412.239L70.4388 413.432H72.0909L73.9744 415.818L74.5637 418.203L74.7952 419.396L76.0895 420.589L77.3838 422.974L79.8567 421.782H82.4453L83.7397 422.974L84.2132 421.782H88.4539L89.6324 419.396L91.6318 415.818L94.5782 414.625L97.1668 413.432L97.5246 411.047L96.9353 408.661H92.9366L93.0524 407.468L93.4102 406.275H91.8738L90.2217 405.083L90.106 403.89L89.8745 402.697H87.1701L86.202 401.504Z" fill="#B01736"/>
<path d="M76.5592 400.311L74.7913 401.504H73.3812L72.4342 400.311H71.2557L69.9613 401.504L69.2563 400.311L68.3093 399.119L65.7206 400.311L63.0163 401.504L61.9534 400.311H60.8906L62.6585 406.275L62.7743 408.661L66.1942 409.854L70.3191 411.047H74.9071L75.8542 407.468L74.6756 406.275L75.9699 403.89L77.8535 401.504H78.4427L78.8006 402.697H81.3892L80.9157 399.119L77.9693 396.733L76.5592 400.311ZM127.195 351.439L126.017 349.054H122.481V346.668L120.713 345.475L119.892 347.861L118.356 350.246L114 347.861L108.233 350.246L107.528 351.439L109.527 352.632H113.063L111.411 356.21L108.117 358.596L107.654 360.981H101.646L100.699 363.367L99.4043 364.56H98.9308L98.3415 363.367L96.5737 364.56L94.4586 363.367L90.8071 355.028L85.7456 351.45L82.5677 352.643L78.327 353.835L79.1478 355.028H80.3264L80.2106 356.221L80.4421 357.414L81.8522 356.221H83.3885L83.7463 357.414L83.0413 358.606H90.1126L91.1754 362.185L92.1225 364.57L93.8904 366.956L95.3004 369.342L94.4796 375.306L95.1846 377.691L96.8367 380.077L99.5411 386.041L100.488 392.005L101.309 393.197L103.193 394.39L106.728 400.354L109.201 403.932H110.495L111.316 405.125L112.263 403.932H112.968L116.62 401.547L120.503 400.354L121.323 399.161H122.502V397.968L120.86 395.583H118.503L118.03 394.39L119.093 390.812L123.102 389.619L122.281 388.426L121.102 387.233L121.46 386.041L121.934 384.848L120.755 383.655L120.524 382.462H124.88L129.121 381.269L130.184 370.534L132.772 369.342H134.772L132.299 366.956H129.237L128.058 364.57L127.7 360.992L128.763 358.606L130.299 357.414L129.352 356.221L127.942 355.028L127.195 351.439Z" fill="#B01736"/>
<path d="M81.2629 403.879L80.3158 402.686H78.7794L78.4217 401.493H77.8324L75.9488 403.879L74.6545 406.264L75.8331 407.457L74.886 411.035L73.5917 412.228L76.8853 413.421L80.6525 412.228L81.1261 411.035H81.3576L83.8305 406.264L81.2629 403.879ZM55.5871 350.246L54.9978 346.667L51.8199 347.86L47.8107 346.667L45.9271 344.282L44.7486 343.089L43.8015 344.282L44.1593 345.475L44.7486 346.667L46.8637 349.053L48.7472 351.439H49.4522L50.5151 349.053H51.8093L52.6302 352.631L52.2724 356.21H49.5575L46.8531 358.595L47.0846 360.981L47.4424 362.174L46.2638 363.366H44.7275L44.959 362.174L44.4855 360.981H43.5384L42.3598 362.174L41.8863 363.366L43.2964 366.945L45.6535 369.33L48.0106 368.138L49.547 364.559H50.6098L51.5568 363.366L53.0932 360.981L55.6818 359.788L55.324 362.174L54.8505 364.559H56.7341L57.9127 362.174L58.6177 360.981L60.0277 359.788L58.8491 353.824L55.5871 350.246ZM3.5726 305.601L6.66633 301.065L4.26708 294.994L1.93104 293.674L1.66797 292.087L7.0662 292.364L12.717 293.514L16.5157 296.73L15.8317 292.055L18.8307 295.569L19.2096 297.177L22.7347 300.404L24.4289 304.813L23.061 308.402L22.4401 315.186L24.6499 315.793L26.2809 315.559L26.765 317.593L28.9327 318.073L31.8054 321.928L28.3119 321.97L27.0386 324.111L22.1244 319.979L20.9879 317.146L18.2835 316.89L12.717 314.696L8.94977 313.493L4.03561 313.642L3.5726 305.601ZM109.18 403.879L106.707 400.3L103.171 394.336L101.288 393.144L100.467 391.951L98.352 393.144L95.0583 395.529L93.4062 394.336L91.6384 395.529H92.3434L92.1119 397.915H88.1132L89.8811 399.107L89.2918 402.686H89.8811L90.1126 403.879L90.2283 405.071L91.8804 406.264H93.4168L93.059 407.457L92.9432 408.65H96.9524L97.5417 411.035L97.1839 413.421L94.5953 414.614L91.6489 415.806L89.6496 419.385L88.471 421.77H84.2303L83.7568 422.963L82.4624 421.77H79.8528L77.3799 422.963L75.9699 424.156L74.202 426.542L76.5591 432.506L79.6213 437.277L80.4421 445.616L83.0307 452.772H85.8614L88.9235 451.58H92.9327L96.3526 449.194V438.469L97.5312 427.745L104.245 421.781L107.191 420.588L106.718 419.395H105.066L106.013 412.239L104.245 406.275L109.18 403.879Z" fill="#B01736"/>
<path d="M70.3026 388.384L69.7133 387.191L66.6512 385.998H60.6426L56.0547 389.577L59.2325 394.348L60.8846 400.312H61.9475L63.0103 401.505L65.7147 400.312L68.3033 399.119L69.2503 400.312L69.9553 401.505L71.2497 400.312H72.4283L73.3753 401.505H74.7854L76.5532 400.312L77.9633 396.733H79.1418L80.0889 395.541H79.4996L78.2053 394.348L75.9639 391.962H73.3753L70.0816 389.577L70.3026 388.384Z" fill="#B01736"/>
<path d="M65.0163 374.081L63.1327 371.695H61.2491L61.3649 372.888L57.1242 375.274L55.2406 372.888L53.357 369.31L49.3478 371.695L45.4648 374.081L49.5898 382.42L56.0719 389.576L60.6599 385.998H63.9535L65.3636 383.612L66.3106 382.42H65.0163L64.5428 381.227L66.5421 380.034H69.2465L69.72 378.841L68.1837 377.649H66.5316L65.0163 374.081Z" fill="#B01736"/>
<path d="M71.3724 331.171L66.0689 328.786L62.4175 327.593L63.0068 326.4L64.5431 325.207L64.0696 324.015L64.3011 322.822L63.0068 321.629H61.3547V322.822L60.9969 324.015H60.8811L59.8184 322.822L59.2291 321.629L57.577 320.436H56.0406L55.3356 319.244L54.5148 318.051V325.207L54.8726 331.171L54.2833 329.979H53.6941L53.5783 327.593V326.4L52.042 327.593L50.3899 328.786V327.593H50.8634L50.0426 326.4L47.8012 327.593L45.6862 328.786H43.0975L41.5612 329.979H39.6776L36.4997 327.593L34.5004 324.015L34.1426 326.4L34.3741 327.593L32.3748 326.4H30.7227L32.1327 328.786L33.3113 333.557L32.4905 335.943L32.722 338.328L33.5428 339.521H34.9529L35.0686 343.099L34.9529 345.485L37.4257 352.642L38.1307 360.98L38.3623 370.512H42.2452L43.7815 372.898L44.7286 374.091H45.5494L49.3165 371.705L53.3257 369.319L55.2094 372.898L57.0929 375.283L61.3337 372.898L61.2179 371.705H63.1015L62.9857 366.934H63.575L64.0485 368.127L65.9321 366.934L67.7 364.548L66.7529 363.355L67.4579 360.97L66.3952 357.391L67.3422 353.813L68.8785 351.428L70.6464 352.62L72.7615 353.813L73.3507 352.62L73.94 350.235L74.5293 349.042L74.4136 346.656H75.1186L75.7079 345.464H73.7085L71.0042 340.692L71.5934 339.5L72.0669 338.307L71.5934 337.114L71.3619 335.921H72.1827L73.2455 334.728L72.772 332.343L71.3724 331.171ZM54.9989 346.667L55.5882 350.245L58.8818 353.824L60.0604 359.788L58.6503 360.98L57.9453 362.173L56.7667 364.559H54.8832L55.3566 362.173L55.7144 359.788L53.1258 360.98L51.5895 363.366L50.6424 364.559H49.5796L48.0538 368.137L45.6967 369.33L43.3395 366.944L41.9295 363.366L42.403 362.173L43.5816 360.98H44.5286L45.0022 362.173L44.7706 363.366H46.307L47.4856 362.173L47.1278 360.98L46.8963 358.595L49.6007 356.209H52.305L52.6628 352.631L51.842 349.053H50.5477L49.4849 351.438H48.7798L46.8963 349.053L44.7812 346.667L44.1919 345.474L43.8342 344.281L44.7812 343.089L45.9597 344.281L47.8434 346.667L51.8526 347.86L54.9989 346.667Z" fill="#B01736"/>
<path d="M117.535 303.759H116.598L115.778 304.952L110.716 306.145L105.886 304.952L103.182 302.566L99.4145 306.145L94.4688 304.952L93.648 306.145V308.53H94.5951L95.3001 309.723H90.2386L89.8808 310.916L90.2386 312.109L89.2915 314.494L88.4707 315.687L86.3556 318.073L83.2935 319.265L79.5263 316.88L75.8749 313.301H71.2869L69.1718 312.109L66.2254 314.494L63.0476 316.88L65.0469 318.073L66.1097 319.265L69.5296 320.458L72.1183 321.651L71.8867 322.844H71.1817L70.2346 325.229L69.5296 324.037H68.3511L66.2359 322.844H64.3524L64.1208 324.037L64.5944 325.229L63.058 326.422L62.4688 327.615L66.1202 328.808L71.4237 331.193L72.8338 332.386L73.3073 334.772L72.2445 335.964H71.4237L71.6552 337.157L72.1287 338.35L71.6552 339.543L71.066 340.735L73.7703 345.507H75.7697L75.1804 346.7H74.4754L74.5911 349.085L74.0018 350.278L76.3589 351.471L78.3583 353.856L82.599 352.663L85.7769 351.471L90.8384 355.049L94.4898 363.388L96.6049 364.581L98.3727 363.388L98.962 364.581H99.4355L100.73 363.388L101.677 361.002H107.685L108.148 358.617L111.442 356.231L113.094 352.653H109.559L107.559 351.46L108.264 350.267L107.559 349.074L106.738 347.882H104.855L105.444 346.689V345.496H103.445L104.623 338.339L101.677 332.375L102.266 331.183H103.445L104.855 329.99L106.381 328.797L110.264 329.99L114.504 327.604L114.273 324.026L113.684 321.64L112.978 320.448H112.473L115.767 316.869L118.945 314.484L117.766 308.52L117.535 303.759Z" fill="#B01736"/>
<path d="M146.514 309.724V308.531H142.978L140.148 306.145L139.443 301.374L136.854 300.182L133.792 298.989L132.498 297.796L131.435 295.41H129.909L128.141 296.603L125.31 295.41H122.364L122.248 297.796L122.606 300.182L120.133 302.567L117.545 303.76L117.776 308.531L118.955 314.495L115.777 316.881L112.483 320.459H112.957L113.662 321.652L114.251 324.037L114.482 327.616L110.242 330.001L106.359 328.808L104.822 330.001L103.412 331.194H102.234L101.645 332.387L104.591 338.351L103.412 345.508H105.412V346.7L104.822 347.893H106.706L107.527 349.086L108.232 350.279L113.998 347.893L118.355 350.279L119.881 347.893L120.701 345.508L122.469 346.7V349.086H126.005L128.004 347.893H129.53L130.477 349.086H130.709L130.94 347.893L132.234 349.086H137.538L141.074 350.279L141.779 352.664L142.957 355.05L145.314 353.857L146.493 352.664H150.029V350.279L151.207 346.7L155.921 343.122L161.814 341.929L164.171 339.544V338.351L161.814 333.58L160.636 330.001H158.279L155.921 328.808V326.423L154.743 325.23H153.564L152.386 326.423L151.207 325.23V324.037H150.029L148.85 322.845L151.207 321.652L153.564 318.073L152.386 314.495L151.207 313.302H150.029V310.917H147.671L146.514 309.724Z" fill="#B01736"/>
</g>
<path d="M145.393 195.258L144.204 196.429H143.046L140.584 197.632L137.216 198.868L135.291 203.597L130.734 208.399L132.839 209.571L133.87 209.528L136.112 214.321L139.689 215.556L140.921 221.456L139.731 222.66L138.795 225.035L141.299 228.624H143.057L143.015 229.827L142.994 232.223V233.416L144.214 234.545H143.057L141.226 236.995L141.341 239.38H142.994L145.351 238.187L146.529 236.995L147.729 238.187H148.886L151.307 236.92L158.304 236.995V235.802L160.661 236.995H163.019L165.449 229.785L163.103 227.41L161.914 226.206L160.725 223.831L159.567 222.66L161.914 215.482L165.386 209.582V206.003L164.208 203.618H163.029L158.315 201.232L156.01 203.575L154.779 202.425L147.771 199.997L146.613 197.622L145.393 195.258Z" fill="#F2F2F2"/>
<g opacity="0.6">
<path d="M135.566 248.933H133.683L132.147 250.126H130.263L129.316 251.319L128.842 252.511H126.601L125.075 251.319L123.076 248.933L118.13 251.319L117.425 253.704L116.836 254.897L116.952 256.09L116.594 258.475L115.184 257.283L111.301 258.475L112.006 260.861L114.247 263.247L117.541 264.439L120.371 265.632V266.825H120.256L121.319 268.018H122.729L123.791 270.403L123.434 271.596L126.38 273.982L129.558 277.56L131.799 276.367L133.683 275.174L132.504 268.018L136.629 263.247L141.807 259.668L141.333 257.283L141.691 254.897L138.986 253.704H136.398V251.319L135.566 248.933Z" fill="#B01736"/>
<path d="M185.38 186.951L186.558 185.758L183.023 184.565L181.844 185.758L183.023 186.951H185.38ZM193.63 188.144H192.451L191.273 189.336L187.737 186.951L180.665 185.758H178.308L175.951 186.951L177.13 188.144L174.773 190.529H172.416V192.915L171.237 195.3V201.264L172.416 202.457L168.88 203.65L165.344 208.421V213.192L168.88 216.771L173.594 215.578L179.487 213.192L185.38 215.578L192.451 210.807L200.69 207.228V206.035L201.869 203.65L197.155 197.686V191.722L193.63 188.144ZM134.502 226.281H132.618L132.26 227.474L130.966 228.666H130.019L129.43 227.474L126.599 226.281L123.895 225.088H123.537L123.063 226.281H120.706L118.707 227.474L118.118 228.666L117.297 229.859L118.118 235.823L120.706 240.594L122.001 241.787L123.179 242.98L122.948 245.365L123.063 248.944L125.063 251.329L126.599 252.522H128.84L129.314 251.329L130.261 250.137H132.145L133.681 248.944H135.565L141.331 239.412L141.215 237.027L143.046 234.577H144.204L142.983 233.448V232.255L143.004 229.859L143.046 228.656H141.289L138.785 225.067L137.322 225.109L135.67 226.302L134.502 226.281Z" fill="#B01736"/>
<path d="M160.647 237.005L158.29 235.813V237.005L151.292 236.931L148.872 238.198H147.715L146.515 237.005L145.336 238.198L142.979 239.391H141.327L135.561 248.922L136.382 251.308V253.694H138.97L141.675 254.886L141.317 257.272L141.79 259.657L144.147 260.85H147.683L148.862 263.236L150.04 264.429H152.397L153.576 263.236L159.469 266.814H161.826L164.183 265.622V264.429L165.362 265.622H167.719L166.54 263.236L164.215 262.576L166.54 262.043H168.897L170.076 260.85L172.433 259.657V256.079L173.611 254.886V252.501L171.254 251.308H170.076L171.254 250.115V247.73L166.54 241.766L163.004 236.995H160.647V237.005ZM117.304 229.859L107.875 227.474L107.402 228.666H106.581L103.992 229.859H102.109L101.635 231.052L101.277 233.438L98.4466 234.63L97.1523 237.016L98.6887 238.209L100.688 239.402V242.98L103.75 244.173L105.992 245.365L106.107 247.751L106.339 251.329L108.696 253.715L108.338 254.908V257.293H110.106L110.464 258.486H111.285L115.167 257.293L116.578 258.486L116.935 256.1L116.82 254.908L117.409 253.715L118.114 251.329L123.06 248.944L122.944 245.365L123.175 242.98L121.997 241.787L120.702 240.594L118.114 235.823L117.304 229.859Z" fill="#B01736"/>
<path d="M100.702 240.584V239.391L98.7024 238.198L97.1661 237.005H92.4519L91.6311 238.198L89.516 235.813L87.2746 238.198L86.0961 239.391L83.981 238.198L83.6232 239.391L83.3917 240.584L80.4453 242.969L82.4447 246.548L85.1491 250.126L84.7913 251.319L84.202 252.512H84.7913L85.1491 253.704H84.5597L83.9704 254.897L86.2118 257.283H90.4526L91.5154 259.668L92.8097 260.861L98.3447 263.247L105.416 266.825L106.479 268.018L107.542 270.403L109.194 268.018L110.488 265.632L112.024 266.825H113.792V265.632L114.497 264.439L114.266 263.247L112.024 260.861L111.319 258.475H110.499L110.141 257.283H108.373V254.897L108.731 253.704L106.374 251.319L106.142 247.74L106.026 245.355L103.785 244.162L100.723 242.969L100.702 240.584Z" fill="#B01736"/>
<path d="M98.1142 209.592L96.9356 210.785H92.1057L89.8643 209.592H87.3914L85.3921 206.014L81.8564 204.821L80.7936 206.014L80.4358 208.399L79.7308 209.592H78.91L77.1421 211.978L75.2586 214.363L74.1957 216.749H73.375L74.322 217.942L74.0905 219.135H74.7956L77.7419 220.327L79.9833 219.135L81.0461 220.327L81.7512 222.713L83.9925 223.906L85.8761 225.098L88.7068 228.677L89.0646 232.255L87.5387 234.641L87.3073 238.219L89.5486 235.833L91.6637 238.219L92.4845 237.026H97.1987L98.4931 234.641L101.324 233.448L101.681 231.062L102.155 229.87H104.039L106.627 228.677H107.448L107.922 227.484L105.217 222.713L106.396 221.52L108.279 219.135L107.101 213.171L106.396 208.399L102.271 209.592H98.1142ZM153.58 263.236L152.402 264.429H150.045L148.866 263.236L147.687 260.85H144.152L141.795 259.657L136.617 263.236L132.492 268.007L133.671 275.164L131.787 276.356L129.546 277.549L130.493 278.742L131.672 279.935L131.082 282.32L130.725 283.513L132.84 284.706L135.313 285.899L136.607 288.284L137.785 290.67H139.553L139.322 291.863L140.858 293.056L146.509 290.67L152.402 288.284L154.759 287.091L155.937 285.899V279.935L154.759 276.356L157.116 275.164V272.778L155.937 271.585L157.116 270.392L158.294 268.007L159.473 266.814L153.58 263.236Z" fill="#B01736"/>
<path d="M133.873 209.529L132.842 209.571L130.737 208.4L121.667 210.785L120.488 209.592L119.425 208.4L118.363 209.592H116.363L114.595 206.014L112.123 204.821L111.06 206.014L110.239 207.207H108.355L106.356 208.4L107.061 213.171L108.24 219.135L106.356 221.52L105.177 222.713L107.882 227.484L117.31 229.87L118.131 228.677L118.72 227.484L120.72 226.291H123.077L123.55 225.099H123.908L126.613 226.291L129.443 227.484L130.032 228.677H130.98L132.274 227.484L132.632 226.291H135.694L137.346 225.099L138.809 225.056L139.745 222.681L140.934 221.478L139.703 215.578L136.125 214.342L133.873 209.529ZM105.419 273.96L107.303 272.768L107.535 270.382L106.472 267.996L105.409 266.804L98.3376 263.225L92.8026 260.84L91.5083 259.647L90.4454 257.261H86.2048L83.9634 254.876L79.7227 262.033L81.259 263.225L83.6161 265.611L84.2054 267.996L85.0262 270.382L85.142 271.575L89.0249 272.768L92.792 275.153H92.3185L91.4977 279.924V283.503L93.0341 284.695L94.5599 283.503L95.9699 288.274L98.8006 293.045L99.6214 291.852L100.684 290.659L103.631 284.695H104.809L105.988 283.503L105.756 281.117V277.539H107.408L108.587 275.153H106.935L105.419 273.96Z" fill="#B01736"/>
<path d="M120.371 266.804V265.611L117.541 264.418L114.247 263.225L114.478 264.418L113.773 265.611V266.804H112.006L110.469 265.611L109.175 267.996L107.523 270.382L107.291 272.767L105.408 273.96L106.944 275.153H108.596L107.418 277.539H105.766V281.117L105.997 283.502L104.818 284.695H103.64L100.693 290.659L99.6307 291.852L98.8099 293.045L100.104 300.202L102.219 301.394L103.166 302.587L105.871 304.973L110.701 306.165L115.762 304.973L116.583 303.78H117.53L120.119 302.587L122.592 300.202L122.234 297.816L122.35 295.43H125.296L128.127 296.623L129.894 295.43H131.431L132.494 297.816L133.788 299.009L136.85 300.202L139.439 301.394L141.091 296.623L140.859 293.045L139.323 291.852L139.554 290.659H137.787L136.608 288.274L135.314 285.888L132.841 284.695L130.726 283.502L131.083 282.31L131.673 279.924L130.494 278.731L129.547 277.539L126.369 273.96L123.423 271.575L123.781 270.382L122.718 267.996H121.308L120.245 266.804H120.371ZM133.093 191.722L128.621 190.529L122.381 189.336L117.783 183.372L112.837 177.408L111.185 175.023H108.712L107.176 176.215L104.587 178.601L101.051 182.179H98.8099L98.6942 184.565L98.9257 185.758H99.2835L99.3992 186.951H98.3364L97.1578 188.143L96.095 190.529L95.6215 194.107L96.095 196.493L95.9793 197.686L94.8007 198.878L93.3906 200.071L94.0957 201.264L95.39 202.457L95.7477 206.035L94.5692 207.228L94.8007 209.614L94.3272 210.806H96.9158L98.0944 209.614H102.219L106.344 208.421L108.344 207.228H110.227L111.048 206.035L112.111 204.842L114.584 206.035L116.351 209.614H118.351L119.414 208.421L120.476 209.614L121.655 210.806L130.726 208.421L135.282 203.618L137.208 198.889L135.671 197.696L133.904 195.311L133.43 194.118L133.093 191.722Z" fill="#B01736"/>
</g>
<g opacity="0.4">
<path d="M204.222 225.088L199.508 222.703L197.15 217.932L195.972 219.124L193.615 220.317L185.375 215.546L179.483 213.161L173.59 215.546L174.768 219.124L173.59 223.896H178.304L180.661 228.667L184.197 232.245H185.375V235.823L190.09 238.209H191.268L192.447 239.402L195.982 235.823L200.697 238.209L203.054 237.016L204.232 234.631L206.589 233.438H207.768V232.245L205.411 228.667H201.875L203.054 227.474L204.222 225.088Z" fill="#B01736"/>
<path d="M160.64 119.006L157.105 117.813L152.391 119.006L151.212 123.777L152.391 127.355L157.105 129.741L160.64 127.355L162.998 123.777L160.64 119.006ZM362.027 99.9422H356.134L351.42 104.713L352.598 109.484L358.491 110.677H359.67L360.848 109.484H362.027L363.205 108.292V109.484L362.027 110.677H363.205L364.384 109.484V104.713L362.027 99.9422ZM416.199 127.355L418.556 128.548V132.126L422.091 134.512L424.448 130.933L422.091 123.777V121.391L420.913 119.006H418.556V121.391H416.199V127.355ZM383.23 126.162L379.695 124.969L374.98 123.777L369.088 124.969L370.266 126.162V128.548H367.909L366.731 127.355V126.162L367.909 124.969L364.373 123.777H359.659L358.481 122.584L351.409 123.777L344.338 122.584L343.159 121.391V122.584H341.981V126.162L340.802 123.777L338.445 122.584L337.267 121.391L332.552 124.969L327.838 129.741L321.945 127.355L317.231 123.777L318.41 120.198L319.588 117.813L317.231 113.042L321.945 110.656L325.481 109.463L331.374 113.042L333.731 110.656V109.463H334.909V102.306L331.374 97.5354L326.66 93.957L325.481 90.3787L324.302 89.1859V98.7175L317.231 104.682L311.338 109.453V116.609L306.624 120.188L304.267 122.573V126.152L308.981 133.308L313.695 142.851L314.874 144.043V145.236H317.231V144.043L319.588 142.851H321.945L324.302 144.043L326.66 146.429H334.899L344.317 147.622L346.674 146.429L347.853 145.236L349.031 146.429H353.745L359.638 151.2L366.71 157.164L402.045 178.624L404.402 181.009L411.474 179.816L419.713 177.431V176.238L420.892 173.852L422.07 175.045H423.249L432.677 170.274L433.856 169.081H436.213L438.486 169.976L440.917 166.696V164.31L439.738 163.117L437.381 159.539L442.095 154.768V152.382L438.56 146.418L433.845 141.647L427.953 136.876L425.595 134.491L423.238 136.876L422.06 135.683H420.881L419.703 136.876V144.033L418.524 151.189L417.346 149.997H416.167L413.81 151.189L411.453 149.997H410.274L409.096 152.382L405.56 153.575L404.381 151.189L405.56 148.804L407.917 147.611H409.096V145.226L407.917 142.84H409.096L400.856 141.647L393.785 142.84L391.428 139.262L384.356 136.876L379.642 138.069V139.262L378.464 140.454L377.285 138.069H374.928L373.749 139.262H372.571L373.749 138.069V135.683L371.392 134.491H369.035L370.214 133.298V132.105H372.571L374.928 133.298L377.285 128.526H378.464L379.642 127.334V126.141L383.23 126.162ZM150.033 140.465V139.272H146.498L144.141 140.465L142.962 138.08L141.31 136.887L139.069 138.08H137.185L131.292 140.465L132.113 145.236L133.291 148.815L132.229 150.007H130.819L130.703 151.2L130.471 152.393L126.936 153.586L126.346 155.971L124.221 158.357L124.452 160.742L125.989 163.128L127.641 164.321L134.239 166.706L140.721 167.899L142.962 170.285H144.141L151.212 167.899L153.569 165.514L157.105 167.899L159.462 171.478H160.64L161.819 172.67L164.176 173.863L165.355 172.67H166.533L168.89 173.863L170.069 176.249H171.247L173.605 177.441V170.285L172.426 169.092H171.247V167.899H170.069V165.514L171.247 161.935L168.89 158.357L167.712 155.971V152.393L165.355 150.007V148.815L164.176 147.622H159.462V142.851L157.105 140.465V139.272L152.391 141.658L150.033 140.465ZM39.2172 104.703L37.9228 105.895H38.0386L39.2172 104.703ZM50.8765 108.281L44.1629 107.088L42.5108 104.703L40.6272 103.51L39.2172 104.703L38.0386 105.895H38.5121L39.8065 109.474L37.1021 108.281L33.5664 107.088L38.5121 116.62L44.1629 124.959L47.4565 129.73H48.5193L49.8137 128.537L53.9386 127.344L52.8758 119.006L52.5181 115.427L52.4023 111.849L51.813 110.656H50.2767L47.6881 113.042L45.573 110.656L44.7522 108.271L50.8765 108.281ZM240.719 53.4555L236.005 47.4915L232.469 55.8305L227.755 61.7944H224.22L220.684 64.18H219.505V65.3727L218.327 66.5655L214.791 67.7583L213.612 71.3367L214.791 72.5294L210.077 77.3006L208.898 82.0717L205.363 83.2645H201.827L200.648 91.6034L199.47 101.135L184.159 103.521L167.67 104.713V107.099L168.859 117.823L167.67 123.787L170.027 126.791L171.363 131.711L173.562 135.172L178.277 134.501H185.348L186.527 135.694H188.884L187.705 133.308V132.116H188.884L193.598 136.887H195.955L197.134 138.08L198.312 142.851L199.491 144.043L206.552 145.236H208.909L214.802 151.2L217.159 148.815L218.337 150.007L220.694 146.429L221.873 142.851V141.658L226.587 136.887L224.23 133.308L223.051 128.537L225.409 126.152L226.587 123.766L228.944 116.609L231.301 118.995L233.659 117.802L236.016 115.417V113.031L237.194 110.645V107.067H234.837V101.103L236.016 99.9103L240.73 93.9464L241.908 91.5608L243.087 87.9824H244.266L245.444 89.1752L248.98 85.5969V86.7897H250.158L251.337 79.633L248.98 72.4761H252.515L250.158 67.705L251.337 66.5122H250.158L248.98 65.3195L245.444 66.5122L244.266 62.9339L245.444 59.3555L240.719 53.4555Z" fill="#B01736"/>
<path d="M366.741 157.154L359.67 151.19L353.777 146.419H349.062L347.884 145.226L346.705 146.419L344.348 147.611L334.93 146.419H326.691L319.62 155.961L318.441 159.539H320.798L321.977 160.732L319.62 167.889L320.798 170.274V171.467L318.441 173.853L314.905 170.274H313.727L312.548 171.467L311.37 170.274V169.082H310.191L307.834 170.274L306.655 167.889L304.298 170.274L303.12 169.082V165.503L294.88 159.539L286.641 157.154V161.925L288.998 166.696V172.66L286.641 176.238V178.624L287.82 181.009L284.284 182.202H281.927L278.391 186.973L277.212 191.745L278.391 192.937H280.748L281.927 194.13H284.284V192.937L285.462 190.552H290.177L291.355 189.359H292.534L294.891 194.13L290.177 198.901L284.284 203.672L283.105 207.251L281.927 209.636L274.855 212.022H272.498L270.141 213.215L266.605 219.179V222.757L261.891 223.95L259.534 227.528L261.891 229.914L263.07 232.299V234.685L264.248 238.263L263.07 239.456V241.842L266.605 239.456L268.963 237.07H271.32V235.878L276.034 238.263L279.57 239.456L284.284 238.263H287.82V239.456L290.177 238.263L288.998 234.685L291.355 228.721L298.427 231.107H300.784L303.141 233.492L301.962 235.878L305.498 238.263L307.855 237.07L310.212 240.649L312.569 243.034L314.926 241.842H319.641V243.034H321.998L323.176 241.842H324.355L325.533 243.034L327.891 241.842L331.426 240.649L338.498 247.806L350.273 248.998V247.806L352.63 246.613L353.808 244.227L354.987 240.649H357.344L358.523 238.263L357.344 237.07V235.878L362.058 226.335L371.487 216.793L372.665 209.636L373.844 208.444L376.201 207.251L377.38 206.058H378.558L380.915 204.865C380.915 204.865 382.858 204.041 383.272 204.865C383.482 205.281 383.272 206.058 383.272 206.058L384.451 208.444L391.522 204.865V203.672L395.058 202.48L397.415 201.287H400.951L403.308 202.48L406.844 198.901L410.379 197.709V196.516L412.736 194.13H416.272L420.986 192.937H425.7L426.879 190.552L428.058 189.359L433.529 186.036L438.654 183.395L437.476 179.817L435.118 176.238L436.297 171.467H437.476L438.58 169.987L436.307 169.092H433.95L432.772 170.285L423.343 175.056H422.165L420.986 173.863L419.808 176.249V177.442L411.568 179.827L404.497 181.02L402.14 178.635L366.741 157.154ZM278.412 17.6934V18.2898L276.055 20.0789L272.519 18.6519L270.162 17.8212L268.984 18.7797L266.626 20.0896L265.448 18.1832L264.269 18.0661L261.912 17.704V20.0896L257.198 22.4752L253.662 27.2463V29.6318L252.484 35.5959L251.305 40.367L247.77 41.5598H243.055L235.984 47.5237L245.412 59.4515L244.234 63.0299L245.412 66.6084L248.948 65.4156L250.127 66.6084H251.305L252.484 67.8012V63.0299L253.662 60.6443V55.8732L256.019 60.6443V61.8371H254.841V67.8012H257.198L258.377 73.7651H257.198V74.9578L258.377 76.1506H259.555V82.1145L261.912 85.6929L265.448 90.464L268.984 96.4281L271.341 101.199L283.116 104.778L290.187 103.585L296.08 101.199L297.258 100.006V97.6208L299.616 95.2353L301.973 91.6568L300.794 89.2712L299.616 88.0785L301.973 80.9218H299.616V73.7651L298.437 72.5723V73.7651L297.258 65.4261V52.3162L296.08 49.9306H294.901L296.08 48.7378L294.901 47.545V46.3523H292.544L291.366 42.7739L290.187 40.3883L287.83 39.1954L285.473 40.3883L284.294 39.1954L286.651 38.0026L289.009 35.6171L286.651 34.4243L287.83 33.2315L286.651 32.0387L284.294 30.8459H285.473L286.651 29.6532L285.473 28.4604V27.2676L287.83 29.6532L291.366 30.8459L290.187 27.2676L289.009 22.4965V23.6893H285.473V24.882L284.294 23.6893V22.4965L283.116 20.1109V18.9181L281.937 20.1109V21.3037H279.58L278.402 17.8425L278.412 17.6934ZM153.569 103.51L151.212 104.703L153.569 107.088H155.926L157.105 108.281H155.926L154.747 109.474V110.667H153.569V115.438L154.747 117.824H157.105L160.64 119.016L162.997 123.788L160.64 127.366L157.105 129.751L152.39 127.366L151.212 123.788L152.19 119.815L150.033 117.824L148.855 119.016L145.319 115.438L144.14 116.631H142.962V114.245H141.552L140.731 115.438L138.963 116.631H139.552L138.142 119.016L136.027 117.824L134.028 119.016H131.902L133.081 122.595L134.028 124.98L135.207 127.366L136.269 129.751L135.449 134.523L137.216 138.101H138.984L141.341 136.908L142.993 138.101L144.172 140.487L146.529 139.294H150.065V140.487L152.422 141.679L157.136 139.294V140.487L159.493 142.872V147.643H164.208L165.386 148.836V150.029L167.743 153.607V155.993L168.922 158.378L171.279 161.957H174.815L177.172 163.15L179.529 160.764H181.886L183.064 159.571H181.886V158.378L183.064 157.186V153.607L186.6 151.222L190.136 150.029L192.493 147.643V146.451L193.672 145.258H197.207L199.564 144.065L198.386 142.872L197.207 138.101L196.029 136.908H193.672L188.957 132.137H187.779V133.33L188.957 135.715H186.6L185.422 134.523L167.754 108.303V104.724H159.514L153.569 103.51Z" fill="#B01736"/>
<path d="M217.174 170.263H215.996L213.638 169.07V166.684L212.46 165.491H211.281V160.72L212.46 158.335L214.817 151.178L208.924 145.214H206.567L201.853 143.542L195.96 145.214H193.603L192.424 146.407V147.599L190.067 149.985L186.532 151.178L182.996 153.563V157.142L181.817 158.335V159.527H182.996L181.817 160.72H179.46L177.103 163.106L174.746 161.913H171.21L170.032 165.491V167.877H171.21V169.07H172.389L173.567 170.263V177.419H177.103L178.282 185.769L187.7 186.961L191.235 189.347L192.414 188.154H193.592L197.128 191.733V197.697L201.842 203.661L206.557 202.468V201.275L207.735 200.082L214.806 202.468L217.164 200.082V202.468H218.342L219.521 203.661V207.239L224.235 208.432V209.624L225.414 210.817L227.771 212.01L230.128 216.781L238.367 222.745H239.546L240.724 221.552L243.081 222.745H244.26L246.617 220.36L248.974 221.552L250.153 223.938L252.51 221.552L251.331 219.167L253.688 216.781H250.153L248.974 215.588V213.203L251.331 212.01L253.688 213.203L258.403 209.624L260.76 207.239L259.581 202.468L257.224 201.275V197.697H250.153L246.617 192.926L244.26 189.347L241.903 190.54H238.367V188.154L236.01 186.961H234.831L233.653 184.576V183.383L231.296 180.998H230.117V179.805L227.76 180.998H224.224V178.612L219.51 173.841H218.332V172.648L217.174 170.263ZM134.022 124.968L133.075 122.583L131.897 119.005L129.308 122.583L126.604 124.968H122.952L121.069 127.354L121.89 128.547L122.479 129.74L120.711 133.318L119.059 132.125L119.533 130.932L119.89 129.74H119.185L118.954 130.932H117.775L116.828 129.74L114.713 130.932H112.472V132.125H112.945L112.83 133.318L111.651 136.896L108.947 139.282L106 140.475L106.232 141.668L106.347 142.86L103.401 146.439L99.5181 151.21H99.4023L99.5181 152.403L100.465 153.595L101.644 154.788L101.17 155.981L101.054 157.174H102.117L103.654 159.559L102.244 163.138L101.296 164.33H103.064L104.011 165.523H106.011L108.126 171.487V173.873L108.715 175.066H111.188L112.84 177.451L118.849 172.68L119.554 169.102V166.716L121.679 164.33L121.09 163.138H120.974L122.626 161.945L124.51 160.752L124.278 158.367L126.393 155.981L126.983 153.595L130.518 152.403L130.75 151.21L130.866 150.017H132.276L133.339 148.824L132.16 145.246L131.339 140.475L137.232 138.089L135.464 134.511L136.285 129.74L135.222 127.354L134.022 124.968Z" fill="#B01736"/>
<path d="M398.548 86.8208V84.4353H396.191V86.8208L397.369 88.0136L396.191 92.7848L399.726 89.2064V88.0136L398.548 86.8208ZM425.634 60.6008L422.098 59.408H418.562V61.7936H417.384V64.1792L415.027 62.9864H411.491V65.3719L412.669 66.5647H411.491V67.7575L410.312 68.9503L406.777 71.3359L404.42 73.7214L403.241 72.5286V71.3359L402.062 70.1431L399.705 71.3359L397.348 73.7214L396.17 77.2998V80.8781H398.527V82.0709L400.884 79.6853V80.8781L399.705 83.2637L402.062 85.6494L400.884 90.4205L402.062 91.6133L403.241 93.9989H400.884L399.705 92.8061V93.9989L398.527 95.1917H397.348V97.5772L398.527 99.9628H400.884L402.062 102.348V104.734H404.42V103.541H405.598L407.955 108.312L409.134 109.505V107.119L410.312 105.927V108.312L412.669 111.891V109.505L413.848 110.698H416.205L413.848 103.541V97.5772L415.027 91.6133L416.205 86.8422L418.562 82.0709H419.741L423.277 74.9142L424.455 76.107L426.812 74.9142V73.7214L425.634 72.5286H426.812L429.169 73.7214L430.348 72.5286V71.3359H429.169L427.991 70.1431L431.526 71.3359V68.9503H433.884L432.705 65.3719L430.348 62.9864V61.7936L429.169 60.6008H425.634ZM452.719 34.3808L450.362 36.7664V37.9591H451.541V39.1519L452.719 40.3447H450.362L448.005 41.5375H449.184L450.362 42.7303V43.9231L451.541 45.1158L449.184 43.9231L445.648 42.7303L444.47 43.9231L445.648 46.3086H440.934L442.112 47.5014V48.6942H440.934L439.755 47.5014V49.887L440.934 52.2725L437.398 48.6942L435.041 49.887V52.2725V51.0797L432.684 49.887L430.327 51.0797L429.148 52.2725L427.97 51.0797L430.327 54.6581L435.041 55.8509V57.0437H427.97L425.613 58.2364V59.4292H429.148L431.505 61.8149L432.684 64.2005L433.863 63.0077V66.586L436.22 67.7788L437.398 66.586V67.7788L438.577 66.586L440.934 65.3933L439.755 63.0077V60.6221L440.934 64.2005H443.291L444.47 63.0077L443.291 60.6221L442.112 59.4292V58.2364L444.47 59.4292L445.648 61.8149V63.0077L448.005 58.2364L446.827 57.0437V55.8509H448.005V54.6581H449.184V60.6221L451.541 58.2364L453.898 57.0437L456.255 53.4653L455.077 52.2725V51.0797H456.255V53.4653L458.612 54.6581L459.791 53.4653L460.969 51.0797L462.148 54.6581L463.327 53.4653V51.0797H464.505V53.4653L466.862 52.2725V51.0797L468.041 52.2725L469.219 51.0797V49.887L468.041 48.6942H470.398L472.755 47.5014L476.291 46.3086V47.5014L477.469 46.3086H478.648L482.183 45.1158H502.208L513.984 43.9231L517.519 41.5375L519.876 37.9591L522.233 35.5736L521.055 31.9952L515.162 29.6095L508.091 31.9952V33.188L506.912 34.3808H505.734V33.188H490.423L486.887 29.6095L484.53 28.4167L483.352 30.8024L479.816 31.9952H480.994V30.8024H478.637L476.28 31.9952L473.923 30.8024H470.387L468.03 31.9952H465.673V33.188H462.137V35.5736L460.959 36.7664L458.602 34.3808L456.245 36.7664L453.888 37.9591V36.7664L452.719 34.3808ZM294.908 111.859H293.73L292.551 113.052H289.015L285.48 114.244L283.123 113.052L281.944 111.859L278.408 113.052H273.694L268.98 116.63L266.623 126.172H265.444L263.087 123.787V124.979H261.909L259.551 123.787L258.373 120.208L256.016 116.63L253.659 115.437L252.48 116.63V115.437L253.659 114.244H256.016L254.837 108.28L251.301 103.509L246.587 105.895L245.409 115.426H246.587L248.944 116.619L246.587 120.198L243.052 123.776L241.873 122.583H240.694V123.776L238.337 120.198L235.98 115.426L233.623 117.812L231.266 119.005L228.909 116.619L226.552 123.776L225.373 126.161L223.016 128.547L224.195 133.318L226.552 136.897L221.837 141.668V142.861L220.659 146.439L218.302 150.017L217.123 148.825L214.766 151.21L212.409 158.367L211.23 160.752V165.524H212.409L213.588 166.716V169.102L215.945 170.295H217.123L218.302 172.68V173.873H219.48L224.195 178.644V181.03H227.73L230.087 179.837V181.03H231.266L233.623 183.415V184.608L234.802 186.994H235.98L238.337 188.186V190.572H241.873L244.23 189.379L246.587 192.958L250.123 197.729H257.194V201.307L259.551 202.5L260.73 207.271L266.623 208.464L267.801 210.849L270.158 213.235L272.516 212.042H274.873L281.944 209.657L283.123 207.271L284.301 203.693L290.194 198.922L294.908 194.15L292.551 189.379H291.373L290.194 190.572H285.48L284.301 192.958V194.15H281.944L280.765 192.958H278.408L277.23 191.765L278.408 186.994L281.944 182.223H284.301L287.837 181.03L286.658 178.644V176.259L289.015 172.68V166.716L286.658 161.945V157.174L294.898 159.56L303.137 165.524V169.102L304.316 170.295L306.673 167.909L307.851 170.295L310.208 169.102H311.387V170.295L312.566 171.488L313.744 170.295H314.923L318.458 173.873L320.815 171.488V170.295L319.637 167.909L321.994 160.752L320.815 159.56H318.458L319.637 155.981L326.708 146.439L324.351 144.053L321.994 142.861H319.637L317.28 144.053V145.246H314.923V144.053L313.744 142.861L309.03 133.318L304.316 126.161V122.583L298.423 127.354L299.601 124.969L297.244 122.583L299.601 121.39L294.908 111.859Z" fill="#B01736"/>
<path d="M219.534 203.639L218.355 202.446H217.176V200.06L214.819 202.446L207.748 200.06L206.569 201.253V202.446L201.855 203.639L200.677 206.024V207.217L192.437 210.796L185.366 215.567L193.605 220.338L195.962 219.145L197.141 217.952L199.498 222.723L204.212 225.109L203.034 227.495L201.855 228.687H205.391L207.748 232.266L212.462 234.651H217.176L220.712 231.073L224.248 234.651V237.037H226.605L231.319 238.23L233.676 237.037L237.212 234.651H238.391L240.748 235.844V234.651H245.462L247.819 233.458V229.88L248.998 226.302L250.176 223.916L248.998 221.531L246.64 220.338L244.283 222.723H243.105L240.748 221.531L239.569 222.723H238.391L230.151 216.76L227.794 211.988L225.437 210.796L224.258 209.603V208.41L219.544 207.217L219.534 203.639ZM177.484 223.895H173.601L174.78 219.124L173.601 215.545L168.887 216.738L165.351 213.16V209.582L161.879 215.481L159.532 222.66L160.69 223.831L161.879 226.206L165.425 229.795L162.994 237.005L166.53 241.776L171.244 247.74L175.958 246.547L179.494 244.162L183.03 242.969H188.923V241.776L190.101 240.583V238.198L185.387 235.812V232.234H184.208L180.673 228.655L178.316 223.884H177.484V223.895Z" fill="#B01736"/>
<path d="M157.115 167.877L153.58 165.491L151.222 167.877L144.151 170.263H142.973L141.794 169.07L140.731 167.877L134.249 166.684L127.651 164.299L125.999 163.106L124.463 160.72L122.579 161.913L120.927 163.106H121.043L121.632 164.299L119.507 166.684V169.07L118.802 172.648L112.793 177.419L117.739 183.383L122.327 189.347L128.567 190.54L133.039 191.733L133.397 194.118L133.87 195.311L135.638 197.697L137.174 198.889L140.468 197.697L143.004 196.451H144.162L145.351 195.279L147.697 200.04L154.706 202.468L155.937 203.618L158.241 201.275L162.955 203.661H164.134L165.313 206.046V208.432L168.848 203.661L172.384 202.468L171.205 201.275V195.311L172.384 192.926V190.54H174.741L177.098 188.154L175.92 186.962L178.277 185.769H180.634L181.812 178.612L177.098 177.419H173.562L171.205 176.227H170.027L168.848 173.841L166.491 172.648H165.313L164.134 173.841L161.777 172.648L160.598 171.455H159.42L157.115 167.877Z" fill="#B01736"/>
<path d="M266.647 208.4L260.754 207.207L258.397 209.593L253.682 213.171L251.325 211.978L248.968 213.171V215.557L250.147 216.749H253.682L251.325 219.135L252.504 221.521L250.147 223.906L248.968 226.292L247.79 229.87V233.448L245.433 234.641H240.718V235.834L238.361 234.641H237.183L233.647 237.027L231.29 238.22L238.361 247.762L237.183 248.955L232.468 251.34L227.754 248.955L226.576 250.148L225.397 252.533L223.04 254.919L225.397 257.304L226.576 259.69H230.111L232.468 262.075L233.647 260.883H234.825L236.004 262.075L238.361 263.268V264.461L239.54 263.268H241.897V264.461L240.718 266.846L241.897 268.039H243.075V272.811L244.254 274.003L241.897 276.389L245.433 277.582L244.254 281.16V283.546H245.433V284.738H244.254L245.433 288.317L247.79 289.509L248.968 285.931L250.147 281.16H252.504L253.682 279.967L254.861 275.196L257.218 271.618H259.575L260.754 272.811H263.111L265.468 271.618L267.825 264.461L272.539 262.075L274.897 264.461L277.254 265.654H279.611L280.789 266.846V268.039L281.968 269.232L284.325 270.425L285.504 268.039L287.861 266.846L289.039 263.268L290.218 262.075L287.861 259.69V256.111L293.753 252.533L297.289 247.762L292.575 244.184L287.861 239.412V238.22H284.325L279.611 239.412L276.075 238.22L271.361 235.834V237.027H269.004L266.647 239.412L263.111 241.798V239.412L264.289 238.22L263.111 234.641V232.256L261.932 229.87L259.575 227.485L261.891 223.95L266.605 222.757L266.647 219.135L270.182 213.171L267.825 210.786L267.057 209.22L266.647 208.4Z" fill="#B01736"/>
</g>
<g opacity="0.5">
<path d="M211.284 291.842L210.106 289.456L205.391 288.264V285.878L201.856 283.492L199.499 279.914L194.784 287.071L192.427 285.878H187.713L188.892 290.649L187.713 295.42L188.892 297.806V300.191L185.356 304.963L181.82 307.348L185.356 312.119L192.427 313.312L193.606 314.505V315.698L195.963 312.119L198.32 306.155H201.856L204.213 304.963H205.391L207.749 306.155H210.106L212.463 308.541L215.999 310.927L217.177 309.734H219.534L221.891 306.155L223.07 303.77L220.713 300.191V296.613L219.534 294.228H213.641L211.284 291.842ZM284.302 270.382L281.945 269.19L280.767 267.997V266.804L279.588 265.611H277.231L274.874 264.419L272.517 262.033L267.803 264.419L265.445 271.575L263.088 272.768H260.731L259.553 271.575H257.195L254.838 275.154L253.66 279.925L252.481 281.117H250.124L248.946 285.889L247.767 289.467L248.946 290.66H247.767L245.41 291.853H246.588L250.124 295.431H253.66V296.624H254.838L256.017 297.817L258.374 296.624V295.431L257.195 294.238L259.553 293.045L261.91 294.238H260.731V299.009L261.91 297.817L264.267 299.009L260.731 301.395H257.195L258.374 303.781H259.553L261.91 306.166L263.088 308.552L265.445 309.744L267.803 308.552L274.874 306.166L273.695 303.781L272.517 300.202H271.338L270.16 301.395V295.431L271.338 294.238H272.517L273.695 293.045V291.853L274.874 293.045L276.052 291.853L280.767 281.128L284.302 270.382Z" fill="#B01736"/>
<path d="M197.154 270.382L193.618 271.575L191.261 272.768H190.082V271.575L185.368 273.961L183.011 269.19L180.654 260.851L178.297 259.658H175.94L172.404 256.08V259.658L170.047 260.851L168.868 262.044H166.511L164.186 262.576L166.511 263.236L167.69 265.622H165.333L164.154 264.429V265.622L161.797 266.815L162.975 270.393L166.511 272.779L168.868 270.393L174.761 282.321H177.118L179.475 279.935L183.011 283.514L187.725 285.899H192.439L194.797 287.092L199.511 279.935L200.689 275.164H199.511V273.971H198.332L197.154 272.779L198.332 271.586L197.154 270.382ZM283.136 309.723L281.957 308.53V307.338H278.422L274.886 306.145L267.815 308.53L265.458 309.723L263.1 308.53L258.386 310.916L253.672 312.109L252.493 310.916V312.109L251.315 313.301L252.493 314.494V316.88L251.315 319.265L250.136 320.458H247.779V321.651L244.243 328.808L243.065 332.386V339.543L245.422 341.928V343.121L246.601 344.314H247.779L246.601 347.892V350.278L247.779 352.664V353.856H245.422L247.779 361.013H248.958L251.315 358.627L254.85 359.82L252.493 363.399L250.136 365.784L252.493 368.17L250.136 374.134H251.315L252.493 376.519L253.672 377.712H258.386L260.743 378.905L261.922 380.098L266.636 381.29L268.993 376.519H271.35L272.529 374.134V372.941H273.707V370.555L277.243 366.977L284.314 355.049H286.672L289.029 353.856H290.207L292.564 356.242L293.743 353.856L297.279 350.278L299.636 346.7L293.743 345.507L286.672 346.7L285.493 345.507V344.314H280.779V343.121L278.422 334.782V333.59H279.6V332.397L280.779 331.204L284.314 330.011L287.85 332.397L286.672 334.782V337.168L289.029 335.975L290.207 337.168V339.553H291.386L292.564 338.361L293.743 335.975L296.1 337.168H297.279L298.457 335.975H303.171L300.814 333.59L303.171 328.818V325.24H301.993L298.457 322.854L293.743 320.469L292.564 319.276H291.386V315.698H286.672V314.505L285.493 310.927H284.314L283.136 309.723Z" fill="#B01736"/>
<path d="M179.478 279.925L177.121 282.311H174.764L168.871 270.383L166.514 272.768L162.978 270.383L161.8 266.805H159.442L158.264 267.997L157.085 270.383L155.907 271.576L157.085 272.768V275.154L154.728 276.347L155.907 279.925V285.889L154.728 287.082L152.371 288.275L154.728 291.853L158.264 293.046L159.442 295.431L160.621 296.624H162.978L165.335 299.01V300.203L168.871 302.588L171.228 303.781H172.407V306.166L175.942 304.974H178.299L180.656 306.166L181.835 307.359L185.371 304.974L188.906 300.203V297.817L187.728 295.431L188.906 290.66L187.728 285.889L183.014 283.503L179.478 279.925ZM225.41 307.338L223.053 303.76L221.875 306.145L219.517 309.724H217.16L215.982 310.916L212.446 308.531L210.089 306.145H207.732L205.375 304.952H204.196L201.839 306.145H198.303L195.946 312.109L193.589 315.688V316.88L194.768 319.266V321.651L195.946 322.844L198.303 324.037V327.615H199.482V331.194L200.66 332.387L201.839 337.158L203.018 340.736L212.436 339.543L215.971 335.965L220.685 333.579L221.864 332.387H224.221L226.578 330.001L228.935 326.423L233.65 324.037L236.007 319.266L239.542 318.073L237.185 315.688H236.007V312.109L232.471 308.531H230.114L227.757 309.724L226.578 308.531L225.41 307.338Z" fill="#B01736"/>
<path d="M241.906 276.346L239.549 277.539L236.014 275.153H231.299V276.346H227.764L225.407 277.539H219.514V278.731L213.621 279.924V281.117L214.8 282.31L213.621 285.888H208.907L207.728 284.695H206.55L205.371 285.888V288.274L210.085 289.467L211.264 291.852L213.621 294.238H219.514L220.692 296.623V300.202L225.407 307.358L227.764 309.744L230.121 308.551H232.478L236.014 312.13V315.708H237.192L239.549 318.093L241.906 321.672H243.085V322.865L241.906 324.057V326.443L244.264 328.829L247.799 321.672V320.479H250.156L251.335 319.286L252.514 316.901V314.515L251.335 313.322L252.514 312.13V310.937L253.692 312.13L258.406 310.937L263.121 308.551L261.942 306.166L259.585 303.78H258.406L257.228 301.394H260.763L264.299 299.009L261.942 297.816L260.763 299.009V294.238H261.942L259.585 293.045L257.228 294.238L258.406 295.431V296.623L256.049 297.816L254.871 296.623H253.692V295.431H250.156L246.621 291.852H245.442L247.799 290.659H248.978L247.799 289.467L245.442 288.274L244.264 284.695H245.442V283.503H244.264V281.117L245.442 277.539L241.906 276.346Z" fill="#B01736"/>
<path d="M238.364 264.43V263.237L236.006 262.044L234.828 260.851H233.649L232.471 262.044L230.124 259.669H226.589L225.41 257.283L223.053 254.898L219.517 252.512L215.982 251.32L213.624 253.705L212.446 252.512H211.267L210.089 254.898L211.267 257.283H210.089L208.91 259.669L210.089 260.862L208.91 263.247H212.446L213.624 264.44L219.517 265.633L220.696 269.211V270.404L221.874 271.597V273.983L223.053 277.561H225.41L227.767 276.368H231.303V275.175H236.017L239.553 277.561L241.91 276.368L244.267 273.983L243.088 272.79V268.019H241.899L240.721 266.826L241.899 264.44V263.247H239.542L238.364 264.43Z" fill="#B01736"/>
<path d="M213.631 264.43L212.452 263.237H208.917L207.738 264.43L205.381 265.623V269.201L206.56 271.586H203.024L200.667 272.779V273.972H199.488V275.165H200.667L199.488 279.936L201.845 283.514L205.381 285.9L206.56 284.707H207.738L208.917 285.9H213.631L214.81 282.321L213.631 281.129V279.936L219.524 278.743V277.55H223.059L221.881 273.972V271.586L220.702 270.394V269.201L219.524 265.623L213.631 264.43Z" fill="#B01736"/>
<path d="M219.527 232.245L217.17 234.631H212.455L207.741 232.245V233.438H206.563L204.206 234.631L203.027 237.016L200.67 238.209L195.956 235.823L192.42 239.402L191.241 238.209H190.063V240.595L188.884 241.787V242.98H182.991L179.456 244.173L175.92 246.558L171.206 247.751V250.137L170.027 251.33H171.206L173.563 252.522V254.908L172.384 256.101L175.92 259.679H178.277L180.634 260.872L182.991 269.211L185.349 273.982L190.063 271.596V272.789H191.241L193.599 271.596L197.134 270.404L198.313 271.596L197.134 272.789L198.313 273.982H200.67V272.789L203.027 271.596H206.563L205.384 269.211V265.632L207.741 264.44L208.92 263.247L210.098 260.861L208.92 259.668L210.098 257.283H211.277L210.098 254.897L211.277 252.512H212.455L213.634 253.705L215.991 251.319L219.527 252.512L223.063 254.897L225.42 252.512L226.598 250.126L227.777 248.933L232.491 251.319L237.205 248.933L238.384 247.741L231.312 238.198L226.598 237.006H224.241V234.62L220.705 231.042L219.527 232.245ZM246.613 347.86L247.791 344.282H246.613L245.434 343.089V341.896L243.077 339.511V332.354L243.74 330.352L244.256 328.776L241.898 326.39V324.005L243.077 322.812V321.619H241.898L239.541 318.041L236.006 319.233L233.649 324.005L228.934 326.39L226.577 329.968L224.22 332.354H221.863L220.684 333.547L215.97 335.932L212.434 339.511L203.016 340.704V341.896L205.374 345.475V347.86L208.909 350.246H214.802V356.21L218.338 357.403L220.695 359.788L221.873 362.174V364.559L224.231 374.102L223.052 375.294V377.68L225.409 376.487L226.588 374.102L227.766 375.294H228.945V378.873L231.302 381.258L232.48 383.644H236.016L238.373 381.258L243.088 382.451L247.802 384.837L248.98 387.222V388.415H251.337L253.695 387.222L256.052 389.608H258.409L259.587 393.186L258.409 395.572L264.302 403.911H267.837L270.194 401.525L271.373 403.911V405.104L279.612 408.682L286.684 402.718L283.148 396.754L279.612 391.983H280.791V390.79L279.612 388.404V386.019H278.434L280.791 382.441L283.148 381.248L279.612 377.669L276.077 376.477L274.898 377.669H273.72V375.284L272.541 374.091L271.362 376.477H269.005L266.648 381.248L261.934 380.055L260.755 378.862L258.398 377.669H253.684L252.505 376.477L251.327 374.091H250.148L252.505 368.127L250.148 365.742L252.505 363.356L254.863 359.777L251.327 358.585L248.97 360.97H247.791L245.434 353.814H247.791V352.631L246.613 350.246V347.86Z" fill="#B01736"/>
<path d="M171.243 303.759L168.886 302.566L165.35 300.18V298.988L162.993 296.602H160.636L159.457 295.409L158.279 293.024L154.743 291.831L152.386 288.253L146.651 290.574L140.842 293.024L141.074 296.602L139.422 301.373L140.127 306.144L142.958 308.53H146.493V309.723L147.672 310.916H150.029V313.301H151.207L152.386 314.494L153.565 318.072L151.207 321.651L148.85 322.843L150.029 324.036H151.207V325.229L152.386 326.422L153.565 325.229H154.743L155.922 326.422V328.807L158.279 330H160.636L161.815 333.578L164.172 338.35V339.542L167.707 345.506V352.663L173.6 350.278L175.957 343.121H177.136V344.314L178.314 345.506H184.207L185.386 344.314L186.564 341.928L195.982 344.314L200.696 341.928L201.875 343.121H203.054V340.735L201.875 337.157L200.696 332.386L199.518 331.193V327.615H198.339V324.036L195.982 322.843L194.804 321.651V319.265L193.625 316.88V314.494L192.447 313.301L185.375 312.108L181.84 307.337L180.661 306.144L178.304 304.952H175.947L172.411 306.144V303.759H171.243Z" fill="#B01736"/>
</g>
<g opacity="0.3">
<path d="M448.009 374.081L445.652 372.888L443.298 370.506L443.294 370.502L442.116 372.888V374.081L440.937 376.466V378.852L438.58 380.045L437.402 382.43L438.58 384.816V387.201H433.866L431.509 388.394L429.152 390.78H426.795V393.165L427.973 394.358L425.616 396.744L424.438 402.708L425.616 405.093L426.795 408.672V409.864L425.616 411.057L424.438 413.443L423.259 417.021H427.973L430.33 414.636L431.509 415.828H435.045L432.687 418.214L430.33 419.407L433.866 426.564L438.58 434.902L442.116 431.324L443.294 432.517V433.71L445.652 432.517H448.009L451.544 433.71H455.08L456.259 432.517L464.498 428.938L471.569 426.553V427.746L472.748 431.324L473.926 432.517V434.902H475.105L476.284 436.095L475.105 437.288L479.819 444.445L483.355 440.866L489.248 437.288L490.426 439.673H491.605V437.288H501.023L502.201 436.095L505.737 433.71L506.916 431.324L508.094 430.131V427.746L506.916 425.36L509.273 420.589L508.094 419.396V415.818L506.916 412.239V411.047L508.073 408.651L502.201 408.661L501.023 407.468L499.844 411.047L497.487 412.239L497.024 411.771L496.309 411.057L495.13 409.864L497.487 407.479V402.686L498.666 401.494L497.487 399.108H493.951L492.773 400.301V401.494L491.594 400.301H484.523L483.344 395.53L475.105 394.337L469.212 384.805L461.015 380.151L462.12 378.916L448.009 374.081Z" fill="#B01736"/>
<path d="M312.573 242.969L310.216 240.584L307.858 237.005L305.501 238.198L303.365 236.76L301.966 235.813L303.144 233.427L300.787 231.041H298.43L291.359 228.656L289.001 234.62L290.18 238.198L287.823 239.391L292.537 244.162L297.251 247.74L293.716 252.512L287.823 256.09V259.668L290.18 262.054L289.001 263.247L287.823 266.825L285.466 268.018L284.287 270.403L280.752 281.128L276.037 291.852L274.859 293.045L273.68 291.852V293.045L272.502 294.238H271.323L270.145 295.431V301.395L271.323 300.202H272.502L273.68 303.78L274.859 306.166L278.394 307.359H281.93V308.551L284.287 310.937H285.466L286.644 314.515V315.708H291.359L293.716 313.322L294.894 309.744V308.551L297.251 307.359H303.144L305.501 303.78L307.858 301.395L310.216 303.78H313.751V301.395L314.93 297.816L320.823 296.623L324.358 293.045V288.274L326.715 284.696L324.358 278.732L327.894 275.153L332.608 272.768L344.394 260.84V258.454L346.751 253.683L350.287 248.912L338.512 247.719L331.44 240.562L327.904 241.755L325.547 242.948L324.369 241.755H323.19L322.012 242.948H319.655V241.755H314.94L312.573 242.969Z" fill="#B01736"/>
<path d="M303.144 325.219V328.797L300.787 333.568L303.144 335.954H298.429L297.251 337.146H296.072L293.715 335.954L292.537 338.339L291.358 339.532H290.18V337.146L289.001 335.954L286.644 337.146V334.761L287.822 332.375L284.287 329.99L280.751 331.183L279.572 332.375V333.568H278.394V334.761L280.751 343.1V344.293H285.465V345.485L286.644 346.678L293.715 345.485L299.608 346.678L297.251 350.257L293.715 353.835L292.537 356.22L290.18 353.835H289.001L286.644 355.028H284.287L277.215 366.955L273.68 370.534V372.919H272.501V374.112L273.68 375.305V377.691H274.858L276.037 376.498L279.572 377.691L283.108 381.269L280.751 382.462L278.394 386.04H279.572L284.287 387.233L289.001 386.04L290.18 382.462V380.076L291.358 378.883H292.537L293.715 377.691H294.894L299.608 380.076L303.144 382.462L300.787 377.691L298.429 374.112L300.787 371.727H303.144L300.787 370.534L298.429 368.148H299.608L301.965 365.763L300.787 364.57H305.501V365.763L306.679 366.955L310.215 368.148L312.572 369.341V370.534L313.751 371.727L314.929 370.534H318.465L322.001 371.727V369.341L320.822 366.955L323.179 365.763V363.377L319.644 360.992L314.929 357.413L318.465 353.835L319.644 351.449V350.257H320.822L322.001 349.064H324.358L325.536 344.293V338.329L324.358 335.943V334.75L323.179 333.557L320.822 332.365H319.644L318.465 333.557L312.572 329.979L306.679 325.208V324.015H304.322L303.144 325.219ZM400.901 315.676L396.187 316.869L393.83 319.255H392.651L390.294 318.062H384.401L383.223 316.869H382.044L379.687 318.062L378.508 320.448H374.973L371.437 319.255V319.277V320.448L370.258 322.833V327.604L367.901 328.797H363.187V327.604H359.651L357.294 328.797L354.937 333.568L353.759 339.532V340.725H354.937L353.759 341.918H351.401L350.223 344.303V349.074L354.937 351.46V356.231H358.473V357.424L359.651 358.617L360.83 357.424L362.009 358.617L364.366 362.195L365.544 365.773L366.723 366.966L369.08 368.159H370.258L371.437 371.737L373.794 376.508H374.973V375.316L376.151 376.508V377.701H377.33L379.687 378.894L382.044 381.28L383.223 383.665H385.58L386.758 382.472V380.087H387.937L390.294 378.894L389.115 377.701V376.508H390.294L391.473 375.316L390.294 374.123L391.473 372.93L393.83 371.737V370.544L395.008 369.352H396.187V366.966L397.365 365.773H398.544V362.195L400.901 363.388L404.437 362.195L403.258 353.856V352.631H399.722L398.544 351.439L399.722 350.246L402.08 349.053V341.896L409.151 337.125L410.329 338.318L411.508 340.704L410.329 341.896V344.282H412.687L417.401 346.667L420.937 349.053L422.115 347.86H424.472L432.712 350.246L442.117 346.672L442.13 346.667L439.772 344.282H436.237L433.88 341.896L430.344 339.511L427.987 338.318V332.354H426.808L424.451 329.968L425.63 328.776V327.583L424.451 326.39H423.273L422.094 321.619L419.737 318.041L418.558 316.848H417.38L416.201 315.655L412.666 314.462H409.13L407.951 313.27L406.773 310.884H404.416L403.237 312.077L400.901 315.676Z" fill="#B01736"/>
<path d="M442.117 346.667L432.699 350.245L424.459 347.859H422.102L420.924 349.052L417.388 346.667L412.674 344.281H410.317V341.895L411.495 340.703L410.317 338.317L409.138 337.124L402.067 341.895V349.052L399.71 350.245L398.531 351.438L399.71 352.63H403.245V353.823L404.424 362.162L400.888 363.355L398.531 362.162V365.741H397.352L396.174 366.933V369.319H394.995L393.817 370.512V371.704L391.46 372.897L390.281 374.09L391.46 375.283L390.281 376.476H389.103V377.668L390.281 378.861L387.924 380.054H386.745V382.439L389.103 386.018L387.924 391.982V394.367H389.103L385.567 399.139L386.745 401.524L389.103 403.91H390.281L391.46 402.717H392.638V403.91H393.817V402.685L394.995 401.492V409.831L397.352 408.638V407.445L399.71 408.638L403.245 412.217H405.602V413.409L404.424 414.602L402.067 413.409L399.71 416.988L400.888 419.373L403.245 418.181L409.138 421.759H410.317L415.031 419.373H418.567L420.924 416.988H423.281L424.459 413.409L425.638 411.024L426.816 409.831V408.638L425.638 405.06L424.459 402.674L425.638 396.71L427.995 394.325L426.816 393.132V390.746H429.174L431.531 388.361L433.888 387.168H438.602V384.782L437.424 382.397L438.602 380.011L440.959 378.818V376.433L442.138 374.047V372.855L443.298 370.506L443.316 370.469L442.138 369.276L440.959 366.891L442.138 365.698V363.312L440.959 360.927V356.156L439.781 354.963V353.77H440.959V350.192H442.138L442.117 346.672L442.117 346.667Z" fill="#B01736"/>
<path d="M353.777 252.5V248.922L352.599 247.729V246.536L350.242 247.729V248.922L346.706 253.693L344.349 258.464V260.85L332.563 272.778L327.849 275.163L324.313 278.741L326.67 284.705L324.313 288.284V293.055L320.778 296.633L314.885 297.826L313.706 301.404V303.79H310.171L307.813 301.404L305.456 303.79L303.099 307.368H297.206L294.849 308.561V309.754L293.671 313.332L291.314 315.718V319.296H292.492L293.671 320.489L298.385 322.875L301.921 325.26H303.099L304.278 324.067H306.635V325.26L312.528 330.031L318.421 333.61L319.599 332.417H320.778L323.135 333.61L324.313 334.803V335.995L325.492 338.381L325.507 338.371V338.328L329.042 335.943L332.578 334.75L334.935 335.943L337.292 338.328H339.649L343.185 341.907L346.721 339.521H352.613L352.587 339.574H352.599L351.42 341.959H353.777L354.956 340.766H353.777V339.574L354.956 333.61L357.313 328.839L359.67 327.646H363.206V328.839H367.92L370.277 327.646V322.875L371.456 320.489V319.296L371.437 319.277L370.277 318.103V304.993L363.206 300.222L365.563 290.68V288.294L363.206 287.102V283.523L364.384 281.138L365.563 276.367L367.92 271.595L365.563 268.017L364.384 265.632L360.849 257.271L353.777 252.5Z" fill="#B01736"/>
<path d="M522.2 129.739V124.968L523.378 121.39V119.004L522.2 117.811L521.021 121.39L519.843 127.354L516.307 130.932L510.414 132.125L509.236 133.318H508.057L506.879 135.703L503.343 139.282V140.474L504.521 141.667V142.86L503.343 145.246L504.521 150.017V154.788L498.629 160.752L497.45 164.33L495.093 169.101V173.872L493.914 176.258L492.736 179.836H496.272L498.629 182.222L500.986 181.029H503.343L510.414 185.8L513.95 192.957V194.15L512.771 195.343L513.95 198.921V202.499H511.593L508.057 204.885L506.879 208.463L511.593 213.234L515.128 215.62H512.771L510.414 214.427L508.057 215.62H506.879V212.042L505.7 209.656V208.463L506.879 206.078V203.692L509.236 201.307H508.057V200.114L509.236 198.921V194.15L508.057 191.764V186.993H495.103L492.746 190.571L491.568 192.957V196.535L489.211 204.874L486.854 207.26L483.318 208.453L482.139 212.031L479.782 214.417L476.247 215.609L472.711 217.995L470.354 216.802L469.175 217.995L466.818 221.573H463.282V220.38L462.104 219.188L457.39 217.995L453.854 215.609L451.497 214.417L450.318 212.031L449.14 208.453V204.874L453.854 207.26L459.747 209.645L458.568 210.838H456.211V212.031L459.747 214.417H464.461V212.031L465.639 209.645H466.818L469.175 208.453L470.354 207.26H471.532V204.874L480.961 200.103L482.139 196.525V194.139L485.675 191.754L488.032 188.175L485.675 183.404L484.496 176.247L488.032 170.283L490.389 164.32L492.746 157.163L495.103 154.777L498.639 147.62L497.461 141.657V135.693L502.175 130.921L509.246 119.004V115.426L506.889 111.847L500.996 109.462L496.282 107.076H495.103L496.282 105.884H495.103V104.691L489.211 111.847L483.318 120.186L473.9 127.343L466.829 130.921H468.007L466.829 133.307H465.65L464.471 135.693H466.829L468.007 136.885L465.65 140.464L463.293 145.235V147.62L462.114 150.006L460.936 148.813H459.757L457.4 151.199L456.222 154.777V155.97L457.4 154.777H458.579L460.936 159.548H462.114V161.934L460.936 163.127V169.091L463.293 171.476V172.669L456.222 181.008H453.864L455.043 179.815V178.622L452.686 176.237L451.507 167.898L450.139 168.036L449.939 167.238L449.413 166.439L450.76 166.396L450.276 165.097L449.15 164.33L449.813 162.349L446.804 158.366L442.089 154.788L437.375 159.559L439.732 163.137L440.911 164.33V166.716L437.375 171.487H436.197L435.018 176.258L437.375 179.836L438.554 183.415L433.839 185.8L427.947 189.379L426.768 190.571L425.589 192.957H420.875L416.161 194.15H412.625L410.268 196.535V197.728L406.733 198.921L403.197 202.499L400.84 201.307H397.455C397.915 202.704 398.022 203.488 398.483 204.885V207.271L399.661 209.656V210.849L397.304 214.427L396.126 218.006H393.768L392.59 220.391L393.768 222.777L397.304 223.969L396.126 226.355L397.304 228.741H400.84L402.018 229.934L404.375 228.741H406.733V229.934L407.911 231.126L409.09 229.934H410.268L413.804 231.126L417.34 233.512L418.518 234.705L420.875 235.897L419.697 237.09L417.34 238.283L419.697 241.861L423.232 245.44L427.947 243.054L431.482 244.247H432.661L433.839 243.054H436.197V244.247L437.375 245.44H438.554L440.911 247.825L439.732 249.018L438.554 251.404V254.982L439.732 257.368L442.089 259.753V268.092L447.982 269.285L453.875 268.092L456.232 271.67L457.411 275.249L459.768 277.634L462.125 278.827L468.018 280.02L472.732 283.598L478.625 287.177L479.803 291.948L482.16 294.333H490.4L495.114 296.719L502.185 294.333L506.9 291.948H508.078V295.526L511.614 299.105H516.328L521.042 306.261H525.757L528.114 308.647L530.471 313.418L536.364 308.647L539.899 303.876L541.078 301.49V300.297L542.256 299.105L543.435 296.719L541.078 295.526L539.899 294.333V291.948L541.078 290.755H543.435L548.149 283.598L549.328 276.442L548.149 272.863L545.792 274.056L543.435 272.863L542.256 270.478H539.899L538.721 266.899H539.899L541.078 264.514V256.175L537.542 254.982L536.364 251.404V243.065L537.542 238.294L536.364 232.33L535.185 228.751L534.006 227.559V226.366L535.974 224.917L537.058 223.022L535.185 221.605V216.834L539.899 214.449L542.256 208.485L544.614 194.182L542.256 191.796V190.603L541.078 189.411L538.721 191.796H535.185L532.828 189.411L529.292 187.025L528.114 183.447L526.935 181.061V177.483L529.292 176.29V175.097H530.471L535.185 171.519L537.542 169.133L539.899 170.326H542.256L543.435 164.362V158.398L538.721 153.627V148.856H542.256L544.614 146.47V142.892L539.899 138.121L537.542 133.35H534.006L530.471 135.735H532.828L534.006 138.121V140.506L529.292 139.313L528.114 135.735L523.399 136.928L522.221 141.699L523.399 146.47L525.757 150.049H528.114L530.471 152.434L529.292 158.398L526.935 153.627L519.864 150.049L513.971 145.278L515.15 144.085L517.507 139.313L516.328 136.928L519.864 133.35L522.2 129.739Z" fill="#B01736"/>
<path d="M332.563 334.803L329.028 335.995L325.507 338.371V344.292L324.328 349.063H321.971L320.792 350.256H319.614V351.449L318.435 353.834L314.9 357.413L319.614 360.991L323.149 363.377V365.762L320.792 366.955L321.971 369.341V371.726L333.757 374.112L336.114 375.305L337.292 376.497L339.649 374.112H342.006L345.542 375.305L346.721 376.497L365.557 378.883L367.914 376.497H369.092L371.449 377.69L372.628 376.497H373.807L371.449 371.726L370.271 368.148H369.092L366.735 366.955L365.557 365.762L364.378 362.184L362.021 358.605L360.842 357.413L359.664 358.605L358.485 357.413V356.22H354.95V351.449L350.235 349.063V344.292L351.414 341.907L352.587 339.574H346.706L343.17 341.959L339.635 338.381H337.277L334.92 335.995L332.563 334.803Z" fill="#B01736"/>
<path d="M445.652 372.888L448.009 374.081L462.12 378.916L461.015 380.151L469.212 384.805L475.105 394.337L483.344 395.53L484.523 400.301H491.594L492.773 401.494V400.301L493.951 399.108H497.487L498.666 401.494L497.487 402.686V407.479L495.13 409.864L496.309 411.057L497.024 411.771L497.487 412.239L499.844 411.047L501.023 407.468L502.201 408.661L508.073 408.651H510.43L512.787 407.458L513.966 408.651H515.144L518.68 405.072H519.859L521.037 406.265L522.216 405.072H530.455L531.644 403.89L536.359 406.276L539.894 403.89L544.584 404.018L545.763 400.439L548.12 395.668H550.382L551.561 394.475V392.09H552.739V390.897L550.382 384.933L545.668 380.162V376.584L546.847 373.005L550.382 370.62L552.739 369.427L550.382 365.849L546.847 364.656L545.668 362.27V358.692L543.311 356.306H542.132L540.954 355.113V353.921L538.597 352.728L535.061 351.535L530.347 350.342L525.485 351.461L520.929 349.16V333.665L530.347 331.279L538.586 326.508L536.229 324.122L531.515 321.737L530.471 313.418L528.114 308.647L525.757 306.261H521.042L516.328 299.105H511.614L508.078 295.526V291.948H506.9L502.185 294.333L495.114 296.719L490.4 294.333H482.16L479.803 291.948L478.625 287.177L472.732 283.598L468.018 280.02L462.125 278.827L459.768 277.634L457.411 275.249L456.232 271.67L453.875 268.092L447.982 269.285L442.089 268.092V259.753L439.732 257.368L438.554 254.982V251.404L439.732 249.018L440.911 247.825L438.554 245.44H437.375L436.197 244.247V243.054H433.839L432.661 244.247H431.482L427.947 243.054L423.232 245.44L419.697 241.861L417.34 238.283L419.697 237.09L420.875 235.897L418.518 234.705L417.34 233.512L413.804 231.126L410.268 229.934H409.09L407.911 231.126L406.733 229.934V228.741H404.375L402.018 229.934L400.84 228.741H397.304L396.126 226.355L397.304 223.969L393.768 222.777L392.59 220.391L393.768 218.006H396.126L397.304 214.427L399.661 210.849V209.656L398.483 207.271V204.885C398.022 203.488 397.915 202.704 397.455 201.307L395.055 202.48L391.519 203.673V204.865L384.448 208.444L383.27 206.058C383.27 206.058 383.479 205.281 383.27 204.865C382.855 204.041 380.912 204.865 380.912 204.865L378.555 206.058H377.377L376.198 207.251L373.841 208.444L372.662 209.637L371.484 216.793L362.055 226.336L357.341 235.878V237.071L358.52 238.263L357.341 240.649H354.984L353.806 244.227L352.599 246.536V247.729L353.777 248.922V252.5L360.849 257.271L364.384 265.632L365.563 268.017L367.92 271.595L365.563 276.367L364.384 281.138L363.206 283.523V287.102L365.563 288.294V290.68L363.206 300.222L370.277 304.993V318.103L371.437 319.277V319.255L374.973 320.448H378.508L379.687 318.062L382.044 316.869H383.223L384.401 318.062H390.294L392.651 319.255H393.83L396.187 316.869L400.901 315.676L403.237 312.077L404.416 310.884H406.773L407.951 313.27L409.13 314.462H412.666L416.201 315.655L417.38 316.848H418.558L419.737 318.041L422.094 321.619L423.273 326.39H424.451L425.63 327.583V328.776L424.451 329.968L426.808 332.354H427.987V338.318L430.344 339.511L433.88 341.896L436.237 344.282H439.772L442.13 346.667L442.117 346.672L442.138 350.192H440.959V353.77H439.781V354.963L440.959 356.156V360.927L442.138 363.312V365.698L440.959 366.891L442.138 369.276L443.316 370.469L443.298 370.506L445.652 372.888Z" fill="#B01736"/>
<path d="M506.889 98.748H504.532L498.639 101.134V104.712L503.353 105.905L506.889 104.712V98.748Z" fill="#B01736"/>
<path d="M523.378 114.244L518.664 113.051L519.843 116.629H521.021L522.2 114.244H523.378Z" fill="#B01736"/>
<path d="M535.164 132.114L536.343 130.921V128.536L535.164 127.343L529.271 129.729L533.985 132.114H535.164Z" fill="#B01736"/>
</g>
<g opacity="0.2">
<path d="M541.051 124.97L542.23 127.355H545.766V120.198L541.051 124.97ZM716.531 72.5188L717.709 73.7116V74.9044L720.066 76.0971L718.888 72.5188L717.709 71.326L716.531 72.5188ZM642.334 78.4827L639.977 77.2899L641.155 79.6755L643.512 80.8683V78.4827H642.334Z" fill="#B01736"/>
<path d="M483.327 490.909L489.22 501.645L491.577 508.801L492.755 509.994H493.934L496.291 511.187L497.47 512.38L502.184 511.187L505.72 509.994V511.187L504.541 512.38L510.434 520.718H515.148L517.505 519.526L518.684 517.14L524.577 518.333H528.112L529.291 517.14H530.469L531.648 518.333L534.005 514.755L535.126 512.359L539.84 511.166H544.554V508.78L545.733 506.395L551.625 507.588L556.34 505.202H561.054V504.009L562.232 502.816H563.411V504.009H564.59V505.202H565.768L568.125 504.009V506.395L569.304 508.78H574.018L579.911 509.973L581.089 513.551L582.268 518.323L591.696 520.708H592.875L594.053 519.515L599.946 521.901H602.303L605.839 523.094L608.196 525.479L616.436 520.708L618.793 513.551H617.614L616.436 511.166V507.588L615.257 506.395L617.614 500.431L621.15 495.66H622.328L625.864 492.081L627.016 489.749L628.175 490.921L630.532 492.114L638.771 496.885L645.843 500.463H647.021L648.2 501.656L652.914 502.849L656.45 504.042V511.199L663.521 519.537L674.118 521.923L683.536 519.537L685.893 518.345H687.071L696.5 520.73H700.035L703.571 523.116L705.928 525.501H708.285L710.642 526.694L717.667 533.893L734.146 536.279H735.324L736.503 535.086L737.681 536.279H740.039L742.396 535.086L745.931 532.7L762.41 527.929L764.767 523.158L773.007 516.002L778.9 517.194L783.614 519.58H788.328L795.399 518.387L801.292 521.965L809.532 523.158L811.889 519.58L815.424 516.002L818.96 513.616L821.317 511.23V508.845H820.139V507.652L822.496 498.12L824.853 487.396L828.389 482.625L830.746 477.854L828.389 475.468V473.082L827.21 471.89L823.674 473.082L822.496 469.504L823.674 467.119L827.21 463.54V462.347L828.389 461.155L833.103 458.769L838.956 454.562L836.599 450.983L833.063 447.405L834.242 445.019V441.441L836.599 439.055L833.063 436.67H831.885L830.706 435.477L833.063 429.513L830.706 423.549L828.349 424.742H827.171L825.992 421.164L823.635 417.585L820.099 418.778L817.742 419.971V421.164H816.564L814.206 418.778V416.558H815.553L816.697 415.166L811.859 412.731L810.756 411.585L810.671 409.236H809.492V405.002L805.996 400.322L804.817 395.551H803.639L802.46 396.744L800.21 392.079V384.923L799.032 382.537V381.344L797.853 380.151L796.675 377.766V374.188L795.496 371.802V369.416L794.318 367.031H782.532V364.645L781.354 363.452V361.067L778.996 359.874L776.639 357.489L773.104 356.296H768.389L764.854 359.874H762.497L760.139 361.067L758.961 364.645L757.782 367.031H755.425L750.711 374.188L744.818 380.151L745.997 376.573L743.64 375.38L742.461 372.995V371.802L738.925 375.38H731.854V376.573H730.675L727.14 375.38L725.961 377.766L720.068 378.959H717.711L716.533 374.188V368.224L718.89 365.838V362.26L721.247 355.103L723.604 349.139L720.068 345.561L718.89 339.597L721.247 337.211L722.426 334.826L720.068 331.247L717.711 328.862L717.68 322.674L716.533 314.559L712.997 310.98L709.461 309.788L711.818 306.209L712.997 305.016L711.818 301.438L710.64 299.052H702.401L697.686 297.86L695.329 295.474H692.972L690.623 290.735L692.98 287.157V283.578L695.337 280L696.516 278.807L697.695 276.422L697.679 276.405L692.98 271.65L691.802 269.265V269.25L691.793 269.233V263.284L690.623 260.915V260.9L690.615 260.883V252.568L688.266 250.191L688.278 250.179L688.258 250.159L690.615 247.773L694.151 245.388L695.329 232.278V215.609L692.98 212.043L692.973 212.012L692.972 212.011L691.793 207.24V206.047L692.972 203.661H694.151V202.469L696.508 203.661H698.844L701.201 201.276L704.737 200.083L708.272 201.276H710.629L712.987 197.697V192.926L715.344 191.734L716.522 190.541V188.155L717.701 184.577L727.129 177.42V176.227L725.951 172.649L723.594 167.878V163.107L722.415 158.336L720.058 155.95L717.701 154.757L716.522 153.564V149.986L715.344 148.793L714.165 144.022L715.344 139.251L714.165 138.058V134.48L712.995 134.48L711.816 133.287L714.173 130.902L715.352 127.323L716.531 126.13V123.745L717.709 122.552L715.352 123.745L714.173 124.938L711.816 123.745L708.281 126.13V129.709H710.638L714.173 128.516V129.709L712.995 130.902H711.816L709.459 134.48L707.102 135.673L705.923 134.48L704.745 136.865L702.388 138.058V141.637L700.031 140.444L698.852 139.251V140.444H690.623L689.445 144.022L685.909 147.601H684.73L685.909 145.215L688.266 142.829V140.444L689.445 138.058L692.98 136.865L694.159 133.287L692.98 132.094L691.213 131.2L689.445 130.902H690.623L691.213 131.2L696.516 132.094L701.23 127.323H702.409L704.766 122.552L709.48 117.781L710.659 114.202L717.73 109.431V108.239L718.909 107.046L721.266 103.467L724.801 99.8891L725.98 93.925L723.623 92.7323L722.444 90.3467V91.5395L721.266 92.7323V89.1539H722.444L724.801 90.3467V92.7323L725.98 90.3467V84.3828H723.623V80.8044L721.266 78.4189L721.245 80.8683V82.0611L720.066 79.6755V77.2899L718.888 76.0971H716.531L711.816 68.9405L710.638 70.1332L709.459 68.9405H708.281V70.1332H702.388L700.031 71.326L698.852 70.1332H697.695L696.516 71.326L694.159 76.0971H690.623L692.98 70.1332V65.3621H685.909L687.088 64.1693V62.9765L683.552 64.1693L681.195 62.9765L683.552 61.7838L687.088 58.2054H688.266L689.445 57.0126L687.088 54.6271L683.552 53.4343L682.373 52.2414V51.0486H680.016L677.659 52.2414H676.48L669.409 60.5803L664.695 68.9191L665.873 70.1119V73.6903L658.802 76.0758L657.624 74.883H655.266V76.0758L657.624 79.6543L658.802 82.0399H656.445L655.266 79.6543L652.909 80.8471H651.731V82.0399L650.552 83.2327H649.374V84.4254H645.838L644.659 85.6182H643.481V84.4254L642.302 83.2327L639.945 84.4254L638.767 85.6182L639.945 83.2327L641.124 82.0399L634.052 79.6543L626.981 80.8471L625.802 82.0399L628.16 83.2327H630.517V84.4254L628.16 85.6182H625.802L621.088 86.811L617.552 88.0038H610.481L603.41 91.5821L601.053 93.9677H593.981L595.16 95.1605L597.517 96.3533L596.338 97.546L593.981 98.7388L592.803 101.124V103.51L590.446 101.124L586.91 99.9316V101.124L592.803 107.088L591.624 108.281L589.267 105.896L588.088 107.088H585.731L591.624 113.052L590.446 114.245V121.402H589.267L586.91 122.595H585.731L589.267 119.016V117.823L584.553 116.631L581.017 117.823H575.124L560.982 115.438H557.446L555.089 114.245V115.438L553.91 117.823L552.732 119.016L553.91 120.209V121.402H552.732V123.787L553.91 124.98L552.732 128.559L551.553 130.944V133.33L550.375 134.522L553.91 138.101L557.446 140.486V147.643L560.982 150.029L562.16 154.8L557.446 161.957L558.624 164.342L557.446 175.067L552.732 177.452L556.267 185.791L557.446 190.562H556.267V189.369L553.91 188.177L552.732 186.984V182.213L551.553 179.827L550.375 178.634L555.089 166.717L553.91 164.331L551.553 163.139L552.732 161.946V159.56L556.267 157.175L559.803 152.404L556.267 150.018L550.375 148.825L548.017 141.669L544.482 136.897L540.946 133.319H537.41L539.767 138.09L544.482 142.861V146.44L542.125 148.825H538.589V153.596L543.303 158.368V164.331L542.125 170.295H539.767L537.41 169.103L535.053 171.488L530.339 175.067H529.16V176.259L526.803 177.452V181.031L527.982 183.416L529.16 186.994L532.696 189.38L535.053 191.766H538.589L540.946 189.38L542.125 190.573V191.766L544.482 194.151L542.125 208.454L539.767 214.418L535.053 216.803V221.575L536.926 222.991L535.842 224.887L533.875 226.335V227.528L535.053 228.721L536.232 232.299L537.41 238.263L536.232 243.034V251.373L537.41 254.951L540.946 256.144V264.494L539.767 266.879H538.589L539.767 270.458H542.125L543.303 272.843L545.66 274.036L548.017 272.843L549.196 276.422L548.017 283.578L543.303 290.735H540.946L539.767 291.928V294.313L540.946 295.506L543.303 296.699L542.125 299.085L540.946 300.277V301.47L539.767 303.856L536.232 308.627L530.339 313.398L531.518 321.737L536.232 324.122L538.589 326.508L530.35 331.279L520.932 333.665V349.16L525.488 351.461L530.35 350.342L535.064 351.535L538.599 352.728L540.957 353.921V355.114L542.135 356.306H543.314L545.671 358.692V362.27L546.849 364.656L550.385 365.849L552.742 369.427L550.385 370.62L546.849 373.005L545.671 376.584V380.162L550.385 384.933L552.742 390.897V392.09H551.564V394.476L550.385 395.668H548.123L545.766 400.44L544.587 404.018L539.897 403.89L536.361 406.276L531.647 403.89L530.458 405.073H522.219L521.04 406.265L519.861 405.073H518.683L515.147 408.651H513.969L512.79 407.458L510.433 408.651L508.319 408.533L506.897 411.036V412.229L508.076 415.808V419.386L509.254 420.579L506.897 425.35L508.076 427.736V430.121L506.897 431.314L505.719 433.699L502.18 436.042L501.001 437.235L496.298 437.256H491.583V439.642H490.405L489.226 437.256L483.333 440.835L479.798 444.413L475.083 437.256L476.262 436.063L475.083 434.871H473.905V432.485L472.726 431.292L471.548 427.714V426.521L464.476 428.907L456.237 432.485L455.058 433.678H451.523L447.987 432.485H445.63L443.273 433.678V432.485L442.094 431.292L438.559 434.871L446.798 477.779L451.512 476.586V474.201H453.869V473.008L455.048 471.815L457.405 477.779L459.762 482.55L464.476 483.743L466.834 484.936H471.548V483.743H475.083L476.262 482.55L480.976 486.129L483.327 490.909Z" fill="#B01736"/>
</g>
</svg>
